<svg width="16" height="16" fill="none" xmlns="http://www.w3.org/2000/svg"><path fill-rule="evenodd" clip-rule="evenodd" d="M5.333 9c0-.369.299-.667.667-.667h4a.667.667 0 110 1.333H6A.667.667 0 015.333 9zm0 2.5c0-.368.299-.667.667-.667h2a.667.667 0 010 1.333H6a.667.667 0 01-.667-.666z" fill="#9A9CA5"/><path fill-rule="evenodd" clip-rule="evenodd" d="M6.029 1.028A.667.667 0 016.5.833H11A2.667 2.667 0 0113.667 3.5v9A2.667 2.667 0 0111 15.166H5A2.667 2.667 0 012.333 12.5V5c0-.177.07-.347.196-.472l3.5-3.5zm.304 1.581v2.224H4.11l2.223-2.224zM3.667 6.166V12.5c0 .736.597 1.333 1.333 1.333h6c.737 0 1.334-.597 1.334-1.333v-9c0-.737-.597-1.334-1.334-1.334H7.667V5.5A.667.667 0 017 6.166H3.667z" fill="#9A9CA5"/></svg>