<svg width="550" height="502" fill="none" xmlns="http://www.w3.org/2000/svg"><path d="M204.376 14.502l-38.287 36.84-38.48 207.671h360.947L204.376 14.502z" fill="#FFCF2D"/><path d="M165.76 51.054l38.403-36.956-6.423-6.654c-9.461-9.798-26.505-8.68-36.333.733-9.828 9.432-11.55 26.424-2.089 36.222l6.442 6.655z" fill="#fff"/><path d="M165.741 51.863l39.234-37.746-6.829-7.079c-4.604-4.783-11.163-7.271-18.476-7.02-7.003.25-13.813 3.066-18.688 7.734-4.876 4.667-7.952 11.36-8.455 18.342-.522 7.272 1.741 13.907 6.346 18.69l6.868 7.079zm37.609-37.785l-37.571 36.145-6.036-6.23c-4.391-4.532-6.519-10.859-6.036-17.802.484-6.712 3.425-13.116 8.106-17.59 4.682-4.475 11.202-7.176 17.915-7.407 6.965-.25 13.214 2.121 17.586 6.654l6.036 6.23z" fill="#FFCF2D"/><path d="M159.337 44.977c.155 0 .29-.058.406-.155l38.422-36.955a.574.574 0 00.02-.81.58.58 0 00-.813-.02L158.95 43.994a.575.575 0 00-.019.81.527.527 0 00.406.174z" fill="#FFCF2D"/><path d="M85.124 258.01a.511.511 0 00.233-.058.585.585 0 00.29-.771l-53.88-119.816L137.108 9.526v-.02c1.993-2.7 4.914-4.435 8.242-4.918a12.297 12.297 0 019.305 2.43l4.295 3.28a.57.57 0 00.813-.116.565.565 0 00-.116-.81l-4.295-3.28a13.546 13.546 0 00-10.176-2.642c-3.637.521-6.83 2.411-8.996 5.362L30.413 137.192l.154.328 54.035 120.143a.59.59 0 00.522.347z" fill="#3FB1B5"/><path d="M32.811 143.826c-3.27 0-5.92-2.643-5.92-5.902 0-3.26 2.65-5.903 5.92-5.903s5.92 2.643 5.92 5.903c0 3.259-2.65 5.902-5.92 5.902z" fill="#fff"/><path d="M32.811 144.405c3.58 0 6.5-2.913 6.5-6.481s-2.92-6.481-6.5-6.481c-3.579 0-6.5 2.913-6.5 6.481s2.921 6.481 6.5 6.481zm0-11.804c2.941 0 5.34 2.391 5.34 5.323 0 2.932-2.399 5.323-5.34 5.323-2.94 0-5.34-2.391-5.34-5.323 0-2.932 2.4-5.323 5.34-5.323z" fill="#FFCF2D"/><path d="M100.137 244.006H71.291c-8.3 0-15.012 6.712-15.012 14.967v.424h58.89v-.424c-.019-8.255-6.732-14.967-15.032-14.967z" fill="#fff"/><path d="M55.698 259.977h60.052v-1.003c-.02-8.564-7.023-15.546-15.613-15.546H71.291c-8.59 0-15.593 6.982-15.593 15.546v1.003zm58.891-1.158h-57.73c.077-7.869 6.52-14.234 14.432-14.234h28.846c7.893 0 14.355 6.365 14.452 14.234z" fill="#FFCF2D"/><path d="M239.876 215.595h182.612c6.868 0 12.42-5.535 12.42-12.382V75.875c0-6.847-5.552-12.383-12.42-12.383H239.876c-6.868 0-12.42 5.536-12.42 12.383v127.318c-.019 6.847 5.552 12.402 12.42 12.402z" fill="#fff"/><path d="M239.876 216.174h182.611c7.178 0 13.001-5.805 13.001-12.961V75.875c0-7.155-5.823-12.96-13.001-12.96H239.876c-7.177 0-13 5.805-13 12.96v127.319c-.02 3.452 1.334 6.712 3.791 9.161a12.894 12.894 0 009.209 3.819zM422.487 64.071c6.52 0 11.84 5.305 11.84 11.804v127.338c0 6.5-5.32 11.804-11.84 11.804H239.876a11.811 11.811 0 01-8.396-3.472c-2.225-2.237-3.463-5.207-3.444-8.351V75.875c0-6.5 5.321-11.804 11.84-11.804h182.611z" fill="#3FB1B5"/><path d="M239.76 203.752h180.851a4.852 4.852 0 004.856-4.841V77.089c0-2.68-2.186-4.841-4.856-4.841H239.76a4.852 4.852 0 00-4.856 4.841v121.802c-.019 2.681 2.167 4.861 4.856 4.861z" fill="#66B0F0"/><path d="M239.76 204.331h180.851c2.998 0 5.436-2.43 5.436-5.42V77.09c0-2.99-2.438-5.42-5.436-5.42H239.76c-2.998 0-5.436 2.43-5.436 5.42v121.802a5.295 5.295 0 001.567 3.838c1.045 1.022 2.399 1.601 3.869 1.601zM420.611 72.827a4.27 4.27 0 014.275 4.263v121.82a4.27 4.27 0 01-4.275 4.263H239.76a4.28 4.28 0 01-3.037-1.254 4.19 4.19 0 01-1.238-3.009V77.09a4.27 4.27 0 014.275-4.263h180.851z" fill="#66B0F0"/><path d="M414.13 84.207h2.863a2.283 2.283 0 002.283-2.276v-2.854a2.283 2.283 0 00-2.283-2.276h-2.863a2.283 2.283 0 00-2.283 2.276v2.854c.019 1.273 1.025 2.276 2.283 2.276zm2.863-6.249c.619 0 1.122.502 1.122 1.119v2.854a1.12 1.12 0 01-1.122 1.119h-2.863c-.619 0-1.103-.501-1.122-1.138v-2.835c0-.617.503-1.119 1.122-1.119h2.863zm-15.883 6.249h2.863a2.284 2.284 0 002.283-2.276v-2.854a2.284 2.284 0 00-2.283-2.276h-2.863a2.283 2.283 0 00-2.283 2.276v2.854a2.283 2.283 0 002.283 2.276zm2.863-6.249c.619 0 1.122.502 1.122 1.119v2.854a1.12 1.12 0 01-1.122 1.119h-2.863a1.121 1.121 0 01-1.122-1.119v-2.854c0-.617.503-1.119 1.122-1.119h2.863zm-15.884 6.249h2.864a2.284 2.284 0 002.283-2.276v-2.854a2.284 2.284 0 00-2.283-2.276h-2.864a2.283 2.283 0 00-2.282 2.276v2.854a2.283 2.283 0 002.282 2.276zm2.864-6.249c.619 0 1.122.502 1.122 1.119v2.854a1.12 1.12 0 01-1.122 1.119h-2.864a1.097 1.097 0 01-1.122-1.119v-2.854c0-.617.503-1.119 1.122-1.119h2.864zm-98.319 181.054h70.886l-13.911-43.416h-43.045l-13.93 43.416z" fill="#fff"/><path d="M291.841 259.592h72.472l-14.278-44.574h-43.897l-14.297 44.574zm70.886-1.158h-69.299l13.561-42.259h42.195l13.543 42.259z" fill="#3FB1B5"/><path d="M357.948 241.634l-8.338-26.038h-43.046l51.384 26.038z" fill="#3FB1B5"/><path d="M250.285 112.773h34.456c3.54 0 6.423-2.874 6.423-6.403V84.189c0-3.53-2.883-6.404-6.423-6.404h-34.456c-3.541 0-6.423 2.874-6.423 6.404v22.181c0 3.529 2.882 6.403 6.423 6.403zm34.456-33.83c2.902 0 5.262 2.353 5.262 5.246v22.181c0 2.893-2.36 5.246-5.262 5.246h-34.456c-2.902 0-5.262-2.353-5.262-5.246V84.189c0-2.893 2.36-5.247 5.262-5.247h34.456z" fill="#fff"/><path d="M254.445 86.85h26.291a.57.57 0 00.581-.578.57.57 0 00-.581-.579h-26.291a.57.57 0 00-.581.579.57.57 0 00.581.579zm0 5.98h26.291a.57.57 0 00.581-.58.57.57 0 00-.581-.578h-26.291a.57.57 0 00-.581.579.57.57 0 00.581.578zm0 5.98h26.291a.57.57 0 00.581-.579.57.57 0 00-.581-.579h-26.291a.57.57 0 00-.581.579.57.57 0 00.581.579zm0 5.978h26.291a.57.57 0 00.581-.579.57.57 0 00-.581-.578h-26.291a.57.57 0 00-.581.578.57.57 0 00.581.579zm-13.678 98.965H377.72l8.029 11.476c9.074 12.961 28.246 13.154 37.571.366l48.908-67.063c-2.051 2.546-11.434-.29-20.372-6.153-9.074-5.96-14.935-13.463-13.098-16.24l-33.914 43.088-10.389-18.284a20.51 20.51 0 00-13.059-9.586l-35.346-7.465h-30.47l-33.586 7.388a20.58 20.58 0 00-13.6 10.396l-27.627 52.077z" fill="#fff"/><path d="M404.67 225.643c7.641 0 14.606-3.529 19.114-9.721l48.908-67.063-.929-.694c-1.644 2.025-10.37-.213-19.598-6.269-4.295-2.816-8.029-6.076-10.505-9.2-2.244-2.816-3.153-5.15-2.418-6.249l-.948-.676-33.373 42.414-9.963-17.532a21.127 21.127 0 00-13.427-9.856l-35.423-7.484h-30.587l-.058.019-33.585 7.387a21.173 21.173 0 00-13.988 10.686l-28.071 52.925H377.43l7.854 11.226c4.431 6.326 11.415 10.01 19.173 10.087h.213zm65.777-75.665l-47.611 65.269c-4.334 5.941-11.028 9.316-18.399 9.239-7.371-.077-14.006-3.568-18.224-9.586l-8.203-11.727H241.715l27.181-51.228a19.983 19.983 0 0113.214-10.107l33.527-7.368h30.355l35.288 7.445c5.301 1.235 9.924 4.629 12.672 9.316l10.814 19.037 33.16-42.124c.271 1.446 1.219 3.259 2.844 5.285 2.554 3.201 6.384 6.558 10.776 9.431 6.133 4.012 13.504 7.175 17.895 7.175a8.42 8.42 0 001.006-.057z" fill="#3FB1B5"/><path d="M278.357 203.539a.61.61 0 00.522-.309l9.731-19.152c.136-.29.039-.637-.251-.772-.291-.135-.639-.038-.774.251l-9.731 19.153c-.136.289-.039.636.251.771a.532.532 0 00.252.058zm100.137 1.794a.678.678 0 00.271-.058.559.559 0 00.251-.771l-9.634-18.96a.563.563 0 00-.774-.251.56.56 0 00-.252.772l9.635 18.96c.097.192.29.308.503.308zm17.47-24.109a.577.577 0 00.464-.231l22.074-28.141a.578.578 0 00-.096-.81.584.584 0 00-.813.096l-22.074 28.141a.578.578 0 00.097.81.493.493 0 00.348.135zm-76.999-27.389l8.493-10.319a.56.56 0 00-.078-.81.564.564 0 00-.812.077l-7.758 9.394-17.741-15.006a.575.575 0 10-.754.868l18.65 15.796zm22.055.367l20.449-16.144a.579.579 0 00.097-.81.583.583 0 00-.813-.097l-19.52 15.411-7.526-9.586a.583.583 0 00-.813-.096.578.578 0 00-.096.81l8.222 10.512zm121.902 4.745c1.838 0 2.805-.559 3.289-1.177a.58.58 0 00-.097-.81.584.584 0 00-.813.097c-.812 1.022-3.463.964-7.08-.116-3.85-1.157-8.494-3.433-12.711-6.23-4.314-2.854-8.067-6.153-10.563-9.316-2.264-2.854-3.173-5.208-2.438-6.326.174-.27.097-.617-.174-.81-.271-.174-.619-.097-.812.173-1.045 1.601-.155 4.321 2.495 7.677 2.573 3.24 6.423 6.635 10.834 9.547 4.373 2.893 8.996 5.169 13.02 6.384 2.186.656 3.831.907 5.05.907z" fill="#3FB1B5"/><path d="M438.1 140.218a2.762 2.762 0 002.767-2.759 2.762 2.762 0 00-2.767-2.758 2.762 2.762 0 00-2.766 2.758 2.762 2.762 0 002.766 2.759zm0-4.36a1.6 1.6 0 110 3.202 1.6 1.6 0 110-3.202zm-107.953 18.055a2.762 2.762 0 002.767-2.758 2.762 2.762 0 00-2.767-2.759 2.762 2.762 0 00-2.766 2.759 2.762 2.762 0 002.766 2.758zm0-4.359a1.6 1.6 0 110 3.202c-.89 0-1.605-.714-1.605-1.601 0-.888.715-1.601 1.605-1.601zm0 21.91a2.762 2.762 0 002.767-2.759 2.762 2.762 0 00-2.767-2.758 2.762 2.762 0 00-2.766 2.758 2.762 2.762 0 002.766 2.759zm0-4.359c.89 0 1.606.713 1.606 1.6a1.6 1.6 0 01-1.606 1.601c-.89 0-1.605-.713-1.605-1.601 0-.887.715-1.6 1.605-1.6zm56.298 49.049l-8.725-12.402v12.402h8.725z" fill="#3FB1B5"/><path d="M452.068 141.801c8.938 5.863 18.321 8.698 20.372 6.152.039-.038.058-.077.097-.135.426-.636.387-1.504 0-2.565-1.335-3.491-6.849-8.892-13.852-13.482-5.572-3.665-11.066-6.211-14.878-7.002-2.205-.443-3.849-.308-4.643.54l-.193.232c-1.819 2.777 4.024 10.3 13.097 16.26z" fill="#FE5244"/><path d="M452.068 141.8c5.088 3.337 10.331 5.71 14.278 6.635l17.663-24.842c2.457-3.472 1.645-8.275-1.857-10.724l-15.903-11.149 9.016-15.295a4.64 4.64 0 00-4.005-7.001 4.658 4.658 0 00-3.927 2.14l-28.188 43.707-.194.308c-1.799 2.739 4.044 10.261 13.117 16.221z" fill="#E57281"/><path d="M461.258 123.881c.252 0 .503-.019.755-.077a3.6 3.6 0 002.321-1.582l9.306-13.887a.606.606 0 00-.155-.81.61.61 0 00-.813.154l-9.305 13.887c-.368.56-.929.946-1.587 1.081-.657.135-1.335 0-1.896-.367l-2.186-1.427a2.511 2.511 0 01-.754-3.453l9.847-15.218a.564.564 0 00-.174-.79.568.568 0 00-.793.173l-9.848 15.218a3.655 3.655 0 001.103 5.034l2.186 1.428a3.362 3.362 0 001.993.636z" fill="#9A3B82"/><path d="M468.474 128.491c1.199 0 2.38-.579 3.095-1.639.175-.27.097-.618-.174-.81-.271-.174-.619-.097-.812.173a2.54 2.54 0 01-3.463.733l-1.993-1.254a2.495 2.495 0 01-1.103-1.6c-.135-.676-.019-1.351.349-1.91.174-.27.096-.617-.175-.81-.27-.174-.619-.096-.812.174a3.65 3.65 0 00-.523 2.796 3.733 3.733 0 001.626 2.334l1.992 1.254a3.948 3.948 0 001.993.559z" fill="#9A3B82"/><path d="M475.555 132.811c1.161 0 2.302-.54 3.018-1.562l5.281-7.426c.194-.27.116-.617-.135-.81-.252-.193-.619-.115-.813.135l-5.281 7.426a2.525 2.525 0 01-3.405.675l-.039-.019-1.838-1.022a2.536 2.536 0 01-1.122-1.582 2.513 2.513 0 01.348-1.929l9.113-13.501a.587.587 0 00-.155-.81.591.591 0 00-.813.154l-9.112 13.502a3.641 3.641 0 00-.522 2.816 3.6 3.6 0 001.644 2.314l.019.019 1.838 1.023a3.519 3.519 0 001.974.597z" fill="#9A3B82"/><path d="M445.723 115.086l4.623-7.155a5.048 5.048 0 017.062-1.447l11.472 7.754s-3.327 5.96-11.414 1.234l-2.709 4.301c5.534 3.492 7.12 10.84 3.522 16.299l-12.556-20.986z" fill="#E57281"/><path d="M458.279 136.651a.574.574 0 00.483-.27c1.819-2.777 2.457-6.095 1.741-9.335a12.18 12.18 0 00-4.952-7.445l2.108-3.356c2.786 1.524 5.321 1.967 7.565 1.369 2.844-.771 4.121-3.008 4.179-3.086l.251-.463-11.298-7.869c-1.277-.849-2.786-1.157-4.276-.849a5.59 5.59 0 00-3.598 2.469l-4.624 7.156a.566.566 0 00.174.791.57.57 0 00.793-.174l4.624-7.156a4.354 4.354 0 012.864-1.948 4.38 4.38 0 013.385.675l10.389 7.233c-.464.598-1.509 1.678-3.173 2.122-2.05.559-4.449.039-7.138-1.524l-.484-.289-3.308 5.266.483.308a11.069 11.069 0 014.934 7.04 10.96 10.96 0 01-1.587 8.448c-.174.27-.096.617.174.81a.64.64 0 00.291.077z" fill="#9A3B82"/><path d="M452.068 141.801c5.088 3.336 10.331 5.709 14.278 6.635l4.392-6.172c-2.457-3.202-6.849-7.06-12.053-10.474-5.572-3.664-11.066-6.21-14.878-7.001-2.205-.444-3.85-.309-4.643.54l-.193.231c-.02.039-.039.058-.058.097-.02.019-.02.038-.039.077s-.039.058-.058.096c-1.316 2.952 4.469 10.184 13.252 15.971z" fill="#9A3B82"/><path d="M315.599 116.918v16.954c0 4.918 6.849 8.892 15.264 8.892 8.435 0 15.265-3.974 15.265-8.892v-16.954h-30.529z" fill="#E57281"/><path d="M341.659 140.16c2.766-1.601 4.488-3.839 4.488-6.288v-16.954h-30.548v4.706c0 4.88 2.979 9.258 7.506 11.091l18.554 7.445z" fill="#9A3B82"/><path d="M307.086 115.916v.289c0 2.932 2.38 5.304 5.321 5.304h3.501a10.936 10.936 0 0010.622 8.275h8.667c5.127 0 9.441-3.511 10.602-8.275h3.501c2.941 0 5.321-2.372 5.321-5.304v-.289c0-2.932-2.38-5.304-5.321-5.304h-3.172v-4.186c0-4.475-3.309-8.178-7.623-8.795-.948 1.582-3.811 5.362-9.654 5.15-2.747-.097-5.301-.618-7.41-1.235-2.534-.733-5.068.81-5.707 3.221a9.3 9.3 0 00-.154 1.64v4.185h-3.173c-2.922 0-5.321 2.392-5.321 5.324z" fill="#E57281"/><path d="M313.161 110.592h2.438v-4.648c0-.405.058-.81.155-1.176.638-2.411 3.173-3.954 5.707-3.222 2.109.618 4.643 1.138 7.41 1.235 5.842.212 8.706-3.568 9.654-5.15 4.314.617 7.622 4.321 7.622 8.795v4.186h3.037s3.483-12.557.871-16.106c-2.573-3.49-5.668-1.967-5.668-1.967s1.857-10.454-8.513-10.261c-10.35.193-23.815 12.17-24.802 14.37-1.548 3.375 2.089 13.944 2.089 13.944zm1.258 6.79a.477.477 0 00.483-.482c0-2.314-1.896-4.205-4.217-4.205a.479.479 0 00-.484.483c0 .27.213.482.484.482a3.24 3.24 0 013.25 3.24c0 .27.213.482.484.482zm32.85 0a.478.478 0 00.484-.482 3.24 3.24 0 013.25-3.24.478.478 0 00.484-.482.479.479 0 00-.484-.483c-2.322 0-4.218 1.891-4.218 4.205 0 .27.213.482.484.482z" fill="#9A3B82"/><path d="M320.474 106.909a.576.576 0 00.29-.097c.097-.077 2.593-1.832 5.785-.501a.5.5 0 00.638-.27.497.497 0 00-.271-.637c-3.714-1.524-6.597.521-6.713.617a.47.47 0 00-.097.676.416.416 0 00.368.212zm20.972 0c.154 0 .29-.077.387-.193a.487.487 0 00-.097-.675c-.116-.096-3.018-2.141-6.713-.617a.49.49 0 00-.271.636.491.491 0 00.638.27c3.212-1.331 5.746.482 5.785.502a.637.637 0 00.271.077zm-11.802 16.24c.755 0 1.625-.154 2.612-.521a.477.477 0 00.29-.617.48.48 0 00-.619-.289c-4.063 1.504-5.398-1.158-5.456-1.273-.116-.232-.406-.347-.638-.232-.232.116-.348.405-.232.637.019.038 1.122 2.295 4.043 2.295zm1.374-3.625c.445 0 .929 0 1.335-.039a.48.48 0 00.445-.521.48.48 0 00-.522-.443c-1.142.077-2.902 0-2.922 0-.271-.019-.483.193-.503.463-.019.27.194.482.465.501.038 0 .831.039 1.702.039zm-7.429-5.055c-.534 0-.967-.726-.967-1.62 0-.895.433-1.62.967-1.62s.967.725.967 1.62c0 .894-.433 1.62-.967 1.62zm13.871 0c-.534 0-.967-.726-.967-1.62 0-.895.433-1.62.967-1.62.535 0 .968.725.968 1.62 0 .894-.433 1.62-.968 1.62z" fill="#9A3B82"/><path d="M335.158 118.789h6.094a2.621 2.621 0 002.612-2.604v-6.075a2.621 2.621 0 00-2.612-2.604h-6.094a2.621 2.621 0 00-2.612 2.604v6.075a2.473 2.473 0 00.735 1.813 2.563 2.563 0 001.877.791zm6.094-10.319c.91 0 1.645.733 1.645 1.64v6.075a1.64 1.64 0 01-1.645 1.64h-6.094a1.61 1.61 0 01-1.18-.502 1.582 1.582 0 01-.464-1.138v-6.075c0-.907.735-1.64 1.644-1.64h6.094zm-21.01 10.319h6.094a2.621 2.621 0 002.612-2.604v-6.075a2.621 2.621 0 00-2.612-2.604h-6.094a2.621 2.621 0 00-2.611 2.604v6.075a2.621 2.621 0 002.611 2.604zm6.094-10.319c.91 0 1.645.733 1.645 1.64v6.075a1.64 1.64 0 01-1.645 1.64h-6.094a1.64 1.64 0 01-1.644-1.64v-6.075c0-.907.735-1.64 1.644-1.64h6.094z" fill="#fff"/><path d="M328.464 111.518h4.547v.964h-4.547v-.964z" fill="#fff"/><path d="M339.782 196.848h-21.146a4.056 4.056 0 01-4.063-4.05v-11.207a4.056 4.056 0 014.063-4.05h21.146a4.055 4.055 0 014.062 4.05v11.207a4.055 4.055 0 01-4.062 4.05zm-21.146-18.15a2.894 2.894 0 00-2.902 2.893v11.207c0 1.6 1.296 2.893 2.902 2.893h21.146a2.895 2.895 0 002.902-2.893v-11.207c0-1.6-1.297-2.893-2.902-2.893h-21.146z" fill="#66B0F0"/><path d="M329.741 191.756h-7.158a2.07 2.07 0 01-2.071-2.064v-4.995a2.07 2.07 0 012.071-2.064h7.158a2.07 2.07 0 012.07 2.064v4.995a2.07 2.07 0 01-2.07 2.064zm6.965-.136l-2.206-1.466a2.229 2.229 0 01-.967-1.851v-2.199c0-.752.367-1.447.967-1.852l2.206-1.465c.522-.348 1.199.038 1.199.694v7.464a.772.772 0 01-1.199.675z" fill="#66B0F0"/><path d="M35.83 259.978h513.59a.57.57 0 00.58-.579.57.57 0 00-.58-.579H35.83a.57.57 0 00-.58.579.57.57 0 00.58.579z" fill="#3FB1B5"/><path d="M384.065 262.773V500.9h13.485v-45.326c0-4.224 3.443-7.658 7.68-7.658h96.52c4.237 0 7.68 3.434 7.68 7.658V500.9h13.485V262.773h-138.85z" fill="#fff"/><path d="M383.485 501.479h14.645v-45.905c0-3.896 3.192-7.078 7.1-7.078h96.52c3.908 0 7.1 3.182 7.1 7.078v45.905h14.645V262.195h-140.01v239.284zm13.484-1.157h-12.323V263.353h137.688v236.969h-12.323v-44.748c0-4.532-3.715-8.236-8.261-8.236h-96.52c-4.546 0-8.261 3.704-8.261 8.236v44.748z" fill="#3FB1B5"/><path d="M383.659 262.773v63.187l139.256 114.318-.02-177.505H383.659z" fill="#D0F0E4"/><path d="M404.824 331.921h97.313c4.333 0 7.854-3.51 7.854-7.831v-43.185c0-4.32-3.521-7.831-7.854-7.831h-97.313c-4.334 0-7.855 3.511-7.855 7.831v43.185c0 4.321 3.521 7.831 7.855 7.831zm97.313-57.69c3.695 0 6.693 2.99 6.693 6.674v43.185c0 3.684-2.998 6.674-6.693 6.674h-97.313c-3.695 0-6.694-2.99-6.694-6.674v-43.185c0-3.684 2.999-6.674 6.694-6.674h97.313z" fill="#3FB1B5"/><path d="M428.737 364.054h47.901l1.993-13.675H430.71l-1.973 13.675z" fill="#FFCF2D"/><path d="M403.18 342.49c5.978 0 10.814 4.822 10.814 10.782v10.782h40.763v-10.782c0-5.96-4.836-10.782-10.814-10.782H403.18z" fill="#fff"/><path d="M413.414 364.633h41.924v-11.36c0-6.269-5.108-11.361-11.395-11.361H403.18v1.157c5.649 0 10.234 4.572 10.234 10.204v11.36zm40.763-1.157h-39.602v-10.203c0-4.475-2.612-8.352-6.385-10.204h35.753c5.649 0 10.234 4.572 10.234 10.204v10.203z" fill="#3FB1B5"/><path d="M393.022 350.379h40.763c1.258-4.552 5.456-7.889 10.428-7.889H403.45a10.824 10.824 0 00-10.428 7.889z" fill="#fff"/><path d="M392.249 350.958h41.962l.116-.424c1.219-4.398 5.282-7.465 9.867-7.465v-1.157h-40.763c-5.088 0-9.615 3.414-10.989 8.313l-.193.733zm41.111-1.157h-39.544c1.451-3.993 5.32-6.732 9.634-6.732h35.753c-2.728 1.331-4.895 3.742-5.843 6.732zm-28.536 72.52h97.313c4.333 0 7.854-3.51 7.854-7.83v-43.186c0-4.32-3.521-7.83-7.854-7.83h-97.313c-4.334 0-7.855 3.51-7.855 7.83v43.186c0 4.32 3.521 7.83 7.855 7.83zm97.313-57.689c3.695 0 6.693 2.989 6.693 6.673v43.186c0 3.684-2.998 6.673-6.693 6.673h-97.313c-3.695 0-6.694-2.989-6.694-6.673v-43.186c0-3.684 2.999-6.673 6.694-6.673h97.313zm-68.602-62.415c.328 0 .58-.25.58-.578a5.655 5.655 0 015.668-5.652h27.376a5.655 5.655 0 015.668 5.652c0 .328.252.578.581.578.329 0 .58-.25.58-.578 0-3.761-3.057-6.809-6.829-6.809h-27.376c-3.772 0-6.829 3.048-6.829 6.809 0 .328.252.578.581.578z" fill="#3FB1B5"/><path d="M433.535 392.62a.57.57 0 00.58-.579 5.655 5.655 0 015.668-5.651h27.376a5.655 5.655 0 015.668 5.651.57.57 0 00.581.579c.329 0 .58-.251.58-.579 0-3.761-3.057-6.809-6.829-6.809h-27.376c-3.772 0-6.829 3.048-6.829 6.809a.57.57 0 00.581.579z" fill="#3FB1B5"/><path d="M56.28 262.773h14.374v238.648H56.279V262.773z" fill="#fff"/><path d="M55.699 502h15.535V262.195H55.699V502zm14.374-1.157H56.86v-237.49h13.213v237.49z" fill="#3FB1B5"/><path d="M.58 502.001h299.986a.57.57 0 00.581-.579.569.569 0 00-.581-.578H.58c-.329 0-.58.25-.58.578a.57.57 0 00.58.579z" fill="#3FB1B5"/><path d="M482.094 226.666h8.686s12.401-51.517 23.293-53.196c10.892-1.678 11.453 18.15 11.453 18.15s-.193-30.146-27.414-26.019c-27.239 4.128-16.018 61.065-16.018 61.065z" fill="#fff"/><path d="M481.611 227.245h9.615l.116-.443c.039-.135 3.154-13.02 7.546-25.923 7.274-21.352 12.323-26.386 15.264-26.829 2.012-.309 3.792.154 5.262 1.388 5.127 4.244 5.514 16.086 5.514 16.202l1.161-.019c0-.155-.039-3.684-1.181-8.198-1.064-4.185-3.308-10.029-8.009-14.041-4.779-4.07-11.124-5.536-18.901-4.34-5.03.752-9.113 3.337-12.15 7.638-4.875 6.925-7.1 18.131-6.578 33.349.387 11.283 2.206 20.657 2.225 20.753l.116.463zm8.706-1.157h-7.758c-.367-2.025-1.799-10.358-2.128-20.117-.348-10.281.484-24.264 6.365-32.616 2.844-4.05 6.675-6.461 11.376-7.155 7.409-1.119 13.465.25 17.973 4.089a20.05 20.05 0 013.482 3.896c-1.645-1.158-3.54-1.563-5.669-1.235-4.739.733-10.195 10.03-16.193 27.62-3.927 11.554-6.848 23.126-7.448 25.518z" fill="#3FB1B5"/><path d="M485.905 226.473c.31 0 .581-.251.581-.579.638-38.402 8.802-51.961 15.535-56.551 5.107-3.491 9.576-1.91 9.615-1.89a.58.58 0 00.754-.348.577.577 0 00-.348-.752c-.213-.077-5.069-1.794-10.679 2.025-4.334 2.971-7.874 8.41-10.505 16.202-3.386 10.03-5.243 23.917-5.533 41.295 0 .328.251.598.58.598z" fill="#3FB1B5"/><path d="M458.433 225.895h40.802v33.117h-40.802v-33.117z" fill="#FE5244"/><path d="M449.843 242.463c2.592 1.119 5.688.984 8.57-.27 2.129-.926 4.141-2.45 5.766-4.533 2.244-2.893 3.753-6.847 3.753-11.765 0-11.92 9.518-19.404 13.426-3.626.271 1.099.523 2.295.736 3.626v-.116a.492.492 0 00-.02-.154v-.077c-.077-.984-.367-3.896-1.257-7.407-.658-2.604-1.645-5.497-3.115-8.178-.735-1.331-1.587-2.604-2.593-3.742-2.592-2.97-6.152-5.053-11.008-5.053-8.938 0-15.477 10.493-17.973 20.946-2.186 9.085-1.296 18.17 3.715 20.349z" fill="#fff"/><path d="M453.654 243.794c1.645 0 3.367-.366 4.992-1.08 2.302-1.003 4.372-2.623 5.997-4.706 2.535-3.26 3.869-7.464 3.869-12.113 0-5.439 2.399-11.572 5.978-11.997 2.593-.308 4.876 2.797 6.307 8.506.291 1.196.523 2.353.736 3.588l1.16-.097v-.115c0-.039 0-.135-.019-.232v-.058c-.077-1.08-.387-3.973-1.277-7.503-.793-3.124-1.857-5.921-3.173-8.313-.832-1.485-1.702-2.758-2.669-3.838-3.038-3.491-6.888-5.246-11.454-5.246-9.286 0-15.999 10.743-18.533 21.39-1.123 4.687-1.432 9.297-.852 12.981.639 4.146 2.341 6.905 4.895 8.023 1.238.54 2.612.81 4.043.81zm21.185-31.072c-.174 0-.329.019-.484.038-3.869.463-7.003 6.365-7.003 13.155 0 4.397-1.258 8.351-3.637 11.418-1.51 1.929-3.425 3.433-5.534 4.359-2.766 1.196-5.726 1.292-8.106.27-4.333-1.89-5.707-9.972-3.385-19.673 1.296-5.459 3.598-10.493 6.461-14.177 3.231-4.147 7.004-6.326 10.95-6.326 4.199 0 7.758 1.639 10.564 4.86a19.828 19.828 0 012.515 3.646c.967 1.774 1.799 3.761 2.476 5.959a12.637 12.637 0 00-1.006-1.446c-1.374-1.678-2.767-2.083-3.811-2.083z" fill="#3FB1B5"/><path d="M451.913 243.408a.584.584 0 00.581-.521c2.824-26.443 9.267-34.621 14.161-36.82 4.373-1.968 8.068.598 8.107.617.251.193.619.116.812-.135.194-.251.116-.617-.135-.81-.174-.116-4.276-2.97-9.248-.733-3.289 1.485-6.152 4.841-8.493 10.01-2.941 6.462-5.069 15.797-6.346 27.736a.583.583 0 00.523.637c0 .019.019.019.038.019zm74.194-51.788c0 3.183.368 15.354-11.279 15.913-11.646.559-12.807-16.973-12.807-16.973s5.726-15.508 12.053-17.089c10.698-2.681 12.033 18.149 12.033 18.149z" fill="#3FB1B5"/><path d="M467.932 225.896h14.162c-3.27-20.426-14.162-12.749-14.162 0z" fill="#3FB1B5"/><path opacity=".4" d="M227.437 75.875v127.318c0 6.847 5.571 12.383 12.42 12.383h146.162c9.171 12.595 28.072 12.653 37.32 0l.019-.019a12.39 12.39 0 009.016-4.88l-3.367-2.893-85.898-73.911-81.797-70.38h-21.455c-6.849 0-12.42 5.554-12.42 12.382zm222.406 167.167c2.574 1.158 5.688.984 8.571-.27v16.241h30.122l-24.376-20.966-5.765-4.957-4.392-3.78-8.493-7.195c-2.476 10.531-1.103 18.439 4.333 20.927z" fill="#fff"/><path d="M193.329 328.738v107.356h24.88l15.844-44.111 22.694-63.245h-63.418z" fill="#A0505A"/><path d="M256.747 328.738h-63.418v34.467l55.873-13.462 7.545-21.005z" fill="#73325A"/><path d="M192.749 436.672h25.866l16.502-45.943-1.354.732c-.039.02-3.25 1.736-9.789 2.585-6.036.791-16.251.964-30.51-2.642l-.715-.174v45.442zm25.053-1.157h-23.893v-42.8c14.123 3.491 24.261 3.279 30.316 2.488 4.392-.578 7.294-1.523 8.822-2.141l-15.245 42.453z" fill="#fff"/><path d="M221.11 402.918a3.405 3.405 0 003.405-3.394 3.405 3.405 0 00-6.81 0 3.405 3.405 0 003.405 3.394zm0-5.632a2.243 2.243 0 012.245 2.238 2.243 2.243 0 01-2.245 2.237 2.242 2.242 0 01-2.244-2.237 2.243 2.243 0 012.244-2.238zm-13.465 14.716a3.404 3.404 0 003.405-3.394 3.405 3.405 0 00-6.81 0 3.404 3.404 0 003.405 3.394zm0-5.632a2.243 2.243 0 012.244 2.238 2.242 2.242 0 01-2.244 2.237 2.242 2.242 0 01-2.244-2.237 2.243 2.243 0 012.244-2.238zm-10.021-4.454a3.404 3.404 0 003.405-3.394 3.405 3.405 0 00-6.81 0 3.404 3.404 0 003.405 3.394zm0-5.632a2.243 2.243 0 012.244 2.238 2.242 2.242 0 01-2.244 2.237 2.242 2.242 0 01-2.244-2.237 2.243 2.243 0 012.244-2.238zm3.966 26.289a3.405 3.405 0 003.405-3.395 3.405 3.405 0 00-6.81 0 3.405 3.405 0 003.405 3.395zm0-5.633a2.243 2.243 0 012.244 2.238 2.242 2.242 0 01-2.244 2.237 2.242 2.242 0 01-2.244-2.237 2.243 2.243 0 012.244-2.238zm16.696.502a3.405 3.405 0 003.405-3.395 3.405 3.405 0 00-6.81 0 3.405 3.405 0 003.405 3.395zm0-5.632a2.242 2.242 0 012.244 2.237 2.242 2.242 0 01-2.244 2.237 2.243 2.243 0 01-2.245-2.237 2.243 2.243 0 012.245-2.237zm-4.605 21.061a3.404 3.404 0 003.405-3.394 3.405 3.405 0 00-6.81 0 3.405 3.405 0 003.405 3.394zm0-5.632a2.243 2.243 0 012.244 2.238 2.242 2.242 0 01-2.244 2.237 2.242 2.242 0 01-2.244-2.237 2.243 2.243 0 012.244-2.238z" fill="#fff"/><path d="M181.567 456.114l17.063 35.316a15.442 15.442 0 0014.22 9.393h21.765c5.571 0 8.957-5.632 6.829-10.763l-21.881-52.617a16.633 16.633 0 00-6.055-7.734 16.487 16.487 0 00-9.383-2.932c-4.76 0-9.48 3.221-12.614 6.79l-7.584 8.158c-3.502 3.974-4.411 9.548-2.36 14.389z" fill="#66B0F0"/><path d="M181.566 456.113l17.064 35.316a15.44 15.44 0 0014.22 9.393h23.138c2.147 0 3.366-1.331 4.082-3.163h-5.146a15.442 15.442 0 01-14.22-9.393l-19.675-40.91a11.094 11.094 0 00-9.983-6.268c-5.552 0-9.77 4.05-10.544 9.181a13.685 13.685 0 001.064 5.844z" fill="#fff"/><path d="M212.85 501.401h23.138c2.148 0 3.715-1.196 4.624-3.53.077-.173.039-.385-.058-.54a.605.605 0 00-.484-.25h-5.146a14.816 14.816 0 01-13.678-9.046s0-.02-.019-.02l-19.676-40.909c-1.934-4.012-6.055-6.596-10.505-6.596-5.591 0-10.273 4.069-11.124 9.682v.058a14.381 14.381 0 001.103 6.095s0 .019.019.019l17.064 35.297a15.978 15.978 0 0014.742 9.74zm26.311-3.163c-.735 1.369-1.761 2.006-3.173 2.006H212.85a14.815 14.815 0 01-13.678-9.046s0-.019-.02-.019l-17.063-35.297a13.043 13.043 0 01-1.006-5.555c.774-5.015 4.953-8.66 9.963-8.66 4.005 0 7.72 2.334 9.461 5.941l19.675 40.89a15.98 15.98 0 0014.742 9.74h4.237z" fill="#66B0F0"/><path d="M185.494 440.027c2.051-1.118 4.527-1.928 6.694-1.928 4.16 0 8.009 2.411 9.809 6.152l20.371 42.356c2.593 6.115 8.59 10.069 15.265 10.069h3.753c.194-.367.329-.753.464-1.158h-4.217a15.396 15.396 0 01-14.2-9.373l-.02-.02-20.391-42.375c-1.993-4.147-6.249-6.809-10.853-6.809-1.471 0-3.231.483-4.74 1.003l-1.935 2.083z" fill="#fff"/><path d="M256.747 328.738l4.856 63.244 2.167 28.334s14.142 15.7 30.238 6.018l7.449-34.332 17.044-78.559c4.604-21.236-9.944-41.893-31.554-44.767l-30.2 60.062z" fill="#A0505A"/><path d="M283.116 430.827c3.463 0 7.274-.868 11.182-3.221l.213-.135 7.7-36.299-.929.289c-18.321 5.478-39.331.039-39.544-.019l-.793-.212 2.244 30.108.136.154c.154.154 3.675 4.031 9.267 6.77 2.805 1.35 6.442 2.565 10.524 2.565zm10.37-4.089c-6.423 3.781-13.272 3.935-20.353.483-4.798-2.353-8.125-5.671-8.802-6.385l-2.09-28.102c1.761.405 6.327 1.389 12.227 1.929 6.791.636 16.754.791 26.234-1.832l-7.216 33.907z" fill="#fff"/><path d="M283.832 410.055a3.405 3.405 0 003.405-3.395 3.404 3.404 0 00-3.405-3.394 3.405 3.405 0 00-3.405 3.394 3.405 3.405 0 003.405 3.395zm0-5.632a2.243 2.243 0 012.245 2.237 2.243 2.243 0 01-2.245 2.238 2.243 2.243 0 01-2.244-2.238 2.242 2.242 0 012.244-2.237zm-17.954 1.312a3.405 3.405 0 003.405-3.395 3.405 3.405 0 00-6.81 0 3.405 3.405 0 003.405 3.395zm0-5.632a2.243 2.243 0 012.245 2.237 2.243 2.243 0 01-2.245 2.237 2.242 2.242 0 01-2.244-2.237 2.242 2.242 0 012.244-2.237zm28.788 1.811a3.405 3.405 0 003.405-3.394 3.405 3.405 0 00-6.81 0 3.404 3.404 0 003.405 3.394zm0-5.632a2.243 2.243 0 012.244 2.238 2.242 2.242 0 01-2.244 2.237 2.242 2.242 0 01-2.244-2.237 2.243 2.243 0 012.244-2.238zm-8.01 29.107a3.405 3.405 0 003.405-3.395 3.404 3.404 0 00-3.405-3.394 3.405 3.405 0 00-3.405 3.394 3.405 3.405 0 003.405 3.395zm0-5.632a2.242 2.242 0 012.244 2.237 2.243 2.243 0 01-2.244 2.238 2.243 2.243 0 01-2.244-2.238 2.242 2.242 0 012.244-2.237zm-13.174-.001a3.405 3.405 0 003.405-3.395 3.405 3.405 0 00-6.81 0 3.405 3.405 0 003.405 3.395zm0-5.632a2.242 2.242 0 012.244 2.237 2.243 2.243 0 01-2.244 2.238 2.243 2.243 0 01-2.244-2.238 2.242 2.242 0 012.244-2.237z" fill="#fff"/><path d="M245.12 427.067l18.65 74.354h5.881c.271 0 .522-.019.793-.038 4.45-.405 8.203-4.147 9.151-8.564l14.433-66.524c-16.097 9.702-30.258-5.998-30.258-5.998l-18.65 6.77z" fill="#66B0F0"/><path d="M244.172 465.218c-3.927-20.676-5.011-36.473 1.761-37.746 6.771-1.273 18.824 12.441 22.751 33.117 3.927 20.677 1.876 38.962-4.895 40.235-6.771 1.292-15.69-14.91-19.617-35.606z" fill="#fff"/><path d="M263.015 501.478c.291 0 .6-.019.89-.077 3.521-.656 5.978-5.4 6.926-13.347.91-7.657.349-17.455-1.567-27.562-1.818-9.548-5.513-18.439-10.408-25.036-4.488-6.037-9.364-9.238-13.02-8.544-3.521.656-5.262 4.629-5.359 12.151-.078 6.134.948 14.717 3.134 26.27 1.548 8.14 3.889 15.797 6.771 22.142 2.844 6.269 5.959 10.667 8.996 12.73 1.238.83 2.457 1.273 3.637 1.273zm-16.173-73.505c3.095 0 7.255 3.047 11.066 8.178 4.798 6.461 8.416 15.179 10.215 24.553 1.896 10.01 2.457 19.674 1.567 27.215-.871 7.291-3.057 11.785-5.997 12.344-1.123.212-2.361-.135-3.676-1.022-5.94-4.031-12.227-18.053-15.265-34.12-2.186-11.457-3.192-19.982-3.114-26.038.077-6.79 1.567-10.493 4.411-11.033.251-.058.522-.077.793-.077z" fill="#66B0F0"/><path d="M271.393 460.262c2.031 10.724 2.631 21.081 1.663 29.182-.696 5.825-2.166 9.972-4.179 11.978h.774c.271 0 .523-.02.794-.039 1.818-2.392 3.114-6.403 3.772-11.804.987-8.197.387-18.69-1.683-29.529-1.954-10.262-5.901-19.886-11.144-27.119-3.134-4.321-6.423-7.349-9.421-8.718l-1.741.579c6.906 2.044 17.392 15.623 21.165 35.47z" fill="#fff"/><path d="M286.946 268.657l-88.258-9.065-88.22 24.669.755 11.688c1.199 18.439 17.141 32.789 35.674 32.789h109.83l30.219-60.081z" fill="#FE5244"/><path d="M150.786 321.219h109.83c.329 0 .58-.251.58-.579a.569.569 0 00-.58-.579h-109.83c-8.396 0-17.199-4.417-24.164-12.151-6.597-7.329-10.543-16.491-10.543-24.495a.57.57 0 00-.581-.579.569.569 0 00-.58.579c0 8.293 4.063 17.744 10.834 25.286 7.197 7.946 16.309 12.518 25.034 12.518z" fill="#fff"/><path d="M159.434 311.574h105.632a.57.57 0 00.58-.579.57.57 0 00-.58-.579H159.434c-7.332 0-14.916-3.433-21.32-9.682-6.017-5.864-10.234-13.424-11.569-20.754a.588.588 0 00-.677-.463.586.586 0 00-.464.675c2.727 14.833 17.373 31.382 34.03 31.382z" fill="#fff"/><path d="M168.74 301.737h101.936a.57.57 0 00.581-.579.57.57 0 00-.581-.579H168.74c-13.93 0-26.021-12.498-30.335-24.244a.567.567 0 00-.736-.347c-.309.115-.464.443-.348.733 2.399 6.538 6.733 12.691 12.227 17.32 5.978 5.034 12.614 7.696 19.192 7.696z" fill="#fff"/><path d="M173.77 291.129h101.936a.57.57 0 00.581-.579.57.57 0 00-.581-.579H173.77c-9.596 0-19.656-6.23-26.273-16.24a.588.588 0 00-.986.637c6.848 10.338 17.276 16.761 27.259 16.761z" fill="#fff"/><path d="M178.606 281.484h101.937c.329 0 .58-.251.58-.579a.569.569 0 00-.58-.579H178.606c-7.39 0-14.838-3.394-20.971-9.547a.563.563 0 00-.813 0 .558.558 0 000 .81c6.346 6.384 14.085 9.895 21.784 9.895zm5.224-9.836h101.936a.57.57 0 00.581-.579.57.57 0 00-.581-.579H183.83c-4.353 0-8.725-1.234-13.02-3.645a.595.595 0 00-.794.212.59.59 0 00.213.791c4.469 2.527 9.054 3.8 13.601 3.8z" fill="#fff"/><path d="M256.94 329.317a.57.57 0 00.522-.327l30.2-60.082a.587.587 0 00-.252-.771c-.29-.135-.638-.02-.773.25l-30.2 60.082a.586.586 0 00.251.771.39.39 0 00.252.077zM105.632 203.753c8.318 2.353 16.502 1.659 17.373-.868.812-2.411-2.864-6.538-10.312-9.277-.368-.135-.755-.27-1.141-.405a33.215 33.215 0 00-6.598-1.485c-6.248-.791-11.337.328-11.975 2.218-.87 2.527 3.85 7.329 12.653 9.817z" fill="#fff"/><path d="M115.537 205.779c4.218 0 7.41-.945 8.029-2.7 1.045-3.086-3.541-7.387-10.66-10.01-.368-.135-.754-.27-1.141-.405h-.02a33.737 33.737 0 00-6.713-1.505c-6.404-.81-11.82.309-12.594 2.604-.271.752-.136 1.678.367 2.642 1.625 3.086 6.597 6.211 12.672 7.928 3.502.964 7.042 1.446 10.06 1.446zm-14.548-13.733c1.18 0 2.476.077 3.888.251a32.77 32.77 0 016.481 1.466c.387.135.774.27 1.122.405 3.367 1.234 6.23 2.874 8.048 4.629 1.529 1.466 2.245 2.932 1.916 3.915-.639 1.871-8.087 2.913-16.657.502-4.74-1.331-10.273-4.128-11.957-7.349-.348-.675-.464-1.273-.31-1.736.35-1.022 3.096-2.083 7.469-2.083z" fill="#3FB1B5"/><path d="M110.894 259.997h3.192l8.377-56.378v-.038l.213-1.408c-.406-2.566-4.43-6.192-11.53-8.545-3.541-1.176-7.062-1.697-10.06-1.755l-3.057 8.352-.29.79-9.674 26.444c-5.803 15.797 5.94 32.538 22.829 32.538z" fill="#A0505A"/><path d="M97.835 200.823c2.032 1.273 4.663 2.449 7.797 3.336 7.197 2.026 14.491 1.196 16.831-.54v-.038l.213-1.408c-.406-2.566-4.43-6.192-11.53-8.545-3.541-1.176-7.062-1.697-10.06-1.755l-3.25 8.95z" fill="#73325A"/><path d="M214.514 213.61l10.156 25.19c5.011 12.441 17.122 20.6 30.587 20.6h136.528v-12.46a7.224 7.224 0 00-4.682-6.77l-14.026-5.304a11.181 11.181 0 00-3.966-.733h-15.922l-90.116-9.066-15.554-35.508-33.005 24.051z" fill="#A0505A"/><path d="M391.205 252.205a.57.57 0 00.58-.579c0-2.527-1.528-4.745-3.908-5.651l-10.583-3.993a.594.594 0 00-.754.328.592.592 0 00.329.752l10.582 3.993c1.916.733 3.173 2.526 3.173 4.571a.57.57 0 00.581.579zm0 6.365a.57.57 0 00.58-.579c0-2.527-1.528-4.745-3.908-5.651l-10.583-3.993a.595.595 0 00-.754.328.591.591 0 00.329.752l10.582 3.993c1.916.733 3.173 2.527 3.173 4.571a.57.57 0 00.581.579zm-3.541.83a.58.58 0 00.542-.386.55.55 0 00-.348-.732l-10.583-3.8a.553.553 0 00-.735.347.551.551 0 00.348.733l10.583 3.8a.695.695 0 00.193.038z" fill="#73325A"/><path d="M378.184 237.007s-9.905-25.209-13.078-24.785c-3.173.424 8.783 23.165 8.783 23.165l4.295 1.62z" fill="#FE5244"/><path d="M247.519 189.578l2.283 5.189-29.233 33.85-6.055-15.006 33.005-24.033z" fill="#73325A"/><path d="M122.463 203.639l-11.995 80.623 88.201-24.669 15.844-46.001 40.899-29.8-14.355-17.05a67.49 67.49 0 00-51.636-24.013h-28.342c-24.648 0-47.341 13.424-59.162 34.987l-9.19 15.855s2.767-4.05 17.683.019c13.137 3.607 12.053 10.049 12.053 10.049z" fill="#3FB1B5"/><path d="M214.513 213.803c.039 0 .097 0 .136-.019a.574.574 0 00.425-.694l-4.585-19.828a.577.577 0 00-1.122.27l4.585 19.828a.56.56 0 00.561.443zm-101.82 52.213a.597.597 0 00.581-.483l14.916-92.446a.559.559 0 00-.484-.656.56.56 0 00-.657.483l-14.917 92.446a.559.559 0 00.484.656h.077zm-2.031 18.824c.058 0 .096 0 .154-.019l88.027-25.036a.592.592 0 00.406-.713.594.594 0 00-.716-.405l-88.026 25.035a.592.592 0 00-.406.714.596.596 0 00.561.424z" fill="#fff"/><path d="M193.929 129.843v12.961l-22.945-.192v-22.876l22.945 10.107z" fill="#A0505A"/><path d="M169.127 115.745v.347c0 3.472 2.631 6.288 6.113 6.288h1.354c.871 3.433 8.61 7.445 14.104 7.445h6.404c7.003 0 12.362-6.269 11.221-13.174l-.31-1.871 1.896-1.06a2.053 2.053 0 00.638-3.029l-4.101-5.4-.89-5.324c-.716-4.378-3.598-7.946-7.429-9.701-1.509 16.954-16.522 18.959-20.488 19.191h-2.205c-3.483 0-6.307 2.816-6.307 6.288z" fill="#A0505A"/><path d="M179.284 117.983c.329 0 .58-.25.58-.578 0-3.048-2.496-5.536-5.553-5.536a.57.57 0 00-.58.579c0 .328.252.578.58.578 2.419 0 4.392 1.968 4.392 4.379 0 .328.252.578.581.578zm20.971-8.353c-.545 0-.987-1.019-.987-2.276s.442-2.276.987-2.276c.545 0 .987 1.019.987 2.276s-.442 2.276-.987 2.276zm-4.024-5.15a.579.579 0 00.465-.232c2.573-3.549 4.972-3.356 5.01-3.356.329.039.6-.193.639-.521a.582.582 0 00-.523-.636c-.116-.02-3.095-.25-6.055 3.819a.568.568 0 00.135.81.529.529 0 00.329.116z" fill="#73325A"/><path d="M177.639 109.457h-2.206c-3.482 0-6.306 2.816-6.306 6.288v.347c0 3.471 2.631 6.288 6.113 6.288l1.49 1.041c6.268 4.012 14.935 19.789 12.807 30.957-2.399 12.556-13.368 15.353-23.506 13.424-10.137-1.929-17.528-7.811-15.129-20.387.271-1.485.716-2.97 1.277-4.436-.174.058-.329.116-.503.173-12.188 3.318-26.505 3.704-30.451-5.786-3.947-9.49-3.057-18.883 8.802-23.782 6.888-2.854 16.251-2.835 23.506-.868-3.656-12.672 2.844-26.771 14.781-28.18 18.747-2.217 29.503 5.498 29.793 5.71.02 2.238-1.508 18.111-20.468 19.211z" fill="#73325A"/><path d="M151.676 143.751c.271 0 .522-.193.561-.463 2.051-10.705 10.834-16.607 10.931-16.664a.577.577 0 00.251-.483.603.603 0 00-.251-.482c-5.998-4.224-8.59-10.319-9.596-13.559a.576.576 0 00-1.103.328c1.006 3.279 3.56 9.296 9.383 13.694-2.186 1.64-8.938 7.387-10.756 16.935a.586.586 0 00.464.675c.039.019.077.019.116.019z" fill="#fff"/><path d="M147.787 112.426h5.126a.57.57 0 00.581-.578v-5.112c0-2.989-2.438-5.42-5.437-5.42h-.27c-2.999 0-5.437 2.431-5.437 5.42v.27a5.282 5.282 0 001.567 3.819 5.45 5.45 0 003.87 1.601zm4.546-1.157h-4.546a4.191 4.191 0 01-3.038-1.273 4.262 4.262 0 01-1.238-2.99v-.27a4.27 4.27 0 014.276-4.262h.27a4.27 4.27 0 014.276 4.262v4.533z" fill="#FE5244"/><path d="M144.924 120.258c2.07 0 4.063-1.003 5.243-2.855l3.289-5.207c.174-.271.097-.637-.174-.791l-5.224-3.279a6.188 6.188 0 00-4.662-.791 6.207 6.207 0 00-3.87 2.72l-.309.482a6.048 6.048 0 00-.793 4.648 6.19 6.19 0 002.728 3.858l.483.308a6.45 6.45 0 003.289.907zm7.236-8.197l-2.98 4.725c-1.47 2.315-4.585 3.009-6.945 1.543l-.484-.309a4.88 4.88 0 01-2.205-3.124 5 5 0 01.658-3.781l.309-.482a4.9 4.9 0 013.134-2.199 5.044 5.044 0 013.792.656l4.721 2.971zm24.454 23.628c.135 0 .271 0 .406-.02a5.422 5.422 0 003.715-1.871l.174-.212a5.325 5.325 0 001.315-3.896 5.338 5.338 0 00-1.857-3.722l-3.637-3.472a.51.51 0 00-.426-.154.546.546 0 00-.406.192l-3.579 4.032c-.948 1.099-1.432 2.507-1.316 3.954a5.398 5.398 0 001.877 3.703l.232.173a5.296 5.296 0 003.502 1.293zm-.271-11.959l3.211 3.067.02.019a4.238 4.238 0 011.47 2.951 4.207 4.207 0 01-1.025 3.067s0 .019-.02.019l-.174.213a4.281 4.281 0 01-2.902 1.465 4.348 4.348 0 01-3.114-1.022l-.233-.193a4.263 4.263 0 01-1.47-2.893 4.325 4.325 0 011.025-3.105l3.212-3.588z" fill="#FE5244"/><path d="M169.204 133.567c2.708 0 5.204-1.794 5.978-4.514l1.644-5.921a.592.592 0 00-.406-.714l-5.939-1.639a6.188 6.188 0 00-4.682.559 6.154 6.154 0 00-2.921 3.704l-.155.559a6.138 6.138 0 00.561 4.667 6.167 6.167 0 003.714 2.913l.562.154a5.446 5.446 0 001.644.232zm4.856-4.822c-.755 2.642-3.521 4.224-6.172 3.491l-.561-.154a4.996 4.996 0 01-3.018-2.354 5.005 5.005 0 01-.464-3.799l.155-.56a4.978 4.978 0 012.36-3.008 5.04 5.04 0 013.811-.463l5.379 1.485-1.49 5.362z" fill="#FE5244"/><path d="M261.12 501.403c.038 0 .077 0 .116-.019a.57.57 0 00.445-.695l-33.702-157.253a.57.57 0 00-.696-.444.57.57 0 00-.445.695l33.72 157.253c.058.27.291.463.562.463zm-153.65 0a.577.577 0 00.561-.463l33.702-157.253a.603.603 0 00-.445-.694.606.606 0 00-.697.443L106.89 500.689a.604.604 0 00.445.695.381.381 0 00.135.019z" fill="#FFCF2D"/><path d="M115.402 466.491h138.249c.329 0 .581-.25.581-.578a.57.57 0 00-.581-.579H115.402a.57.57 0 00-.581.579c0 .328.252.578.581.578z" fill="#FFCF2D"/><path d="M114.648 343.571h139.314a3.191 3.191 0 003.192-3.183v-8.467a3.191 3.191 0 00-3.192-3.183H114.648a3.19 3.19 0 00-3.192 3.183v8.467a3.19 3.19 0 003.192 3.183z" fill="#fff"/><path d="M114.648 344.15h139.314a3.76 3.76 0 003.772-3.761v-8.468a3.76 3.76 0 00-3.772-3.761H114.648a3.76 3.76 0 00-3.773 3.761v8.468a3.76 3.76 0 003.773 3.761zm139.314-14.833a2.622 2.622 0 012.611 2.604v8.468a2.622 2.622 0 01-2.611 2.604H114.648a2.622 2.622 0 01-2.612-2.604v-8.468a2.622 2.622 0 012.612-2.604h139.314z" fill="#66B0F0"/></svg>