<svg width="600" height="440" fill="none" xmlns="http://www.w3.org/2000/svg"><path d="M600 419.861H0l107.705-63.673h386.238L600 419.861z" fill="#D0F0E4"/><path d="M344.008 108.578H236.062V46.09c0-4.23 3.426-7.66 7.652-7.66h92.641c4.227 0 7.653 3.43 7.653 7.66v62.488z" fill="#fff"/><path fill-rule="evenodd" clip-rule="evenodd" d="M243.714 38.91c-3.961 0-7.171 3.215-7.171 7.18v62.007h106.985V46.091a7.176 7.176 0 00-7.172-7.18h-92.642zm100.294 69.668h.48V46.091c0-4.497-3.641-8.142-8.132-8.142h-92.642c-4.491 0-8.132 3.645-8.132 8.142v62.968h108.426v-.481z" fill="#66B0F0"/><path d="M335.86 104.507h-91.201a4.361 4.361 0 01-4.354-4.359v-53.56a4.361 4.361 0 014.354-4.36h91.201a4.361 4.361 0 014.354 4.36v53.576a4.347 4.347 0 01-4.354 4.343zm27.07 18.735c4.13 2.692 3.17 7.965-1.713 7.965H214.163c-4.114 0-5.523-5.561-1.489-8.109l150.256.144z" fill="#66B0F0"/><path fill-rule="evenodd" clip-rule="evenodd" d="M212.535 122.617l150.537.145.12.077c2.198 1.434 3.112 3.609 2.732 5.491-.386 1.911-2.072 3.358-4.707 3.358H214.162c-2.31 0-3.866-1.576-4.27-3.48-.404-1.906.338-4.135 2.525-5.517l.118-.074zm.28.962c-1.756 1.169-2.297 2.949-1.983 4.43.321 1.513 1.526 2.718 3.33 2.718h147.055c2.247 0 3.483-1.189 3.765-2.588.283-1.398-.356-3.161-2.198-4.416l-149.969-.144z" fill="#66B0F0"/><path d="M361.216 127.537H214.162c-2.626 0-3.666-3.093-1.489-4.439l23.421-14.52h107.609l19.21 14.664c1.921 1.459.801 4.295-1.697 4.295z" fill="#fff"/><path fill-rule="evenodd" clip-rule="evenodd" d="M235.958 108.098h107.908l19.338 14.762c1.139.864 1.393 2.17.965 3.254-.425 1.076-1.508 1.905-2.952 1.905H214.162c-1.518 0-2.618-.905-3-2.043-.385-1.145-.026-2.491 1.259-3.286v-.001m0 0l23.537-14.591-23.537 14.591zm23.81-13.63l-23.304 14.448-.001.001c-.892.551-1.101 1.424-.854 2.162.251.745.984 1.387 2.09 1.387h147.055c1.053 0 1.78-.59 2.059-1.297.276-.699.13-1.541-.652-2.134l-19.083-14.567h-107.31z" fill="#66B0F0"/><path d="M344.248 123.162H231.132c-2.017 0-2.818-2.388-1.153-3.413l16.265-11.171h84.525l14.776 11.283c1.489 1.122.624 3.301-1.297 3.301z" fill="#fff"/><path fill-rule="evenodd" clip-rule="evenodd" d="M246.095 108.098h84.836l14.902 11.379.002.001c.922.696 1.133 1.752.787 2.631-.344.871-1.219 1.534-2.374 1.534H231.132c-1.216 0-2.103-.729-2.413-1.649-.311-.924-.026-2.011.998-2.648l16.378-11.248zm.298.961l-16.152 11.093-.01.006c-.633.39-.778 1.006-.601 1.529.178.53.7.995 1.502.995h113.116c.766 0 1.283-.427 1.48-.926.194-.491.093-1.084-.472-1.511l-.002-.001-.001-.001-14.647-11.184h-84.213z" fill="#66B0F0"/><path fill-rule="evenodd" clip-rule="evenodd" d="M337.908 123.506l-14.792-14.585.674-.685 14.792 14.584-.674.686zm-9.627-.023l-13.031-14.584.716-.641 13.031 14.584-.716.641zm-9.081-.024l-11.303-14.584.759-.59 11.302 14.584-.758.59zm-9.964-.033l-9.557-14.584.803-.528 9.557 14.585-.803.527zm-11.758-.115l-4.659-14.585.915-.292 4.659 14.584-.915.293zm-59.496-.491l14.792-14.584.674.685-14.792 14.585-.674-.686zm9.585.022l13.031-14.584.716.641-13.031 14.584-.716-.641zm9.039.027l11.302-14.584.759.59-11.302 14.584-.759-.59zm9.919.03l9.557-14.585.803.528-9.557 14.584-.803-.527zm11.646.117l4.659-14.584.915.293-4.659 14.584-.915-.293zm10.207-14.438v14.761h-.961v-14.761h.961z" fill="#66B0F0"/><path fill-rule="evenodd" clip-rule="evenodd" d="M337.924 114.508h-99.605v-.961h99.605v.961z" fill="#66B0F0"/><path d="M328.271 104.507h-80.987l1.456-10.337a16.247 16.247 0 0111.623-13.35l19.738-4.103h15.352l19.739 4.103a16.178 16.178 0 0111.622 13.35l1.457 10.337z" fill="#FFCF2D"/><path d="M293.244 88.529l-5.843-5.914c-.128-.128-.128-.336 0-.449.128-.128.336-.128.448 0l5.363 5.433 8.325-9.44a.324.324 0 01.448-.031c.128.112.144.32.032.448l-8.773 9.953z" fill="#fff"/><path d="M282.39 88.529l-8.772-9.953c-.113-.128-.113-.336.032-.449.128-.112.336-.112.448.032l8.324 9.44 5.363-5.433a.309.309 0 01.448 0 .31.31 0 010 .449l-5.843 5.914zm5.524 3.861a1.394 1.394 0 010-2.788 1.394 1.394 0 010 2.788zm0-2.147a.752.752 0 100 1.506.752.752 0 00.752-.753.752.752 0 00-.752-.753zm0 10.001a1.395 1.395 0 010-2.789 1.394 1.394 0 010 2.789zm0-2.148a.752.752 0 100 1.507.752.752 0 00.752-.754.752.752 0 00-.752-.753z" fill="#fff"/><path d="M280.006 104.17h-26.158l-6.98-20.738 26.158-7.5 6.98 28.238z" fill="#fff"/><path fill-rule="evenodd" clip-rule="evenodd" d="M273.256 75.531l7.158 28.959h-26.797l-7.16-21.274 26.799-7.685zm-25.978 8.116l6.799 20.202h25.519l-6.802-27.518-25.516 7.316z" fill="#66B0F0"/><path d="M255.208 86.124h-.496a2.29 2.29 0 01-2.29-2.291v-7.196a.93.93 0 01.929-.93h2.161a.93.93 0 01.928.93v8.237c.016.69-.544 1.25-1.232 1.25z" fill="#fff"/><path fill-rule="evenodd" clip-rule="evenodd" d="M253.351 76.028a.61.61 0 00-.609.609v7.196a1.97 1.97 0 001.969 1.971h.497a.906.906 0 00.912-.922v-8.245a.61.61 0 00-.608-.61h-2.161zm-1.249.609c0-.69.56-1.25 1.249-1.25h2.161c.689 0 1.248.56 1.248 1.25v8.234a1.547 1.547 0 01-1.552 1.574h-.497a2.61 2.61 0 01-2.609-2.612v-7.196z" fill="#66B0F0"/><path d="M265.742 86.124h.496a2.29 2.29 0 002.289-2.291v-7.196a.93.93 0 00-.928-.93h-2.177a.93.93 0 00-.929.93v8.237c0 .69.56 1.25 1.249 1.25zm-6.516.833h-1.153a1.613 1.613 0 01-1.616-1.618v-8.687a.93.93 0 01.928-.93h2.161a.93.93 0 01.929.93v9.055c0 .69-.561 1.25-1.249 1.25z" fill="#fff"/><path d="M263.26 87.278h-.96a1.825 1.825 0 01-1.825-1.827v-8.814a.93.93 0 01.928-.93h2.161a.93.93 0 01.929.93v9.391c0 .69-.561 1.25-1.233 1.25z" fill="#fff"/><path fill-rule="evenodd" clip-rule="evenodd" d="M264.172 76.637c0-.69.56-1.25 1.249-1.25h2.177c.689 0 1.249.56 1.249 1.25v7.196a2.61 2.61 0 01-2.61 2.612h-.496a1.572 1.572 0 01-1.569-1.57v-8.238zm1.249-.61a.61.61 0 00-.608.61v8.237c0 .513.417.93.928.93h.496a1.97 1.97 0 001.969-1.971v-7.196a.609.609 0 00-.608-.61h-2.177zm-8.036.016a.609.609 0 00-.608.61v8.686c0 .72.577 1.298 1.296 1.298h1.153a.93.93 0 00.928-.93v-9.055a.609.609 0 00-.608-.609h-2.161zm-1.249.61c0-.69.56-1.25 1.249-1.25h2.161c.689 0 1.249.56 1.249 1.25v9.054c0 .867-.704 1.571-1.569 1.571h-1.153a1.934 1.934 0 01-1.937-1.94v-8.686z" fill="#66B0F0"/><path fill-rule="evenodd" clip-rule="evenodd" d="M261.403 76.028a.61.61 0 00-.608.609v8.814c0 .833.673 1.507 1.505 1.507h.96a.928.928 0 00.913-.93v-9.391a.61.61 0 00-.608-.61h-2.162zm-1.248.609c0-.69.559-1.25 1.248-1.25h2.162c.689 0 1.248.56 1.248 1.25v9.391c0 .864-.701 1.57-1.553 1.57h-.96a2.146 2.146 0 01-2.145-2.147v-8.814z" fill="#66B0F0"/><path d="M295.47 67.293v11.7c0 2.019-3.442 3.67-7.684 3.67-4.243 0-7.684-1.651-7.684-3.67v-11.7h15.368z" fill="#fff"/><path d="M295.468 67.293c0 8.83-5.651 11.459-11.078 10.994h-.048c-2.401-.224-4.226-2.276-4.226-4.68V67.31h15.352v-.016z" fill="#66B0F0"/><path d="M299.039 64.28v.594a2.365 2.365 0 01-2.369 2.371h-1.217l.016.273a6.835 6.835 0 01-6.835 6.843h-1.681a6.836 6.836 0 01-6.836-6.843l.016-.273h-1.216a2.366 2.366 0 01-2.37-2.371v-.593a2.366 2.366 0 012.37-2.372h1.552l.177-2.901c0-.449.064-.882.192-1.282 4.578 1.138 9.941-1.811 11.382-2.693a4.234 4.234 0 012.737 3.959l.176 2.9h1.553a2.386 2.386 0 012.353 2.389z" fill="#fff"/><path d="M296.782 61.908h-1.665l-.176-2.9a4.234 4.234 0 00-2.737-3.96c-1.441.866-6.804 3.815-11.382 2.693a4.218 4.218 0 00-.192 1.282l-.177 2.901h-1.04s-2.129-10.32-.032-12.212c1.553-1.394 15.768 1.65 17.337 3.814.881 1.234.064 8.382.064 8.382z" fill="#E57281"/><path d="M292.78 61.283a.229.229 0 01-.16-.064c-.016-.016-1.057-.865-2.722-.865a.246.246 0 01-.24-.24c0-.129.112-.241.24-.241 1.841 0 2.978.93 3.026.978.096.08.112.24.032.336-.032.064-.112.096-.176.096zm-6.084 4.967c-.032 0-.064 0-.08-.015-.128-.048-.192-.193-.144-.305.449-1.186.336-2.676-.288-3.99-.368-.802-.896-1.379-1.361-1.539-1.024-.353-2.465.144-2.481.144-.128.048-.256-.016-.304-.144-.048-.128.016-.256.144-.304.064-.016 1.601-.545 2.786-.145.592.209 1.2.866 1.632 1.795.673 1.427.785 3.061.305 4.376-.016.064-.113.128-.209.128zm3.155 2.55c.016.128-.096.24-.224.256h-.016c-.128 0-.224-.096-.24-.224a2.178 2.178 0 00-.096-.465c-.689.337-1.313.449-1.825.449-1.009 0-1.617-.417-1.649-.449-.112-.08-.128-.224-.064-.336.08-.113.224-.129.336-.065.032.017.544.37 1.377.37.448 0 .992-.097 1.616-.402-.096-.16-.192-.256-.192-.256a.233.233 0 01.016-.337c.096-.08.257-.08.337.017.032.047.576.656.624 1.442zm.864-4.58c.22-.015.377-.384.35-.825-.028-.442-.229-.79-.45-.775-.22.013-.377.383-.349.824.027.442.228.789.449.775z" fill="#66B0F0"/><path d="M284.179 64.154c.203-.013.347-.353.322-.759-.025-.406-.21-.726-.413-.713-.203.013-.347.352-.322.759.025.406.21.725.413.713zm-4.478.894a.246.246 0 01-.24-.24c0-.706-.576-1.267-1.265-1.267a.246.246 0 01-.24-.24c0-.128.112-.24.24-.24a1.75 1.75 0 011.745 1.746c0 .145-.112.24-.24.24zm16.105 0a.246.246 0 01-.241-.24 1.75 1.75 0 011.745-1.748c.128 0 .24.113.24.24 0 .13-.112.241-.24.241-.704 0-1.264.577-1.264 1.266 0 .145-.096.24-.24.24z" fill="#66B0F0"/><path fill-rule="evenodd" clip-rule="evenodd" d="M79.87 192.905a11.196 11.196 0 0110.755-8.104h416.142c4.933 0 9.298 3.23 10.721 7.954m-436.696.417L15.367 419.995l-.923-.267L79.87 192.905m.922.267a10.237 10.237 0 019.833-7.41h416.142c4.512 0 8.502 2.956 9.801 7.271L585.133 420l.919-.278-68.564-226.967m-130.85-83.696H204.621v-.961h182.017v.961z" fill="#66B0F0"/><path d="M267.791 143.068h42.999v36.973h-42.999v-36.973z" fill="#FFCF2D"/><path d="M428.581 314.856l-19.995-49.842h32.193l-12.198 49.842zm-54.862-116.369a24.776 24.776 0 0121.9-13.206h24.765l16.825 13.206h-63.49z" fill="#9A3B82"/><path d="M467.609 256.839h-62.385l23.485 57.07c-1.633-2.66-11.414.112-21.772 6.475-10.229 6.282-17.145 13.847-15.736 16.603l-50.619-88.178c-13.127-22.244 2.881-50.323 28.687-50.323h139.802l.305.962c9.124 28.367-12.007 57.391-41.767 57.391z" fill="#3FB1B5"/><path d="M511.489 214.849a43.381 43.381 0 01-3.33 14.905l-73.319-31.252h72.775l1.697 4.968c1.184 2.981 1.841 7.164 2.177 11.379z" fill="#E6E6E6"/><path d="M428.725 313.908c1.633 2.66-5.507 9.921-15.849 16.283-10.357 6.363-19.979 9.552-21.611 6.891-1.633-2.66 5.33-10.176 15.688-16.539 10.342-6.362 20.123-9.295 21.772-6.635z" fill="#66B0F0"/><path fill-rule="evenodd" clip-rule="evenodd" d="M475.53 202.551a.481.481 0 01.569.372c2.528 11.998-6.616 23.289-18.864 23.289h-88.671c-6.947 0-11.312 7.488-7.922 13.547l.001.001 45.527 80.579a.482.482 0 01-.836.474l-45.528-80.581-.001-.002c-3.749-6.698 1.075-14.979 8.759-14.979h88.671c11.638 0 20.327-10.729 17.924-22.13a.482.482 0 01.371-.57z" fill="#fff"/><path fill-rule="evenodd" clip-rule="evenodd" d="M421.887 313.54c-3.701.923-8.645 3.187-14.693 6.714-5.357 3.127-9.779 6.787-12.651 9.981-1.438 1.599-2.472 3.064-3.046 4.272-.286.604-.449 1.125-.498 1.554-.05.427.015.733.146.946a.48.48 0 11-.818.504c-.277-.452-.349-.992-.283-1.561.066-.568.272-1.194.586-1.856.628-1.324 1.728-2.867 3.199-4.503 2.947-3.276 7.449-6.997 12.882-10.168 6.071-3.541 11.109-5.86 14.944-6.816 1.916-.478 3.568-.625 4.914-.389 1.362.239 2.422.875 3.091 1.949a.48.48 0 11-.815.509c-.499-.801-1.296-1.309-2.442-1.511-1.16-.203-2.665-.087-4.516.375z" fill="#fff"/><path fill-rule="evenodd" clip-rule="evenodd" d="M399.675 243.334a.48.48 0 01.629.258l29.744 70.997a.481.481 0 11-.886.372l-29.744-70.997a.483.483 0 01.257-.63zm40.416-44.896h-72.567v-.961h72.567v.961z" fill="#fff"/><path d="M408.569 340.752l-4.322-5.897-5.955-8.11c2.433-2.051 5.363-4.183 8.645-6.202 6.531-4.007 12.822-6.667 17.001-7.404l2.897 5.785 3.618 7.212c-2.561 9.119-21.884 14.616-21.884 14.616z" fill="#E57281"/><path d="M426.85 318.924c-2.69 3.286-7.748 7.436-13.976 11.267-2.993 1.843-5.923 3.413-8.612 4.664l-5.955-8.11c2.433-2.051 5.362-4.183 8.644-6.202 6.532-4.007 12.823-6.667 17.001-7.404l2.898 5.785z" fill="#9A3B82"/><path d="M450.241 357.918l-43.928 31.588c-3.73 2.596-9.525 4.76-8.756-4.632 1.072-12.949 3.938-32.213 11.014-44.137.304-.08 19.322-5.577 21.883-14.616l20.027 14.248c5.763 4.487 5.635 13.238-.24 17.549z" fill="#fff"/><path fill-rule="evenodd" clip-rule="evenodd" d="M430.177 325.334l20.589 14.648.009.006c6.014 4.684 5.881 13.817-.251 18.317l-.002.001-43.933 31.592-.003.002c-.951.663-2.046 1.305-3.146 1.744-1.092.436-2.239.69-3.273.515-1.071-.182-1.971-.817-2.529-2.034-.543-1.186-.756-2.908-.561-5.291.537-6.489 1.524-14.564 3.265-22.516 1.74-7.946 4.238-15.801 7.814-21.827l.101-.169.19-.05.005-.002.015-.004a.906.906 0 00.051-.015l.182-.053a64.894 64.894 0 002.895-.961 66.898 66.898 0 006.858-2.88c2.538-1.249 5.128-2.766 7.236-4.52 2.113-1.759 3.699-3.721 4.302-5.848l.186-.655zm.53 1.557c-.789 2.132-2.418 4.032-4.404 5.685-2.188 1.821-4.852 3.377-7.427 4.644-4.624 2.274-9.018 3.638-9.99 3.926-3.449 5.876-5.891 13.546-7.606 21.377-1.729 7.898-2.711 15.929-3.246 22.39-.189 2.313.034 3.843.478 4.811.429.937 1.067 1.36 1.815 1.487.784.133 1.738-.053 2.757-.46 1.011-.403 2.038-1.003 2.951-1.638l.003-.002 43.918-31.582.002-.001c5.613-4.121 5.738-12.481.235-16.774l-19.486-13.863z" fill="#FFCF2D"/><path fill-rule="evenodd" clip-rule="evenodd" d="M432.793 327.436a.482.482 0 01.331.594c-.793 2.796-2.654 5.313-5.01 7.497-2.359 2.186-5.241 4.063-8.124 5.575-2.884 1.512-5.783 2.666-8.187 3.402-1.201.368-2.286.634-3.187.786-.886.15-1.644.2-2.169.101a.48.48 0 01.178-.945c.348.066.965.043 1.831-.104.85-.144 1.893-.398 3.066-.757 2.347-.719 5.191-1.85 8.022-3.335 2.833-1.485 5.638-3.316 7.917-5.429 2.282-2.115 4.011-4.488 4.739-7.053a.48.48 0 01.593-.332z" fill="#FFCF2D"/><path d="M401.814 386.253s28.671-39.874 49.066-37.63c22.204 2.42-67.22 60.884-49.066 37.63z" fill="#FFCF2D"/><path fill-rule="evenodd" clip-rule="evenodd" d="M400.059 385.347l-.39-.282.39.282-.006.007-.005.007c-1.568 2.011-1.694 3.521-1.321 4.452.375.941 1.315 1.452 2.24 1.392a.48.48 0 01.062.959c-1.3.084-2.65-.631-3.194-1.994-.548-1.371-.227-3.24 1.45-5.394h.001l.017-.023a3.86 3.86 0 01.065-.09l.256-.348c.225-.304.557-.748.987-1.313.86-1.13 2.112-2.74 3.681-4.665 3.136-3.848 7.541-8.957 12.615-13.995 5.07-5.035 10.822-10.013 16.651-13.587 5.818-3.568 11.779-5.778 17.247-5.176 1.772.191 3.012 1.021 3.689 2.169.67 1.136.755 2.529.332 3.798a.48.48 0 11-.911-.304c.346-1.039.263-2.139-.248-3.006-.504-.855-1.457-1.539-2.966-1.701h-.001c-5.154-.568-10.889 1.513-16.64 5.04-5.741 3.52-11.433 8.441-16.477 13.45-5.042 5.007-9.425 10.089-12.547 13.92a181.345 181.345 0 00-3.661 4.64c-.427.561-.757 1.002-.979 1.303-.112.15-.196.265-.253.343l-.063.087-.016.022-.005.007z" fill="#FFCF2D"/><path d="M511.649 218.103c-10.149-2.404-35.41-8.735-64.226-15.402-13.543-3.125-24.877-12.356-30.72-24.985l-26.238-56.83 15.88-25.194a28.481 28.481 0 0122.348-13.254l15.625-.961c15.752-.962 28.399 8.879 33.201 23.927l31.777 93.082c3.49 8.719 2.353 19.617 2.353 19.617z" fill="#fff"/><path fill-rule="evenodd" clip-rule="evenodd" d="M444.346 81.957l-15.624.962a28 28 0 00-21.971 13.03l-15.742 24.973 26.129 56.592c5.781 12.495 16.994 21.627 30.392 24.719 19.908 4.606 38.128 9.054 50.833 12.155 5.364 1.309 9.745 2.378 12.854 3.118.023-.306.051-.734.075-1.264.051-1.147.084-2.768.009-4.659-.151-3.789-.736-8.631-2.452-12.918l-.004-.011-31.781-93.094-.002-.004-.001-.005c-4.744-14.866-17.209-24.54-32.715-23.594zm67.303 136.146l.477.05-.057.544-.531-.126c-3.143-.745-7.73-1.864-13.419-3.253-12.702-3.101-30.901-7.543-50.805-12.148-13.688-3.159-25.143-12.489-31.048-25.252l-26.348-57.067 16.02-25.415a28.961 28.961 0 0122.725-13.477l15.624-.962c15.997-.976 28.825 9.028 33.687 24.256l.002.005 31.77 93.061c1.77 4.429 2.362 9.39 2.514 13.226a56.194 56.194 0 01-.009 4.74c-.026.585-.057 1.05-.082 1.37l-.03.367-.005.055-.004.041-.003.025-.001.007v.003l-.477-.05z" fill="#FE5244"/><path fill-rule="evenodd" clip-rule="evenodd" d="M403.875 124.334c-.001-.001-.001-.001.404-.259l.405-.259.001.002.004.005.016.025.07.105c.063.093.159.231.289.409.259.356.653.872 1.185 1.501a37.553 37.553 0 004.891 4.773c4.415 3.604 11.185 7.571 20.602 9.006l-.144.951c-9.618-1.466-16.543-5.521-21.065-9.212a38.413 38.413 0 01-5.017-4.897 26.986 26.986 0 01-1.229-1.556 13.718 13.718 0 01-.405-.582l-.005-.009-.002-.003z" fill="#FE5244"/><path d="M415.549 100.164c-.864-.93-2.385-.673-2.913.465-.593 1.282.48 2.708 1.873 2.5 1.425-.209 2.017-1.923 1.04-2.965z" fill="#FFCF2D"/><path fill-rule="evenodd" clip-rule="evenodd" d="M412.2 100.427c.67-1.444 2.6-1.772 3.7-.59 1.241 1.324.486 3.503-1.322 3.768-1.768.264-3.132-1.547-2.379-3.178h.001zm.871.405c-.431.933.35 1.974 1.366 1.822h.002a1.29 1.29 0 00.759-2.16l-.001-.002a1.298 1.298 0 00-2.126.34z" fill="#FE5244"/><path d="M455.427 127.553c-.864-.93-2.385-.673-2.913.464-.593 1.282.48 2.709 1.873 2.501 1.424-.209 2.017-1.924 1.04-2.965z" fill="#FFCF2D"/><path fill-rule="evenodd" clip-rule="evenodd" d="M452.078 127.815c.67-1.443 2.6-1.772 3.7-.59 1.241 1.325.486 3.504-1.321 3.769-1.769.264-3.133-1.547-2.379-3.178v-.001zm.871.405c-.431.933.35 1.975 1.366 1.823l.002-.001a1.29 1.29 0 00.76-2.16l-.001-.001a1.298 1.298 0 00-2.127.339z" fill="#FE5244"/><path d="M468.058 138.771c-.865-.929-2.386-.673-2.914.465-.592 1.282.48 2.709 1.873 2.5 1.409-.192 2.001-1.907 1.041-2.965z" fill="#FFCF2D"/><path fill-rule="evenodd" clip-rule="evenodd" d="M464.708 139.034c.671-1.443 2.601-1.772 3.701-.59l.004.005c1.208 1.33.479 3.515-1.328 3.764-1.768.262-3.13-1.548-2.377-3.178v-.001zm.872.405c-.431.933.35 1.974 1.366 1.822l.006-.001c1.008-.137 1.462-1.378.752-2.163a1.298 1.298 0 00-2.124.342z" fill="#FE5244"/><path d="M492.278 202.252c-.865-.93-2.386-.673-2.914.465-.592 1.282.48 2.708 1.873 2.5 1.409-.209 2.001-1.907 1.041-2.965z" fill="#FFCF2D"/><path fill-rule="evenodd" clip-rule="evenodd" d="M488.929 202.515c.67-1.444 2.601-1.773 3.7-.59l.004.004c1.214 1.336.471 3.498-1.325 3.764-1.769.264-3.133-1.547-2.38-3.178h.001zm.871.404c-.431.934.35 1.975 1.366 1.823h.001c1.02-.151 1.462-1.385.757-2.164a1.298 1.298 0 00-2.124.341z" fill="#FE5244"/><path d="M478.719 171.914c-.864-.93-2.385-.673-2.913.465-.593 1.282.48 2.708 1.873 2.5 1.424-.208 2.017-1.923 1.04-2.965z" fill="#FFCF2D"/><path fill-rule="evenodd" clip-rule="evenodd" d="M475.37 172.177c.67-1.444 2.6-1.772 3.7-.591 1.241 1.325.487 3.504-1.321 3.769-1.769.264-3.133-1.547-2.379-3.178zm.871.405c-.431.933.35 1.974 1.367 1.822h.001c1.041-.153 1.471-1.402.76-2.16l-.001-.002a1.299 1.299 0 00-2.127.34z" fill="#FE5244"/><path d="M484.338 150.085c-1.249.161-1.937 1.555-1.313 2.645.704 1.234 2.481 1.186 3.122-.08.656-1.283-.4-2.757-1.809-2.565z" fill="#FFCF2D"/><path fill-rule="evenodd" clip-rule="evenodd" d="M486.575 152.868c-.813 1.606-3.072 1.668-3.967.101-.793-1.386.079-3.155 1.667-3.36 1.79-.243 3.133 1.631 2.3 3.259zm-.855-.437c.478-.935-.291-2.009-1.317-1.869l-.004.001c-.908.116-1.412 1.135-.957 1.928v.001a1.29 1.29 0 002.277-.059l.001-.002z" fill="#FE5244"/><path d="M494.567 182.458c-1.248.161-1.937 1.555-1.312 2.645a1.768 1.768 0 003.121-.08c.657-1.282-.384-2.757-1.809-2.565z" fill="#FFCF2D"/><path fill-rule="evenodd" clip-rule="evenodd" d="M496.804 185.241c-.813 1.606-3.071 1.668-3.966.101-.794-1.386.079-3.155 1.667-3.36 1.809-.243 3.131 1.633 2.299 3.259zm-.855-.437a1.285 1.285 0 00-1.317-1.869l-.004.001c-.908.116-1.411 1.135-.957 1.928l.001.001c.514.9 1.808.867 2.276-.059l.001-.002z" fill="#FE5244"/><path d="M452.145 147.537c-.865-.93-2.386-.673-2.914.465-.592 1.282.48 2.708 1.873 2.5 1.409-.208 2.001-1.907 1.041-2.965z" fill="#FFCF2D"/><path fill-rule="evenodd" clip-rule="evenodd" d="M448.796 147.8c.67-1.444 2.601-1.773 3.7-.59l.004.004c1.214 1.336.472 3.498-1.325 3.764-1.769.264-3.133-1.547-2.38-3.178h.001zm.871.405c-.431.933.35 1.974 1.366 1.822h.001c1.02-.151 1.462-1.385.757-2.164a1.297 1.297 0 00-2.124.342z" fill="#FE5244"/><path d="M443.324 165.695c-.865-.929-2.386-.673-2.914.465-.592 1.282.48 2.708 1.873 2.5 1.425-.208 2.017-1.923 1.041-2.965z" fill="#FFCF2D"/><path fill-rule="evenodd" clip-rule="evenodd" d="M439.975 165.958c.671-1.443 2.601-1.772 3.701-.591 1.241 1.325.486 3.504-1.322 3.769-1.769.264-3.132-1.547-2.379-3.177v-.001zm.872.405c-.431.933.35 1.974 1.366 1.822h.002a1.29 1.29 0 00.759-2.16l-.001-.002a1.298 1.298 0 00-2.126.34z" fill="#FE5244"/><path d="M427.54 159.349c.928-.865.672-2.388-.464-2.917-1.281-.593-2.706.481-2.498 1.875.209 1.411 1.905 2.004 2.962 1.042z" fill="#FFCF2D"/><path fill-rule="evenodd" clip-rule="evenodd" d="M424.103 158.377c-.264-1.77 1.545-3.136 3.174-2.382l.001.001c1.442.671 1.77 2.604.589 3.704l-.004.004c-1.335 1.215-3.494.472-3.76-1.327zm2.77-1.509c-.932-.431-1.972.35-1.82 1.368v.001c.151 1.02 1.383 1.463 2.161.758.674-.63.489-1.74-.341-2.127z" fill="#FE5244"/><path d="M441.547 190.601c.928-.865.672-2.388-.464-2.917-1.281-.593-2.706.481-2.498 1.875.208 1.427 1.921 2.02 2.962 1.042z" fill="#FFCF2D"/><path fill-rule="evenodd" clip-rule="evenodd" d="M438.11 189.629c-.263-1.771 1.546-3.136 3.174-2.382l.001.001c1.442.67 1.77 2.603.59 3.704-1.324 1.242-3.5.487-3.765-1.323zm2.771-1.509c-.933-.431-1.973.35-1.821 1.368l.001.001c.152 1.042 1.4 1.473 2.157.761l.002-.001a1.302 1.302 0 00-.339-2.129z" fill="#FE5244"/><path d="M465.128 163.789c.928-.866.672-2.388-.465-2.917-1.28-.593-2.705.481-2.497 1.875.208 1.41 1.921 2.019 2.962 1.042z" fill="#FFCF2D"/><path fill-rule="evenodd" clip-rule="evenodd" d="M461.691 162.817c-.264-1.771 1.546-3.136 3.174-2.382h.001c1.442.671 1.77 2.603.59 3.704-1.327 1.246-3.5.466-3.765-1.322zm2.771-1.51c-.932-.431-1.972.351-1.821 1.368l.001.001c.152 1.032 1.403 1.47 2.157.761l.002-.001a1.301 1.301 0 00-.339-2.129z" fill="#FE5244"/><path d="M473.18 197.347c.929-.865.673-2.388-.464-2.917-1.281-.593-2.705.481-2.497 1.876.192 1.426 1.905 2.019 2.961 1.041z" fill="#FFCF2D"/><path fill-rule="evenodd" clip-rule="evenodd" d="M469.744 196.374c-.262-1.769 1.546-3.132 3.174-2.379l.001.001c1.442.671 1.77 2.604.589 3.704l-.001.002c-1.332 1.232-3.515.495-3.763-1.328zm2.771-1.506c-.933-.431-1.973.35-1.821 1.368l.001.007c.139 1.027 1.379 1.474 2.159.753a1.301 1.301 0 00-.339-2.128z" fill="#FE5244"/><path d="M424.898 129.381c-.865-.93-2.385-.673-2.914.465-.592 1.282.481 2.708 1.873 2.5 1.425-.209 2.017-1.924 1.041-2.965z" fill="#FFCF2D"/><path fill-rule="evenodd" clip-rule="evenodd" d="M421.55 129.641c.67-1.443 2.6-1.772 3.7-.59 1.241 1.325.486 3.504-1.322 3.769-1.768.264-3.132-1.547-2.379-3.178l.001-.001zm.871.405c-.431.934.35 1.975 1.366 1.823l.002-.001a1.29 1.29 0 00.76-2.16l-.002-.001a1.297 1.297 0 00-2.126.339z" fill="#FE5244"/><path d="M427.764 87.806c-.865-.929-2.386-.673-2.914.465-.592 1.282.48 2.709 1.873 2.5 1.425-.208 2.017-1.923 1.041-2.965z" fill="#FFCF2D"/><path fill-rule="evenodd" clip-rule="evenodd" d="M424.414 88.07c.67-1.444 2.601-1.773 3.7-.591 1.241 1.325.487 3.504-1.321 3.769-1.769.264-3.132-1.547-2.379-3.178zm.872.404a1.295 1.295 0 001.366 1.822h.002a1.29 1.29 0 00.759-2.16l-.001-.001a1.298 1.298 0 00-2.126.34z" fill="#FE5244"/><path d="M455.427 87.806c-.864-.929-2.385-.673-2.913.465-.593 1.282.48 2.709 1.873 2.5 1.424-.208 2.017-1.923 1.04-2.965z" fill="#FFCF2D"/><path fill-rule="evenodd" clip-rule="evenodd" d="M452.078 88.07c.67-1.444 2.6-1.773 3.7-.591 1.241 1.325.486 3.504-1.321 3.769-1.769.264-3.133-1.547-2.379-3.178zm.871.404a1.295 1.295 0 001.366 1.822h.002a1.29 1.29 0 00.76-2.16l-.001-.001a1.299 1.299 0 00-2.127.34z" fill="#FE5244"/><path d="M455.474 105.757c-1.168.465-1.505 1.972-.624 2.885.976 1.01 2.689.545 3.009-.833.321-1.394-1.056-2.58-2.385-2.052z" fill="#FFCF2D"/><path fill-rule="evenodd" clip-rule="evenodd" d="M455.297 105.31c1.69-.672 3.438.835 3.031 2.606v.001c-.407 1.752-2.584 2.34-3.823 1.059v-.001c-1.12-1.162-.69-3.075.792-3.665m2.095 2.39c.233-1.018-.772-1.882-1.74-1.497v.001a1.296 1.296 0 101.74 1.496z" fill="#FE5244"/><path d="M439.754 95.532a1.781 1.781 0 00-.913 2.805c.881 1.106 2.625.801 3.074-.53.464-1.361-.801-2.676-2.161-2.275z" fill="#FFCF2D"/><path fill-rule="evenodd" clip-rule="evenodd" d="M439.619 95.07c1.736-.51 3.339 1.163 2.751 2.892-.572 1.693-2.789 2.074-3.904.674l-.004-.006c-.974-1.26-.387-3.112 1.157-3.56zm1.842 2.582c.339-.995-.586-1.95-1.572-1.66l-.001.001a1.3 1.3 0 00-.669 2.046c.647.808 1.916.58 2.241-.386l.001-.001z" fill="#FE5244"/><path d="M437.433 139.926c-1.249.144-1.953 1.522-1.345 2.628.689 1.234 2.466 1.218 3.122-.032.672-1.266-.352-2.756-1.777-2.596z" fill="#FFCF2D"/><path fill-rule="evenodd" clip-rule="evenodd" d="M439.634 142.745c.856-1.612-.453-3.501-2.255-3.298h-.001c-1.592.184-2.482 1.936-1.711 3.338l.002.002c.872 1.564 3.129 1.549 3.965-.042zm-2.147-2.343c1.046-.117 1.786.974 1.298 1.893l-.001.002c-.477.908-1.771.925-2.276.023-.444-.81.074-1.813.979-1.918z" fill="#FE5244"/><path d="M423.714 173.309c-1.249.144-1.953 1.522-1.345 2.628.688 1.234 2.465 1.218 3.122-.032.672-1.266-.352-2.756-1.777-2.596z" fill="#FFCF2D"/><path fill-rule="evenodd" clip-rule="evenodd" d="M425.915 176.13c.856-1.612-.452-3.501-2.255-3.299l-.001.001c-1.591.183-2.482 1.935-1.711 3.338l.002.002c.872 1.564 3.129 1.549 3.965-.042zm-2.147-2.343c1.047-.117 1.787.974 1.299 1.893l-.001.002c-.477.908-1.772.925-2.277.022-.444-.809.074-1.812.979-1.917z" fill="#FE5244"/><path d="M428.324 108.769a1.782 1.782 0 00-.913 2.805c.881 1.106 2.626.801 3.074-.529.464-1.346-.784-2.661-2.161-2.276z" fill="#FFCF2D"/><path fill-rule="evenodd" clip-rule="evenodd" d="M430.94 111.201c.591-1.719-1.002-3.381-2.745-2.894l-.004.001c-1.545.448-2.133 2.301-1.159 3.561l.004.005c1.115 1.4 3.332 1.02 3.904-.673zm-2.484-1.969c1.009-.28 1.911.684 1.576 1.657l-.002.003c-.325.965-1.594 1.193-2.241.385a1.3 1.3 0 01.667-2.045z" fill="#FE5244"/><path d="M441.579 117.745a1.782 1.782 0 00-.913 2.805c.881 1.105 2.626.801 3.074-.529.464-1.362-.784-2.677-2.161-2.276z" fill="#FFCF2D"/><path fill-rule="evenodd" clip-rule="evenodd" d="M441.446 117.282c1.752-.509 3.338 1.165 2.75 2.892-.572 1.694-2.789 2.075-3.904.674l-.005-.005c-.974-1.26-.386-3.113 1.159-3.561zm1.84 2.583c.34-.997-.572-1.95-1.572-1.659h-.001a1.3 1.3 0 00-.668 2.046c.646.808 1.916.579 2.241-.386v-.001z" fill="#FE5244"/><path d="M412.877 117.359c.801-.977.368-2.452-.848-2.82-1.345-.417-2.626.833-2.226 2.179.401 1.378 2.162 1.747 3.074.641z" fill="#FFCF2D"/><path fill-rule="evenodd" clip-rule="evenodd" d="M412.168 114.079c1.549.471 2.093 2.348 1.079 3.586l-.001.001c-1.159 1.405-3.396.934-3.904-.812-.511-1.721 1.124-3.301 2.826-2.775zm-.282.919c-.986-.305-1.912.614-1.623 1.584v.003a1.291 1.291 0 002.242.469 1.286 1.286 0 00-.617-2.055l-.002-.001z" fill="#FE5244"/><path d="M473.564 117.408c.801-.978.368-2.452-.848-2.821-1.345-.416-2.626.834-2.226 2.18.385 1.378 2.162 1.747 3.074.641z" fill="#FFCF2D"/><path fill-rule="evenodd" clip-rule="evenodd" d="M472.857 114.128c1.549.471 2.093 2.348 1.079 3.585l-.001.002c-1.155 1.4-3.413.94-3.905-.814-.508-1.721 1.125-3.299 2.827-2.773zm-.283.919c-.985-.305-1.911.614-1.622 1.583l.002.008c.278.999 1.571 1.275 2.24.465a1.287 1.287 0 00-.617-2.055l-.003-.001z" fill="#FE5244"/><path d="M458.164 182.379c.8-.978.368-2.452-.849-2.821-1.344-.417-2.625.833-2.225 2.18.384 1.362 2.161 1.731 3.074.641z" fill="#FFCF2D"/><path fill-rule="evenodd" clip-rule="evenodd" d="M457.456 179.099c1.548.47 2.092 2.347 1.079 3.585l-.003.004c-1.154 1.379-3.41.924-3.903-.816-.509-1.721 1.125-3.299 2.827-2.773zm-.283.919c-.986-.306-1.911.613-1.623 1.583l.002.007c.277.981 1.571 1.262 2.242.465a1.287 1.287 0 00-.618-2.054l-.003-.001z" fill="#FE5244"/><path d="M445.389 80.95l-1.072.048-15.625.962a28.273 28.273 0 00-11.254 3.093l-4.802-14.392 21.403-15.706 11.35 25.995z" fill="#E57281"/><path d="M417.374 84.829c4.451-2.02 8.005-5.61 10.022-10.065l7.78-17.228-1.137-2.596-21.403 15.705 4.738 14.184z" fill="#9A3B82"/><path d="M435.415 56.398a5.38 5.38 0 01-1.585 3.814 5.368 5.368 0 01-3.81 1.586h-4.706c-1.857 7.228-9.045 12.18-16.777 10.818l-3.538-.625c-3.874-.689-6.515-4.31-5.971-8.205l4.146-20.787c.721-4.439 5.283-7.148 9.525-5.625l6.868 2.757a9.212 9.212 0 016.211 8.702v2.003l4.242.16a5.4 5.4 0 015.395 5.401z" fill="#E57281"/><path fill-rule="evenodd" clip-rule="evenodd" d="M431.173 54.106a3.325 3.325 0 00-3.33 3.334.4.4 0 11-.8 0 4.126 4.126 0 014.13-4.135.4.4 0 010 .801zm-26.094-6.731a.4.4 0 01.4-.4v.4l.001-.4h.05c.03.002.071.003.124.007.106.007.257.02.445.047.374.053.895.16 1.494.371 1.2.424 2.713 1.27 3.97 2.957a.401.401 0 01-.641.48c-1.145-1.536-2.513-2.3-3.595-2.681a7.044 7.044 0 00-1.341-.334 5.09 5.09 0 00-.481-.046h-.027.001" fill="#9A3B82"/><path d="M407.714 53.373c.169-.932-.047-1.752-.481-1.83-.435-.08-.925.611-1.094 1.543-.169.932.046 1.752.481 1.83.435.08.925-.611 1.094-1.543z" fill="#9A3B82"/><path d="M430.021 50.996a5.4 5.4 0 015.395 5.4v.08c2.401-3.701 8.292-13.125 8.292-16.314 0-4.28-5.331-8.558-10.853-6.603.368-.272.752-.56 1.152-.865 2.129-1.667 3.25-2.917 3.426-3.815.064-.32.016-.609-.144-.833-.64-.914-1.345-1.314-2.097-1.186-1.105.176-2.241 1.538-3.378 4.039a30.855 30.855 0 00-1.137 2.948c-.448-2.676-2.609-11.539-11.894-10.176-3.202.465-4.706 1.795-5.123 3.253-2.657-2.083-6.211-3.718-9.157-2.163-5.09 2.676-4.466 7.067-1.52 10.176-2.786-.048-4.739.77-4.739 3.126 0 2.163 2.225 3.205 5.283 3.621 3.058.417 6.98.193 10.373-.192a105.86 105.86 0 005.988-.85c-.929 1.908-1.297 3.543-1.217 4.92.144 2.854 2.209 4.536 5.123 5.13.624.127 1.296.208 1.985.24l4.242.064zm5.267-23.495c.048-.016.096-.016.16-.016.448 0 .88.32 1.313.93.032.064.08.16.048.336-.256 1.298-3.538 3.766-5.443 5.064.752-2.211 2.337-6.041 3.922-6.314z" fill="#FFCF2D"/><path d="M385.645 173.759H283.19c-2.529 0-4.05-2.789-2.705-4.92l13.639-21.444a9.636 9.636 0 018.133-4.471h69.349l14.039 30.835z" fill="#E57281"/><path d="M304.514 142.94l8.164-13.462a2.687 2.687 0 012.289-1.298c2.097 0 3.378 2.291 2.29 4.086l-6.484 10.674h-6.259z" fill="#FE5244"/><path d="M385.645 173.759h-23.036l-.16-.16c-5.603-5.77-7.988-14.52-4.835-22.95l3.282-7.725h10.71l14.039 30.835z" fill="#9A3B82"/><path d="M297.662 159.367h-12.839a2.42 2.42 0 00-2.097 1.218l-1.361 2.372c-.912 1.603.24 3.606 2.097 3.606h10.326a5.16 5.16 0 004.402-2.468l1.105-1.811c.768-1.282-.144-2.917-1.633-2.917z" fill="#E57281"/><path d="M294.349 166.562H281.51a2.42 2.42 0 00-2.097 1.219l-1.361 2.371c-.912 1.603.24 3.606 2.097 3.606h10.326a5.16 5.16 0 004.402-2.468l1.105-1.811c.784-1.282-.144-2.917-1.633-2.917zm6.98-14.486H288.49a2.42 2.42 0 00-2.097 1.218l-1.361 2.372c-.913 1.603.24 3.606 2.097 3.606h10.326a5.161 5.161 0 004.402-2.468l1.104-1.811c.785-1.282-.144-2.917-1.632-2.917z" fill="#E57281"/><path fill-rule="evenodd" clip-rule="evenodd" d="M282.38 160.386a2.82 2.82 0 012.444-1.419h12.839c1.805 0 2.902 1.979 1.976 3.523l-.001.002-1.105 1.812-.001.001a5.562 5.562 0 01-4.743 2.659h-10.326c-2.165 0-3.509-2.336-2.445-4.205l.001-.001 1.361-2.372zm.694.399l-1.36 2.371c-.761 1.336.2 3.007 1.749 3.007h10.326a4.762 4.762 0 004.061-2.277v-.001l1.103-1.807v-.001c.61-1.019-.118-2.309-1.29-2.309h-12.839a2.02 2.02 0 00-1.75 1.017z" fill="#9A3B82"/><path fill-rule="evenodd" clip-rule="evenodd" d="M279.065 167.581a2.822 2.822 0 012.445-1.419h12.838c1.799 0 2.924 1.975 1.975 3.527l-1.105 1.81v.001a5.563 5.563 0 01-4.744 2.659h-10.325c-2.165 0-3.509-2.336-2.445-4.205l.001-.001 1.36-2.372zm.694.399l-1.36 2.371v.001c-.76 1.336.201 3.006 1.75 3.006h10.325a4.76 4.76 0 004.061-2.277h.001l1.104-1.811c.62-1.013-.113-2.307-1.292-2.307H281.51c-.721 0-1.389.388-1.751 1.017zm6.286-14.887a2.822 2.822 0 012.445-1.419h12.838c1.799 0 2.924 1.975 1.975 3.527l-1.105 1.81v.001a5.563 5.563 0 01-4.744 2.659h-10.325c-2.165 0-3.509-2.336-2.445-4.205l.001-.001 1.36-2.372zm.694.399l-1.36 2.371c-.76 1.337.201 3.007 1.75 3.007h10.325a4.76 4.76 0 004.061-2.277l.001-.001 1.104-1.81c.62-1.013-.113-2.307-1.292-2.307H288.49c-.721 0-1.389.388-1.751 1.017z" fill="#9A3B82"/><path d="M319.915 162.796a15.898 15.898 0 01-10.486-3.943l-4.867-4.263h-4.482l-1.153 1.234c-2.065 2.212-4.61 3.478-7.636 3.478h-2.145c-1.12 0-1.809-1.25-1.2-2.195l5.394-8.462h26.591v14.151h-.016z" fill="#E57281"/><path fill-rule="evenodd" clip-rule="evenodd" d="M293.555 148.307a.4.4 0 01.122.553l-5.394 8.462-.001.002c-.435.676.057 1.578.864 1.578h2.145c2.901 0 5.344-1.194 7.343-3.35l.001-.001 1.271-1.361h4.806l4.98 4.362m-5.28-3.561l4.753 4.164v.001a16.359 16.359 0 0010.749 4.041.4.4 0 000-.801c-3.76 0-7.397-1.375-10.222-3.844m-5.28-3.561h-4.159l-1.033 1.106v.001c-2.131 2.299-4.779 3.605-7.929 3.605h-2.145c-1.434 0-2.318-1.598-1.538-2.812l.001-.001 5.394-8.461a.4.4 0 01.552-.122" fill="#9A3B82"/><path d="M428.004 143.788l-24.445 27.341a27.082 27.082 0 01-20.203 9.039c-15.24 0-25.789-15.225-20.443-29.521l29.04-68.305-9.813-5.497a4.797 4.797 0 01-1.761-4.6l1.665-11.234c.512-2.5 3.057-4.455 5.539-5.032l11.494-2.596c.976-.225 1.873.609 1.713 1.586l-1.665 8.67c-.657 4.232 2.193 7.886 6.419 8.607 3.458.593 5.891 4.07 5.571 7.564l-7.828 48.881c-.016.032 8.004 12.549 24.717 15.097z" fill="#E57281"/><path fill-rule="evenodd" clip-rule="evenodd" d="M409.319 91.034a.4.4 0 01.335.457l-9.445 61.397a.4.4 0 11-.791-.121l9.445-61.398a.4.4 0 01.456-.335zm-19.627-29.606a.4.4 0 01.387.413l-.128 3.974c-.043 1.473.832 2.727 2.033 3.076l14.696 2.978a.4.4 0 11-.159.785l-14.727-2.984-.015-.004c-1.61-.458-2.68-2.084-2.628-3.875v-.001l.128-3.975a.401.401 0 01.413-.387z" fill="#9A3B82"/><path fill-rule="evenodd" clip-rule="evenodd" d="M398.904 53.362a1.543 1.543 0 011.879 1.774l-1.519 8.695c-.51 3.674 1.981 7.092 5.637 7.747l11.758 1.57a.4.4 0 01-.106.794l-11.775-1.572-.008-.002c-4.085-.726-6.872-4.546-6.298-8.655l.001-.007 1.522-8.71a.743.743 0 00-.905-.855h-.001l-12.008 2.806a.401.401 0 01-.182-.78l12.004-2.805h.001z" fill="#9A3B82"/><path fill-rule="evenodd" clip-rule="evenodd" d="M442.289 128.629l-31.825 35.451-.714-.643 31.825-35.451.714.643z" fill="#FE5244"/><path fill-rule="evenodd" clip-rule="evenodd" d="M391.889 82.36a.4.4 0 01.4-.401h5.619a.4.4 0 010 .801h-5.619a.4.4 0 01-.4-.4zm2.933-27.173c.574.391.999 1.034.989 1.839l-.112 8.364c-.001 1.038-.744 1.952-1.777 1.952h-1.761c-1.625 0-2.865-1.475-2.865-3.173v-1.282a.4.4 0 11.8 0v1.282c0 1.347.969 2.372 2.065 2.372h1.761c.503 0 .977-.463.977-1.154v-.003l.112-8.368c.006-.493-.249-.9-.639-1.166-.397-.27-.907-.374-1.348-.267a.4.4 0 11-.189-.778c.68-.166 1.419-.004 1.987.382z" fill="#9A3B82"/><path fill-rule="evenodd" clip-rule="evenodd" d="M395.41 62.486a.4.4 0 01.401.401v1.282c0 1.347.968 2.372 2.065 2.372h1.12a.401.401 0 010 .801h-1.12c-1.625 0-2.866-1.475-2.866-3.173v-1.282a.4.4 0 01.4-.4z" fill="#9A3B82"/><path fill-rule="evenodd" clip-rule="evenodd" d="M519.832 419.918L501.246 265.07l.954-.115 18.586 154.848-.954.115zm-117.727-.115l18.586-154.848.954.115-18.586 154.848-.954-.115z" fill="#66B0F0"/><path fill-rule="evenodd" clip-rule="evenodd" d="M513.922 367.167H408.954v-.962h104.968v.962z" fill="#66B0F0"/><path d="M410.458 265.494h101.014a2.433 2.433 0 002.433-2.436v-3.302a2.433 2.433 0 00-2.433-2.436H410.458a2.433 2.433 0 00-2.433 2.436v3.302a2.433 2.433 0 002.433 2.436z" fill="#fff"/><path fill-rule="evenodd" clip-rule="evenodd" d="M407.545 259.757a2.914 2.914 0 012.913-2.917h101.014a2.914 2.914 0 012.914 2.917v3.301a2.914 2.914 0 01-2.914 2.917H410.458a2.914 2.914 0 01-2.913-2.917v-3.301zm2.913-1.956a1.954 1.954 0 00-1.953 1.956v3.301c0 1.081.874 1.955 1.953 1.955h101.014c1.08 0 1.953-.874 1.953-1.955v-3.301a1.953 1.953 0 00-1.953-1.956H410.458z" fill="#FFCF2D"/><path d="M242.369 148.309l-15.464 31.86h-46.729l18.778-31.86h43.415z" fill="#fff"/><path fill-rule="evenodd" clip-rule="evenodd" d="M198.726 147.908h44.283l-15.853 32.662h-47.68l19.25-32.662zm.457.802l-18.306 31.059h45.778l15.075-31.059h-42.547z" fill="#3FB1B5"/><path fill-rule="evenodd" clip-rule="evenodd" d="M213.724 154.541c.357.228.71.455 1.063.67.571.347 1.248.458 2.03.397.786-.061 1.652-.294 2.576-.607a51.517 51.517 0 001.749-.639c.363-.137.73-.276 1.103-.412.964-.351 1.945-.672 2.892-.843 2.554-.469 4.388.206 5.585 1.016a6.618 6.618 0 011.312 1.169 5.098 5.098 0 01.404.536l.022.035a.04.04 0 01.006.011l.002.003.001.001v.001l-.345.203-.345.203-.002-.004-.005-.007-.009-.016a4.402 4.402 0 00-.337-.445 5.825 5.825 0 00-1.153-1.026c-1.04-.704-2.664-1.319-4.992-.891h-.002c-.877.158-1.805.46-2.761.807-.351.129-.71.264-1.071.4a53.8 53.8 0 01-1.797.657c-.945.32-1.885.578-2.771.647-.89.069-1.75-.05-2.508-.512-.389-.236-.764-.477-1.132-.712-.926-.594-1.809-1.159-2.752-1.568-1.286-.56-2.64-.803-4.253-.353-1.684.471-3.152 1.158-4.201 1.729-.523.286-.941.541-1.226.724-.143.092-.252.166-.326.216l-.082.057a.47.47 0 00-.02.014l-.004.003-.001.001-.235-.325-.234-.325h.001l.001-.002.007-.004.024-.017.091-.064a20.799 20.799 0 011.622-.982c1.084-.59 2.61-1.305 4.368-1.796 1.828-.511 3.373-.226 4.787.389 1.006.437 1.971 1.055 2.918 1.661zm-1.601 4.969c.357.228.71.455 1.063.669.571.348 1.248.459 2.03.398.785-.061 1.652-.294 2.576-.607a53.768 53.768 0 001.749-.639c.363-.137.73-.276 1.103-.412.964-.351 1.945-.672 2.892-.843 2.554-.469 4.388.206 5.585 1.016a6.587 6.587 0 011.312 1.169 5.114 5.114 0 01.404.535l.022.036.006.01.002.004.001.001v.001l-.345.203-.345.202-.002-.004a.068.068 0 01-.005-.007 4.617 4.617 0 00-.346-.46 5.794 5.794 0 00-1.153-1.026c-1.04-.704-2.664-1.32-4.992-.892l-.002.001c-.877.158-1.805.459-2.761.807-.351.128-.71.264-1.071.4-.603.228-1.21.458-1.797.657-.945.32-1.885.578-2.771.647-.89.069-1.75-.05-2.508-.512-.389-.237-.764-.477-1.132-.712-.926-.594-1.809-1.159-2.752-1.569-1.286-.559-2.64-.803-4.253-.352-1.684.471-3.152 1.158-4.201 1.729a19.992 19.992 0 00-1.552.939l-.082.058a.47.47 0 00-.02.014l-.005.003v.001l-.235-.325-.234-.325h.001l.001-.002.007-.005.024-.017.091-.063a18.573 18.573 0 011.622-.982c1.084-.59 2.609-1.305 4.368-1.797 1.828-.511 3.372-.225 4.787.389 1.006.437 1.971 1.055 2.918 1.662z" fill="#3FB1B5"/><path d="M259.947 291.297c0 4.28-11.863 7.741-26.719 7.741-14.856 0-26.366-3.461-26.366-7.741 0-4.279 11.51-7.74 26.366-7.74s26.719 3.477 26.719 7.74z" fill="#FE5244"/><path d="M253.111 286.089v55.291l-1.681-7.981a18.546 18.546 0 00-18.153-14.728c-2.642 0-5.235.561-7.588 1.618-.081.032-.161.08-.257.113l-6.163-22.502-3.426-12.516c4.691-1.138 10.758-1.827 17.386-1.827 7.876 0 14.968.977 19.882 2.532z" fill="#A0505A"/><path d="M253.111 286.089v10.417c-4.914 1.554-12.006 2.532-19.882 2.532-5.107 0-9.878-.417-13.96-1.122l-3.426-12.517c4.691-1.137 10.758-1.827 17.386-1.827 7.876-.016 14.968.962 19.882 2.517z" fill="#73325A"/><path d="M251.925 339.761c.432.128 4.499 1.266 8.101 1.266 1.953 0 3.762-.336 4.786-1.362.881-.882 1.089-2.164.625-3.782-.417-1.443-1.217-2.34-2.386-2.661-2.145-.577-5.123 1.026-7.476 2.709 3.666-4.456 7.284-10.113 5.939-13.815-.48-1.314-1.568-2.196-2.929-2.356-1.137-.128-2.193.272-2.69 1.026-2.305 3.509-4.194 17.917-4.274 18.526l.304.449zm4.643-18.527c.288-.432.896-.689 1.601-.689.112 0 .224 0 .336.016.512.064 1.745.353 2.273 1.827.352.978.48 2.773-.944 5.786-1.345 2.853-3.779 6.202-7.236 10 .512-3.654 2.145-14.167 3.97-16.94zm7.684 17.87c-1.057 1.058-3.458 1.378-6.964.929a38.2 38.2 0 01-4.466-.865c.688-.609 1.969-1.715 3.458-2.741 2.849-1.971 5.122-2.82 6.579-2.419.881.24 1.473.929 1.825 2.099.384 1.346.24 2.324-.432 2.997z" fill="#FFCF2D"/><path d="M219.43 324.888l-3.698 4.151a14.54 14.54 0 00-1.697 17.02l16.281 27.95a17.752 17.752 0 0015.336 8.815h6.74c4.882 0 8.516-4.488 7.508-9.264l-8.485-40.146a18.546 18.546 0 00-18.154-14.728 18.458 18.458 0 00-13.831 6.202z" fill="#fff"/><path fill-rule="evenodd" clip-rule="evenodd" d="M219.13 324.621a18.862 18.862 0 0114.131-6.336 18.947 18.947 0 0118.544 15.046m0 .001l8.485 40.146c1.061 5.025-2.763 9.746-7.9 9.746h-6.739a18.151 18.151 0 01-15.682-9.013l-16.28-27.95a14.94 14.94 0 011.743-17.489l3.698-4.15m14.129-5.535a18.054 18.054 0 00-13.531 6.068h-.001l-3.697 4.151h-.001a14.14 14.14 0 00-1.65 16.551h.001l16.28 27.95a17.353 17.353 0 0014.991 8.616h6.739c4.629 0 8.073-4.253 7.117-8.78l-8.485-40.146a18.145 18.145 0 00-17.762-14.41h-.001z" fill="#3FB1B5"/><path d="M232.028 336.972l21.019 40.771c.993 1.843 2.225 3.029 3.634 3.782a7.663 7.663 0 01-4.29 1.314h-6.74a17.747 17.747 0 01-15.336-8.814l-16.28-27.966a14.945 14.945 0 01-1.489-3.558c-2.306-8.574 7.444-15.305 14.76-10.273 1.664 1.138 3.297 2.676 4.722 4.744z" fill="#3FB1B5"/><path d="M232.076 337.069h-19.403c.096-.305.208-.593.337-.866h18.441c.192.257.385.513.577.785l.048.081zm2.849 5.513h-22.348c0-.032-.016-.064-.016-.08a13.82 13.82 0 01-.176-.785h22.108l.432.865zm2.85 5.528h-22.541l-.512-.881h22.604l.449.881zm2.849 5.529h-22.172l-.512-.881h22.236l.448.881zm2.849 5.513h-21.804l-.512-.865h21.868l.448.865zm2.85 5.53h-21.436l-.512-.881h21.484l.464.881zm2.849 5.53h-21.067l-.512-.882h21.115l.464.882zm2.834 5.513h-20.555c-.208-.289-.416-.577-.608-.866h20.715l.448.866zm4.21 5.529h-17.865a16.664 16.664 0 01-1.681-.865h18.394c.368.32.752.609 1.152.865z" fill="#fff"/><path d="M194.375 290.159c-.144 4.231-12.134 7.661-26.894 7.661-14.76 0-26.75-3.414-26.895-7.661V256.84h53.789v33.319z" fill="#73325A"/><path d="M190.805 295.688l-.08 3.958-.769 38.64v-1.122c0-9.92-8.036-17.966-17.945-17.966h-1.089a18.918 18.918 0 00-12.999 5.145l-2.353-15.93-1.457-9.857c3.938.657 8.501 1.026 13.351 1.026 9.99-.016 18.682-1.587 23.341-3.894z" fill="#A0505A"/><path d="M190.804 295.688l-.08 3.958c-5.955 4.231-24.349 9.44-35.139 8.75l-1.457-9.856c3.939.641 8.501 1.026 13.351 1.026 9.974 0 18.666-1.571 23.325-3.878z" fill="#73325A"/><path d="M172.829 383.353h2.977c7.813 0 14.152-6.346 14.152-14.167v-32.021c0-9.92-8.036-17.966-17.946-17.966h-1.088c-11.526 0-20.411 10.177-18.858 21.62l3.762 27.694c1.168 8.494 8.42 14.84 17.001 14.84z" fill="#fff"/><path fill-rule="evenodd" clip-rule="evenodd" d="M151.669 340.873c-1.586-11.683 7.486-22.074 19.254-22.074h1.089c10.13 0 18.346 8.225 18.346 18.366v32.021c0 8.042-6.519 14.568-14.552 14.568h-2.978c-8.781 0-16.201-6.494-17.397-15.186l-3.762-27.695zm.793-.108l3.762 27.693c1.141 8.296 8.224 14.495 16.604 14.495h2.978c7.591 0 13.751-6.167 13.751-13.767v-32.021c0-9.699-7.857-17.565-17.545-17.565h-1.089c-11.284 0-19.981 9.963-18.461 21.165z" fill="#3FB1B5"/><path d="M185.508 379.49a14.115 14.115 0 01-9.701 3.863h-2.978c-8.58 0-15.832-6.347-16.985-14.841l-3.762-27.693a17.91 17.91 0 01-.144-1.571c.961-6.138 6.259-10.834 12.663-10.834a12.81 12.81 0 018.324 3.077 12.8 12.8 0 014.339 7.757l4.946 33.8a11.172 11.172 0 003.298 6.442z" fill="#3FB1B5"/><path d="M175.773 334.969h-22.364c.16-.305.352-.593.544-.865h21.292a7.7 7.7 0 01.528.865zm1.666 5.514h-25.406c-.032-.289-.064-.577-.08-.866h25.358l.128.866zm.816 5.529h-25.47l-.128-.866h25.47l.128.866zm.8 5.528h-25.518l-.128-.882h25.518l.128.882zm.816 5.513H154.29l-.128-.865h25.581l.128.865zm.801 5.529h-25.646l-.112-.865h25.63l.128.865zm.816 5.53h-25.71l-.112-.882h25.694l.128.882zm.817 5.513h-24.942a10.212 10.212 0 01-.384-.865h25.181l.048.288.097.577zm2.865 5.529h-23.581c-.32-.272-.64-.576-.928-.865h23.772c.224.305.481.593.737.865z" fill="#fff"/><path d="M206.014 116.976v26.989c-1.168-3.061-10.421-2.628-20.603 1.234-8.724 3.317-15.272 7.869-16.232 11.026v-37.983c0-11.298 6.035-21.395 15.304-26.908 12.038 2.1 21.531 12.597 21.531 25.642zm-37.54-24.423a31.275 31.275 0 00-13.415 25.69v31.332h-45.577l6.292-27.117a34.53 34.53 0 0121.915-24.697l30.785-5.208z" fill="#FFCF2D"/><path d="M260.651 226.661v62.904c0-4.279-12.567-7.741-27.423-7.741-14.856 0-26.894 3.462-26.894 7.741v-30.146a2.57 2.57 0 00-2.562-2.564h-81.707c-24.573 0-42.743-22.902-37.188-46.861l19.722-85.069a34.518 34.518 0 0127.839-26.251l5.251-.898a34.532 34.532 0 00-21.916 24.697l-6.291 27.117h45.576v-31.348a31.297 31.297 0 0113.415-25.69l7.204-1.219a25.773 25.773 0 014.403-.368h.56c.176 0 .352.016.512.016h.096c.128 0 .272.016.4.016h.064c.08 0 .161.016.225.016.144.016.272.016.416.032l.496.048.464.048c.032 0 .064.016.112.016.16.016.337.048.497.064h.032c.176.032.352.048.528.08-9.269 5.513-15.304 15.61-15.304 26.909v77.007h60.096c17.321.032 31.377 14.087 31.377 31.444z" fill="#FE5244"/><path fill-rule="evenodd" clip-rule="evenodd" d="M169.908 91.572a.48.48 0 01-.12.669c-8.089 5.63-14.266 15.669-14.266 26.001v31.812h-46.661l6.428-27.706m54.619-30.776a.48.48 0 00-.668-.12l.668.12zm-.668-.12c-8.304 5.78-14.678 16.095-14.678 26.79l14.678-26.79zm-14.678 26.79v30.851-30.851zm0 30.851h-44.491 44.491zm60.982 75.919a.48.48 0 01.057.677 37.328 37.328 0 00-8.787 24.067.48.48 0 01-.96 0 38.28 38.28 0 019.014-24.687.48.48 0 01.676-.057z" fill="#fff"/><path d="M139.754 246.566a.367.367 0 01-.224-.064l-2.113-1.154a.478.478 0 01-.192-.657.476.476 0 01.656-.193l2.113 1.154a.478.478 0 01.193.657.506.506 0 01-.433.257zm2.113-.545a.46.46 0 01-.416-.257.478.478 0 01.192-.657l2.113-1.154a.491.491 0 01.657.193.478.478 0 01-.192.657l-2.113 1.154a.676.676 0 01-.241.064zm-6.339-1.747a.367.367 0 01-.224-.064l-2.113-1.154a.478.478 0 01-.192-.657.476.476 0 01.656-.193l2.113 1.154c.24.129.32.417.192.657a.503.503 0 01-.432.257zm10.55-.561a.464.464 0 01-.417-.256.479.479 0 01.193-.658l2.113-1.153a8.765 8.765 0 001.04-.658.484.484 0 01.673.097.485.485 0 01-.096.673c-.369.272-.753.513-1.153.737l-2.113 1.154a.452.452 0 01-.24.064zm-14.728-1.811a.516.516 0 01-.288-.096 9.81 9.81 0 01-1.825-1.731.466.466 0 01.064-.673.465.465 0 01.672.064 8.89 8.89 0 001.649 1.554.505.505 0 01.112.674c-.08.144-.224.208-.384.208zm19.674-1.683a.449.449 0 01-.304-.112.466.466 0 01-.064-.673 8.93 8.93 0 001.201-1.939.486.486 0 01.64-.241c.24.112.352.401.24.641-.352.77-.8 1.491-1.328 2.132a.504.504 0 01-.385.192zm-22.684-1.987a.47.47 0 01-.432-.273 10.513 10.513 0 01-.768-2.404.486.486 0 01.384-.56.486.486 0 01.56.384 9.22 9.22 0 00.688 2.164c.113.24 0 .529-.24.641a.426.426 0 01-.192.048zm24.669-2.34h-.08a.487.487 0 01-.384-.561 8.871 8.871 0 00.144-1.587v-.721c0-.272.208-.481.48-.481.273 0 .481.209.481.481v.721c0 .593-.048 1.186-.16 1.763a.496.496 0 01-.481.385zm-25.549-2.34a.472.472 0 01-.481-.481v-2.404c0-.272.209-.48.481-.48s.48.208.48.48v2.404a.492.492 0 01-.48.481zm25.693-2.452a.472.472 0 01-.48-.481v-2.404c0-.272.208-.48.48-.48.273 0 .481.208.481.48v2.404a.472.472 0 01-.481.481zm-25.693-2.356a.472.472 0 01-.481-.481v-2.404c0-.272.209-.48.481-.48s.48.208.48.48v2.404a.492.492 0 01-.48.481zm25.693-2.452a.472.472 0 01-.48-.481v-2.404c0-.272.208-.48.48-.48.273 0 .481.208.481.48v2.404a.472.472 0 01-.481.481zm-25.693-2.356a.472.472 0 01-.481-.481v-2.404c0-.272.209-.48.481-.48s.48.208.48.48v2.404a.492.492 0 01-.48.481zm25.693-2.452a.472.472 0 01-.48-.481v-2.404c0-.272.208-.48.48-.48.273 0 .481.208.481.48v2.404a.472.472 0 01-.481.481zm-25.693-2.356a.472.472 0 01-.481-.48v-2.068h1.297c.272 0 .48.208.48.481a.472.472 0 01-.48.481h-.336v1.106c0 .256-.224.48-.48.48zm24.829-1.586h-2.401a.473.473 0 01-.481-.481c0-.273.209-.481.481-.481h2.401c.272 0 .48.208.48.481a.472.472 0 01-.48.481zm-4.803 0h-2.401a.472.472 0 01-.48-.481c0-.273.208-.481.48-.481h2.401c.273 0 .481.208.481.481a.472.472 0 01-.481.481zm-4.802 0h-2.401a.472.472 0 01-.481-.481c0-.273.208-.481.481-.481h2.401c.272 0 .48.208.48.481a.472.472 0 01-.48.481zm-4.803 0h-2.401a.472.472 0 01-.48-.481c0-.273.208-.481.48-.481h2.401c.272 0 .481.208.481.481a.473.473 0 01-.481.481zm-4.802 0h-2.402a.472.472 0 01-.48-.481c0-.273.208-.481.48-.481h2.402c.272 0 .48.208.48.481a.472.472 0 01-.48.481zM94.45 243.905a.462.462 0 01-.416-.256.478.478 0 01.192-.657l1.953-1.074c.048-.032.096-.048.144-.08a.49.49 0 01.657.176.49.49 0 01-.176.657.501.501 0 01-.16.08l-1.954 1.074a.362.362 0 01-.24.08zm4.05-2.564a.454.454 0 01-.352-.16.48.48 0 01.032-.673 10.244 10.244 0 001.49-1.731.483.483 0 01.671-.128c.225.144.273.448.129.673a11.6 11.6 0 01-1.633 1.907.564.564 0 01-.337.112zm2.674-3.943c-.064 0-.112-.016-.176-.032a.486.486 0 01-.272-.625c.272-.721.464-1.458.576-2.211a.488.488 0 01.544-.417.49.49 0 01.417.545 10.742 10.742 0 01-.625 2.436.52.52 0 01-.464.304zm.688-4.711a.472.472 0 01-.48-.481v-2.404c0-.273.208-.481.48-.481s.481.208.481.481v2.404a.483.483 0 01-.481.481zm0-4.808a.472.472 0 01-.48-.481v-2.404c0-.272.208-.481.48-.481s.481.209.481.481v2.404a.483.483 0 01-.481.481zm0-4.808a.472.472 0 01-.48-.481v-2.404c0-.272.208-.481.48-.481s.481.209.481.481v2.404a.483.483 0 01-.481.481zm0-4.808a.472.472 0 01-.48-.481v-.24h-1.201a.472.472 0 01-.48-.481c0-.273.208-.481.48-.481h2.162v1.202a.483.483 0 01-.481.481zm-4.082-.721h-2.4a.472.472 0 01-.48-.481c0-.273.208-.481.48-.481h2.401c.272 0 .48.208.48.481a.482.482 0 01-.48.481zm-4.802 0h-2.402a.472.472 0 01-.48-.481c0-.273.208-.481.48-.481h2.402c.272 0 .48.208.48.481a.482.482 0 01-.48.481zm-4.803 0h-2.401a.472.472 0 01-.48-.481c0-.273.208-.481.48-.481h2.401c.272 0 .48.208.48.481a.482.482 0 01-.48.481z" fill="#fff"/><path d="M206.013 143.966c1.169 3.061-6.227 8.494-16.393 12.357-10.165 3.862-19.274 4.455-20.443 1.378-1.168-3.077 6.051-8.622 16.233-12.485 10.181-3.862 19.434-4.327 20.603-1.25z" fill="#FE5244"/><path d="M211.695 243.393v1.699a7.04 7.04 0 00-1.649-.192h-2.065c-3.057 0-5.667-1.956-6.659-4.68l5.859-.786a3.99 3.99 0 014.514 3.959z" fill="#73325A"/><path d="M217.107 251.967v13.045a5.51 5.51 0 01-5.507 5.513h-6.131a5.425 5.425 0 01-3.89-1.618 5.502 5.502 0 01-1.617-3.895h3.986a2.365 2.365 0 002.369-2.372v-3.413a2.364 2.364 0 00-2.369-2.372h-20.379c-7.956 0-14.407-6.459-14.407-14.424v-86.19c.96-3.158 7.508-7.725 16.232-11.027 5.955-2.259 11.606-3.349 15.497-3.253v95.87c0 3.911 3.169 7.084 7.075 7.084h2.065a7.044 7.044 0 017.076 7.052z" fill="#A0505A"/><path d="M200.891 141.945v8.719c-2.898 1.955-6.82 3.958-11.286 5.641-10.182 3.862-19.275 4.455-20.443 1.378v-1.458c.96-3.157 7.508-7.725 16.232-11.026 5.971-2.26 11.607-3.35 15.497-3.254z" fill="#73325A"/><path d="M174.268 77.022l-6.019 15.53-31.024 5.56 8.1-21.09h28.943z" fill="#A0505A"/><path d="M174.269 77.022l-3.25 8.397-30.768 4.808 5.075-13.206h28.943z" fill="#73325A"/><path d="M192.455 45.419c0 2.1-3.634 4.423-7.828 6.378-5.715 2.677-12.455 4.712-12.455 4.712l-4.546 8.574c6.179 3.286 8.596 9.183 9.557 13.302.608 2.629.608 4.504.608 4.504h-43.575s-11.446-37.117 16.136-45.996c16.873-5.433 42.103 3.542 42.103 8.526z" fill="#fff"/><path fill-rule="evenodd" clip-rule="evenodd" d="M177.61 37.713c-8.373-2.176-18.796-3.041-27.111-.364-6.783 2.183-11.146 6.092-13.892 10.72-2.754 4.64-3.897 10.029-4.188 15.177-.29 5.145.273 10.023.911 13.619.319 1.796.656 3.27.913 4.293.128.511.237.91.312 1.18l.02.068h42.718a19.864 19.864 0 00-.057-.74 24.404 24.404 0 00-.522-3.173c-.946-4.058-3.312-9.795-9.314-12.987l-.424-.225 4.865-9.176.192-.058.046.156-.046-.156h.001l.017-.005.057-.018a86.372 86.372 0 001.058-.334c.718-.231 1.735-.568 2.93-.988 2.392-.841 5.489-2.013 8.326-3.342h.001c2.085-.972 4.007-2.025 5.4-3.082.696-.53 1.244-1.047 1.613-1.541.371-.497.538-.936.538-1.32 0-.426-.279-.993-.974-1.677-.68-.67-1.69-1.384-2.984-2.101-2.585-1.433-6.226-2.84-10.406-3.926zm.18 45.174h.481l-.001.481h-44.409l-.105-.339.459-.142-.459.141-.002-.007-.007-.022-.025-.082-.091-.319a46.065 46.065 0 01-.32-1.206 64.117 64.117 0 01-.926-4.359c-.646-3.641-1.221-8.598-.925-13.841.296-5.242 1.463-10.797 4.321-15.614 2.865-4.828 7.415-8.889 14.424-11.145 8.558-2.755 19.185-1.85 27.646.35 4.236 1.1 7.957 2.533 10.63 4.015 1.335.74 2.427 1.502 3.193 2.256.751.74 1.26 1.543 1.26 2.363 0 .666-.287 1.305-.729 1.896-.443.592-1.066 1.172-1.802 1.73-1.473 1.119-3.465 2.205-5.574 3.189-2.878 1.347-6.008 2.531-8.414 3.377a123.057 123.057 0 01-3.8 1.265l-.113.035-4.231 7.98c6.045 3.418 8.426 9.3 9.379 13.385v.001a25.34 25.34 0 01.542 3.3 19.062 19.062 0 01.077 1.216l.001.07v.018l.001.007v.001h-.481z" fill="#FFCF2D"/><path d="M146.317 42.18c5.986 0 10.838-4.857 10.838-10.85 0-5.992-4.852-10.85-10.838-10.85-5.985 0-10.838 4.858-10.838 10.85 0 5.993 4.853 10.85 10.838 10.85z" fill="#fff"/><path fill-rule="evenodd" clip-rule="evenodd" d="M146.318 20.962c-5.721 0-10.358 4.642-10.358 10.369 0 5.726 4.637 10.369 10.358 10.369 5.72 0 10.357-4.643 10.357-10.37 0-5.726-4.637-10.368-10.357-10.368zM135 31.33c0-6.257 5.067-11.33 11.318-11.33 6.25 0 11.318 5.073 11.318 11.33 0 6.259-5.068 11.331-11.318 11.331-6.251 0-11.318-5.072-11.318-11.33z" fill="#FFCF2D"/><path d="M177.166 78.384c-.897-3.895-3.138-9.44-8.661-12.79h-1.424a4.764 4.764 0 01-3.378-1.394 4.774 4.774 0 01-1.393-3.381 4.765 4.765 0 014.771-4.776l6.035.128h.16c.112-.032.224-.08.352-.112 1.633-.353 6.804-1.603 11.094-3.75l.496 2.965 1.601 9.503c1.089 6.523-3.378 12.533-9.653 13.607z" fill="#A0505A"/><path d="M185.203 55.258c-5.251 2.131-12.103.897-12.103.897s6.452-1.282 11.606-3.862l.497 2.965z" fill="#73325A"/><path fill-rule="evenodd" clip-rule="evenodd" d="M167.097 58.432a.4.4 0 01.4-.4 3.695 3.695 0 013.698 3.701.4.4 0 11-.801 0c0-1.605-1.293-2.9-2.897-2.9a.4.4 0 01-.4-.401z" fill="#73325A"/><path fill-rule="evenodd" clip-rule="evenodd" d="M205.858 419.92l-18.586-154.848.954-.115 18.586 154.848-.954.115zm-117.728-.115l18.571-154.848.953.115-18.57 154.847-.953-.114z" fill="#66B0F0"/><path fill-rule="evenodd" clip-rule="evenodd" d="M199.947 367.167H94.979v-.962h104.968v.962z" fill="#66B0F0"/><path d="M91.025 265.013h112.876a2.434 2.434 0 002.434-2.436v-3.301a2.434 2.434 0 00-2.434-2.436H91.025a2.434 2.434 0 00-2.433 2.436v3.301c.016 1.346 1.104 2.436 2.433 2.436z" fill="#fff"/><path fill-rule="evenodd" clip-rule="evenodd" d="M88.11 259.276a2.914 2.914 0 012.914-2.917h112.877a2.914 2.914 0 012.913 2.917v3.302a2.913 2.913 0 01-2.913 2.916H91.024c-1.597 0-2.894-1.307-2.913-2.911v-3.307zm2.914-1.955c-1.08 0-1.953.874-1.953 1.955v3.299c.015 1.087.894 1.958 1.953 1.958h112.877a1.954 1.954 0 001.953-1.955v-3.302a1.953 1.953 0 00-1.953-1.955H91.024z" fill="#FFCF2D"/></svg>