<svg width="1920" height="1080" fill="none" xmlns="http://www.w3.org/2000/svg"><path opacity=".2" d="M0 0h1920v1080H0V0z" fill="url(#paint0_linear_2495_2543)"/><g clip-path="url(#clip0_2495_2543)" fill="#fff"><g opacity=".2" clip-path="url(#clip1_2495_2543)"><path d="M30.098 896C-48.457 896-112 959.544-112 1038.1c0 78.36 63.544 142.09 142.097 142.09 78.359 0 142.098-63.54 142.098-142.09C172 959.544 108.456 896 30.098 896zm0 275.03c-73.486 0-132.937-59.45-132.937-132.93 0-73.488 59.451-132.939 132.936-132.939 73.486 0 132.937 59.451 132.937 132.939 0 73.29-59.646 132.93-132.936 132.93z"/><path d="M30.099 926.603c-61.4 0-111.3 49.899-111.3 111.297 0 61.4 49.9 111.3 111.3 111.3s111.3-49.7 111.3-111.1c0-61.598-49.9-111.497-111.3-111.497zm0 205.637c-52.044 0-94.342-42.29-94.342-94.34 0-52.041 42.298-94.339 94.342-94.339s94.342 42.298 94.342 94.339c0 52.05-42.298 94.34-94.342 94.34z"/><path d="M30.098 975.527c-34.501 0-62.57 28.073-62.57 62.573s27.874 62.57 62.57 62.57c34.501 0 62.57-28.07 62.57-62.57-.195-34.5-28.069-62.573-62.57-62.573zm0 96.093c-18.517 0-33.526-15.01-33.526-33.52 0-18.52 15.009-33.53 33.526-33.53 18.517 0 33.526 15.01 33.526 33.53 0 18.51-15.009 33.52-33.526 33.52z"/></g><path d="M1768.34 789.264c0 1.52-1.15 2.659-2.67 2.659-1.53 0-2.67-1.139-2.67-2.659 0-1.519 1.14-2.659 2.67-2.659 1.52 0 2.67 1.267 2.67 2.659zm22.74 0c0 1.52-1.15 2.659-2.67 2.659-1.53 0-2.67-1.139-2.67-2.659 0-1.519 1.14-2.659 2.67-2.659 1.39 0 2.67 1.267 2.67 2.659zm22.61 0c0 1.52-1.15 2.659-2.67 2.659s-2.67-1.139-2.67-2.659c0-1.519 1.15-2.659 2.67-2.659s2.67 1.267 2.67 2.659zm22.74 0c0 1.52-1.15 2.659-2.67 2.659s-2.67-1.139-2.67-2.659c0-1.519 1.15-2.659 2.67-2.659s2.67 1.267 2.67 2.659zm22.74 0c0 1.52-1.15 2.659-2.67 2.659s-2.67-1.139-2.67-2.659c0-1.519 1.15-2.659 2.67-2.659 1.4 0 2.67 1.267 2.67 2.659zm22.74 0c0 1.52-1.15 2.659-2.67 2.659s-2.67-1.139-2.67-2.659c0-1.519 1.15-2.659 2.67-2.659s2.67 1.267 2.67 2.659zm22.61 0c0 1.52-1.14 2.659-2.67 2.659-1.52 0-2.67-1.139-2.67-2.659 0-1.519 1.15-2.659 2.67-2.659 1.53 0 2.67 1.267 2.67 2.659zm-136.18 18.867c0 1.519-1.15 2.659-2.67 2.659-1.53 0-2.67-1.14-2.67-2.659 0-1.52 1.14-2.659 2.67-2.659 1.52 0 2.67 1.139 2.67 2.659zm22.74 0c0 1.519-1.15 2.659-2.67 2.659-1.53 0-2.67-1.14-2.67-2.659 0-1.52 1.14-2.659 2.67-2.659 1.39 0 2.67 1.139 2.67 2.659zm22.61 0c0 1.519-1.15 2.659-2.67 2.659s-2.67-1.14-2.67-2.659c0-1.52 1.15-2.659 2.67-2.659s2.67 1.139 2.67 2.659zm22.74 0c0 1.519-1.15 2.659-2.67 2.659s-2.67-1.14-2.67-2.659c0-1.52 1.15-2.659 2.67-2.659s2.67 1.139 2.67 2.659zm22.74 0c0 1.519-1.15 2.659-2.67 2.659s-2.67-1.14-2.67-2.659c0-1.52 1.15-2.659 2.67-2.659 1.4 0 2.67 1.139 2.67 2.659zm22.74 0c0 1.519-1.15 2.659-2.67 2.659s-2.67-1.14-2.67-2.659c0-1.52 1.15-2.659 2.67-2.659s2.67 1.139 2.67 2.659zm22.61 0c0 1.519-1.14 2.659-2.67 2.659-1.52 0-2.67-1.14-2.67-2.659 0-1.52 1.15-2.659 2.67-2.659 1.53 0 2.67 1.139 2.67 2.659zm-136.18-56.472c0 1.519-1.15 2.659-2.67 2.659-1.53 0-2.67-1.14-2.67-2.659s1.14-2.659 2.67-2.659c1.52 0 2.67 1.14 2.67 2.659zm22.74 0c0 1.519-1.15 2.659-2.67 2.659-1.53 0-2.67-1.14-2.67-2.659s1.14-2.659 2.67-2.659c1.39 0 2.67 1.14 2.67 2.659zm22.61 0c0 1.519-1.15 2.659-2.67 2.659s-2.67-1.14-2.67-2.659 1.27-2.659 2.67-2.659c1.52 0 2.67 1.14 2.67 2.659zm22.74 0c0 1.519-1.15 2.659-2.67 2.659s-2.67-1.14-2.67-2.659 1.27-2.659 2.67-2.659 2.67 1.14 2.67 2.659zm22.74 0c0 1.519-1.15 2.659-2.67 2.659s-2.67-1.14-2.67-2.659 1.15-2.659 2.67-2.659c1.4 0 2.67 1.14 2.67 2.659zm22.74 0c0 1.519-1.15 2.659-2.67 2.659s-2.67-1.14-2.67-2.659 1.15-2.659 2.67-2.659 2.67 1.14 2.67 2.659zm22.61 0c0 1.519-1.14 2.659-2.67 2.659-1.52 0-2.67-1.14-2.67-2.659s1.15-2.659 2.67-2.659c1.53 0 2.67 1.14 2.67 2.659zm-136.18 18.866c0 1.52-1.15 2.659-2.67 2.659-1.53 0-2.67-1.266-2.67-2.659 0-1.519 1.14-2.659 2.67-2.659 1.52 0 2.67 1.14 2.67 2.659zm22.74 0c0 1.52-1.15 2.659-2.67 2.659-1.53 0-2.67-1.139-2.67-2.659 0-1.519 1.14-2.659 2.67-2.659 1.39 0 2.67 1.14 2.67 2.659zm22.61 0c0 1.52-1.15 2.659-2.67 2.659s-2.67-1.139-2.67-2.659c0-1.519 1.15-2.659 2.67-2.659s2.67 1.14 2.67 2.659zm22.74 0c0 1.52-1.15 2.659-2.67 2.659s-2.67-1.139-2.67-2.659c0-1.519 1.15-2.659 2.67-2.659s2.67 1.14 2.67 2.659zm22.74 0c0 1.52-1.15 2.659-2.67 2.659s-2.67-1.139-2.67-2.659c0-1.519 1.15-2.659 2.67-2.659 1.4 0 2.67 1.14 2.67 2.659zm22.74 0c0 1.52-1.15 2.659-2.67 2.659s-2.67-1.139-2.67-2.659c0-1.519 1.15-2.659 2.67-2.659s2.67 1.14 2.67 2.659zm22.61 0c0 1.52-1.14 2.659-2.67 2.659-1.52 0-2.67-1.139-2.67-2.659 0-1.519 1.15-2.659 2.67-2.659 1.53 0 2.67 1.14 2.67 2.659zm-136.18 56.345c0 1.519-1.15 2.659-2.67 2.659-1.53 0-2.67-1.14-2.67-2.659 0-1.52 1.14-2.659 2.67-2.659 1.52 0 2.67 1.266 2.67 2.659zm22.74 0c0 1.519-1.15 2.659-2.67 2.659-1.53 0-2.67-1.14-2.67-2.659 0-1.52 1.14-2.659 2.67-2.659 1.39 0 2.67 1.266 2.67 2.659zm22.61 0c0 1.519-1.15 2.659-2.67 2.659s-2.67-1.14-2.67-2.659c0-1.52 1.15-2.659 2.67-2.659s2.67 1.266 2.67 2.659zm22.74 0c0 1.519-1.15 2.659-2.67 2.659s-2.67-1.14-2.67-2.659c0-1.52 1.15-2.659 2.67-2.659s2.67 1.266 2.67 2.659zm22.74 0c0 1.519-1.15 2.659-2.67 2.659s-2.67-1.14-2.67-2.659c0-1.52 1.15-2.659 2.67-2.659 1.4 0 2.67 1.266 2.67 2.659zm22.74 0c0 1.519-1.15 2.659-2.67 2.659s-2.67-1.14-2.67-2.659c0-1.52 1.15-2.659 2.67-2.659s2.67 1.266 2.67 2.659zm22.61 0c0 1.519-1.14 2.659-2.67 2.659-1.52 0-2.67-1.14-2.67-2.659 0-1.52 1.15-2.659 2.67-2.659 1.53 0 2.67 1.266 2.67 2.659zm-136.18 18.866c0 1.52-1.15 2.659-2.67 2.659-1.53 0-2.67-1.139-2.67-2.659 0-1.519 1.14-2.659 2.67-2.659 1.52 0 2.67 1.14 2.67 2.659zm22.74 0c0 1.52-1.15 2.659-2.67 2.659-1.53 0-2.67-1.139-2.67-2.659 0-1.519 1.14-2.659 2.67-2.659 1.39 0 2.67 1.14 2.67 2.659zm22.61 0c0 1.52-1.15 2.659-2.67 2.659s-2.67-1.139-2.67-2.659c0-1.519 1.15-2.659 2.67-2.659s2.67 1.14 2.67 2.659zm20.07 2.659c1.47 0 2.67-1.19 2.67-2.659 0-1.468-1.2-2.659-2.67-2.659a2.668 2.668 0 00-2.67 2.659c0 1.469 1.2 2.659 2.67 2.659zm25.41-2.659c0 1.52-1.15 2.659-2.67 2.659s-2.67-1.139-2.67-2.659c0-1.519 1.15-2.659 2.67-2.659 1.4 0 2.67 1.14 2.67 2.659zm22.74 0c0 1.52-1.15 2.659-2.67 2.659s-2.67-1.139-2.67-2.659c0-1.519 1.15-2.659 2.67-2.659s2.67 1.14 2.67 2.659zm22.61 0c0 1.52-1.14 2.659-2.67 2.659-1.52 0-2.67-1.139-2.67-2.659 0-1.519 1.15-2.659 2.67-2.659 1.53 0 2.67 1.14 2.67 2.659zm-136.18 18.865c0 1.52-1.15 2.659-2.67 2.659-1.53 0-2.67-1.139-2.67-2.659 0-1.519 1.14-2.659 2.67-2.659 1.52 0 2.67 1.14 2.67 2.659zm22.74 0c0 1.52-1.15 2.659-2.67 2.659-1.53 0-2.67-1.139-2.67-2.659 0-1.519 1.14-2.659 2.67-2.659 1.39 0 2.67 1.14 2.67 2.659zm22.61 0c0 1.52-1.15 2.659-2.67 2.659s-2.67-1.139-2.67-2.659c0-1.519 1.15-2.659 2.67-2.659s2.67 1.14 2.67 2.659zm22.74 0c0 1.52-1.15 2.659-2.67 2.659s-2.67-1.139-2.67-2.659c0-1.519 1.15-2.659 2.67-2.659s2.67 1.14 2.67 2.659zm22.74 0c0 1.52-1.15 2.659-2.67 2.659s-2.67-1.139-2.67-2.659c0-1.519 1.15-2.659 2.67-2.659 1.4 0 2.67 1.14 2.67 2.659zm22.74 0c0 1.52-1.15 2.659-2.67 2.659s-2.67-1.139-2.67-2.659c0-1.519 1.15-2.659 2.67-2.659s2.67 1.14 2.67 2.659zm22.61 0c0 1.52-1.14 2.659-2.67 2.659-1.52 0-2.67-1.139-2.67-2.659 0-1.519 1.15-2.659 2.67-2.659 1.53 0 2.67 1.14 2.67 2.659zm-136.18 18.74c0 1.519-1.15 2.659-2.67 2.659-1.53 0-2.67-1.14-2.67-2.659 0-1.52 1.14-2.659 2.67-2.659 1.52 0 2.67 1.266 2.67 2.659zm22.74 0c0 1.519-1.15 2.659-2.67 2.659-1.53 0-2.67-1.14-2.67-2.659 0-1.52 1.14-2.659 2.67-2.659 1.39 0 2.67 1.266 2.67 2.659zm22.61 0c0 1.519-1.15 2.659-2.67 2.659s-2.67-1.14-2.67-2.659c0-1.52 1.15-2.659 2.67-2.659s2.67 1.266 2.67 2.659zm22.74 0c0 1.519-1.15 2.659-2.67 2.659s-2.67-1.14-2.67-2.659c0-1.52 1.15-2.659 2.67-2.659s2.67 1.266 2.67 2.659zm22.74 0c0 1.519-1.15 2.659-2.67 2.659s-2.67-1.14-2.67-2.659c0-1.52 1.15-2.659 2.67-2.659 1.4 0 2.67 1.266 2.67 2.659zm22.74 0c0 1.519-1.15 2.659-2.67 2.659s-2.67-1.14-2.67-2.659c0-1.52 1.15-2.659 2.67-2.659s2.67 1.266 2.67 2.659zm22.61 0c0 1.519-1.14 2.659-2.67 2.659-1.52 0-2.67-1.14-2.67-2.659 0-1.52 1.15-2.659 2.67-2.659 1.53 0 2.67 1.266 2.67 2.659z" opacity=".8"/><g opacity=".3"><path d="M1761.81 75.221l9.66 9.659-25.69 25.683-25.68-25.683 9.58-9.586 16.03 16.025 16.1-16.098z"/><path d="M1761.81 40.539l9.58 9.585-25.68 25.684-25.61-25.61 9.66-9.66 16.02 16.025 16.03-16.024z"/><path d="M1761.73 5.782l9.66 9.658-25.61 25.61-25.68-25.683 9.58-9.585 16.03 16.024 16.02-16.024z"/><path d="M1761.81-28.976l9.65 9.659-25.68 25.683-25.68-25.683 9.66-9.66 16.02 16.026 16.03-16.025z"/></g><path opacity=".3" d="M794 808.553c-13.929 13.929-36.623 13.929-50.553 0-13.929-13.93-13.929-36.624 0-50.553L794 808.553zm54.486-278.663c10.719 0 19.451-8.725 19.451-19.437 0-10.711-8.732-19.436-19.451-19.436v38.873zm-30.345 0c10.72 0 19.451-8.725 19.451-19.437 0-10.711-8.731-19.436-19.451-19.436v38.873zm-30.345 0c10.719 0 19.451-8.725 19.451-19.437 0-10.711-8.732-19.436-19.451-19.436v38.873z"/><g opacity=".3"><path d="M146.301 144.921V133H178v31.699h-11.831v-19.778h-19.868z"/><path d="M124.898 166.325v-11.831h31.699v31.609h-11.921v-19.778h-19.778z"/><path d="M103.495 187.819v-11.921h31.608v31.699h-11.831v-19.778h-19.777z"/><path d="M82 209.222v-11.921h31.7V229h-11.921v-19.778H82z"/></g></g><defs><clipPath id="clip0_2495_2543"><path fill="#fff" d="M0 0h1920v1080H0z"/></clipPath><clipPath id="clip1_2495_2543"><path fill="#fff" transform="translate(-112 896)" d="M0 0h284v284H0z"/></clipPath><linearGradient id="paint0_linear_2495_2543" x1="0" y1="1080" x2="1316.78" y2="-502.069" gradientUnits="userSpaceOnUse"><stop stop-color="#FF3F3A"/><stop offset="1" stop-color="#F75E05"/></linearGradient></defs></svg>