<svg width="1920" height="1570" fill="none" xmlns="http://www.w3.org/2000/svg"><g clip-path="url(#clip0_2492_15119)"><path fill="#F4F5F7" d="M0 0h1920v1570H0z"/><g opacity=".4" clip-path="url(#clip1_2492_15119)" fill="#fff"><path d="M1917.09 1407c-71.36 0-129.09 57.73-129.09 129.09 0 71.18 57.73 129.09 129.09 129.09 71.18 0 129.09-57.73 129.09-129.09-.18-71.36-57.91-129.09-129.09-129.09zm0 249.85c-66.76 0-120.77-54-120.77-120.76s54.01-120.77 120.77-120.77c66.76 0 120.76 54.01 120.76 120.77 0 66.58-54.18 120.76-120.76 120.76z"/><path d="M1917.09 1434.8c-55.78 0-101.11 45.33-101.11 101.11s45.33 101.11 101.11 101.11 101.11-45.15 101.11-100.93c0-55.96-45.33-101.29-101.11-101.29zm0 186.82c-47.28 0-85.71-38.43-85.71-85.71 0-47.28 38.43-85.7 85.71-85.7 47.28 0 85.7 38.42 85.7 85.7s-38.42 85.71-85.7 85.71z"/></g><path d="M347.08 1397.86c0 1.16-.874 2.04-2.04 2.04s-2.04-.88-2.04-2.04c0-1.16.874-2.04 2.04-2.04s2.04.97 2.04 2.04zm17.389 0c0 1.16-.874 2.04-2.04 2.04s-2.04-.88-2.04-2.04c0-1.16.874-2.04 2.04-2.04 1.069 0 2.04.97 2.04 2.04zm17.293 0c0 1.16-.875 2.04-2.04 2.04-1.166 0-2.04-.88-2.04-2.04 0-1.16.874-2.04 2.04-2.04 1.165 0 2.04.97 2.04 2.04zm17.389 0c0 1.16-.874 2.04-2.04 2.04s-2.04-.88-2.04-2.04c0-1.16.874-2.04 2.04-2.04s2.04.97 2.04 2.04zm17.389 0c0 1.16-.874 2.04-2.04 2.04s-2.04-.88-2.04-2.04c0-1.16.874-2.04 2.04-2.04 1.069 0 2.04.97 2.04 2.04zm17.389 0c0 1.16-.874 2.04-2.04 2.04s-2.04-.88-2.04-2.04c0-1.16.874-2.04 2.04-2.04s2.04.97 2.04 2.04zm17.293 0c0 1.16-.875 2.04-2.04 2.04-1.166 0-2.04-.88-2.04-2.04 0-1.16.874-2.04 2.04-2.04 1.165 0 2.04.97 2.04 2.04zm17.389 0c0 1.16-.874 2.04-2.04 2.04s-2.04-.88-2.04-2.04c0-1.16.874-2.04 2.04-2.04s2.04.97 2.04 2.04zm17.389 0c0 1.16-.874 2.04-2.04 2.04s-2.04-.88-2.04-2.04c0-1.16.874-2.04 2.04-2.04 1.069 0 2.04.97 2.04 2.04zm-138.92 14.46c0 1.16-.874 2.04-2.04 2.04s-2.04-.88-2.04-2.04c0-1.17.874-2.04 2.04-2.04s2.04.87 2.04 2.04zm17.389 0c0 1.16-.874 2.04-2.04 2.04s-2.04-.88-2.04-2.04c0-1.17.874-2.04 2.04-2.04 1.069 0 2.04.87 2.04 2.04zm17.293 0c0 1.16-.875 2.04-2.04 2.04-1.166 0-2.04-.88-2.04-2.04 0-1.17.874-2.04 2.04-2.04 1.165 0 2.04.87 2.04 2.04zm17.389 0c0 1.16-.874 2.04-2.04 2.04s-2.04-.88-2.04-2.04c0-1.17.874-2.04 2.04-2.04s2.04.87 2.04 2.04zm17.389 0c0 1.16-.874 2.04-2.04 2.04s-2.04-.88-2.04-2.04c0-1.17.874-2.04 2.04-2.04 1.069 0 2.04.87 2.04 2.04zm17.389 0c0 1.16-.874 2.04-2.04 2.04s-2.04-.88-2.04-2.04c0-1.17.874-2.04 2.04-2.04s2.04.87 2.04 2.04zm17.293 0c0 1.16-.875 2.04-2.04 2.04-1.166 0-2.04-.88-2.04-2.04 0-1.17.874-2.04 2.04-2.04 1.165 0 2.04.87 2.04 2.04zm17.389 0c0 1.16-.874 2.04-2.04 2.04s-2.04-.88-2.04-2.04c0-1.17.874-2.04 2.04-2.04s2.04.87 2.04 2.04zm17.389 0c0 1.16-.874 2.04-2.04 2.04s-2.04-.88-2.04-2.04c0-1.17.874-2.04 2.04-2.04 1.069 0 2.04.87 2.04 2.04zm-138.92-43.28c0 1.16-.874 2.04-2.04 2.04s-2.04-.88-2.04-2.04c0-1.17.874-2.04 2.04-2.04s2.04.87 2.04 2.04zm17.389 0c0 1.16-.874 2.04-2.04 2.04s-2.04-.88-2.04-2.04c0-1.17.874-2.04 2.04-2.04 1.069 0 2.04.87 2.04 2.04zm17.293 0c0 1.16-.875 2.04-2.04 2.04-1.166 0-2.04-.88-2.04-2.04 0-1.17.971-2.04 2.04-2.04 1.165 0 2.04.87 2.04 2.04zm17.389 0c0 1.16-.874 2.04-2.04 2.04s-2.04-.88-2.04-2.04c0-1.17.971-2.04 2.04-2.04 1.068 0 2.04.87 2.04 2.04zm17.389 0c0 1.16-.874 2.04-2.04 2.04s-2.04-.88-2.04-2.04c0-1.17.874-2.04 2.04-2.04 1.069 0 2.04.87 2.04 2.04zm17.389 0c0 1.16-.874 2.04-2.04 2.04s-2.04-.88-2.04-2.04c0-1.17.874-2.04 2.04-2.04s2.04.87 2.04 2.04zm17.293 0c0 1.16-.875 2.04-2.04 2.04-1.166 0-2.04-.88-2.04-2.04 0-1.17.874-2.04 2.04-2.04 1.165 0 2.04.87 2.04 2.04zm17.389 0c0 1.16-.874 2.04-2.04 2.04s-2.04-.88-2.04-2.04c0-1.17.874-2.04 2.04-2.04s2.04.87 2.04 2.04zm17.389 0c0 1.16-.874 2.04-2.04 2.04s-2.04-.88-2.04-2.04c0-1.17.874-2.04 2.04-2.04 1.069 0 2.04.87 2.04 2.04zm-138.92 14.46c0 1.16-.874 2.03-2.04 2.03s-2.04-.97-2.04-2.03c0-1.17.874-2.04 2.04-2.04s2.04.87 2.04 2.04zm17.389 0c0 1.16-.874 2.03-2.04 2.03s-2.04-.87-2.04-2.03c0-1.17.874-2.04 2.04-2.04 1.069 0 2.04.87 2.04 2.04zm17.293 0c0 1.16-.875 2.03-2.04 2.03-1.166 0-2.04-.87-2.04-2.03 0-1.17.874-2.04 2.04-2.04 1.165 0 2.04.87 2.04 2.04zm17.389 0c0 1.16-.874 2.03-2.04 2.03s-2.04-.87-2.04-2.03c0-1.17.874-2.04 2.04-2.04s2.04.87 2.04 2.04zm17.389 0c0 1.16-.874 2.03-2.04 2.03s-2.04-.87-2.04-2.03c0-1.17.874-2.04 2.04-2.04 1.069 0 2.04.87 2.04 2.04zm17.389 0c0 1.16-.874 2.03-2.04 2.03s-2.04-.87-2.04-2.03c0-1.17.874-2.04 2.04-2.04s2.04.87 2.04 2.04zm17.293 0c0 1.16-.875 2.03-2.04 2.03-1.166 0-2.04-.87-2.04-2.03 0-1.17.874-2.04 2.04-2.04 1.165 0 2.04.87 2.04 2.04zm17.389 0c0 1.16-.874 2.03-2.04 2.03s-2.04-.87-2.04-2.03c0-1.17.874-2.04 2.04-2.04s2.04.87 2.04 2.04zm17.389 0c0 1.16-.874 2.03-2.04 2.03s-2.04-.87-2.04-2.03c0-1.17.874-2.04 2.04-2.04 1.069 0 2.04.87 2.04 2.04zm-138.92 43.18c0 1.16-.874 2.04-2.04 2.04s-2.04-.88-2.04-2.04c0-1.16.874-2.04 2.04-2.04s2.04.97 2.04 2.04zm17.389 0c0 1.16-.874 2.04-2.04 2.04s-2.04-.88-2.04-2.04c0-1.16.874-2.04 2.04-2.04 1.069 0 2.04.97 2.04 2.04zm17.293 0c0 1.16-.875 2.04-2.04 2.04-1.166 0-2.04-.88-2.04-2.04 0-1.16.874-2.04 2.04-2.04 1.165 0 2.04.97 2.04 2.04zm17.389 0c0 1.16-.874 2.04-2.04 2.04s-2.04-.88-2.04-2.04c0-1.16.874-2.04 2.04-2.04s2.04.97 2.04 2.04zm17.389 0c0 1.16-.874 2.04-2.04 2.04s-2.04-.88-2.04-2.04c0-1.16.874-2.04 2.04-2.04 1.069 0 2.04.97 2.04 2.04zm17.389 0c0 1.16-.874 2.04-2.04 2.04s-2.04-.88-2.04-2.04c0-1.16.874-2.04 2.04-2.04s2.04.97 2.04 2.04zm17.293 0c0 1.16-.875 2.04-2.04 2.04-1.166 0-2.04-.88-2.04-2.04 0-1.16.874-2.04 2.04-2.04 1.165 0 2.04.97 2.04 2.04zm17.389 0c0 1.16-.874 2.04-2.04 2.04s-2.04-.88-2.04-2.04c0-1.16.874-2.04 2.04-2.04s2.04.97 2.04 2.04zm17.389 0c0 1.16-.874 2.04-2.04 2.04s-2.04-.88-2.04-2.04c0-1.16.874-2.04 2.04-2.04 1.069 0 2.04.97 2.04 2.04zm-138.92 14.46c0 1.16-.874 2.04-2.04 2.04s-2.04-.88-2.04-2.04c0-1.17.874-2.04 2.04-2.04s2.04.87 2.04 2.04zm17.389 0c0 1.16-.874 2.04-2.04 2.04s-2.04-.88-2.04-2.04c0-1.17.874-2.04 2.04-2.04 1.069 0 2.04.87 2.04 2.04zm17.293 0c0 1.16-.875 2.04-2.04 2.04-1.166 0-2.04-.88-2.04-2.04 0-1.17.874-2.04 2.04-2.04 1.165 0 2.04.87 2.04 2.04zm15.349 2.04c1.127 0 2.04-.92 2.04-2.04 0-1.13-.913-2.04-2.04-2.04s-2.04.91-2.04 2.04c0 1.12.913 2.04 2.04 2.04zm19.429-2.04c0 1.16-.874 2.04-2.04 2.04s-2.04-.88-2.04-2.04c0-1.17.874-2.04 2.04-2.04 1.069 0 2.04.87 2.04 2.04zm17.389 0c0 1.16-.874 2.04-2.04 2.04s-2.04-.88-2.04-2.04c0-1.17.874-2.04 2.04-2.04s2.04.87 2.04 2.04zm17.293 0c0 1.16-.875 2.04-2.04 2.04-1.166 0-2.04-.88-2.04-2.04 0-1.17.874-2.04 2.04-2.04 1.165 0 2.04.87 2.04 2.04zm15.349 2.04c1.127 0 2.04-.92 2.04-2.04 0-1.13-.913-2.04-2.04-2.04s-2.04.91-2.04 2.04c0 1.12.913 2.04 2.04 2.04zm19.429-2.04c0 1.16-.874 2.04-2.04 2.04s-2.04-.88-2.04-2.04c0-1.17.874-2.04 2.04-2.04 1.069 0 2.04.87 2.04 2.04zm-138.92 14.46c0 1.16-.874 2.04-2.04 2.04s-2.04-.88-2.04-2.04c0-1.16.874-2.04 2.04-2.04s2.04.88 2.04 2.04zm17.389 0c0 1.16-.874 2.04-2.04 2.04s-2.04-.88-2.04-2.04c0-1.16.874-2.04 2.04-2.04 1.069 0 2.04.88 2.04 2.04zm17.293 0c0 1.16-.875 2.04-2.04 2.04-1.166 0-2.04-.88-2.04-2.04 0-1.16.874-2.04 2.04-2.04 1.165 0 2.04.88 2.04 2.04zm17.389 0c0 1.16-.874 2.04-2.04 2.04s-2.04-.88-2.04-2.04c0-1.16.874-2.04 2.04-2.04s2.04.88 2.04 2.04zm17.389 0c0 1.16-.874 2.04-2.04 2.04s-2.04-.88-2.04-2.04c0-1.16.874-2.04 2.04-2.04 1.069 0 2.04.88 2.04 2.04zm17.389 0c0 1.16-.874 2.04-2.04 2.04s-2.04-.88-2.04-2.04c0-1.16.874-2.04 2.04-2.04s2.04.88 2.04 2.04zm17.293 0c0 1.16-.875 2.04-2.04 2.04-1.166 0-2.04-.88-2.04-2.04 0-1.16.874-2.04 2.04-2.04 1.165 0 2.04.88 2.04 2.04zm17.389 0c0 1.16-.874 2.04-2.04 2.04s-2.04-.88-2.04-2.04c0-1.16.874-2.04 2.04-2.04s2.04.88 2.04 2.04zm17.389 0c0 1.16-.874 2.04-2.04 2.04s-2.04-.88-2.04-2.04c0-1.16.874-2.04 2.04-2.04 1.069 0 2.04.88 2.04 2.04zm-138.92 14.36c0 1.17-.874 2.04-2.04 2.04s-2.04-.87-2.04-2.04c0-1.16.874-2.04 2.04-2.04s2.04.97 2.04 2.04zm17.389 0c0 1.17-.874 2.04-2.04 2.04s-2.04-.87-2.04-2.04c0-1.16.874-2.04 2.04-2.04 1.069 0 2.04.97 2.04 2.04zm17.293 0c0 1.17-.875 2.04-2.04 2.04-1.166 0-2.04-.87-2.04-2.04 0-1.16.874-2.04 2.04-2.04 1.165 0 2.04.97 2.04 2.04zm17.389 0c0 1.17-.874 2.04-2.04 2.04s-2.04-.87-2.04-2.04c0-1.16.874-2.04 2.04-2.04s2.04.97 2.04 2.04zm17.389 0c0 1.17-.874 2.04-2.04 2.04s-2.04-.87-2.04-2.04c0-1.16.874-2.04 2.04-2.04 1.069 0 2.04.97 2.04 2.04zm17.389 0c0 1.17-.874 2.04-2.04 2.04s-2.04-.87-2.04-2.04c0-1.16.874-2.04 2.04-2.04s2.04.97 2.04 2.04zm17.293 0c0 1.17-.875 2.04-2.04 2.04-1.166 0-2.04-.87-2.04-2.04 0-1.16.874-2.04 2.04-2.04 1.165 0 2.04.97 2.04 2.04zm17.389 0c0 1.17-.874 2.04-2.04 2.04s-2.04-.87-2.04-2.04c0-1.16.874-2.04 2.04-2.04s2.04.97 2.04 2.04zm17.389 0c0 1.17-.874 2.04-2.04 2.04s-2.04-.87-2.04-2.04c0-1.16.874-2.04 2.04-2.04 1.069 0 2.04.97 2.04 2.04z" fill="#fff"/><path d="M1248.73 990.89c10.6 0 19.23-8.725 19.23-19.437 0-10.711-8.63-19.436-19.23-19.436v38.873zm-30 0c10.6 0 19.23-8.725 19.23-19.437 0-10.711-8.63-19.436-19.23-19.436v38.873zm-30 0c10.6 0 19.23-8.725 19.23-19.437 0-10.711-8.63-19.436-19.23-19.436v38.873z" opacity=".6" fill="#fff"/><g opacity=".6" clip-path="url(#clip2_2492_15119)" fill="#fff"><path d="M147.55 849C107.443 849 75 881.443 75 921.55c0 40.007 32.443 72.55 72.55 72.55 40.007 0 72.55-32.444 72.55-72.55-.1-40.107-32.543-72.55-72.55-72.55zm0 140.422c-37.519 0-67.873-30.353-67.873-67.872s30.354-67.873 67.873-67.873c37.519 0 67.872 30.354 67.872 67.873 0 37.419-30.453 67.872-67.872 67.872z"/><path d="M147.55 864.625c-31.349 0-56.826 25.477-56.826 56.826 0 31.348 25.477 56.825 56.826 56.825 31.348 0 56.825-25.377 56.825-56.726 0-31.448-25.477-56.925-56.825-56.925zm0 104.993c-26.572 0-48.168-21.596-48.168-48.167 0-26.572 21.596-48.168 48.168-48.168s48.167 21.596 48.167 48.168c0 26.571-21.595 48.167-48.167 48.167z"/><path d="M147.55 889.604c-17.615 0-31.946 14.33-31.946 31.945 0 17.615 14.232 31.946 31.946 31.946 17.615 0 31.946-14.331 31.946-31.946-.099-17.615-14.331-31.945-31.946-31.945zm0 49.063c-9.454 0-17.117-7.663-17.117-17.118 0-9.454 7.663-17.117 17.117-17.117 9.455 0 17.118 7.663 17.118 17.117 0 9.455-7.663 17.118-17.118 17.118z"/></g><g opacity=".6" fill="#fff"><path d="M1906.3 547.921V536h31.7v31.699h-11.83v-19.778h-19.87z"/><path d="M1884.9 569.326v-11.831h31.7v31.609h-11.92v-19.778h-19.78z"/><path d="M1863.49 590.818v-11.921h31.61v31.699h-11.83v-19.778h-19.78z"/><path d="M1842 612.222v-11.921h31.7V632h-11.92v-19.778H1842z"/></g><path d="M1256.08 65.86c0 1.165-.87 2.038-2.04 2.038s-2.04-.873-2.04-2.038c0-1.164.87-2.038 2.04-2.038s2.04.97 2.04 2.038zm17.39 0c0 1.165-.87 2.038-2.04 2.038s-2.04-.873-2.04-2.038c0-1.164.87-2.038 2.04-2.038 1.07 0 2.04.97 2.04 2.038zm17.29 0c0 1.165-.87 2.038-2.04 2.038-1.16 0-2.04-.873-2.04-2.038 0-1.164.88-2.038 2.04-2.038 1.17 0 2.04.97 2.04 2.038zm17.39 0c0 1.165-.87 2.038-2.04 2.038-1.16 0-2.04-.873-2.04-2.038 0-1.164.88-2.038 2.04-2.038 1.17 0 2.04.97 2.04 2.038zm17.39 0c0 1.165-.87 2.038-2.04 2.038s-2.04-.873-2.04-2.038c0-1.164.87-2.038 2.04-2.038 1.07 0 2.04.97 2.04 2.038zm17.39 0c0 1.165-.88 2.038-2.04 2.038-1.17 0-2.04-.873-2.04-2.038 0-1.164.87-2.038 2.04-2.038 1.16 0 2.04.97 2.04 2.038zm17.29 0c0 1.165-.87 2.038-2.04 2.038-1.16 0-2.04-.873-2.04-2.038 0-1.164.88-2.038 2.04-2.038 1.17 0 2.04.97 2.04 2.038zm17.39 0c0 1.165-.87 2.038-2.04 2.038-1.16 0-2.04-.873-2.04-2.038 0-1.164.88-2.038 2.04-2.038 1.17 0 2.04.97 2.04 2.038zm17.39 0c0 1.165-.87 2.038-2.04 2.038s-2.04-.873-2.04-2.038c0-1.164.87-2.038 2.04-2.038 1.07 0 2.04.97 2.04 2.038zm-138.92 14.46c0 1.164-.87 2.037-2.04 2.037s-2.04-.873-2.04-2.038c0-1.164.87-2.038 2.04-2.038s2.04.874 2.04 2.038zm17.39 0c0 1.164-.87 2.037-2.04 2.037s-2.04-.873-2.04-2.038c0-1.164.87-2.038 2.04-2.038 1.07 0 2.04.874 2.04 2.038zm17.29 0c0 1.164-.87 2.037-2.04 2.037-1.16 0-2.04-.873-2.04-2.038 0-1.164.88-2.038 2.04-2.038 1.17 0 2.04.874 2.04 2.038zm17.39 0c0 1.164-.87 2.037-2.04 2.037-1.16 0-2.04-.873-2.04-2.038 0-1.164.88-2.038 2.04-2.038 1.17 0 2.04.874 2.04 2.038zm17.39 0c0 1.164-.87 2.037-2.04 2.037s-2.04-.873-2.04-2.038c0-1.164.87-2.038 2.04-2.038 1.07 0 2.04.874 2.04 2.038zm17.39 0c0 1.164-.88 2.037-2.04 2.037-1.17 0-2.04-.873-2.04-2.038 0-1.164.87-2.038 2.04-2.038 1.16 0 2.04.874 2.04 2.038zm17.29 0c0 1.164-.87 2.037-2.04 2.037-1.16 0-2.04-.873-2.04-2.038 0-1.164.88-2.038 2.04-2.038 1.17 0 2.04.874 2.04 2.038zm17.39 0c0 1.164-.87 2.037-2.04 2.037-1.16 0-2.04-.873-2.04-2.038 0-1.164.88-2.038 2.04-2.038 1.17 0 2.04.874 2.04 2.038zm17.39 0c0 1.164-.87 2.037-2.04 2.037s-2.04-.873-2.04-2.038c0-1.164.87-2.038 2.04-2.038 1.07 0 2.04.874 2.04 2.038zm-138.92-43.282c0 1.164-.87 2.038-2.04 2.038s-2.04-.874-2.04-2.038c0-1.165.87-2.038 2.04-2.038s2.04.873 2.04 2.038zm17.39 0c0 1.164-.87 2.038-2.04 2.038s-2.04-.874-2.04-2.038c0-1.165.87-2.038 2.04-2.038 1.07 0 2.04.873 2.04 2.038zm17.29 0c0 1.164-.87 2.038-2.04 2.038-1.16 0-2.04-.874-2.04-2.038 0-1.165.97-2.038 2.04-2.038 1.17 0 2.04.873 2.04 2.038zm17.39 0c0 1.164-.87 2.038-2.04 2.038-1.16 0-2.04-.874-2.04-2.038 0-1.165.97-2.038 2.04-2.038s2.04.873 2.04 2.038zm17.39 0c0 1.164-.87 2.038-2.04 2.038s-2.04-.874-2.04-2.038c0-1.165.87-2.038 2.04-2.038 1.07 0 2.04.873 2.04 2.038zm17.39 0c0 1.164-.88 2.038-2.04 2.038-1.17 0-2.04-.874-2.04-2.038 0-1.165.87-2.038 2.04-2.038 1.16 0 2.04.873 2.04 2.038zm17.29 0c0 1.164-.87 2.038-2.04 2.038-1.16 0-2.04-.874-2.04-2.038 0-1.165.88-2.038 2.04-2.038 1.17 0 2.04.873 2.04 2.038zm17.39 0c0 1.164-.87 2.038-2.04 2.038-1.16 0-2.04-.874-2.04-2.038 0-1.165.88-2.038 2.04-2.038 1.17 0 2.04.873 2.04 2.038zm17.39 0c0 1.164-.87 2.038-2.04 2.038s-2.04-.874-2.04-2.038c0-1.165.87-2.038 2.04-2.038 1.07 0 2.04.873 2.04 2.038zm-138.92 14.459c0 1.164-.87 2.038-2.04 2.038s-2.04-.97-2.04-2.038c0-1.165.87-2.038 2.04-2.038s2.04.873 2.04 2.038zm17.39 0c0 1.164-.87 2.038-2.04 2.038s-2.04-.874-2.04-2.038c0-1.165.87-2.038 2.04-2.038 1.07 0 2.04.873 2.04 2.038zm17.29 0c0 1.164-.87 2.038-2.04 2.038-1.16 0-2.04-.874-2.04-2.038 0-1.165.88-2.038 2.04-2.038 1.17 0 2.04.873 2.04 2.038zm17.39 0c0 1.164-.87 2.038-2.04 2.038-1.16 0-2.04-.874-2.04-2.038 0-1.165.88-2.038 2.04-2.038 1.17 0 2.04.873 2.04 2.038zm17.39 0c0 1.164-.87 2.038-2.04 2.038s-2.04-.874-2.04-2.038c0-1.165.87-2.038 2.04-2.038 1.07 0 2.04.873 2.04 2.038zm17.39 0c0 1.164-.88 2.038-2.04 2.038-1.17 0-2.04-.874-2.04-2.038 0-1.165.87-2.038 2.04-2.038 1.16 0 2.04.873 2.04 2.038zm17.29 0c0 1.164-.87 2.038-2.04 2.038-1.16 0-2.04-.874-2.04-2.038 0-1.165.88-2.038 2.04-2.038 1.17 0 2.04.873 2.04 2.038zm17.39 0c0 1.164-.87 2.038-2.04 2.038-1.16 0-2.04-.874-2.04-2.038 0-1.165.88-2.038 2.04-2.038 1.17 0 2.04.873 2.04 2.038zm17.39 0c0 1.164-.87 2.038-2.04 2.038s-2.04-.874-2.04-2.038c0-1.165.87-2.038 2.04-2.038 1.07 0 2.04.873 2.04 2.038zM1256.08 94.68c0 1.165-.87 2.038-2.04 2.038s-2.04-.873-2.04-2.038c0-1.164.87-2.037 2.04-2.037s2.04.97 2.04 2.037zm17.39 0c0 1.165-.87 2.038-2.04 2.038s-2.04-.873-2.04-2.038c0-1.164.87-2.037 2.04-2.037 1.07 0 2.04.97 2.04 2.037zm17.29 0c0 1.165-.87 2.038-2.04 2.038-1.16 0-2.04-.873-2.04-2.038 0-1.164.88-2.037 2.04-2.037 1.17 0 2.04.97 2.04 2.037zm17.39 0c0 1.165-.87 2.038-2.04 2.038-1.16 0-2.04-.873-2.04-2.038 0-1.164.88-2.037 2.04-2.037 1.17 0 2.04.97 2.04 2.037zm17.39 0c0 1.165-.87 2.038-2.04 2.038s-2.04-.873-2.04-2.038c0-1.164.87-2.037 2.04-2.037 1.07 0 2.04.97 2.04 2.037zm17.39 0c0 1.165-.88 2.038-2.04 2.038-1.17 0-2.04-.873-2.04-2.038 0-1.164.87-2.037 2.04-2.037 1.16 0 2.04.97 2.04 2.037zm17.29 0c0 1.165-.87 2.038-2.04 2.038-1.16 0-2.04-.873-2.04-2.038 0-1.164.88-2.037 2.04-2.037 1.17 0 2.04.97 2.04 2.037zm17.39 0c0 1.165-.87 2.038-2.04 2.038-1.16 0-2.04-.873-2.04-2.038 0-1.164.88-2.037 2.04-2.037 1.17 0 2.04.97 2.04 2.037zm17.39 0c0 1.165-.87 2.038-2.04 2.038s-2.04-.873-2.04-2.038c0-1.164.87-2.037 2.04-2.037 1.07 0 2.04.97 2.04 2.037zm-138.92 14.459c0 1.165-.87 2.038-2.04 2.038s-2.04-.873-2.04-2.038c0-1.164.87-2.037 2.04-2.037s2.04.873 2.04 2.037zm17.39 0c0 1.165-.87 2.038-2.04 2.038s-2.04-.873-2.04-2.038c0-1.164.87-2.037 2.04-2.037 1.07 0 2.04.873 2.04 2.037zm17.29 0c0 1.165-.87 2.038-2.04 2.038-1.16 0-2.04-.873-2.04-2.038 0-1.164.88-2.037 2.04-2.037 1.17 0 2.04.873 2.04 2.037zm15.35 2.038a2.037 2.037 0 100-4.075 2.036 2.036 0 100 4.075zm19.43-2.038c0 1.165-.87 2.038-2.04 2.038s-2.04-.873-2.04-2.038c0-1.164.87-2.037 2.04-2.037 1.07 0 2.04.873 2.04 2.037zm17.39 0c0 1.165-.88 2.038-2.04 2.038-1.17 0-2.04-.873-2.04-2.038 0-1.164.87-2.037 2.04-2.037 1.16 0 2.04.873 2.04 2.037zm17.29 0c0 1.165-.87 2.038-2.04 2.038-1.16 0-2.04-.873-2.04-2.038 0-1.164.88-2.037 2.04-2.037 1.17 0 2.04.873 2.04 2.037zm15.35 2.038a2.037 2.037 0 100-4.075 2.036 2.036 0 100 4.075zm19.43-2.038c0 1.165-.87 2.038-2.04 2.038s-2.04-.873-2.04-2.038c0-1.164.87-2.037 2.04-2.037 1.07 0 2.04.873 2.04 2.037zM1256.08 123.6c0 1.165-.87 2.038-2.04 2.038s-2.04-.873-2.04-2.038c0-1.164.87-2.038 2.04-2.038s2.04.874 2.04 2.038zm17.39 0c0 1.165-.87 2.038-2.04 2.038s-2.04-.873-2.04-2.038c0-1.164.87-2.038 2.04-2.038 1.07 0 2.04.874 2.04 2.038zm17.29 0c0 1.165-.87 2.038-2.04 2.038-1.16 0-2.04-.873-2.04-2.038 0-1.164.88-2.038 2.04-2.038 1.17 0 2.04.874 2.04 2.038zm17.39 0c0 1.165-.87 2.038-2.04 2.038-1.16 0-2.04-.873-2.04-2.038 0-1.164.88-2.038 2.04-2.038 1.17 0 2.04.874 2.04 2.038zm17.39 0c0 1.165-.87 2.038-2.04 2.038s-2.04-.873-2.04-2.038c0-1.164.87-2.038 2.04-2.038 1.07 0 2.04.874 2.04 2.038zm17.39 0c0 1.165-.88 2.038-2.04 2.038-1.17 0-2.04-.873-2.04-2.038 0-1.164.87-2.038 2.04-2.038 1.16 0 2.04.874 2.04 2.038zm17.29 0c0 1.165-.87 2.038-2.04 2.038-1.16 0-2.04-.873-2.04-2.038 0-1.164.88-2.038 2.04-2.038 1.17 0 2.04.874 2.04 2.038zm17.39 0c0 1.165-.87 2.038-2.04 2.038-1.16 0-2.04-.873-2.04-2.038 0-1.164.88-2.038 2.04-2.038 1.17 0 2.04.874 2.04 2.038zm17.39 0c0 1.165-.87 2.038-2.04 2.038s-2.04-.873-2.04-2.038c0-1.164.87-2.038 2.04-2.038 1.07 0 2.04.874 2.04 2.038zm-138.92 14.362c0 1.164-.87 2.038-2.04 2.038s-2.04-.874-2.04-2.038c0-1.165.87-2.038 2.04-2.038s2.04.97 2.04 2.038zm17.39 0c0 1.164-.87 2.038-2.04 2.038s-2.04-.874-2.04-2.038c0-1.165.87-2.038 2.04-2.038 1.07 0 2.04.97 2.04 2.038zm17.29 0c0 1.164-.87 2.038-2.04 2.038-1.16 0-2.04-.874-2.04-2.038 0-1.165.88-2.038 2.04-2.038 1.17 0 2.04.97 2.04 2.038zm17.39 0c0 1.164-.87 2.038-2.04 2.038-1.16 0-2.04-.874-2.04-2.038 0-1.165.88-2.038 2.04-2.038 1.17 0 2.04.97 2.04 2.038zm17.39 0c0 1.164-.87 2.038-2.04 2.038s-2.04-.874-2.04-2.038c0-1.165.87-2.038 2.04-2.038 1.07 0 2.04.97 2.04 2.038zm17.39 0c0 1.164-.88 2.038-2.04 2.038-1.17 0-2.04-.874-2.04-2.038 0-1.165.87-2.038 2.04-2.038 1.16 0 2.04.97 2.04 2.038zm17.29 0c0 1.164-.87 2.038-2.04 2.038-1.16 0-2.04-.874-2.04-2.038 0-1.165.88-2.038 2.04-2.038 1.17 0 2.04.97 2.04 2.038zm17.39 0c0 1.164-.87 2.038-2.04 2.038-1.16 0-2.04-.874-2.04-2.038 0-1.165.88-2.038 2.04-2.038 1.17 0 2.04.97 2.04 2.038zm17.39 0c0 1.164-.87 2.038-2.04 2.038s-2.04-.874-2.04-2.038c0-1.165.87-2.038 2.04-2.038 1.07 0 2.04.97 2.04 2.038z" fill="#fff"/><path opacity=".6" d="M245 116.978c-9.362 9.363-24.616 9.363-33.978 0-9.363-9.362-9.363-24.616 0-33.978L245 116.978z" fill="#fff"/></g><defs><clipPath id="clip0_2492_15119"><path fill="#fff" d="M0 0h1920v1570H0z"/></clipPath><clipPath id="clip1_2492_15119"><path fill="#fff" transform="translate(1788 1407)" d="M0 0h258v258H0z"/></clipPath><clipPath id="clip2_2492_15119"><path fill="#fff" transform="translate(75 849)" d="M0 0h145v145H0z"/></clipPath></defs></svg>