<svg width="1920" height="1283" fill="none" xmlns="http://www.w3.org/2000/svg"><g clip-path="url(#clip0_2492_18323)" fill="#FFCF2D"><g opacity=".12" clip-path="url(#clip1_2492_18323)"><path d="M1925.08 1053c-63.62 0-115.08 51.46-115.08 115.08 0 63.46 51.46 115.08 115.08 115.08 63.46 0 115.08-51.46 115.08-115.08-.16-63.62-51.62-115.08-115.08-115.08zm0 222.74c-59.51 0-107.66-48.15-107.66-107.66s48.15-107.66 107.66-107.66 107.66 48.15 107.66 107.66c0 59.35-48.31 107.66-107.66 107.66z"/><path d="M1925.08 1077.78c-49.73 0-90.14 40.42-90.14 90.14 0 49.73 40.41 90.14 90.14 90.14 49.72 0 90.14-40.26 90.14-89.98 0-49.88-40.42-90.3-90.14-90.3zm0 166.54c-42.15 0-76.4-34.25-76.4-76.4 0-42.15 34.25-76.4 76.4-76.4 42.15 0 76.4 34.25 76.4 76.4 0 42.15-34.25 76.4-76.4 76.4z"/></g><g opacity=".8" clip-path="url(#clip2_2492_18323)"><path d="M1.23 80.33c.793.792.786 1.987-.015 2.788-.801.801-1.996.808-2.788.016-.793-.792-.786-1.987.016-2.788a1.983 1.983 0 012.788-.016zm11.953-11.952c.792.792.785 1.987-.016 2.788-.801.801-1.996.808-2.788.016-.793-.792-.786-1.987.016-2.788.734-.735 2.062-.742 2.788-.016zm11.952-11.953c.792.793.785 1.988-.016 2.789-.801.801-1.996.808-2.788.016-.792-.792-.785-1.987.016-2.788a1.983 1.983 0 012.788-.017zM37.02 44.54c.792.793.786 1.988-.016 2.789-.8.801-1.996.808-2.788.016-.792-.792-.785-1.987.016-2.788a1.983 1.983 0 012.788-.016zm11.953-11.951c.792.792.785 1.987-.017 2.788-.8.801-1.996.808-2.788.016-.792-.792-.785-1.987.016-2.788a1.983 1.983 0 012.789-.016zm11.952-11.953c.792.793.785 1.988-.016 2.789-.802.801-1.997.808-2.789.016s-.785-1.987.017-2.788c.734-.735 2.062-.743 2.788-.017zM-.886 102.117c.792.792.785 1.987-.016 2.788-.802.801-1.997.808-2.789.016s-.785-1.987.016-2.788c.802-.801 1.997-.808 2.789-.016zm11.952-11.952c.792.792.785 1.987-.016 2.788-.802.801-1.997.808-2.789.016s-.785-1.987.016-2.788c.802-.802 1.997-.808 2.789-.016zm11.952-11.952c.792.792.785 1.987-.016 2.788-.801.801-1.996.808-2.788.016-.793-.792-.786-1.987.016-2.788.734-.735 1.996-.808 2.788-.016zM34.97 66.26c.792.792.785 1.987-.016 2.789-.801.801-1.996.808-2.788.016-.792-.792-.785-1.987.016-2.788.801-.802 1.996-.809 2.788-.017zm11.885-11.884c.793.792.786 1.987-.016 2.788-.8.801-1.996.808-2.788.016-.792-.792-.785-1.987.016-2.788.801-.802 1.996-.808 2.788-.016zm11.952-11.953c.792.793.786 1.988-.016 2.789-.8.801-1.996.808-2.788.016-.792-.792-.785-1.987.016-2.788.801-.802 1.996-.809 2.788-.017zM70.76 30.471c.792.792.785 1.987-.017 2.789-.8.8-1.996.808-2.788.016-.792-.792-.785-1.987.016-2.789.735-.734 1.996-.808 2.789-.016zM5.532 36.822c.792.792.785 1.987-.016 2.788-.802.801-1.997.808-2.789.016s-.785-1.987.016-2.788c.802-.801 1.997-.808 2.789-.016zm11.885-11.885c.792.792.785 1.987-.016 2.788-.801.802-1.996.809-2.788.017-.793-.793-.786-1.988.016-2.789.8-.801 1.996-.808 2.788-.016zM29.37 12.985c.791.792.784 1.987-.017 2.788-.801.802-1.996.808-2.788.016-.792-.792-.786-1.987.016-2.788.801-.801 1.996-.808 2.788-.016zM41.321 1.033c.792.792.785 1.987-.016 2.788-.801.801-1.996.808-2.788.016-.792-.792-.785-1.987.016-2.788.734-.735 1.996-.808 2.788-.016zM3.414 58.61c.792.791.785 1.986-.016 2.787-.801.802-1.996.809-2.788.017-.792-.793-.785-1.988.016-2.789.734-.734 1.996-.808 2.788-.016zm11.952-11.953c.792.792.785 1.987-.016 2.788-.801.801-1.996.808-2.788.016-.792-.792-.785-1.987.016-2.788.801-.801 1.996-.808 2.788-.016zm11.886-11.885c.792.792.785 1.987-.016 2.788-.802.802-1.997.809-2.789.017s-.785-1.987.016-2.789c.802-.801 1.997-.808 2.789-.016zM39.204 22.82c.792.792.785 1.987-.016 2.788-.802.802-1.997.808-2.789.016s-.785-1.987.017-2.788c.8-.801 1.996-.808 2.788-.016zm11.952-11.952c.792.792.785 1.987-.016 2.788-.801.801-1.996.808-2.788.016-.792-.792-.786-1.987.016-2.788.734-.735 1.996-.808 2.788-.016zM8.883 111.886c.792.792.785 1.987-.017 2.789-.8.801-1.996.808-2.788.016-.792-.792-.785-1.987.016-2.789a1.983 1.983 0 012.789-.016zm11.952-11.952c.792.792.785 1.987-.017 2.789-.8.801-1.996.808-2.788.016-.792-.792-.785-1.987.016-2.789a1.983 1.983 0 012.789-.016zm11.952-11.952c.792.792.785 1.987-.016 2.788-.802.802-1.997.809-2.789.017-.792-.793-.785-1.988.016-2.789.735-.734 2.063-.742 2.789-.016zM44.739 76.03c.792.792.785 1.987-.016 2.788-.801.802-1.996.808-2.788.016-.793-.792-.786-1.987.015-2.788a1.983 1.983 0 012.789-.016zm11.885-11.886c.792.792.785 1.987-.016 2.788-.801.802-1.996.809-2.788.017-.792-.793-.785-1.987.016-2.789a1.983 1.983 0 012.788-.016zm11.952-11.952c.793.792.786 1.987-.016 2.788-.801.802-1.996.809-2.788.017-.792-.793-.785-1.988.016-2.789a1.983 1.983 0 012.788-.016zM80.528 40.24c.793.792.786 1.987-.016 2.788-.8.802-1.996.808-2.788.016-.792-.792-.785-1.987.016-2.788.735-.734 2.063-.742 2.788-.016zM6.832 133.606c.792.792.785 1.987-.016 2.788-.802.802-1.997.809-2.789.017-.792-.793-.785-1.988.016-2.789.735-.734 1.997-.808 2.789-.016zm11.885-11.886c.792.792.785 1.987-.016 2.789-.801.801-1.996.808-2.788.016-.792-.792-.785-1.987.016-2.789.801-.801 1.996-.808 2.788-.016zm11.936-9.163a1.973 1.973 0 00.016-2.789 1.973 1.973 0 00-2.788.016 1.972 1.972 0 00-.016 2.789 1.973 1.973 0 002.788-.016zm11.968-14.741c.792.792.785 1.987-.016 2.788-.801.802-1.996.809-2.788.016-.792-.792-.785-1.987.016-2.788.735-.734 1.996-.808 2.788-.016zm11.953-11.952c.792.792.785 1.987-.017 2.788-.8.802-1.996.808-2.788.016-.792-.792-.785-1.987.016-2.788.802-.801 1.997-.808 2.789-.016zM66.459 73.98c.792.791.785 1.986-.016 2.787-.801.802-1.996.809-2.788.017-.793-.793-.786-1.988.016-2.789.8-.801 1.996-.808 2.788-.016zm11.936-9.165a1.972 1.972 0 00.016-2.788 1.972 1.972 0 00-2.788.016 1.972 1.972 0 00-.016 2.788 1.972 1.972 0 002.788-.016zm11.968-14.74c.792.792.785 1.987-.016 2.788-.801.801-1.996.808-2.788.016-.792-.792-.785-1.987.016-2.788.734-.735 1.996-.808 2.788-.016zM4.715 155.393c.792.792.785 1.987-.016 2.789-.802.801-1.997.808-2.789.016s-.785-1.987.017-2.789c.8-.801 1.996-.808 2.788-.016zm11.952-11.952c.792.792.785 1.987-.016 2.788-.801.802-1.996.809-2.788.016-.793-.792-.786-1.987.016-2.788.734-.734 1.996-.808 2.788-.016zm11.885-11.885c.792.792.785 1.987-.016 2.789-.801.801-1.996.808-2.788.016-.792-.792-.785-1.987.016-2.789.801-.801 1.996-.808 2.788-.016zm11.952-11.953c.792.792.785 1.987-.016 2.788-.801.802-1.996.809-2.788.017-.792-.792-.785-1.987.016-2.789.801-.801 1.996-.808 2.788-.016zm11.952-11.951c.793.792.786 1.987-.016 2.788-.8.802-1.996.808-2.788.016-.792-.792-.785-1.987.016-2.788.735-.734 1.996-.808 2.788-.016zm11.953-11.953c.792.792.785 1.987-.017 2.788-.8.802-1.996.808-2.788.016-.792-.792-.785-1.987.016-2.788.802-.801 1.997-.808 2.789-.016zm11.885-11.885c.792.792.785 1.987-.016 2.788-.801.802-1.996.809-2.788.016-.793-.791-.786-1.986.016-2.788.8-.801 1.996-.808 2.788-.016zm11.952-11.952c.792.792.785 1.987-.016 2.788-.801.801-1.996.808-2.788.016-.792-.792-.785-1.987.016-2.788.801-.801 1.996-.808 2.788-.016zm11.952-11.952c.792.792.785 1.987-.016 2.788-.801.801-1.996.808-2.788.016-.792-.792-.785-1.987.016-2.788.734-.735 1.996-.808 2.788-.016zM14.483 165.162c.792.792.785 1.987-.016 2.788-.801.801-1.996.808-2.788.016-.792-.792-.785-1.987.016-2.788a1.983 1.983 0 012.788-.016zm11.952-11.952c.792.792.785 1.987-.016 2.788-.801.801-1.996.808-2.788.016-.792-.792-.785-1.987.016-2.788.734-.735 2.062-.742 2.788-.016zm11.885-11.886c.793.792.786 1.987-.016 2.788-.8.801-1.996.808-2.788.016-.792-.792-.785-1.987.016-2.788a1.983 1.983 0 012.789-.016zm11.953-11.952c.792.792.785 1.987-.016 2.788-.802.801-1.997.808-2.789.016s-.785-1.987.016-2.788a1.983 1.983 0 012.789-.016zm11.952-11.952c.792.792.785 1.987-.016 2.788-.801.801-1.996.808-2.789.016-.791-.792-.785-1.987.017-2.788.734-.735 2.062-.742 2.788-.016zm11.952-11.953c.792.793.785 1.987-.016 2.789-.801.801-1.996.808-2.788.016-.792-.792-.785-1.987.016-2.788a1.982 1.982 0 012.788-.017zm11.886-11.884c.791.792.785 1.987-.017 2.788-.8.801-1.996.808-2.788.016-.792-.792-.785-1.987.016-2.788a1.983 1.983 0 012.788-.016zM98.015 81.63c.792.793.785 1.988-.016 2.789-.802.801-1.997.808-2.789.016s-.785-1.987.016-2.788a1.983 1.983 0 012.789-.017zm11.952-11.952c.792.792.785 1.987-.016 2.789-.802.8-1.997.808-2.789.016s-.785-1.987.016-2.788c.735-.735 2.063-.743 2.789-.017z"/></g></g><defs><clipPath id="clip0_2492_18323"><path fill="#fff" d="M0 0h1920v1283H0z"/></clipPath><clipPath id="clip1_2492_18323"><path fill="#fff" transform="translate(1810 1053)" d="M0 0h230v230H0z"/></clipPath><clipPath id="clip2_2492_18323"><path fill="#fff" transform="rotate(-45 89.041 119.405)" d="M0 0h139v101H0z"/></clipPath></defs></svg>