<svg width="1920" height="1120" fill="none" xmlns="http://www.w3.org/2000/svg"><g clip-path="url(#clip0_2492_19307)" fill="#FFCF2D"><g opacity=".2"><path d="M1802.79 1097.97l6.12 6.12-16.39 16.39-16.35-16.34 6.17-6.17 10.22 10.23 10.23-10.23z"/><path d="M1802.74 1075.79l6.17 6.16-16.35 16.35-16.39-16.39 6.12-6.12 10.23 10.23 10.22-10.23z"/><path d="M1802.79 1053.6l6.17 6.17-16.4 16.39-16.39-16.39 6.17-6.17 10.22 10.23 10.23-10.23z"/></g><g opacity=".8" clip-path="url(#clip1_2492_19307)"><path d="M6.832 603.745c-.792.792-1.987.785-2.788-.016-.802-.801-.809-1.996-.017-2.788.793-.792 1.988-.785 2.789.016.734.734.742 2.062.016 2.788zm11.885 11.887c-.792.792-1.987.785-2.788-.016-.802-.801-.808-1.996-.016-2.788.792-.793 1.987-.786 2.788.016.801.801.742 2.062.016 2.788zm11.953 11.951c-.793.792-1.988.785-2.789-.016-.801-.801-.808-1.996-.016-2.788.792-.792 1.987-.785 2.788.016.801.801.742 2.062.016 2.788zm11.951 11.953c-.792.792-1.987.785-2.788-.016-.801-.801-.808-1.996-.016-2.788.792-.792 1.987-.785 2.788.016.735.734.742 2.062.016 2.788zm11.953 11.951c-.792.792-1.987.786-2.789-.016-.801-.801-.808-1.996-.016-2.788.792-.792 1.987-.785 2.788.016.802.801.743 2.062.017 2.788zm11.885 11.887c-.792.792-1.987.785-2.789-.016-.8-.801-.808-1.996-.016-2.788.792-.792 1.987-.785 2.789.016.801.801.742 2.062.016 2.788zm11.952 11.951c-.792.792-1.987.785-2.788-.016-.801-.801-.808-1.996-.016-2.788.792-.792 1.987-.785 2.788.016.801.801.742 2.062.016 2.788zm11.952 11.953c-.792.792-1.987.786-2.788-.016-.802-.801-.808-1.996-.016-2.788.792-.792 1.987-.785 2.788.016.735.735.742 2.062.016 2.788zM8.882 625.466c-.792.792-1.987.785-2.788-.016-.801-.801-.808-1.996-.016-2.788.792-.793 1.987-.786 2.788.016.801.801.808 1.996.016 2.788zm11.953 11.953c-.793.792-1.988.785-2.789-.016-.801-.801-.808-1.996-.016-2.788.792-.792 1.987-.786 2.788.016.802.801.809 1.996.017 2.788zm11.951 11.951c-.792.792-1.987.785-2.788-.016-.801-.801-.808-1.996-.016-2.788.792-.792 1.987-.785 2.788.016.735.734.808 1.996.016 2.788zm11.953 11.953c-.792.792-1.987.786-2.789-.016-.801-.801-.808-1.996-.016-2.788.792-.792 1.987-.785 2.788.016.802.801.809 1.996.017 2.788zm11.885 11.885c-.792.792-1.987.785-2.788-.016-.801-.801-.808-1.996-.016-2.788.792-.792 1.987-.785 2.788.016.801.801.808 1.996.016 2.788zm11.952 11.953c-.792.792-1.987.785-2.788-.016-.801-.801-.808-1.996-.016-2.788.792-.792 1.987-.785 2.788.016.801.801.808 1.996.016 2.788zm11.952 11.951c-.792.792-1.987.786-2.788-.016-.801-.801-.808-1.996-.016-2.788.792-.792 1.987-.785 2.788.016.735.735.808 1.996.016 2.788zM14.483 572.191c-.792.792-1.987.785-2.788-.017-.801-.801-.808-1.996-.016-2.788.792-.792 1.987-.785 2.788.016.801.801.808 1.996.016 2.789zm11.952 11.953c-.792.792-1.987.785-2.788-.016-.801-.802-.808-1.997-.016-2.789s1.987-.785 2.788.016c.735.735.808 1.997.016 2.789zm11.885 11.884c-.791.792-1.986.786-2.788-.016-.8-.801-.808-1.996-.016-2.788.792-.792 2.054-.718 2.788.016.802.801.809 1.996.017 2.788zm11.953 11.952c-.792.792-1.987.785-2.789-.017-.8-.801-.808-1.996-.016-2.788.792-.792 2.054-.718 2.789.016.734.735.808 1.997.016 2.789zm11.952 11.953c-.792.792-1.987.785-2.788-.016-.802-.802-.808-1.997-.017-2.789.793-.792 1.988-.785 2.789.016.734.735.808 1.997.016 2.789zm11.952 11.951c-.792.792-1.987.785-2.788-.016-.801-.801-.808-1.996-.016-2.789.792-.792 1.987-.785 2.788.017.801.801.808 1.996.016 2.788zm11.886 11.887c-.793.792-1.987.785-2.789-.016-.801-.802-.808-1.997-.016-2.789s1.987-.785 2.788.016c.802.802.809 1.997.017 2.789zm11.952 11.951c-.792.792-1.987.785-2.789-.016-.8-.802-.808-1.997-.016-2.789s1.987-.785 2.789.016c.8.802.808 1.997.016 2.789zm11.952 11.953c-.792.792-1.987.785-2.789-.016-.801-.801-.808-1.996-.016-2.789.792-.792 1.987-.785 2.789.017.734.734.808 1.996.016 2.788zM4.649 582.025c-.793.792-1.988.785-2.789-.017a1.983 1.983 0 01-.016-2.788c.792-.792 1.987-.785 2.788.016.802.801.809 1.996.017 2.789zM16.6 593.978c-.791.792-1.986.785-2.788-.016-.8-.802-.808-1.997-.016-2.789s1.987-.785 2.789.016c.734.735.808 1.997.016 2.789zm11.886 11.884c-.792.792-1.987.786-2.788-.016-.802-.801-.809-1.996-.017-2.788.793-.792 1.988-.785 2.789.016.801.801.808 1.996.016 2.788zm11.952 11.954c-.792.792-1.987.785-2.788-.017-.801-.801-.808-1.996-.016-2.788.792-.792 1.987-.785 2.788.016.802.801.808 1.996.016 2.789zm11.952 11.951c-.792.792-1.987.785-2.788-.016-.801-.802-.808-1.997-.016-2.789s1.987-.785 2.788.016c.735.735.808 1.997.016 2.789zm11.952 11.953c-.792.792-1.987.785-2.788-.016-.801-.802-.808-1.997-.016-2.789s1.987-.785 2.788.017c.802.801.808 1.996.016 2.788zm11.886 11.885c-.792.792-1.987.785-2.789-.017-.8-.801-.808-1.996-.016-2.788.792-.792 1.987-.785 2.788.016.802.802.809 1.997.017 2.789zm11.952 11.951c-.792.792-1.987.785-2.788-.016-.802-.802-.808-1.997-.016-2.789s1.987-.785 2.788.016c.801.802.808 1.997.016 2.789zm11.952 11.953c-.792.792-1.987.785-2.788-.016-.802-.801-.809-1.996-.016-2.789.792-.792 1.987-.785 2.788.017.734.734.808 1.996.016 2.788zM-.887 635.235c-.792.793-1.987.786-2.788-.016-.801-.801-.808-1.996-.016-2.788.792-.792 1.987-.785 2.788.016.802.801.742 2.062.016 2.788zm11.953 11.952c-.793.792-1.988.785-2.789-.016-.801-.802-.808-1.997-.016-2.789s1.987-.785 2.788.016c.802.802.743 2.063.017 2.789zm11.952 11.953c-.792.792-1.987.785-2.789-.016-.8-.802-.808-1.997-.016-2.789s1.987-.785 2.789.016c.734.735.742 2.063.016 2.789zm11.952 11.951c-.792.792-1.987.785-2.788-.016-.802-.801-.809-1.996-.017-2.788.793-.793 1.988-.786 2.789.016.801.801.742 2.062.016 2.788zm11.885 11.887c-.792.792-1.987.785-2.788-.016-.801-.802-.808-1.997-.016-2.789s1.987-.785 2.788.016c.801.802.742 2.063.016 2.789zm11.952 11.951c-.792.792-1.987.785-2.788-.016-.801-.802-.808-1.997-.016-2.789s1.987-.785 2.788.016c.802.802.742 2.063.017 2.789zm11.953 11.953c-.793.792-1.988.785-2.789-.016-.801-.801-.808-1.996-.016-2.788.792-.793 1.987-.786 2.788.016.735.734.742 2.062.016 2.788zm-72.318-49.876a1.972 1.972 0 002.789.017 1.973 1.973 0 00-.016-2.789 1.973 1.973 0 00-2.789-.016 1.971 1.971 0 00.016 2.788zm14.741 11.968c-.792.792-1.987.785-2.788-.016-.801-.802-.808-1.997-.016-2.789s1.987-.785 2.788.016c.735.735.808 1.997.016 2.789zm11.952 11.953c-.792.792-1.987.785-2.788-.016-.802-.802-.808-1.996-.016-2.789.792-.792 1.987-.785 2.788.017.801.801.808 1.996.016 2.788zm11.885 11.885c-.792.792-1.987.785-2.788-.016-.801-.802-.808-1.997-.016-2.789s1.987-.785 2.788.016c.802.802.809 1.997.017 2.789zm9.164 11.937a1.973 1.973 0 002.789.016 1.972 1.972 0 00-.016-2.789 1.973 1.973 0 00-2.789-.016 1.973 1.973 0 00.016 2.789zm14.741 11.967c-.792.792-1.987.785-2.788-.016-.802-.801-.809-1.996-.017-2.789.793-.792 1.988-.785 2.789.017.734.734.808 1.996.016 2.788zM3.348 678.81c-.792.792-1.987.785-2.788-.016-.802-.802-.808-1.997-.016-2.789s1.987-.785 2.788.016c.734.735.808 1.997.016 2.789zM15.3 690.761c-.792.792-1.987.785-2.788-.016-.801-.802-.808-1.997-.016-2.789s1.987-.785 2.788.017c.801.801.808 1.996.016 2.788zm11.885 11.887c-.792.792-1.987.785-2.788-.017-.801-.801-.808-1.996-.016-2.788.792-.792 1.987-.785 2.788.016.802.802.808 1.996.016 2.789zm11.953 11.951c-.792.792-1.987.785-2.789-.016-.801-.802-.808-1.997-.016-2.789s1.987-.785 2.788.016c.802.802.809 1.997.017 2.789zm11.952 11.953c-.792.792-1.987.785-2.789-.016-.8-.802-.808-1.996-.016-2.789.792-.792 1.987-.785 2.789.017.734.734.808 1.996.016 2.788zM5.532 700.53c-.792.792-1.987.786-2.789-.016-.801-.801-.808-1.996-.016-2.788.792-.792 1.987-.785 2.788.016.802.801.743 2.062.017 2.788zm11.885 11.885c-.792.792-1.987.785-2.788-.016-.801-.801-.808-1.996-.016-2.788.792-.792 1.987-.785 2.788.016.801.801.742 2.062.016 2.788zm11.953 11.953c-.793.792-1.988.785-2.79-.016-.8-.801-.807-1.996-.015-2.788.792-.792 1.987-.785 2.788.016.801.801.742 2.062.016 2.788zm11.951 11.951c-.792.792-1.987.786-2.788-.016-.801-.801-.808-1.996-.016-2.788.792-.792 1.987-.785 2.788.016.735.735.742 2.062.016 2.788z"/></g><path d="M1732.02 95.9c9.29-5.359 12.49-17.281 7.13-26.557-5.36-9.277-17.28-12.467-26.56-7.108l19.43 33.666zm-26.28 15.174c9.29-5.36 12.49-17.282 7.13-26.558-5.35-9.277-17.28-12.467-26.56-7.108l19.43 33.666zm-26.28 15.172c9.29-5.36 12.49-17.282 7.13-26.559-5.35-9.276-17.28-12.466-26.56-7.107l19.43 33.666z" opacity=".2"/><g opacity=".12" clip-path="url(#clip2_2492_19307)"><path d="M316.083 0C249.147 0 195 54.147 195 121.083c0 66.77 54.147 121.083 121.083 121.083 66.77 0 121.083-54.147 121.083-121.083C437 54.147 382.853 0 316.083 0zm0 234.36c-62.618 0-113.277-50.659-113.277-113.277S253.465 7.806 316.083 7.806 429.36 58.466 429.36 121.083c0 62.452-50.825 113.277-113.277 113.277z"/><path d="M316.083 26.076c-52.32 0-94.84 42.52-94.84 94.84s42.52 94.84 94.84 94.84 94.84-42.354 94.84-94.674c0-52.486-42.52-95.006-94.84-95.006zm0 175.23c-44.347 0-80.39-36.042-80.39-80.39 0-44.347 36.043-80.39 80.39-80.39 44.348 0 80.39 36.043 80.39 80.39 0 44.348-36.042 80.39-80.39 80.39z"/></g></g><defs><clipPath id="clip0_2492_19307"><path fill="#fff" d="M0 0h1920v1120H0z"/></clipPath><clipPath id="clip1_2492_19307"><path fill="#fff" transform="rotate(45 -679.104 299.77)" d="M0 0h139v101H0z"/></clipPath><clipPath id="clip2_2492_19307"><path fill="#fff" transform="translate(195)" d="M0 0h242v242H0z"/></clipPath></defs></svg>