<svg width="1920" height="484" fill="none" xmlns="http://www.w3.org/2000/svg"><g clip-path="url(#clip0_2492_15120)" fill="#FFCF2D"><g opacity=".8" clip-path="url(#clip1_2492_15120)"><path d="M3.697 58.946c1.167.897 1.368 2.449.468 3.62-.9 1.17-2.45 1.376-3.618.48-1.167-.898-1.368-2.449-.468-3.62.9-1.171 2.548-1.302 3.618-.48zm13.425-17.469c1.168.897 1.368 2.448.468 3.619-.9 1.171-2.45 1.377-3.618.48-1.167-.897-1.367-2.449-.467-3.62.9-1.17 2.547-1.302 3.617-.48zm13.426-17.47c1.167.897 1.368 2.448.468 3.62-.9 1.17-2.451 1.376-3.618.479-1.168-.897-1.368-2.448-.468-3.62.825-1.073 2.548-1.301 3.618-.48zM4.84 87.456c1.168.897 1.368 2.448.468 3.62-.9 1.17-2.45 1.376-3.617.48-1.168-.898-1.368-2.449-.468-3.62.9-1.171 2.45-1.377 3.618-.48zm13.35-17.372c1.168.897 1.369 2.448.469 3.62-.9 1.17-2.45 1.376-3.618.48-1.168-.898-1.368-2.45-.468-3.62.9-1.171 2.45-1.377 3.618-.48zm13.426-17.47c1.167.897 1.368 2.449.468 3.62-.9 1.17-2.45 1.376-3.618.48-1.167-.898-1.368-2.449-.468-3.62.9-1.171 2.45-1.377 3.618-.48zm13.425-17.469c1.168.897 1.368 2.448.468 3.619-.9 1.171-2.45 1.377-3.618.48-1.167-.897-1.367-2.449-.467-3.62.825-1.073 2.45-1.377 3.617-.48zM1.658 1.805c1.167.897 1.367 2.448.467 3.62-.9 1.17-2.45 1.376-3.617.479-1.168-.897-1.368-2.448-.468-3.62.825-1.073 2.45-1.376 3.618-.48zm1.068 28.608c1.167.897 1.368 2.448.468 3.62-.9 1.17-2.45 1.376-3.618.48-1.167-.898-1.368-2.449-.468-3.62.9-1.171 2.45-1.377 3.618-.48zm13.425-17.47c1.168.897 1.368 2.449.468 3.62-.9 1.17-2.45 1.377-3.618.48-1.167-.898-1.367-2.449-.467-3.62.824-1.073 2.45-1.377 3.617-.48zM5.812 115.99c1.168.897 1.368 2.448.468 3.62-.9 1.171-2.45 1.376-3.618.479-1.167-.897-1.367-2.448-.467-3.619.825-1.074 2.547-1.302 3.617-.48zm13.426-17.47c1.167.897 1.367 2.448.467 3.619-.9 1.171-2.45 1.377-3.617.48-1.168-.897-1.368-2.449-.468-3.62.9-1.17 2.548-1.302 3.618-.48zm13.35-17.373c1.167.897 1.368 2.449.468 3.62-.9 1.171-2.451 1.377-3.618.48-1.168-.897-1.368-2.449-.468-3.62.9-1.17 2.548-1.302 3.618-.48zm13.425-17.469c1.167.897 1.368 2.448.468 3.62-.9 1.17-2.45 1.376-3.618.479-1.167-.897-1.368-2.448-.468-3.62.9-1.17 2.548-1.301 3.618-.48zm13.425-17.47c1.168.897 1.368 2.448.468 3.62-.9 1.17-2.45 1.376-3.618.48-1.167-.898-1.367-2.45-.467-3.62.825-1.074 2.547-1.302 3.617-.48zM7.348 148.217a2.58 2.58 0 00-.467-3.619 2.58 2.58 0 00-3.618.479 2.581 2.581 0 00.468 3.62 2.58 2.58 0 003.617-.48zm12.958-21.089c1.167.897 1.368 2.448.468 3.619-.9 1.171-2.45 1.377-3.618.48-1.167-.897-1.368-2.448-.468-3.619.825-1.074 2.45-1.377 3.618-.48zm13.425-17.47c1.168.897 1.368 2.448.468 3.62-.9 1.171-2.45 1.376-3.618.479-1.167-.897-1.367-2.448-.467-3.619.9-1.171 2.45-1.377 3.617-.48zm13.35-17.372c1.168.897 1.368 2.448.468 3.62-.9 1.17-2.45 1.376-3.618.48-1.167-.898-1.367-2.449-.467-3.62.9-1.171 2.45-1.377 3.617-.48zm13.893-13.85a2.58 2.58 0 00-.467-3.62 2.58 2.58 0 00-3.618.48 2.58 2.58 0 00.468 3.62 2.58 2.58 0 003.617-.48zm12.958-21.089c1.167.897 1.368 2.448.468 3.62-.9 1.17-2.45 1.376-3.618.479-1.167-.897-1.368-2.448-.468-3.62.825-1.073 2.45-1.376 3.618-.48zM7.95 173.206c1.166.897 1.367 2.448.467 3.619-.9 1.172-2.45 1.377-3.618.48-1.167-.897-1.368-2.448-.468-3.619.9-1.171 2.45-1.377 3.618-.48zm13.425-17.47c1.167.897 1.367 2.449.467 3.62-.9 1.171-2.45 1.376-3.618.479-1.167-.897-1.367-2.448-.467-3.619.9-1.171 2.45-1.377 3.617-.48zM34.8 138.267c1.167.897 1.367 2.448.468 3.619-.9 1.171-2.451 1.377-3.618.48-1.168-.897-1.368-2.448-.468-3.62.825-1.073 2.45-1.376 3.618-.479zm13.425-17.471c1.167.897 1.368 2.448.468 3.619-.9 1.171-2.45 1.377-3.618.48-1.167-.897-1.368-2.448-.468-3.619.9-1.171 2.45-1.377 3.618-.48zm13.35-17.372c1.167.897 1.368 2.448.468 3.619-.9 1.171-2.45 1.377-3.618.48-1.167-.897-1.368-2.448-.468-3.619.9-1.172 2.45-1.377 3.618-.48zM75 85.954c1.168.897 1.368 2.448.468 3.62-.9 1.17-2.45 1.376-3.618.48-1.167-.898-1.367-2.449-.467-3.62.9-1.171 2.45-1.377 3.617-.48zm13.426-17.47c1.167.898 1.367 2.449.467 3.62-.9 1.17-2.45 1.377-3.617.48-1.168-.898-1.368-2.449-.468-3.62.825-1.073 2.45-1.377 3.618-.48zM8.996 201.642c1.167.897 1.367 2.448.467 3.619-.9 1.171-2.45 1.377-3.618.48-1.167-.897-1.367-2.448-.467-3.62.825-1.073 2.548-1.302 3.618-.479zm13.35-17.372c1.167.897 1.367 2.448.467 3.619-.9 1.171-2.45 1.377-3.617.48-1.168-.897-1.368-2.449-.468-3.62.9-1.171 2.548-1.302 3.618-.479zM35.77 166.8c1.168.897 1.369 2.448.469 3.619-.9 1.171-2.45 1.377-3.618.48-1.167-.897-1.368-2.448-.468-3.619.9-1.172 2.548-1.302 3.618-.48zm13.426-17.471c1.168.897 1.368 2.448.468 3.619-.9 1.172-2.45 1.377-3.618.48-1.167-.897-1.368-2.448-.468-3.619.825-1.074 2.548-1.302 3.618-.48zm13.425-17.47c1.168.897 1.368 2.449.468 3.62-.9 1.171-2.45 1.377-3.617.479-1.168-.897-1.368-2.448-.468-3.619.9-1.171 2.547-1.302 3.617-.48zm13.351-17.372c1.167.897 1.367 2.449.467 3.62-.9 1.171-2.45 1.376-3.617.479-1.168-.897-1.368-2.448-.468-3.619.9-1.171 2.548-1.302 3.618-.48zm13.425-17.469c1.167.897 1.368 2.448.468 3.619-.9 1.171-2.45 1.377-3.618.48-1.167-.897-1.368-2.449-.468-3.62.9-1.17 2.548-1.302 3.618-.48zm13.425-17.47c1.167.897 1.368 2.448.468 3.62-.9 1.17-2.451 1.376-3.618.479-1.167-.897-1.368-2.448-.468-3.62.825-1.073 2.548-1.301 3.618-.48z"/></g><g style="mix-blend-mode:multiply" opacity=".12" clip-path="url(#clip2_2492_15120)"><path d="M1941.6 197c-79.38 0-143.6 64.216-143.6 143.598 0 79.186 64.22 143.599 143.6 143.599 79.18 0 143.6-64.216 143.6-143.599C2085 261.216 2020.78 197 1941.6 197zm0 277.939c-74.26 0-134.34-60.079-134.34-134.341 0-74.261 60.08-134.34 134.34-134.34s134.34 60.079 134.34 134.34c0 74.065-60.28 134.341-134.34 134.341z"/><path d="M1941.6 227.926c-62.05 0-112.48 50.427-112.48 112.475 0 62.049 50.43 112.476 112.48 112.476 62.05 0 112.48-50.23 112.48-112.279 0-62.245-50.43-112.672-112.48-112.672zm0 207.814c-52.59 0-95.34-42.745-95.34-95.339 0-52.593 42.75-95.338 95.34-95.338s95.34 42.745 95.34 95.338c0 52.594-42.75 95.339-95.34 95.339z"/></g></g><defs><clipPath id="clip0_2492_15120"><path fill="#fff" d="M0 0h1920v484H0z"/></clipPath><clipPath id="clip1_2492_15120"><path fill="#fff" transform="rotate(-52.458 90.637 184.378)" d="M0 0h181.184v132.739H0z"/></clipPath><clipPath id="clip2_2492_15120"><path fill="#fff" transform="translate(1798 197)" d="M0 0h287v287H0z"/></clipPath></defs></svg>