<svg width="1920" height="468" fill="none" xmlns="http://www.w3.org/2000/svg"><g clip-path="url(#clip0_2320_3680)"><path opacity=".2" d="M0 0h1920v468H0V0z" fill="url(#paint0_linear_2320_3680)"/><g opacity=".2" clip-path="url(#clip1_2320_3680)" fill="#fff"><path d="M30.098 330C-48.457 330-112 393.544-112 472.097c0 78.359 63.544 142.098 142.097 142.098 78.359 0 142.098-63.544 142.098-142.098C172 393.544 108.456 330 30.098 330zm0 275.034c-73.486 0-132.937-59.451-132.937-132.937 0-73.485 59.451-132.936 132.936-132.936 73.486 0 132.937 59.451 132.937 132.936 0 73.291-59.646 132.937-132.936 132.937z"/><path d="M30.099 360.603c-61.4 0-111.3 49.899-111.3 111.299 0 61.401 49.9 111.3 111.3 111.3s111.299-49.704 111.299-111.105c0-61.595-49.9-111.494-111.3-111.494zm0 205.641c-52.044 0-94.342-42.298-94.342-94.342 0-52.043 42.298-94.341 94.341-94.341 52.044 0 94.342 42.298 94.342 94.341 0 52.044-42.298 94.342-94.341 94.342z"/><path d="M30.098 409.527c-34.501 0-62.57 28.069-62.57 62.57 0 34.501 27.874 62.57 62.57 62.57 34.501 0 62.57-28.069 62.57-62.57-.195-34.501-28.069-62.57-62.57-62.57zm0 96.096c-18.517 0-33.526-15.009-33.526-33.526 0-18.518 15.009-33.526 33.526-33.526 18.517 0 33.526 15.008 33.526 33.526 0 18.517-15.009 33.526-33.526 33.526z"/></g><g opacity=".3" fill="#fff"><path d="M1639.34 446.322H1653V410h-36.32v13.556h22.66v22.766z"/><path d="M1614.82 470.845h13.55v-36.322h-36.22v13.66h22.67v22.662z"/><path d="M1590.19 495.372h13.66v-36.219h-36.32v13.556h22.66v22.663z"/></g><path d="M1768.34 163.264c0 1.52-1.15 2.659-2.67 2.659-1.53 0-2.67-1.139-2.67-2.659 0-1.519 1.14-2.659 2.67-2.659 1.52 0 2.67 1.267 2.67 2.659zm22.74 0c0 1.52-1.15 2.659-2.67 2.659-1.53 0-2.67-1.139-2.67-2.659 0-1.519 1.14-2.659 2.67-2.659 1.4 0 2.67 1.267 2.67 2.659zm22.61 0c0 1.52-1.15 2.659-2.67 2.659s-2.67-1.139-2.67-2.659c0-1.519 1.15-2.659 2.67-2.659s2.67 1.267 2.67 2.659zm22.74 0c0 1.52-1.15 2.659-2.67 2.659s-2.67-1.139-2.67-2.659c0-1.519 1.15-2.659 2.67-2.659s2.67 1.267 2.67 2.659zm22.74 0c0 1.52-1.15 2.659-2.67 2.659s-2.67-1.139-2.67-2.659c0-1.519 1.15-2.659 2.67-2.659 1.4 0 2.67 1.267 2.67 2.659zm22.74 0c0 1.52-1.15 2.659-2.67 2.659s-2.67-1.139-2.67-2.659c0-1.519 1.15-2.659 2.67-2.659s2.67 1.267 2.67 2.659zm22.61 0c0 1.52-1.14 2.659-2.67 2.659-1.52 0-2.67-1.139-2.67-2.659 0-1.519 1.15-2.659 2.67-2.659 1.53 0 2.67 1.267 2.67 2.659zm-136.18 18.867c0 1.519-1.15 2.659-2.67 2.659-1.53 0-2.67-1.14-2.67-2.659 0-1.52 1.14-2.659 2.67-2.659 1.52 0 2.67 1.139 2.67 2.659zm22.74 0c0 1.519-1.15 2.659-2.67 2.659-1.53 0-2.67-1.14-2.67-2.659 0-1.52 1.14-2.659 2.67-2.659 1.4 0 2.67 1.139 2.67 2.659zm22.61 0c0 1.519-1.15 2.659-2.67 2.659s-2.67-1.14-2.67-2.659c0-1.52 1.15-2.659 2.67-2.659s2.67 1.139 2.67 2.659zm22.74 0c0 1.519-1.15 2.659-2.67 2.659s-2.67-1.14-2.67-2.659c0-1.52 1.15-2.659 2.67-2.659s2.67 1.139 2.67 2.659zm22.74 0c0 1.519-1.15 2.659-2.67 2.659s-2.67-1.14-2.67-2.659c0-1.52 1.15-2.659 2.67-2.659 1.4 0 2.67 1.139 2.67 2.659zm22.74 0c0 1.519-1.15 2.659-2.67 2.659s-2.67-1.14-2.67-2.659c0-1.52 1.15-2.659 2.67-2.659s2.67 1.139 2.67 2.659zm22.61 0c0 1.519-1.14 2.659-2.67 2.659-1.52 0-2.67-1.14-2.67-2.659 0-1.52 1.15-2.659 2.67-2.659 1.53 0 2.67 1.139 2.67 2.659zm-136.18-56.472c0 1.519-1.15 2.659-2.67 2.659-1.53 0-2.67-1.14-2.67-2.659s1.14-2.659 2.67-2.659c1.52 0 2.67 1.14 2.67 2.659zm22.74 0c0 1.519-1.15 2.659-2.67 2.659-1.53 0-2.67-1.14-2.67-2.659s1.14-2.659 2.67-2.659c1.4 0 2.67 1.14 2.67 2.659zm22.61 0c0 1.519-1.15 2.659-2.67 2.659s-2.67-1.14-2.67-2.659 1.27-2.659 2.67-2.659c1.52 0 2.67 1.14 2.67 2.659zm22.74 0c0 1.519-1.15 2.659-2.67 2.659s-2.67-1.14-2.67-2.659 1.27-2.659 2.67-2.659 2.67 1.14 2.67 2.659zm22.74 0c0 1.519-1.15 2.659-2.67 2.659s-2.67-1.14-2.67-2.659 1.15-2.659 2.67-2.659c1.4 0 2.67 1.14 2.67 2.659zm22.74 0c0 1.519-1.15 2.659-2.67 2.659s-2.67-1.14-2.67-2.659 1.15-2.659 2.67-2.659 2.67 1.14 2.67 2.659zm22.61 0c0 1.519-1.14 2.659-2.67 2.659-1.52 0-2.67-1.14-2.67-2.659s1.15-2.659 2.67-2.659c1.53 0 2.67 1.14 2.67 2.659zm-136.18 18.866c0 1.52-1.15 2.659-2.67 2.659-1.53 0-2.67-1.266-2.67-2.659 0-1.519 1.14-2.659 2.67-2.659 1.52 0 2.67 1.14 2.67 2.659zm22.74 0c0 1.52-1.15 2.659-2.67 2.659-1.53 0-2.67-1.139-2.67-2.659 0-1.519 1.14-2.659 2.67-2.659 1.4 0 2.67 1.14 2.67 2.659zm22.61 0c0 1.52-1.15 2.659-2.67 2.659s-2.67-1.139-2.67-2.659c0-1.519 1.15-2.659 2.67-2.659s2.67 1.14 2.67 2.659zm22.74 0c0 1.52-1.15 2.659-2.67 2.659s-2.67-1.139-2.67-2.659c0-1.519 1.15-2.659 2.67-2.659s2.67 1.14 2.67 2.659zm22.74 0c0 1.52-1.15 2.659-2.67 2.659s-2.67-1.139-2.67-2.659c0-1.519 1.15-2.659 2.67-2.659 1.4 0 2.67 1.14 2.67 2.659zm22.74 0c0 1.52-1.15 2.659-2.67 2.659s-2.67-1.139-2.67-2.659c0-1.519 1.15-2.659 2.67-2.659s2.67 1.14 2.67 2.659zm22.61 0c0 1.52-1.14 2.659-2.67 2.659-1.52 0-2.67-1.139-2.67-2.659 0-1.519 1.15-2.659 2.67-2.659 1.53 0 2.67 1.14 2.67 2.659zm-136.18 56.345c0 1.519-1.15 2.659-2.67 2.659-1.53 0-2.67-1.14-2.67-2.659 0-1.52 1.14-2.659 2.67-2.659 1.52 0 2.67 1.266 2.67 2.659zm22.74 0c0 1.519-1.15 2.659-2.67 2.659-1.53 0-2.67-1.14-2.67-2.659 0-1.52 1.14-2.659 2.67-2.659 1.4 0 2.67 1.266 2.67 2.659zm22.61 0c0 1.519-1.15 2.659-2.67 2.659s-2.67-1.14-2.67-2.659c0-1.52 1.15-2.659 2.67-2.659s2.67 1.266 2.67 2.659zm22.74 0c0 1.519-1.15 2.659-2.67 2.659s-2.67-1.14-2.67-2.659c0-1.52 1.15-2.659 2.67-2.659s2.67 1.266 2.67 2.659zm22.74 0c0 1.519-1.15 2.659-2.67 2.659s-2.67-1.14-2.67-2.659c0-1.52 1.15-2.659 2.67-2.659 1.4 0 2.67 1.266 2.67 2.659zm22.74 0c0 1.519-1.15 2.659-2.67 2.659s-2.67-1.14-2.67-2.659c0-1.52 1.15-2.659 2.67-2.659s2.67 1.266 2.67 2.659zm22.61 0c0 1.519-1.14 2.659-2.67 2.659-1.52 0-2.67-1.14-2.67-2.659 0-1.52 1.15-2.659 2.67-2.659 1.53 0 2.67 1.266 2.67 2.659zm-136.18 18.866c0 1.52-1.15 2.659-2.67 2.659-1.53 0-2.67-1.139-2.67-2.659 0-1.519 1.14-2.659 2.67-2.659 1.52 0 2.67 1.14 2.67 2.659zm22.74 0c0 1.52-1.15 2.659-2.67 2.659-1.53 0-2.67-1.139-2.67-2.659 0-1.519 1.14-2.659 2.67-2.659 1.4 0 2.67 1.14 2.67 2.659zm22.61 0c0 1.52-1.15 2.659-2.67 2.659s-2.67-1.139-2.67-2.659c0-1.519 1.15-2.659 2.67-2.659s2.67 1.14 2.67 2.659zm20.07 2.659c1.47 0 2.67-1.19 2.67-2.659 0-1.468-1.2-2.659-2.67-2.659a2.668 2.668 0 00-2.67 2.659c0 1.469 1.2 2.659 2.67 2.659zm25.41-2.659c0 1.52-1.15 2.659-2.67 2.659s-2.67-1.139-2.67-2.659c0-1.519 1.15-2.659 2.67-2.659 1.4 0 2.67 1.14 2.67 2.659zm22.74 0c0 1.52-1.15 2.659-2.67 2.659s-2.67-1.139-2.67-2.659c0-1.519 1.15-2.659 2.67-2.659s2.67 1.14 2.67 2.659zm22.61 0c0 1.52-1.14 2.659-2.67 2.659-1.52 0-2.67-1.139-2.67-2.659 0-1.519 1.15-2.659 2.67-2.659 1.53 0 2.67 1.14 2.67 2.659zm-136.18 18.865c0 1.52-1.15 2.659-2.67 2.659-1.53 0-2.67-1.139-2.67-2.659 0-1.519 1.14-2.659 2.67-2.659 1.52 0 2.67 1.14 2.67 2.659zm22.74 0c0 1.52-1.15 2.659-2.67 2.659-1.53 0-2.67-1.139-2.67-2.659 0-1.519 1.14-2.659 2.67-2.659 1.4 0 2.67 1.14 2.67 2.659zm22.61 0c0 1.52-1.15 2.659-2.67 2.659s-2.67-1.139-2.67-2.659c0-1.519 1.15-2.659 2.67-2.659s2.67 1.14 2.67 2.659zm22.74 0c0 1.52-1.15 2.659-2.67 2.659s-2.67-1.139-2.67-2.659c0-1.519 1.15-2.659 2.67-2.659s2.67 1.14 2.67 2.659zm22.74 0c0 1.52-1.15 2.659-2.67 2.659s-2.67-1.139-2.67-2.659c0-1.519 1.15-2.659 2.67-2.659 1.4 0 2.67 1.14 2.67 2.659zm22.74 0c0 1.52-1.15 2.659-2.67 2.659s-2.67-1.139-2.67-2.659c0-1.519 1.15-2.659 2.67-2.659s2.67 1.14 2.67 2.659zm22.61 0c0 1.52-1.14 2.659-2.67 2.659-1.52 0-2.67-1.139-2.67-2.659 0-1.519 1.15-2.659 2.67-2.659 1.53 0 2.67 1.14 2.67 2.659zm-136.18 18.74c0 1.519-1.15 2.659-2.67 2.659-1.53 0-2.67-1.14-2.67-2.659 0-1.52 1.14-2.659 2.67-2.659 1.52 0 2.67 1.266 2.67 2.659zm22.74 0c0 1.519-1.15 2.659-2.67 2.659-1.53 0-2.67-1.14-2.67-2.659 0-1.52 1.14-2.659 2.67-2.659 1.4 0 2.67 1.266 2.67 2.659zm22.61 0c0 1.519-1.15 2.659-2.67 2.659s-2.67-1.14-2.67-2.659c0-1.52 1.15-2.659 2.67-2.659s2.67 1.266 2.67 2.659zm22.74 0c0 1.519-1.15 2.659-2.67 2.659s-2.67-1.14-2.67-2.659c0-1.52 1.15-2.659 2.67-2.659s2.67 1.266 2.67 2.659zm22.74 0c0 1.519-1.15 2.659-2.67 2.659s-2.67-1.14-2.67-2.659c0-1.52 1.15-2.659 2.67-2.659 1.4 0 2.67 1.266 2.67 2.659zm22.74 0c0 1.519-1.15 2.659-2.67 2.659s-2.67-1.14-2.67-2.659c0-1.52 1.15-2.659 2.67-2.659s2.67 1.266 2.67 2.659zm22.61 0c0 1.519-1.14 2.659-2.67 2.659-1.52 0-2.67-1.14-2.67-2.659 0-1.52 1.15-2.659 2.67-2.659 1.53 0 2.67 1.266 2.67 2.659z" opacity=".8" fill="#fff"/><path d="M238.486 170.89c10.719 0 19.451-8.725 19.451-19.437 0-10.711-8.732-19.436-19.451-19.436v38.873zm-30.345 0c10.719 0 19.451-8.725 19.451-19.437 0-10.711-8.732-19.436-19.451-19.436v38.873zm-30.345 0c10.72 0 19.451-8.725 19.451-19.437 0-10.711-8.731-19.436-19.451-19.436v38.873z" opacity=".3" fill="#fff"/></g><defs><clipPath id="clip0_2320_3680"><path fill="#fff" d="M0 0h1920v468H0z"/></clipPath><clipPath id="clip1_2320_3680"><path fill="#fff" transform="translate(-112 330)" d="M0 0h284v284H0z"/></clipPath><linearGradient id="paint0_linear_2320_3680" x1="0" y1="468" x2="370.374" y2="-558.904" gradientUnits="userSpaceOnUse"><stop stop-color="#FF3F3A"/><stop offset="1" stop-color="#F75E05"/></linearGradient></defs></svg>