<svg width="1230" height="354" fill="none" xmlns="http://www.w3.org/2000/svg"><rect opacity=".2" width="1230" height="354" rx="4" fill="url(#paint0_linear_2495_2552)"/><g opacity=".2" fill="#fff"><path d="M1134.95-96.898c37.07 0 67.05 31.009 67.05 69.342 0 38.238-29.98 69.343-67.05 69.343-36.97 0-67.04-31.01-67.04-69.343.09-38.333 30.07-69.342 67.04-69.342zm0 134.214c34.68 0 62.73-29.012 62.73-64.872s-28.05-64.872-62.73-64.872c-34.67 0-62.72 29.012-62.72 64.872 0 35.765 28.14 64.872 62.72 64.872z"/><path d="M1134.95-81.965c28.97 0 52.52 24.35 52.52 54.314 0 29.962-23.55 54.313-52.52 54.313-28.97 0-52.51-24.255-52.51-54.218 0-30.058 23.54-54.409 52.51-54.409zm0 100.352c24.56 0 44.52-20.641 44.52-46.038s-19.96-46.038-44.52-46.038c-24.55 0-44.51 20.64-44.51 46.038 0 25.397 19.96 46.038 44.51 46.038z"/></g><g opacity=".8" clip-path="url(#clip0_2495_2552)" fill="#fff"><path d="M64.204 285.839c0-.799.599-1.397 1.398-1.397.799 0 1.398.598 1.398 1.397 0 .798-.6 1.397-1.398 1.397a1.406 1.406 0 01-1.398-1.397zm-11.917 0c0-.799.599-1.397 1.398-1.397.799 0 1.398.598 1.398 1.397 0 .798-.6 1.397-1.398 1.397-.732 0-1.398-.665-1.398-1.397zm-11.851 0c0-.799.6-1.397 1.398-1.397.8 0 1.398.598 1.398 1.397 0 .798-.599 1.397-1.398 1.397a1.406 1.406 0 01-1.398-1.397zm-11.917 0c0-.799.6-1.397 1.398-1.397.799 0 1.398.598 1.398 1.397 0 .798-.599 1.397-1.398 1.397a1.406 1.406 0 01-1.398-1.397zm-11.917 0c0-.799.6-1.397 1.398-1.397.799 0 1.398.598 1.398 1.397 0 .798-.599 1.397-1.398 1.397-.732 0-1.398-.665-1.398-1.397zm-11.917 0c0-.799.599-1.397 1.398-1.397.799 0 1.398.598 1.398 1.397 0 .798-.6 1.397-1.398 1.397a1.406 1.406 0 01-1.398-1.397zm59.519-9.914c0-.799.599-1.398 1.398-1.398.799 0 1.398.599 1.398 1.398 0 .798-.6 1.397-1.398 1.397-.799 0-1.398-.599-1.398-1.397zm-11.917 0c0-.799.599-1.398 1.398-1.398.799 0 1.398.599 1.398 1.398 0 .798-.6 1.397-1.398 1.397a1.406 1.406 0 01-1.398-1.397zm-11.851 0c0-.799.6-1.398 1.398-1.398.8 0 1.398.599 1.398 1.398 0 .798-.599 1.397-1.398 1.397-.799 0-1.398-.599-1.398-1.397zm-11.917 0c0-.799.6-1.398 1.398-1.398.799 0 1.398.599 1.398 1.398 0 .798-.599 1.397-1.398 1.397-.799 0-1.398-.599-1.398-1.397zm-11.917 0c0-.799.6-1.398 1.398-1.398.799 0 1.398.599 1.398 1.398 0 .798-.599 1.397-1.398 1.397a1.406 1.406 0 01-1.398-1.397zm-11.917 0c0-.799.599-1.398 1.398-1.398.799 0 1.398.599 1.398 1.398 0 .798-.6 1.397-1.398 1.397-.8 0-1.398-.599-1.398-1.397zm59.519 29.678c0-.799.599-1.398 1.398-1.398.799 0 1.398.599 1.398 1.398 0 .798-.6 1.397-1.398 1.397-.799 0-1.398-.599-1.398-1.397zm-11.917 0c0-.799.599-1.398 1.398-1.398.799 0 1.398.599 1.398 1.398 0 .798-.6 1.397-1.398 1.397a1.406 1.406 0 01-1.398-1.397zm-11.851 0c0-.799.6-1.398 1.398-1.398.8 0 1.398.599 1.398 1.398 0 .798-.665 1.397-1.398 1.397-.799 0-1.398-.599-1.398-1.397zm-11.917 0c0-.799.6-1.398 1.398-1.398.799 0 1.398.599 1.398 1.398 0 .798-.666 1.397-1.398 1.397a1.406 1.406 0 01-1.398-1.397zm-11.917 0c0-.799.6-1.398 1.398-1.398.799 0 1.398.599 1.398 1.398 0 .798-.599 1.397-1.398 1.397a1.406 1.406 0 01-1.398-1.397zm-11.917 0c0-.799.599-1.398 1.398-1.398.799 0 1.398.599 1.398 1.398 0 .798-.6 1.397-1.398 1.397-.8 0-1.398-.599-1.398-1.397zm59.519-9.914c0-.799.599-1.398 1.398-1.398.799 0 1.398.666 1.398 1.398 0 .798-.6 1.397-1.398 1.397-.799 0-1.398-.599-1.398-1.397zm-11.917 0c0-.799.599-1.398 1.398-1.398.799 0 1.398.599 1.398 1.398 0 .798-.6 1.397-1.398 1.397a1.406 1.406 0 01-1.398-1.397zm-11.851 0c0-.799.6-1.398 1.398-1.398.8 0 1.398.599 1.398 1.398 0 .798-.599 1.397-1.398 1.397-.799 0-1.398-.599-1.398-1.397zm-11.917 0c0-.799.6-1.398 1.398-1.398.799 0 1.398.599 1.398 1.398 0 .798-.599 1.397-1.398 1.397-.799 0-1.398-.599-1.398-1.397zm-11.917 0c0-.799.6-1.398 1.398-1.398.799 0 1.398.599 1.398 1.398 0 .798-.599 1.397-1.398 1.397a1.406 1.406 0 01-1.398-1.397zm-11.917 0c0-.799.599-1.398 1.398-1.398.799 0 1.398.599 1.398 1.398 0 .798-.6 1.397-1.398 1.397-.8 0-1.398-.599-1.398-1.397zm59.519-29.614c0-.798.599-1.397 1.398-1.397.799 0 1.398.599 1.398 1.397 0 .799-.6 1.398-1.398 1.398a1.406 1.406 0 01-1.398-1.398zm-11.917 0c0-.798.599-1.397 1.398-1.397.799 0 1.398.599 1.398 1.397 0 .799-.6 1.398-1.398 1.398-.732 0-1.398-.666-1.398-1.398zm-11.851 0c0-.798.6-1.397 1.398-1.397.8 0 1.398.599 1.398 1.397 0 .799-.599 1.398-1.398 1.398a1.406 1.406 0 01-1.398-1.398zm-11.917 0c0-.798.6-1.397 1.398-1.397.799 0 1.398.599 1.398 1.397 0 .799-.599 1.398-1.398 1.398a1.406 1.406 0 01-1.398-1.398zm-11.917 0c0-.798.6-1.397 1.398-1.397.799 0 1.398.599 1.398 1.397 0 .799-.599 1.398-1.398 1.398-.732 0-1.398-.666-1.398-1.398zm-11.917 0c0-.798.599-1.397 1.398-1.397.799 0 1.398.599 1.398 1.397 0 .799-.6 1.398-1.398 1.398a1.406 1.406 0 01-1.398-1.398zm59.519-9.914c0-.798.599-1.397 1.398-1.397.799 0 1.398.599 1.398 1.397 0 .799-.6 1.398-1.398 1.398-.799 0-1.398-.599-1.398-1.398zm-11.917 0c0-.798.599-1.397 1.398-1.397.799 0 1.398.599 1.398 1.397 0 .799-.6 1.398-1.398 1.398a1.406 1.406 0 01-1.398-1.398zm-11.851 0c0-.798.6-1.397 1.398-1.397.8 0 1.398.599 1.398 1.397 0 .799-.599 1.398-1.398 1.398-.799 0-1.398-.599-1.398-1.398zm-10.519-1.397a1.397 1.397 0 10-.002 2.794 1.397 1.397 0 00.002-2.794zm-13.315 1.397c0-.798.6-1.397 1.398-1.397.799 0 1.398.599 1.398 1.397 0 .799-.599 1.398-1.398 1.398a1.406 1.406 0 01-1.398-1.398zm-11.917 0c0-.798.599-1.397 1.398-1.397.799 0 1.398.599 1.398 1.397 0 .799-.6 1.398-1.398 1.398-.8 0-1.398-.599-1.398-1.398zm59.519-9.916c0-.798.599-1.397 1.398-1.397.799 0 1.398.599 1.398 1.397 0 .799-.6 1.398-1.398 1.398-.799 0-1.398-.599-1.398-1.398zm-11.917 0c0-.798.599-1.397 1.398-1.397.799 0 1.398.599 1.398 1.397 0 .799-.6 1.398-1.398 1.398a1.406 1.406 0 01-1.398-1.398zm-11.851 0c0-.798.6-1.397 1.398-1.397.8 0 1.398.599 1.398 1.397 0 .799-.599 1.398-1.398 1.398-.799 0-1.398-.599-1.398-1.398zm-11.917 0c0-.798.6-1.397 1.398-1.397.799 0 1.398.599 1.398 1.397 0 .799-.599 1.398-1.398 1.398-.799 0-1.398-.599-1.398-1.398zm-11.917 0c0-.798.6-1.397 1.398-1.397.799 0 1.398.599 1.398 1.397 0 .799-.599 1.398-1.398 1.398a1.406 1.406 0 01-1.398-1.398zm-11.917 0c0-.798.599-1.397 1.398-1.397.799 0 1.398.599 1.398 1.397 0 .799-.6 1.398-1.398 1.398-.8 0-1.398-.599-1.398-1.398zm59.519-9.847c0-.799.599-1.398 1.398-1.398.799 0 1.398.599 1.398 1.398 0 .798-.6 1.397-1.398 1.397a1.406 1.406 0 01-1.398-1.397zm-11.917 0c0-.799.599-1.398 1.398-1.398.799 0 1.398.599 1.398 1.398 0 .798-.6 1.397-1.398 1.397-.732 0-1.398-.666-1.398-1.397zm-11.851 0c0-.799.6-1.398 1.398-1.398.8 0 1.398.599 1.398 1.398 0 .798-.599 1.397-1.398 1.397a1.406 1.406 0 01-1.398-1.397zm-11.917 0c0-.799.6-1.398 1.398-1.398.799 0 1.398.599 1.398 1.398 0 .798-.599 1.397-1.398 1.397a1.406 1.406 0 01-1.398-1.397zm-11.917 0c0-.799.6-1.398 1.398-1.398.799 0 1.398.599 1.398 1.398 0 .798-.599 1.397-1.398 1.397-.732 0-1.398-.666-1.398-1.397zm-11.917 0c0-.799.599-1.398 1.398-1.398.799 0 1.398.599 1.398 1.398 0 .798-.6 1.397-1.398 1.397a1.406 1.406 0 01-1.398-1.397z"/></g><g opacity=".3" fill="#fff"><path d="M415.126 278.912V270h23.878v23.811h-8.98v-14.899h-14.898z"/><path d="M398.999 295.102v-8.98h23.811V310h-8.912v-14.898h-14.899z"/></g><defs><linearGradient id="paint0_linear_2495_2552" x1="0" y1="354" x2="316.433" y2="-389.049" gradientUnits="userSpaceOnUse"><stop stop-color="#FF3F3A"/><stop offset="1" stop-color="#F75E05"/></linearGradient><clipPath id="clip0_2495_2552"><path fill="#fff" transform="rotate(-180 33.5 153.5)" d="M0 0h62v72H0z"/></clipPath></defs></svg>