<svg width="24" height="24" fill="none" xmlns="http://www.w3.org/2000/svg"><path fill-rule="evenodd" clip-rule="evenodd" d="M12 7.75a2 2 0 100 4 2 2 0 000-4zm-4 2a4 4 0 118 0 4 4 0 01-8 0z" fill="#FF3F3A"/><path fill-rule="evenodd" clip-rule="evenodd" d="M12 3.25c-3.62 0-6.5 2.836-6.5 6.27 0 2.798 1.682 5.625 3.52 7.848A27.9 27.9 0 0012 20.44a27.899 27.899 0 002.98-3.072c1.838-2.223 3.52-5.05 3.52-7.849 0-3.433-2.88-6.269-6.5-6.269zm0 18.5l-.62.785-.002-.002-.005-.004-.02-.016a13.707 13.707 0 01-.322-.267 29.907 29.907 0 01-3.552-3.604C5.568 16.333 3.5 13.043 3.5 9.52c0-4.597 3.835-8.27 8.5-8.27s8.5 3.673 8.5 8.27c0 3.523-2.068 6.811-3.98 9.123a29.911 29.911 0 01-3.551 3.604 17.519 17.519 0 01-.322.266l-.02.016-.005.004-.002.002-.62-.785zm0 0l.619.785a1 1 0 01-1.238 0L12 21.75z" fill="#FF3F3A"/></svg>