<svg width="24" height="24" fill="none" xmlns="http://www.w3.org/2000/svg"><path fill-rule="evenodd" clip-rule="evenodd" d="M21.923 10.567a7.753 7.753 0 01-.98 2.787c.037.214.056.43.056.647a4.02 4.02 0 01-.622 2.127c-.201.327-.253.71-.273.963-.023.29-.015.607.005.912.023.342.066.7.114 1.04a19.91 19.91 0 00-1.217-.32 8.679 8.679 0 00-.991-.172c-.272-.029-.664-.05-1.015.063a8.139 8.139 0 01-2.5.386 8.045 8.045 0 01-2.882-.514 13.24 13.24 0 01-4.068-.437C9.129 19.873 11.728 21 14.5 21c1.082 0 2.122-.166 3.08-.471h.009c.025 0 .093-.002.22.01.201.022.459.068.756.135.593.134 1.258.33 1.777.495 1.1.35 2.166-.61 1.97-1.727a15.772 15.772 0 01-.207-1.575 4.46 4.46 0 01-.007-.619c.005-.064.011-.103.015-.125A6.012 6.012 0 0023 14a6.026 6.026 0 00-1.077-3.433z" fill="#FF3F3A"/><path fill-rule="evenodd" clip-rule="evenodd" d="M5.597 5.698C4.249 6.728 3.5 8.082 3.5 9.5c0 .707.184 1.388.529 2.021.131.241.169.49.182.659.015.183.007.372-.009.549a8.768 8.768 0 01-.2 1.148c-.106.46-.243.953-.383 1.415a27.508 27.508 0 011.653-.549c.443-.129.89-.24 1.287-.304.343-.054.84-.107 1.268.041.96.332 2.034.52 3.173.52 2.147 0 4.054-.667 5.403-1.698C17.75 12.27 18.5 10.918 18.5 9.5c0-1.418-.75-2.771-2.097-3.802C15.053 4.667 13.147 4 11 4c-2.148 0-4.054.667-5.403 1.698zM4.382 4.11C6.109 2.79 8.452 2 11 2c2.547 0 4.89.788 6.617 2.11C19.346 5.43 20.5 7.327 20.5 9.5c0 2.172-1.154 4.069-2.883 5.39C15.89 16.213 13.547 17 11 17c-1.343 0-2.626-.219-3.791-.617-.001.003-.096-.006-.338.032-.278.044-.634.13-1.038.248-.806.235-1.71.568-2.4.836-1.193.464-2.409-.682-2.007-1.903.213-.647.465-1.465.628-2.171a6.86 6.86 0 00.157-.877 1.83 1.83 0 00.008-.17 6.176 6.176 0 01-.72-2.878c0-2.172 1.154-4.069 2.883-5.39z" fill="#FF3F3A"/></svg>