<svg width="435" height="481" fill="none" xmlns="http://www.w3.org/2000/svg"><path fill-rule="evenodd" clip-rule="evenodd" d="M49.434 468.667h265.608v1.233H49.434v-1.233z" fill="#3FB1B5"/><path fill-rule="evenodd" clip-rule="evenodd" d="M296.443 481H4.083v-.954h292.36V481z" fill="#66B0F0"/><path d="M295.153 4.92v47.85c0 9.371-7.645 16.983-17.056 16.983h-53.281c9.411 0 17.056-7.589 17.056-16.983V4.92h53.281z" fill="#fff"/><path fill-rule="evenodd" clip-rule="evenodd" d="M241.291 4.343h54.442V52.77c0 9.69-7.904 17.561-17.636 17.561h-53.281v-1.157c9.091 0 16.475-7.33 16.475-16.404V4.343zm-10.165 64.832h46.971c9.09 0 16.475-7.353 16.475-16.404V5.5h-52.119v47.27c0 7.496-4.707 13.88-11.327 16.405z" fill="#66B0F0"/><path d="M270.545.294h-4.299v10.204h4.299V.294z" fill="#FFCF2D"/><path d="M279.654 23.109a2.54 2.54 0 01-1.696-.671l-1.789-1.574c-.558-.486-1.302-.486-1.859 0l-1.696 1.504c-1 .88-2.394.88-3.416 0l-1.557-1.365c-.558-.486-1.301-.486-1.859 0l-1.441 1.273c-.999.879-2.393.879-3.415 0l-1.185-1.041c-.558-.486-1.302-.486-1.859 0l-1.278 1.133c-.999.88-2.394.88-3.416 0l-1.185-1.041c-.558-.486-1.301-.486-1.859 0a.585.585 0 01-.813-.046.58.58 0 01.046-.81c.999-.88 2.394-.88 3.416 0l1.185 1.041c.558.486 1.301.486 1.859 0l1.278-1.134c.999-.879 2.393-.879 3.416 0l1.185 1.042c.557.485 1.301.485 1.859 0l1.44-1.273c.999-.88 2.394-.88 3.416 0l1.557 1.365c.558.486 1.301.486 1.859 0l1.696-1.504c.999-.88 2.393-.88 3.416 0l1.789 1.573c.558.486 1.301.486 1.859 0l1.859-1.642c.999-.88 2.393-.88 3.415 0a.579.579 0 01.047.81.585.585 0 01-.813.046c-.558-.486-1.302-.486-1.859 0l-1.859 1.643c-.558.44-1.139.67-1.743.67zm0 9.508a2.54 2.54 0 01-1.696-.67l-1.789-1.574c-.558-.486-1.302-.486-1.859 0l-1.696 1.504c-1 .88-2.394.88-3.416 0l-1.557-1.365c-.558-.486-1.301-.486-1.859 0l-1.441 1.272c-.999.88-2.393.88-3.415 0l-1.185-1.04c-.558-.487-1.302-.487-1.859 0l-1.278 1.133c-.999.88-2.394.88-3.416 0l-1.185-1.041c-.558-.486-1.301-.486-1.859 0a.585.585 0 01-.813-.046.58.58 0 01.046-.81c.999-.88 2.394-.88 3.416 0l1.185 1.04c.558.487 1.301.487 1.859 0l1.278-1.133c.999-.88 2.393-.88 3.416 0l1.185 1.041c.557.486 1.301.486 1.859 0l1.44-1.272c.999-.88 2.394-.88 3.416 0l1.557 1.365c.558.486 1.301.486 1.859 0l1.696-1.504c.999-.88 2.393-.88 3.416 0l1.789 1.573c.558.486 1.301.486 1.859 0l1.859-1.642c.999-.88 2.393-.88 3.415 0a.579.579 0 01.047.81.585.585 0 01-.813.046c-.558-.486-1.302-.486-1.859 0l-1.859 1.642c-.558.463-1.139.671-1.743.671zm0 9.51a2.54 2.54 0 01-1.696-.67l-1.789-1.574c-.558-.486-1.302-.486-1.859 0l-1.696 1.504c-1 .879-2.394.879-3.416 0l-1.557-1.365c-.558-.486-1.301-.486-1.859 0l-1.441 1.272c-.999.88-2.393.88-3.415 0l-1.185-1.041c-.558-.486-1.302-.486-1.859 0l-1.278 1.134c-.999.879-2.394.879-3.416 0l-1.185-1.041c-.558-.486-1.301-.486-1.859 0a.585.585 0 01-.813-.047.58.58 0 01.046-.81c.999-.879 2.394-.879 3.416 0l1.185 1.042c.558.486 1.301.486 1.859 0l1.278-1.134c.999-.88 2.393-.88 3.416 0l1.185 1.041c.557.486 1.301.486 1.859 0l1.44-1.273c.999-.879 2.394-.879 3.416 0l1.557 1.366c.558.486 1.301.486 1.859 0l1.696-1.504c.999-.88 2.393-.88 3.416 0l1.789 1.573c.558.486 1.301.486 1.859 0l1.859-1.643c.999-.879 2.393-.879 3.415 0a.579.579 0 01.047.81.585.585 0 01-.813.046c-.558-.486-1.302-.486-1.859 0l-1.859 1.643c-.558.463-1.139.671-1.743.671zm0 9.533a2.54 2.54 0 01-1.696-.672l-1.789-1.573c-.558-.486-1.302-.486-1.859 0l-1.696 1.504c-1 .88-2.394.88-3.416 0l-1.557-1.365c-.558-.486-1.301-.486-1.859 0l-1.441 1.272c-.999.88-2.393.88-3.415 0l-1.185-1.04c-.558-.487-1.302-.487-1.859 0l-1.278 1.133c-.999.88-2.394.88-3.416 0l-1.185-1.041c-.558-.486-1.301-.486-1.859 0a.585.585 0 01-.813-.047.58.58 0 01.046-.81c.999-.879 2.394-.879 3.416 0l1.185 1.042c.558.486 1.301.486 1.859 0l1.278-1.134c.999-.88 2.393-.88 3.416 0l1.185 1.041c.557.486 1.301.486 1.859 0l1.44-1.272c.999-.88 2.394-.88 3.416 0l1.557 1.365c.558.486 1.301.486 1.859 0l1.696-1.504c.999-.88 2.393-.88 3.416 0l1.789 1.573c.558.486 1.301.486 1.859 0l1.859-1.642c.999-.88 2.393-.88 3.415 0a.579.579 0 01.047.81.585.585 0 01-.813.046c-.558-.486-1.302-.486-1.859 0l-1.859 1.642c-.558.44-1.139.671-1.743.671z" fill="#66B0F0"/><path d="M350.011 4.92H312.74v37.113h37.271V4.92z" fill="#FFCF2D"/><path d="M320.931 3.337L318.232.005l-9.841 7.938 2.699 3.332 9.841-7.938zm31.014 7.919l2.702-3.33L344.798 0l-2.703 3.33 9.85 7.926z" fill="#FE5244"/><path d="M342.135 13.714h-22.609v1.388h22.609v-1.388zm0 5.992h-22.609v1.388h22.609v-1.388zm0 6.016h-22.609v1.388h22.609v-1.388zm0 5.993h-22.609v1.388h22.609v-1.388z" fill="#fff"/><path d="M378.457 404.178c-.54-.159-.839-.239-.839-.239l-6.533 21.304-24.591-6.425c-.199-.179-.299-.278-.299-.278s-99.583-77.718-104.817-115.016c-5.214-37.297 36.497-72.685 36.497-72.685S366.83 398.27 377.837 403.74c.22.12.44.259.62.438z" fill="#E57281"/><path d="M298.931 270.006c-3.117 16.61-14.064 50.247-25.39 82.791-16.781-18.003-30.325-36.164-32.163-49.293-3.316-23.632 12.246-46.527 24.072-60.094a105.16 105.16 0 0114.063-9.488c3.097 5.788 10.268 19.196 19.418 36.084z" fill="#9A3B82"/><path d="M434.352 418.52l-36.577 23.373-10.608-1.591-9.768 6.166 3.156 6.445-16.081 10.284c-21.315-19.315-18.299-44.438-18.299-44.438l24.891 6.504 6.532-21.304s22.354 6.505 38.855 5.948c16.54-.557 17.899 8.613 17.899 8.613z" fill="#fff"/><path fill-rule="evenodd" clip-rule="evenodd" d="M377.198 403.222l.568.165-.168.573.168-.573.015.004.048.014.188.054a152.556 152.556 0 003.48.93c2.346.6 5.646 1.393 9.46 2.169 7.638 1.554 17.296 3.029 25.475 2.753 8.385-.282 13.028 1.901 15.58 4.257 1.27 1.173 2.001 2.37 2.415 3.283.206.456.334.842.411 1.118a5.762 5.762 0 01.099.422l.005.028.001.009.001.003v.002l-.593.088.593-.087.056.381-37.092 23.702-10.609-1.591-9.127 5.761 3.155 6.442-16.917 10.819-.34-.308c-10.77-9.759-15.394-20.99-17.325-29.777a56.064 56.064 0 01-1.308-10.865c-.025-1.345.01-2.416.051-3.155a27.928 27.928 0 01.083-1.073l.006-.059.002-.016v-.004l.001-.002.595.07-.595-.07.081-.681 25 6.533 6.537-21.319zm-30.488 16.294a41.115 41.115 0 00-.074 3.46 54.757 54.757 0 001.28 10.632c1.87 8.511 6.318 19.356 16.622 28.84l15.244-9.749-3.158-6.448 10.411-6.572 10.605 1.591 36.031-23.024a6.495 6.495 0 00-.337-.904c-.357-.789-1-1.849-2.137-2.899-2.263-2.09-6.569-4.214-14.725-3.939-8.322.281-18.091-1.218-25.755-2.777a199.306 199.306 0 01-9.517-2.181 171.355 171.355 0 01-3.201-.852l-6.528 21.293-24.761-6.471z" fill="#FE5244"/><path fill-rule="evenodd" clip-rule="evenodd" d="M393.3 406.022a81.924 81.924 0 00-.226-1.812 70.226 70.226 0 00-.959-5.504c-.436-1.971-1.002-3.959-1.722-5.402-.359-.718-.779-1.351-1.281-1.773-.521-.438-1.163-.67-1.878-.482l-.002.001h-.001c-.715.192-1.178.729-1.452 1.376-.271.637-.386 1.432-.397 2.287-.023 1.716.373 3.843 1.02 5.855.646 2.011 1.563 3.968 2.625 5.325.529.677 1.123 1.24 1.77 1.569.665.339 1.399.432 2.131.133 1.237-.505 2.401-1.662 3.432-3.007 1.045-1.363 2.011-2.996 2.832-4.556a60.318 60.318 0 002.54-5.52c.065-.161.114-.287.148-.373l.038-.099.01-.026.003-.009-.561-.21-.561-.211v.002l-.002.006-.009.023-.036.094a54.361 54.361 0 01-.688 1.672 58.802 58.802 0 01-1.944 4.097c-.805 1.53-1.735 3.098-2.722 4.386-.71.926-1.422 1.669-2.108 2.158zm-1.145.552c-.255.029-.522-.027-.813-.175-.432-.219-.897-.635-1.37-1.24-.943-1.206-1.807-3.019-2.429-4.955-.621-1.933-.983-3.928-.963-5.476.01-.777.116-1.4.302-1.837.182-.428.411-.621.659-.688.248-.065.497-.013.798.24.32.269.652.735.98 1.392.653 1.308 1.194 3.179 1.625 5.128.429 1.939.739 3.914.942 5.407.102.746.176 1.37.225 1.807l.044.397zm40.995 9.269l-34.81 21.642-11.553-1.851-12.125 7.216-24.682-.38.019-1.194 24.341.376 12.207-7.265 11.539 1.849 34.429-21.405.635 1.012zm-48.307.484l2.277-10.562 1.172.25-2.277 10.563-1.172-.251z" fill="#FE5244"/><path fill-rule="evenodd" clip-rule="evenodd" d="M389.797 417.521l2.277-10.563 1.172.251-2.277 10.562-1.172-.25zm5.175.855l2.277-10.563 1.172.251-2.277 10.563-1.172-.251z" fill="#FE5244"/><path d="M269.426 222.704s14.643 6.803 14.643 31.748c0 24.109-55.894 171.747-55.894 171.747l-17.2 14.522-17.459-19.037c8.53-8.076-15.962-154.084 75.91-198.98z" fill="#E57281"/><path d="M267.868 469.007l-43.468.04-8.071-7.042-11.566-.06-.839 7.122-17.04.02c-9.27-28.724 6.712-47.423 6.712-47.423l17.339 19.017 17.32-14.501s15.022 17.544 29.206 25.939c14.223 8.414 10.407 16.888 10.407 16.888z" fill="#fff"/><path fill-rule="evenodd" clip-rule="evenodd" d="M193.581 420.761l17.41 19.094 17.334-14.513.386.451-.456.387.456-.387.01.012.032.037.127.146a148.888 148.888 0 002.386 2.662 189.923 189.923 0 006.694 6.927c5.518 5.426 12.778 11.87 19.807 16.029 7.21 4.266 9.938 8.603 10.811 11.963.435 1.672.402 3.076.257 4.069-.073.496-.173.89-.258 1.164a5.543 5.543 0 01-.109.32l-.021.052c-.005.015-.011.027-.015.037l-.011.027-.004.008-.002.004c0 .001 0 .002-.547-.243l.547.245-.159.352-44.082.04-8.072-7.043-10.807-.056-.839 7.118-18.009.021-.134-.415c-4.68-14.502-2.988-26.491-.117-34.858 1.435-4.18 3.164-7.455 4.536-9.688a36.323 36.323 0 011.712-2.552c.214-.29.386-.511.505-.661l.138-.17.037-.045.011-.012.002-.004.001-.001.457.386-.456-.386.442-.517zm.046 1.826a35.501 35.501 0 00-1.873 2.759c-1.334 2.171-3.022 5.367-4.423 9.451-2.775 8.084-4.434 19.658-.009 33.693l16.068-.019.839-7.125 12.326.064 8.069 7.04 42.82-.039a6.71 6.71 0 00.205-.945c.126-.859.158-2.1-.231-3.598-.775-2.981-3.251-7.087-10.264-11.236-7.155-4.235-14.498-10.761-20.036-16.206a190.574 190.574 0 01-6.737-6.971 150.295 150.295 0 01-2.193-2.44l-17.309 14.493-17.252-18.921z" fill="#FE5244"/><path fill-rule="evenodd" clip-rule="evenodd" d="M248.27 420.056a3.05 3.05 0 012.492.74c.738.638 1.078 1.434 1.075 2.308-.002.845-.322 1.721-.806 2.575-.966 1.706-2.705 3.523-4.545 5.165-1.851 1.651-3.85 3.166-5.383 4.266-.708.508-1.318.929-1.771 1.235.199.019.441.028.729.023.72-.011 1.627-.103 2.664-.257 2.072-.309 4.6-.856 7.06-1.453a201.477 201.477 0 006.595-1.73c.881-.246 1.608-.455 2.114-.602l.586-.172.153-.046.052-.015.173.571.172.572-.053.016-.075.022a11.13 11.13 0 00-.081.024l-.591.173c-.51.149-1.241.359-2.126.606a202.314 202.314 0 01-6.636 1.741c-2.472.599-5.041 1.157-7.166 1.473-1.061.158-2.027.258-2.822.271-.76.011-1.482-.052-1.966-.316-.659-.361-.781-1.143-.758-1.799.025-.711.228-1.588.544-2.534.637-1.903 1.785-4.23 3.165-6.37 1.375-2.132 3.015-4.131 4.657-5.334.822-.602 1.685-1.035 2.548-1.153zm-9.713 15.371a77.543 77.543 0 001.845-1.285c1.515-1.087 3.477-2.574 5.284-4.187 1.818-1.623 3.435-3.333 4.301-4.863.434-.764.65-1.433.652-1.991.001-.528-.188-.993-.663-1.404a1.853 1.853 0 00-1.543-.459c-.589.081-1.265.393-2 .932-1.472 1.078-3.018 2.938-4.36 5.018-1.337 2.073-2.436 4.311-3.035 6.102-.29.866-.452 1.596-.481 2.137zm-54.291 8.762l.639-1.009 20.25 12.718h14.208l8.969 7.499h39.875v1.194h-40.311l-8.97-7.499h-14.118l-20.542-12.903zm42.007-4.706l7.671-7.638.848.844-7.671 7.638-.848-.844z" fill="#FE5244"/><path fill-rule="evenodd" clip-rule="evenodd" d="M229.788 443.163l7.671-7.639.848.844-7.671 7.639-.848-.844zm3.877 3.501l7.671-7.639.848.844-7.671 7.639-.848-.844z" fill="#FE5244"/><path d="M269.425 222.703c-34.539 16.869-52.638 48.059-62.207 80.821H102.402c-26.829 0-46.825-24.646-41.172-50.764l7.69-35.567h182.247a32.847 32.847 0 0118.258 5.51z" fill="#FE5244"/><path d="M191.596 256.798l37.735-.079-5.593 9.13-32.142-9.051z" fill="#E57281"/><path fill-rule="evenodd" clip-rule="evenodd" d="M108.676 216.609a.597.597 0 01.464.706l-1.458 6.962c-3.438 16.439 9.143 31.865 26.002 31.865h95.321c10.056-13.869 23.18-25.781 40.355-34.173a.6.6 0 01.802.273.595.595 0 01-.274.798c-17.082 8.347-30.113 20.214-40.09 34.047l-.179.249h-95.935c-17.62 0-30.769-16.123-27.175-33.302l1.458-6.962a.6.6 0 01.709-.463z" fill="#fff"/><path fill-rule="evenodd" clip-rule="evenodd" d="M191.021 256.614a.6.6 0 01.742-.409l32.489 9.284-.396.665c-6.981 11.703-12.117 24.485-15.922 37.517a.599.599 0 01-1.15-.333c3.754-12.86 8.804-25.501 15.647-37.128l-30.999-8.858a.597.597 0 01-.411-.738z" fill="#fff"/><path d="M44.43 121.653l19.197 74.993H27.809c-20.856 0-34.28-22.06-24.611-40.46l27.507-52.376c7.791-14.82 23.193-24.109 39.993-24.109h6.493c-22.054-.02-38.215 20.668-32.762 41.952z" fill="#3FB1B5"/><path d="M265.489 102.198c11.287 0 20.676-1.492 22.953-3.58l-35.018 75.589c-6.333 13.686-20.097 22.438-35.219 22.438-4.435 0-8.79-.755-12.905-2.208a38.773 38.773 0 01-11.446-6.365l-22.074-17.744s-2.198 12.87-17.879 16.153v30.673h-85l-24.472-95.521c-5.453-21.285 10.708-41.992 32.762-41.992h59.51c5.254 0 10.428.656 15.422 1.93 13.664 3.46 25.929 11.457 34.599 22.915l29.086 38.431 26.129-45.473c0 .04-.02.1-.02.14.02 2.645 10.588 4.614 23.572 4.614z" fill="#3FB1B5"/><path fill-rule="evenodd" clip-rule="evenodd" d="M44.085 121.073a.6.6 0 01.726.436l18.798 75.59a.596.596 0 01-.438.722.598.598 0 01-.725-.435l-18.798-75.59a.597.597 0 01.437-.723zm110.784 32.131a.6.6 0 01.847.026l16.7 17.704a.595.595 0 01-.026.844.602.602 0 01-.847-.027l-16.701-17.704a.594.594 0 01.027-.843z" fill="#fff"/><path d="M288.963 97.503l-.519 1.114c-2.278 2.109-11.667 3.581-22.953 3.581-12.985 0-23.553-1.97-23.553-4.575 0-.04 0-.1.02-.14.36-2.546 10.788-4.734 23.553-4.734 12.745 0 23.093 2.188 23.452 4.754 0-.02 0-.02 0 0z" fill="#FE5244"/><path d="M299.429 59.31a6.868 6.868 0 01-.799 3.223 7.139 7.139 0 01-2.217 2.487l-.46.318-3.575 18.997a11.402 11.402 0 01-5.074 7.5l-4.895 3.102-3.875 2.467-1.798 4.277c-3.336.338-7.152.537-11.227.537-4.115 0-7.99-.199-11.366-.557v-29.46c0-1.273.279-2.526.819-3.68l6.512-13.964s7.112 1.75 3.835 10.443c-2.976 7.897 3.816 5.868 7.631 4.456 3.416-1.273 18.339-8.832 24.172-11.597a1.619 1.619 0 012.317 1.452z" fill="#E57281"/><path fill-rule="evenodd" clip-rule="evenodd" d="M293.289 76.626c.271.05.449.31.399.58a11.856 11.856 0 01-5.296 7.807l-8.77 5.57a.501.501 0 01-.69-.152.497.497 0 01.152-.686l8.77-5.57a10.86 10.86 0 004.852-7.152.5.5 0 01.583-.397zm1.438-8.056c.271.05.45.31.399.58a11.853 11.853 0 01-5.296 7.806l-8.77 5.57a.501.501 0 01-.69-.151.496.496 0 01.153-.687l8.769-5.57a10.86 10.86 0 004.852-7.151.5.5 0 01.583-.398zm1.008-3.28a.497.497 0 01-.154.687l-14.104 8.911a.5.5 0 01-.689-.153.496.496 0 01.154-.686l14.103-8.912a.502.502 0 01.69.153z" fill="#9A3B82"/><path d="M283.169 94.44l-.779.497-3.876 2.467-1.798 4.277c-3.336.338-7.151.537-11.226.537-4.116 0-7.991-.199-11.367-.557v-8.275c3.376-.398 7.251-.617 11.367-.617 7.051-.02 13.364.636 17.679 1.67z" fill="#9A3B82"/><path d="M150.266 81.113c-2.896 3.88-13.683 13.01-50.001 13.01-46.725 0-16.82-14.402-16.82-14.402l19.817-32.961 21.255 12.99v10.442c0 5.272 4.295 9.529 9.568 9.529h1.379c4.954-.02 10.068.199 14.802 1.392z" fill="#E57281"/><path d="M124.498 59.729v2.665L83.426 79.7l19.817-32.96 21.255 12.989z" fill="#9A3B82"/><path d="M125.613 61.02h4.515c4.155 0 7.531-3.36 7.531-7.498V28.478h-26.948V46.18c0 8.196 6.672 14.84 14.902 14.84z" fill="#E57281"/><path fill-rule="evenodd" clip-rule="evenodd" d="M133.456 49.83v-.001h-.001c0-.001 0 0 0 0m0 0h.001l.005.009.031.047c.03.043.078.11.145.19.134.162.342.383.633.605.576.44 1.486.892 2.81.892a.498.498 0 110 .994c-1.573 0-2.691-.542-3.418-1.097a4.857 4.857 0 01-.797-.763 3.756 3.756 0 01-.197-.26l-.053-.08a1.42 1.42 0 00-.015-.023l-.004-.008-.002-.003-.001-.002.432-.25" fill="#73325A"/><path d="M134.462 44.053c.529 0 .959-.828.959-1.85 0-1.021-.43-1.85-.959-1.85-.53 0-.959.829-.959 1.85 0 1.022.429 1.85.959 1.85z" fill="#73325A"/><path d="M115.846 31.084s22.234 13.367 29.466 1.73c6.352-10.204-21.795-15.456-31.623-15.495-10.688-.04-24.851 4.674-24.611 20.33.2 12.89.739 31.747-6.932 28.465-27.288-11.657-51.54.517-51.62 23.711-.08 23.194 26.949 25.362 27.628 19.375.7-5.968-16.78-4.595-14.423 10.901 2.337 15.496 12.765 34.87 36.577 34.87 28.766.02 47.085-37.695 29.286-41.534-13.644-2.944 13.903 23.273 22.074-3.979 8.789-29.34-22.973-38.948-23.752-56.672-.78-17.724 7.93-21.702 7.93-21.702z" fill="#FFCF2D"/><path fill-rule="evenodd" clip-rule="evenodd" d="M97.014 21.18c4.954-3.199 11.273-4.379 16.677-4.358 4.968.02 14.517 1.351 22.042 3.963 3.753 1.303 7.074 2.948 9.057 4.96.997 1.014 1.681 2.145 1.883 3.397.204 1.26-.091 2.577-.936 3.934-1.905 3.065-4.802 4.474-8.018 4.871-3.198.395-6.731-.204-9.992-1.157-3.268-.954-6.3-2.274-8.513-3.352a60.682 60.682 0 01-2.64-1.367 40.77 40.77 0 01-.726-.41l-.013-.007a8.383 8.383 0 00-1.022.714c-.767.62-1.795 1.633-2.804 3.19-2.016 3.11-3.98 8.43-3.594 17.207.188 4.28 2.247 8.105 5.174 11.926 1.462 1.909 3.13 3.804 4.875 5.748l.896.997c1.462 1.624 2.959 3.287 4.404 5.012 3.485 4.16 6.702 8.723 8.485 14.114 1.787 5.404 2.123 11.61-.102 19.039-2.071 6.906-5.404 10.528-9.106 12.023-1.956.79-3.982.971-5.926.755.083 4.047-1.471 8.863-4.273 13.528-6.013 10.01-17.927 19.572-32.534 19.562-12.06 0-20.755-4.914-26.72-11.797-5.951-6.869-9.172-15.681-10.35-23.497-.573-3.763-.008-6.754 1.214-9.037-.193-.07-.387-.144-.58-.22-6.986-2.754-13.885-9.256-13.845-21.095.041-11.79 6.237-20.805 15.892-25.372 9.64-4.559 22.677-4.666 36.424 1.206.88.376 1.584.413 2.16.23.582-.182 1.106-.61 1.577-1.302.956-1.406 1.59-3.758 1.989-6.705.745-5.521.628-12.83.528-19.057l-.018-1.167c-.123-8.008 3.453-13.257 8.435-16.475zM45.41 111.466c-1.158 2.084-1.742 4.897-1.185 8.561v.001c1.159 7.68 4.32 16.303 10.12 22.995 5.787 6.679 14.212 11.452 25.963 11.452 14.16.01 25.789-9.276 31.677-19.078 2.786-4.639 4.252-9.338 4.126-13.164a16.946 16.946 0 01-3.865-1.215 18.01 18.01 0 01-4.139-2.566c-1.12-.937-1.98-1.932-2.418-2.827-.219-.448-.351-.908-.323-1.344.029-.458.236-.863.634-1.146.377-.268.885-.398 1.482-.424.603-.026 1.34.052 2.218.241 2.32.501 4.086 1.563 5.313 3.059 1.197 1.461 1.854 3.302 2.045 5.361 1.857.23 3.775.071 5.608-.669 3.334-1.346 6.509-4.666 8.523-11.386 2.17-7.241 1.832-13.239.111-18.443-1.725-5.215-4.849-9.664-8.303-13.788-1.433-1.71-2.916-3.358-4.377-4.981l-.901-1.002c-1.745-1.945-3.436-3.865-4.924-5.808-2.973-3.882-5.177-7.904-5.378-12.486-.393-8.948 1.608-14.479 3.752-17.789 1.071-1.652 2.172-2.742 3.014-3.422a9.5 9.5 0 011.031-.732 6.116 6.116 0 01.387-.215l.025-.012.008-.004.004-.002.209.452-.209-.452.241-.11.226.136-.007.011.007-.01.003.001.011.007.046.027.184.107c.162.094.401.23.709.4a59.09 59.09 0 002.595 1.343c2.183 1.064 5.16 2.359 8.355 3.292 3.201.935 6.583 1.495 9.588 1.124 2.986-.369 5.58-1.653 7.291-4.407h.001c.743-1.194.958-2.272.799-3.253-.16-.99-.709-1.942-1.61-2.858-1.816-1.843-4.955-3.427-8.673-4.717-7.417-2.575-16.856-3.89-21.717-3.909m2.35 103.389c-.206-1.797-.8-3.348-1.798-4.566-1.066-1.3-2.622-2.257-4.751-2.716-.827-.178-1.474-.241-1.963-.22-.494.022-.785.127-.945.24a.49.49 0 00-.217.401c-.013.2.047.482.224.844.353.722 1.099 1.612 2.162 2.501a17.017 17.017 0 003.907 2.421 15.99 15.99 0 003.381 1.095zm-70.627-9.74c2.964.942 5.865 1.234 8.182.99 1.357-.143 2.544-.472 3.43-.988.888-.517 1.52-1.256 1.629-2.21.102-.874-.13-1.639-.623-2.249-.485-.6-1.196-1.021-2.015-1.276-1.631-.508-3.795-.393-5.872.406a10.844 10.844 0 00-5.17 4.129 21.943 21.943 0 01-.731-.274c-6.678-2.632-13.253-8.81-13.214-20.166.04-11.403 6.009-20.073 15.322-24.477 9.328-4.412 22.06-4.563 35.601 1.22 1.039.445 1.995.538 2.856.266.858-.27 1.548-.878 2.102-1.694 1.095-1.61 1.75-4.162 2.152-7.13.756-5.598.637-12.978.537-19.18l-.019-1.191c-.117-7.647 3.27-12.583 7.98-15.626 4.74-3.06 10.847-4.218 16.13-4.199m-67.731 92.777a9.853 9.853 0 014.545-3.527c1.91-.736 3.84-.813 5.214-.385.686.214 1.206.544 1.535.95.32.397.48.894.408 1.511v.002c-.061.542-.422 1.046-1.141 1.465-.722.421-1.758.723-3.03.857-2.104.221-4.772-.029-7.531-.873z" fill="#fff"/><path fill-rule="evenodd" clip-rule="evenodd" d="M130.19 42.323h-15.901V41.13h15.901v1.193z" fill="#3FB1B5"/><path fill-rule="evenodd" clip-rule="evenodd" d="M135.085 37.151c-2.032 0-3.916 2.169-3.916 5.172 0 3.004 1.884 5.172 3.916 5.172S139 45.327 139 42.324c0-3.004-1.883-5.172-3.915-5.172zm-5.114 5.172c0-3.368 2.159-6.365 5.114-6.365s5.114 2.997 5.114 6.366c0 3.368-2.159 6.365-5.114 6.365s-5.114-2.997-5.114-6.365z" fill="#3FB1B5"/><path fill-rule="evenodd" clip-rule="evenodd" d="M110.433 13.917a3.966 3.966 0 00-3.976 3.959v16.749h-1.198v-16.75c0-2.834 2.304-5.151 5.174-5.151h4.994c2.846 0 5.174 2.294 5.174 5.152h-1.199c0-2.195-1.787-3.959-3.975-3.959h-4.994z" fill="#66B0F0"/><path d="M110.673 53.065h-9.609c-2.457 0-4.455-1.99-4.455-4.436v-9.568c0-2.447 1.998-4.436 4.455-4.436h9.609c2.457 0 4.455 1.99 4.455 4.436v9.568c-.02 2.447-1.998 4.436-4.455 4.436z" fill="#fff"/><path fill-rule="evenodd" clip-rule="evenodd" d="M101.064 35.222c-2.126 0-3.856 1.722-3.856 3.839v9.568c0 2.117 1.73 3.84 3.856 3.84h9.609c2.12 0 3.836-1.718 3.855-3.843v-9.565c0-2.117-1.729-3.84-3.855-3.84h-9.609zM96.01 39.06c0-2.776 2.266-5.033 5.054-5.033h9.609c2.788 0 5.054 2.257 5.054 5.033v9.573c-.023 2.768-2.262 5.028-5.054 5.028h-9.609c-2.788 0-5.054-2.257-5.054-5.033V39.06z" fill="#66B0F0"/><path d="M108.176 49.902h-4.695c-2.017 0-3.675-1.631-3.675-3.66v-4.675a3.67 3.67 0 013.675-3.66h4.695c2.017 0 3.676 1.631 3.676 3.66v4.675a3.659 3.659 0 01-3.676 3.66z" fill="#fff"/><path fill-rule="evenodd" clip-rule="evenodd" d="M103.482 38.504a3.073 3.073 0 00-3.076 3.063v4.675a3.072 3.072 0 003.076 3.063h4.695a3.06 3.06 0 003.076-3.063v-4.675a3.073 3.073 0 00-3.076-3.063h-4.695zm-4.275 3.063a4.269 4.269 0 014.275-4.257h4.695c2.346 0 4.275 1.897 4.275 4.257v4.675a4.257 4.257 0 01-4.275 4.257h-4.695c-2.346 0-4.275-1.896-4.275-4.257v-4.675z" fill="#66B0F0"/><path fill-rule="evenodd" clip-rule="evenodd" d="M101.204 49.086l8.35-11.06.958.718-8.35 11.06-.958-.718zm-1.637-1.891l7.232-9.548.957.718-7.232 9.548-.957-.718zm4.373 2.347l7.232-9.548.957.719-7.232 9.548-.957-.719zm2.899.001l4.535-5.987.957.718-4.535 5.988-.957-.719zm-7.491-5.949l4.514-5.947.956.72-4.514 5.947-.956-.72zm-1.201 282.209v-10.96h1.199v10.96c0 5.621-4.584 10.185-10.228 10.185H64.427v-1.194h24.69c4.983 0 9.03-4.029 9.03-8.991zm9.211 89.714V314.963h1.199v100.554h-1.199z" fill="#66B0F0"/><path fill-rule="evenodd" clip-rule="evenodd" d="M102.903 416.113c-21.682 0-39.054 14.282-39.054 31.649H62.65c0-18.241 18.147-32.842 40.253-32.842h9.948c22.106 0 40.253 14.601 40.253 32.842h-1.199c0-17.367-17.371-31.649-39.054-31.649h-9.948z" fill="#66B0F0"/><path d="M204.022 316.494H58.992c-7.271 0-13.144-5.868-13.144-13.089h161.61l-3.436 13.089zM62.37 469.085c5.914 0 10.708-4.774 10.708-10.662 0-5.889-4.794-10.662-10.708-10.662-5.913 0-10.707 4.773-10.707 10.662 0 5.888 4.794 10.662 10.708 10.662zm-5.454-130.968H78.41a3.165 3.165 0 003.177-3.163v-.239a3.164 3.164 0 00-3.177-3.162H56.916a3.164 3.164 0 00-3.177 3.162v.239a3.165 3.165 0 003.177 3.163z" fill="#FFCF2D"/><path fill-rule="evenodd" clip-rule="evenodd" d="M12.044 211.286c-2.656-7.429 2.867-15.238 10.793-15.238h75.65c7.366 0 13.924 4.615 16.406 11.515l.001.001 34.705 96.836H45.427l-33.383-93.114zm1.13-.4c-2.379-6.654 2.566-13.645 9.663-13.645h75.65a16.229 16.229 0 0115.278 10.725l34.133 95.24H46.272l-33.099-92.32z" fill="#FFCF2D"/><path fill-rule="evenodd" clip-rule="evenodd" d="M15.246 199.608h76.59a16.842 16.842 0 0115.866 11.138h.001l33.546 93.654H50.944v-1.194h88.605l-32.975-92.058a15.645 15.645 0 00-14.738-10.346h-76.59v-1.194z" fill="#FFCF2D"/><path d="M152.325 469.085c5.913 0 10.707-4.774 10.707-10.662 0-5.889-4.794-10.662-10.707-10.662-5.914 0-10.708 4.773-10.708 10.662 0 5.888 4.794 10.662 10.708 10.662z" fill="#FFCF2D"/></svg>