<svg width="49" height="48" fill="none" xmlns="http://www.w3.org/2000/svg"><g clip-path="url(#clip0_18563_283)" fill="#FF3F3A"><path d="M45.947 26.441a17.166 17.166 0 002.65-9.191C48.597 7.738 40.86 0 31.347 0c-3.186 0-6.298.876-9.001 2.532a.937.937 0 10.98 1.599 15.341 15.341 0 018.022-2.256c8.477 0 15.374 6.897 15.374 15.375 0 3.075-.904 6.042-2.615 8.58a.938.938 0 00.026 1.086l1.027 3.834-4.123-1.105a.937.937 0 00-.787.141 15.27 15.27 0 01-8.902 2.839c-1.832 0-3.623-.32-5.326-.95a12.987 12.987 0 00-9.1-9.099 15.31 15.31 0 01-.95-5.326c0-2.872.797-5.672 2.304-8.098a.938.938 0 00-1.593-.99 17.21 17.21 0 00-2.585 9.088c0 1.686.242 3.342.719 4.939-.422-.042-.85-.064-1.282-.064C6.401 22.125.598 27.93.598 35.063c0 2.56.74 5.018 2.144 7.136L1.74 45.944a.938.938 0 001.148 1.148l3.838-1.028A12.88 12.88 0 0013.535 48c2.464 0 4.861-.696 6.932-2.012a.938.938 0 00-1.006-1.582 11.026 11.026 0 01-5.926 1.719 11.01 11.01 0 01-6.132-1.854.937.937 0 00-.763-.126l-2.67.716.695-2.594a.937.937 0 00-.142-.787 10.986 10.986 0 01-2.05-6.417C2.473 28.962 7.435 24 13.535 24s11.063 4.963 11.063 11.063c0 1.302-.224 2.577-.666 3.789a.937.937 0 101.761.642 12.9 12.9 0 00.716-5.713 17.21 17.21 0 004.939.719 17.13 17.13 0 009.623-2.932l5.272 1.413a.937.937 0 001.149-1.148l-1.445-5.392z"/><path d="M36.18 19.246h-9.549a.938.938 0 00-.937.938 5.718 5.718 0 005.712 5.711 5.718 5.718 0 005.712-5.711.938.938 0 00-.938-.938zm-4.774 4.774a3.844 3.844 0 01-3.721-2.899h7.442a3.844 3.844 0 01-3.721 2.9zm7.299-9.974a.938.938 0 00-1.29-.307l-.122.075a.937.937 0 10.986 1.596l.12-.075a.937.937 0 00.306-1.29zm-12.881-.001a.938.938 0 00-1.29-.306l-.122.075a.937.937 0 10.986 1.595l.12-.074a.938.938 0 00.306-1.29zM9.04 34.4a.944.944 0 00-.662-.275c-.247 0-.488.1-.663.275a.945.945 0 00-.275.663c0 .246.1.488.275.662a.944.944 0 00.663.275c.246 0 .488-.1.663-.275a.945.945 0 00.274-.663c0-.246-.1-.488-.274-.662zm5.157 0a.945.945 0 00-.663-.275c-.246 0-.488.1-.663.275a.944.944 0 00-.274.663c0 .246.1.488.274.662a.944.944 0 00.663.275c.247 0 .489-.1.663-.275a.944.944 0 00.275-.663.94.94 0 00-.275-.662zm5.157 0a.944.944 0 00-.663-.275.94.94 0 00-.662.275.944.944 0 00-.275.663c0 .246.1.488.275.662a.944.944 0 00.662.275c.247 0 .489-.1.663-.275a.944.944 0 00.275-.663.94.94 0 00-.275-.662zm4.196 7.518a.945.945 0 00-.662-.274c-.248 0-.489.1-.663.274a.945.945 0 00-.275.663c0 .247.1.488.275.663a.943.943 0 00.663.275.94.94 0 00.662-.275.945.945 0 00.275-.663c0-.247-.1-.488-.274-.663zM20.508 5.022a.943.943 0 00-1.326 0 .94.94 0 000 1.327.942.942 0 001.326 0 .945.945 0 00.274-.663c0-.248-.1-.489-.274-.664z"/></g><defs><clipPath id="clip0_18563_283"><path fill="#fff" transform="translate(.598)" d="M0 0h48v48H0z"/></clipPath></defs></svg>