<svg width="49" height="48" fill="none" xmlns="http://www.w3.org/2000/svg"><g clip-path="url(#clip0_18563_385)" fill="#FF3F3A"><path d="M33.4 23.618a.944.944 0 00-.663-.274c-.246 0-.488.1-.662.274a.944.944 0 00-.275.663c0 .246.1.488.275.662a.944.944 0 00.662.275c.247 0 .487-.1.663-.275a.944.944 0 00.274-.662c0-.247-.1-.488-.274-.663z"/><path d="M39.578 2.542H9.593a.937.937 0 00-.937.937v14.993c0 .517.42.937.937.937H23.65v3.935H7.64a.937.937 0 00-.937.937v7.31h-5.17a.937.937 0 00-.936.936v11.994c0 .518.42.937.937.937h11.994c.517 0 .937-.42.937-.937V32.527a.937.937 0 00-.937-.937h-4.95v-6.372h15.07v6.372H18.6a.937.937 0 00-.937.937v11.994c0 .518.42.937.937.937h11.994c.517 0 .937-.42.937-.937V32.527a.937.937 0 00-.937-.937h-5.072v-6.372h3.748a.937.937 0 000-1.874h-3.748V19.41h14.055c.518 0 .938-.42.938-.937V3.479a.937.937 0 00-.938-.937zM12.592 33.464v10.12H2.472v-10.12h10.12zm17.066 0v10.12h-10.12v-10.12h10.12zm8.983-15.93h-28.11v-9.37h6.347a.937.937 0 000-1.874H10.53V4.416h28.111v13.119z"/><path d="M47.661 31.59h-5.193v-7.31a.937.937 0 00-.937-.936h-5.138a.937.937 0 000 1.874h4.2v6.372h-4.926a.937.937 0 00-.937.937V44.52c0 .517.42.937.937.937h11.994c.517 0 .937-.42.937-.937V32.527a.937.937 0 00-.937-.937zm-.937 11.994h-10.12v-10.12h10.12v10.12zM21.482 6.565a.945.945 0 00-.662-.275c-.247 0-.488.1-.663.275a.943.943 0 000 1.325.948.948 0 00.663.274c.246 0 .487-.1.662-.275a.944.944 0 00.275-.662.94.94 0 00-.275-.662z"/></g><defs><clipPath id="clip0_18563_385"><path fill="#fff" transform="translate(.598)" d="M0 0h48v48H0z"/></clipPath></defs></svg>