<svg width="49" height="48" fill="none" xmlns="http://www.w3.org/2000/svg"><g clip-path="url(#clip0_18563_314)" fill="#FF3F3A"><path d="M33.896 37a.94.94 0 00-1.339-.012l-.009.01a.94.94 0 00.646 1.62.944.944 0 00.664-.28.939.939 0 00.038-1.337z"/><path d="M42.384 18.953a.938.938 0 00-1.758.65 19.619 19.619 0 011.22 6.838c0 10.854-8.83 19.685-19.685 19.685-4.027 0-7.9-1.208-11.197-3.493a.937.937 0 10-1.068 1.54A21.435 21.435 0 0022.161 48a21.418 21.418 0 0015.245-6.315 21.418 21.418 0 006.315-15.244c0-2.575-.45-5.094-1.337-7.488zM29.42 6.134a21.501 21.501 0 00-7.259-1.253 21.419 21.419 0 00-15.245 6.314A21.419 21.419 0 00.602 26.44c0 4.466 1.353 8.75 3.914 12.39a.936.936 0 001.306.228.937.937 0 00.227-1.306A19.559 19.559 0 012.476 26.44c0-10.854 8.83-19.684 19.685-19.684 2.276 0 4.506.384 6.628 1.143a.937.937 0 10.632-1.765z"/><path d="M48.523 7.774a.937.937 0 00-.866-.579H42.73l.53-.53a.938.938 0 00-1.326-1.325l-.536.536V.937a.938.938 0 00-1.6-.662l-8.264 8.263a.937.937 0 00-.274.663v3.252a16.5 16.5 0 00-9.1-2.698c-9.2 0-16.686 7.485-16.686 16.685S12.96 43.127 22.16 43.127c3.054 0 6.041-.833 8.64-2.408a.938.938 0 00-.972-1.604 14.784 14.784 0 01-7.668 2.137c-8.166 0-14.81-6.644-14.81-14.81 0-8.167 6.644-14.811 14.81-14.811 3.335 0 6.48 1.08 9.1 3.126v1.258l-1.708 1.708a11.385 11.385 0 00-7.392-2.718c-6.306 0-11.436 5.13-11.436 11.436s5.13 11.436 11.436 11.436 11.436-5.13 11.436-11.436c0-2.816-1.024-5.397-2.718-7.392l1.715-1.715h1.247a14.843 14.843 0 013.13 9.107c0 2.764-.765 5.46-2.214 7.795a.937.937 0 101.593.988 16.645 16.645 0 002.496-8.783c0-3.238-.95-6.412-2.704-9.107h3.252a.937.937 0 00.663-.274l8.263-8.264a.937.937 0 00.204-1.021zM31.722 26.44c0 5.271-4.29 9.56-9.562 9.56-5.272 0-9.56-4.288-9.56-9.56s4.288-9.562 9.56-9.562c2.3 0 4.412.816 6.063 2.173l-2.135 2.135a6.527 6.527 0 00-3.928-1.308 6.569 6.569 0 00-6.56 6.562 6.569 6.569 0 006.561 6.562 6.57 6.57 0 006.562-6.562 6.528 6.528 0 00-1.308-3.927l2.134-2.135a9.517 9.517 0 012.174 6.063zm-10.224.662a.934.934 0 001.325 0l3.246-3.245a4.66 4.66 0 01.778 2.582 4.692 4.692 0 01-4.687 4.687 4.692 4.692 0 01-4.686-4.686 4.692 4.692 0 014.686-4.687c.954 0 1.842.287 2.583.778l-3.245 3.246a.937.937 0 000 1.325zM33.136 14.14V9.59l6.388-6.39v4.55l-6.388 6.39zm5.869 1.319h-4.537l6.389-6.39h4.537l-6.389 6.39zM8.222 40.34a.94.94 0 00-1.6.663.94.94 0 00.937.937c.247 0 .489-.1.663-.274a.945.945 0 00.275-.663c0-.247-.1-.488-.275-.663z"/></g><defs><clipPath id="clip0_18563_314"><path fill="#fff" transform="translate(.598)" d="M0 0h48v48H0z"/></clipPath></defs></svg>