<svg width="465" height="400" fill="none" xmlns="http://www.w3.org/2000/svg"><path d="M260.837 382.821a.478.478 0 01-.487-.487c0-6.187 5.03-11.22 11.212-11.22h5.095c9.98 0 18.109-8.135 18.109-18.121v-78.345c0-9.986-8.129-18.121-18.109-18.121h-12.964a.478.478 0 01-.487-.487c0-.276.211-.487.487-.487h12.964c10.515 0 19.083 8.573 19.083 19.095v78.345c0 10.522-8.568 19.095-19.083 19.095h-5.095c-5.646 0-10.238 4.595-10.238 10.246a.478.478 0 01-.487.487z" fill="#66B0F0"/><path d="M261.324 397.711c5.108 0 9.249-4.144 9.249-9.256 0-5.111-4.141-9.255-9.249-9.255-5.108 0-9.249 4.144-9.249 9.255 0 5.112 4.141 9.256 9.249 9.256z" fill="#fff"/><path d="M261.324 398.198c-5.371 0-9.736-4.368-9.736-9.743 0-5.374 4.365-9.742 9.736-9.742 5.37 0 9.735 4.368 9.735 9.742 0 5.375-4.365 9.743-9.735 9.743zm0-18.511c-4.836 0-8.763 3.93-8.763 8.768 0 4.839 3.927 8.769 8.763 8.769 4.835 0 8.762-3.93 8.762-8.769 0-4.838-3.927-8.768-8.762-8.768z" fill="#66B0F0"/><path d="M259.507 256.04h79.33c3.57 0 6.458-2.89 6.458-6.462v-5.44a6.456 6.456 0 00-6.458-6.462h-79.33a7.433 7.433 0 00-7.432 7.436v3.475c0 4.124 3.327 7.453 7.432 7.453z" fill="#D0F0E4"/><path d="M338.836 256.527h-79.33c-4.365 0-7.918-3.556-7.918-7.94v-3.475c0-4.368 3.553-7.924 7.918-7.924h79.33c3.83 0 6.945 3.118 6.945 6.95v5.44c0 3.832-3.115 6.949-6.945 6.949zm-79.33-18.364c-3.829 0-6.945 3.117-6.945 6.949v3.475c0 3.848 3.116 6.966 6.945 6.966h79.33a5.979 5.979 0 005.972-5.975v-5.44a5.979 5.979 0 00-5.972-5.975h-79.33z" fill="#66B0F0"/><path d="M336.581 382.821a.477.477 0 01-.486-.487c0-5.651-4.592-10.246-10.239-10.246h-5.095c-10.515 0-19.082-8.573-19.082-19.095v-78.345c0-10.522 8.567-19.095 19.082-19.095h12.964c.276 0 .487.211.487.487a.478.478 0 01-.487.487h-12.964c-9.979 0-18.109 8.135-18.109 18.121v78.345c0 9.986 8.13 18.121 18.109 18.121h5.095c6.182 0 11.212 5.033 11.212 11.22a.478.478 0 01-.487.487z" fill="#66B0F0"/><path d="M336.111 397.711c5.108 0 9.249-4.144 9.249-9.256 0-5.111-4.141-9.255-9.249-9.255-5.108 0-9.249 4.144-9.249 9.255 0 5.112 4.141 9.256 9.249 9.256z" fill="#fff"/><path d="M336.111 398.198c-5.371 0-9.736-4.368-9.736-9.743 0-5.374 4.365-9.742 9.736-9.742s9.736 4.368 9.736 9.742c0 5.375-4.365 9.743-9.736 9.743zm0-18.511c-4.836 0-8.762 3.93-8.762 8.768 0 4.839 3.926 8.769 8.762 8.769 4.835 0 8.762-3.93 8.762-8.769 0-4.838-3.927-8.768-8.762-8.768z" fill="#66B0F0"/><path d="M189.344 362.703l5.842 11.967a29.383 29.383 0 012.985 12.876v9.077c0 1.575-1.314 2.858-2.937 2.858h-66.722c-1.769 0-3.197-1.397-3.197-3.118v-2.809c0-1.137.633-2.176 1.655-2.728 6.929-3.718 29.305-15.344 33.637-27.766l28.737-.357z" fill="#fff"/><path d="M195.234 399.968h-66.723c-2.028 0-3.683-1.624-3.683-3.605v-2.809c0-1.315.73-2.517 1.915-3.15l.73-.389c3.829-2.046 10.969-5.878 17.703-10.685 8.178-5.861 13.224-11.382 14.977-16.416l.113-.324 29.386-.358 5.971 12.243c1.98 4.076 3.034 8.606 3.034 13.088v9.076c0 1.835-1.541 3.329-3.423 3.329zm-34.286-36.42c-4.511 12.064-25.183 23.138-33.021 27.311l-.73.39c-.86.47-1.395 1.347-1.395 2.305v2.809c0 1.445 1.217 2.631 2.709 2.631h66.723c1.346 0 2.45-1.056 2.45-2.371v-9.077c0-4.351-1.022-8.719-2.937-12.665l-5.712-11.691-28.087.358z" fill="#FFCF2D"/><path d="M197.765 382.708h-5.224c-4.836 0-9.331 2.452-11.862 6.462l-2.223 3.54c-1.33 2.111-3.683 3.394-6.215 3.394h-46.893" fill="#fff"/><path d="M172.241 396.591h-46.893v-.974h46.893c2.353 0 4.576-1.218 5.809-3.167l2.223-3.539c2.613-4.125 7.302-6.69 12.268-6.69h5.224v.974h-5.224c-4.641 0-9.022 2.387-11.456 6.235l-2.223 3.54c-1.428 2.273-3.895 3.621-6.621 3.621zm21.484-24.909c-5.014.163-11.667-.357-19.699-1.818a85.663 85.663 0 01-14.652-4.06c.503-.909.908-1.818 1.233-2.727l28.736-.374 4.382 8.979z" fill="#FFCF2D"/><path d="M146.701 379.249h-.049a.493.493 0 01-.406-.324l-3.277-9.369a5.283 5.283 0 015.127-7.015 5.162 5.162 0 014.495 2.793c.908 1.689.827 3.67-.195 5.293l-5.29 8.395a.462.462 0 01-.405.227zm1.233-15.734a4.217 4.217 0 00-3.456 1.77 4.272 4.272 0 00-.601 3.962l2.937 8.411 4.755-7.534a4.288 4.288 0 00.162-4.319 4.251 4.251 0 00-3.667-2.273c-.033-.017-.081-.017-.13-.017z" fill="#FE5244"/><path d="M138.344 380.955c-1.038 0-2.06-.39-2.823-1.121a4.143 4.143 0 01-1.233-3.604 4.032 4.032 0 012.58-3.199 4.035 4.035 0 014.073.666l5.776 4.757a.466.466 0 01.162.487.488.488 0 01-.373.357l-7.318 1.575a4.763 4.763 0 01-.844.082zm0-7.242a3.12 3.12 0 00-1.135.211 3.098 3.098 0 00-1.964 2.436 3.063 3.063 0 00.941 2.744 3.115 3.115 0 002.791.795l6.328-1.364-4.997-4.124a3.089 3.089 0 00-1.964-.698z" fill="#FE5244"/><path d="M159.016 379.054h-13.127a.478.478 0 01-.487-.487c0-.276.211-.487.487-.487h13.127c.276 0 .487.211.487.487a.478.478 0 01-.487.487zm-3.845 3.67H142.06a.478.478 0 01-.487-.487c0-.276.211-.487.487-.487h13.111c.276 0 .487.211.487.487a.478.478 0 01-.487.487zm9.395-7.517h-12.787a.478.478 0 01-.487-.487.48.48 0 01.487-.488h12.787c.275 0 .486.212.486.488a.478.478 0 01-.486.487z" fill="#FE5244"/><path d="M267.344 195.345l-30.099 11.399-28.948 150.861c-1.168 2.76-16.518 6.722-30.846 6.722-15.091 0-27.309-4.205-27.309-7.177l17.784-138.569c2.32-18.283 17.865-32.004 36.298-32.004h62.552l.292 8.752.276.016z" fill="#fff"/><path d="M177.45 364.814c-6.961 0-13.857-.893-19.455-2.501-2.515-.73-8.34-2.679-8.34-5.163v-.065l17.784-138.569a37.059 37.059 0 0112.267-23.155 37.058 37.058 0 0124.518-9.271h63.022l.292 8.784 2.11.13-31.982 12.113-28.899 150.65-.016.049c-.925 2.175-7.886 3.994-10.823 4.676-6.442 1.478-13.89 2.322-20.478 2.322zm-26.822-7.632c.049.991 2.434 2.712 7.643 4.206 5.501 1.591 12.316 2.452 19.179 2.452 6.507 0 13.89-.845 20.251-2.306 6.344-1.461 9.638-3.085 10.125-4.076l28.98-151.072 29.759-11.268-.276-8.054h-62.082a36.027 36.027 0 00-23.868 9.028 36.137 36.137 0 00-11.943 22.554l-17.768 138.536z" fill="#3FB1B5"/><path d="M176.622 364.781h-.065a.494.494 0 01-.422-.552l17.557-136.799c1.184-9.321 5.938-17.293 13.743-23.057 8.211-6.073 19.391-9.288 32.307-9.288.276 0 .486.211.486.487s-.21.487-.486.487c-12.705 0-23.691 3.15-31.723 9.093-7.593 5.618-12.202 13.363-13.354 22.408l-17.557 136.799a.489.489 0 01-.486.422z" fill="#3FB1B5"/><path d="M253.372 193.722l-32.404 99.161-12.624-40.398c-7.788-25.834 6.247-58.763 45.028-58.763z" fill="#3FB1B5"/><path d="M288.908 362.102l11.667 29.081c1.622 4.026-1.574 8.329-6.183 8.329h-43.94c-2.175 0-3.943-1.64-3.943-3.686v-2.922a6.24 6.24 0 011.233-3.719l7.707-8.427c4.495-4.903 6.961-11.155 6.961-17.601v-.081l26.498-.974z" fill="#fff"/><path d="M294.392 400h-43.941c-2.45 0-4.43-1.867-4.43-4.173v-2.923c0-1.445.455-2.825 1.331-4.01l.033-.033 7.707-8.427c4.413-4.806 6.831-10.944 6.831-17.277v-.552l27.309-1.006 11.796 29.405c.795 1.965.568 4.125-.632 5.895-1.315 1.948-3.554 3.101-6.004 3.101zm-46.277-10.506a5.797 5.797 0 00-1.12 3.41v2.923c0 1.77 1.558 3.199 3.456 3.199h43.941c2.125 0 4.056-.991 5.192-2.663 1.022-1.51 1.217-3.329.536-4.985l-11.537-28.756-25.686.941c-.098 6.43-2.613 12.649-7.091 17.537l-7.691 8.394z" fill="#FFCF2D"/><path d="M249.365 387.465a18.527 18.527 0 017.837-1.737h14.101c2.498 0 4.965.503 7.237 1.477l5.159 2.192" fill="#fff"/><path d="M283.504 389.852l-5.16-2.192a17.69 17.69 0 00-7.042-1.446h-14.101c-2.628 0-5.257.585-7.626 1.689l-.406-.877a19.091 19.091 0 018.049-1.786h14.1c2.58 0 5.079.504 7.432 1.51l5.16 2.192-.406.91zm5.955-26.419c-.909 3.588-12.965 6.446-27.699 6.446h-.243c.6-2.192.909-4.449.909-6.738v-.081l26.497-.958.536 1.331z" fill="#FFCF2D"/><path d="M266.516 377.122a.466.466 0 01-.422-.26.507.507 0 01.016-.503l5.095-7.713c0-.016.017-.016.017-.032a5.261 5.261 0 014.413-2.03 5.21 5.21 0 014.154 2.501 5.147 5.147 0 01.097 5.244 5.197 5.197 0 01-4.511 2.696l-8.859.097zm5.484-7.924l-4.575 6.934 7.967-.065a4.216 4.216 0 003.667-2.192c.746-1.348.714-2.939-.081-4.271-.73-1.218-1.964-1.964-3.375-2.029-1.428-.082-2.726.519-3.603 1.623z" fill="#FE5244"/><path d="M259.1 377.171a4.078 4.078 0 01-3.326-1.738 4.07 4.07 0 01-.471-3.751 3.968 3.968 0 013.132-2.581 3.996 3.996 0 013.813 1.461l4.641 5.764a.5.5 0 01.065.52.49.49 0 01-.438.276l-7.399.049h-.017zm0-7.145c-.162 0-.34.016-.519.049a3.025 3.025 0 00-2.385 1.965 3.093 3.093 0 00.357 2.857 3.021 3.021 0 002.515 1.316h.016l6.393-.049-4.008-4.985c-.567-.747-1.444-1.153-2.369-1.153zm21.71 10.407h-19.228a.478.478 0 01-.487-.487c0-.276.211-.487.487-.487h19.228c.276 0 .487.211.487.487a.478.478 0 01-.487.487z" fill="#FE5244"/><path d="M299.098 354.374c0 3.523-12.722 10.132-25.995 10.132-11.926 0-21.808-2.371-23.674-5.375L216.62 254.108c-9.103-30.152 13.451-60.549 44.914-60.549h5.387l-.763-27.083h67.372l6.636 27.554c5.355 22.245-11.488 44.198-34.351 44.198h-30.246l23.529 116.146z" fill="#fff"/><path d="M273.103 364.993c-11.943 0-22.068-2.354-24.08-5.602l-.032-.049-.017-.065-32.809-105.023c-2.239-7.404-2.661-14.938-1.266-22.423 1.315-7.031 4.284-13.802 8.584-19.599 4.3-5.797 9.914-10.587 16.259-13.883 6.734-3.507 14.068-5.277 21.792-5.277h4.884l-.763-27.084h68.248l.097.374 6.636 27.554c2.613 10.879.114 22.213-6.863 31.095-6.864 8.703-17.038 13.704-27.958 13.704H276.17l23.414 115.61v.049c0 2.387-4.3 5.098-8.308 6.836-5.565 2.403-12.186 3.783-18.173 3.783zm-23.236-6.073c.876 1.315 3.683 2.614 7.724 3.54 4.332.99 9.833 1.542 15.496 1.542 5.857 0 12.332-1.347 17.784-3.702 5.241-2.273 7.675-4.627 7.723-5.894l-23.641-116.681h30.846c10.612 0 20.526-4.855 27.195-13.331 6.799-8.638 9.233-19.663 6.685-30.266l-6.539-27.182h-66.495l.762 27.084h-5.89c-7.561 0-14.749 1.738-21.337 5.164-6.215 3.231-11.716 7.923-15.934 13.606-4.219 5.684-7.124 12.308-8.406 19.209-1.363 7.323-.957 14.711 1.234 21.953l32.793 104.958z" fill="#3FB1B5"/><path d="M278.182 364.489a.486.486 0 01-.47-.341l-31.009-99.275c-2.823-8.167-4.186-15.555-4.04-21.904.146-6.251 1.752-11.561 4.77-15.799 2.824-3.962 6.897-6.998 12.105-9.028 5.16-1.997 11.456-3.02 18.742-3.02h27.114c8.307 0 15.058-6.755 15.058-15.068V166.54c0-.276.21-.487.486-.487s.487.211.487.487v33.514c0 8.849-7.188 16.042-16.031 16.042H278.28c-7.156 0-13.338.991-18.385 2.939-5.03 1.949-8.957 4.871-11.666 8.671-2.905 4.075-4.446 9.206-4.592 15.263-.147 6.235 1.2 13.509 3.991 21.579l31.008 99.292a.493.493 0 01-.324.617c-.032.032-.081.032-.13.032z" fill="#3FB1B5"/><path d="M433.494 207.473H6.251c-1.682 0-2.316-2.598-.896-3.653l75.542-43.289h281.355l72.014 43.874c1.185.925.634 3.068-.772 3.068z" fill="#fff"/><path d="M433.494 207.961H6.251c-.951 0-1.737-.698-2.013-1.786-.262-1.088.083-2.176.896-2.777.014-.016.028-.016.042-.032l75.542-43.289a.378.378 0 01.18-.049h281.354a.39.39 0 01.193.049l72.014 43.873c.014 0 .027.016.041.033.689.536.993 1.494.758 2.435-.248.942-.937 1.543-1.764 1.543zM5.561 204.243c-.578.438-.647 1.152-.523 1.656.124.519.51 1.071 1.213 1.071h427.243c.551 0 .854-.438.965-.844.096-.406.055-.958-.4-1.331l-71.903-43.809H80.994L5.56 204.243z" fill="#66B0F0"/><path d="M422.094 202.651H17.114c-1.875 0-2.591-2.906-.992-4.092l65.19-37.54h280.293l61.523 37.573c1.544 1.201.827 4.059-1.034 4.059z" fill="#D0F0E4"/><path d="M.407 398.197h-.07c-.22-.049-.372-.293-.33-.569l28.052-190.236c.042-.26.249-.439.483-.39.22.049.372.292.33.568L.82 397.791c-.041.243-.22.406-.413.406zm70.733 0c-.193 0-.372-.162-.413-.406L42.674 207.555c-.042-.26.11-.52.33-.568.221-.049.442.129.483.389L71.54 397.613c.041.259-.11.519-.331.568-.028.016-.041.016-.069.016zm296.324-.001h-.069c-.22-.049-.372-.293-.331-.569l28.053-190.236c.042-.26.248-.439.483-.39.22.049.372.292.33.568l-28.052 190.237c-.042.227-.221.39-.414.39zm70.731.001c-.193 0-.372-.162-.414-.406l-28.053-190.236c-.041-.26.111-.52.331-.568.221-.049.441.129.483.389l28.053 190.237c.041.259-.111.519-.331.568-.028.016-.042.016-.069.016z" fill="#66B0F0"/><path d="M375.196 333.963h32.16c1.006-3.604 4.3-6.251 8.227-6.251h-32.161c-3.926 0-7.22 2.647-8.226 6.251z" fill="#3FB1B5"/><path d="M383.698 328.231c4.706 0 8.535 3.832 8.535 8.541v8.541h32.161v-8.541a8.539 8.539 0 00-8.535-8.541h-32.161z" fill="#fff"/><path d="M424.88 345.8h-33.134v-9.028c0-4.433-3.602-8.054-8.048-8.054v-.974h32.161c4.981 0 9.021 4.043 9.021 9.028v9.028zm-32.16-.974h31.187v-8.054c0-4.433-3.619-8.054-8.048-8.054h-28.088c2.937 1.494 4.949 4.547 4.949 8.054v8.054z" fill="#3FB1B5"/><path d="M440.848 333.298h-29.353l1.785 8.151h29.353l-1.785-8.151z" fill="#fff"/><path d="M443.232 341.936h-30.343l-1.995-9.125h30.343l1.995 9.125zm-29.564-.974h28.364l-1.574-7.177h-28.364l1.574 7.177z" fill="#FFCF2D"/><path d="M455.921 397.695h-68.458c5.5 0 9.589-5.099 8.389-10.473l-9.395-42.233a4.534 4.534 0 00-4.43-3.556h68.458a4.545 4.545 0 014.43 3.556l9.395 42.233c1.201 5.374-2.888 10.473-8.389 10.473z" fill="#fff"/><path d="M455.921 398.182h-68.458v-.974a8.043 8.043 0 006.328-3.037 8.1 8.1 0 001.59-6.836l-9.395-42.233a4.08 4.08 0 00-3.959-3.182v-.975h68.458a5.004 5.004 0 014.901 3.93l9.395 42.233a9.107 9.107 0 01-1.769 7.664 9.01 9.01 0 01-7.091 3.41zm-64.353-.974h64.353a8.04 8.04 0 006.328-3.037 8.096 8.096 0 001.591-6.836l-9.395-42.233a4.047 4.047 0 00-3.96-3.182h-65.489a5.072 5.072 0 011.947 2.971l9.395 42.233a9.103 9.103 0 01-1.768 7.664 9.551 9.551 0 01-3.002 2.42z" fill="#FFCF2D"/><path d="M427.315 375.32h-2.872a23.987 23.987 0 01-14.928-5.245 23.97 23.97 0 01-8.373-13.444l-3.197-14.354 1.59-.357 3.197 14.353a22.406 22.406 0 007.805 12.536 22.335 22.335 0 0013.922 4.887h2.872c4.04 0 7.821-1.819 10.352-4.985 2.532-3.166 3.489-7.242 2.597-11.204l-3.392-15.246 1.59-.358 3.392 15.247c.989 4.433-.081 9.012-2.921 12.568a14.81 14.81 0 01-11.634 5.602z" fill="#D0F0E4"/><path d="M430.722 375.158h-2.872a23.991 23.991 0 01-14.928-5.245 23.973 23.973 0 01-8.372-13.445l-3.197-14.353a.818.818 0 01.617-.975.816.816 0 01.973.617l3.197 14.354a22.4 22.4 0 007.805 12.535 22.332 22.332 0 0013.922 4.888h2.872c4.04 0 7.821-1.819 10.352-4.985 2.531-3.166 3.489-7.242 2.596-11.204l-3.391-15.247a.817.817 0 01.617-.974.816.816 0 01.973.617l3.391 15.247c.99 4.433-.081 9.012-2.92 12.568a14.81 14.81 0 01-11.635 5.602zm-43.259 22.537h-11.294c-5.5 0-9.589-5.099-8.389-10.473l9.395-42.233a4.533 4.533 0 014.43-3.556h.454a4.545 4.545 0 014.43 3.556l9.395 42.233c1.168 5.374-2.921 10.473-8.421 10.473z" fill="#FFCF2D"/><path d="M387.463 398.182H376.17a9.01 9.01 0 01-7.091-3.41 8.982 8.982 0 01-1.769-7.664l9.395-42.233c.503-2.273 2.564-3.93 4.9-3.93h.455a5.003 5.003 0 014.9 3.93l9.395 42.233c.584 2.712-.065 5.504-1.817 7.664a8.98 8.98 0 01-7.075 3.41zm-5.858-56.262c-1.882 0-3.553 1.331-3.959 3.166l-9.395 42.233a8.047 8.047 0 001.59 6.836 8.07 8.07 0 006.329 3.036h11.293a8.092 8.092 0 006.328-3.036 8.148 8.148 0 001.623-6.852l-9.395-42.233c-.422-1.868-2.045-3.183-3.959-3.183h-.455v.033z" fill="#FFCF2D"/><path d="M382.514 341.449h-.973v46.471h.973v-46.471z" fill="#fff"/><path d="M392.688 396.72a.53.53 0 01-.308-.097l-10.385-8.2-10.434 8.151a.486.486 0 01-.681-.081.488.488 0 01.081-.682l11.05-8.606 10.969 8.687a.489.489 0 01.081.682.556.556 0 01-.373.146z" fill="#fff"/><path d="M71.96 326.396s-20.363-26.174-17.134-34.261c2.758-6.9 9.038-.47 9.038-.47l8.097 34.731zm14.978 27.572s21.207-23.382 20.72-31.793c-.486-8.411-8.161-4.465-8.161-4.465l-12.56 36.258z" fill="#3FB1B5"/><path d="M109.07 374.54c0 7.047-2.985 13.477-7.886 18.381-3.943 3.929-9.297 6.105-14.863 6.105h-17.28c-5.566 0-10.921-2.176-14.864-6.105-4.9-4.888-7.886-11.334-7.886-18.381 0-10.035 6.036-18.819 15.09-23.69h32.615c9.038 4.855 15.074 13.655 15.074 23.69z" fill="#FFCF2D"/><path d="M77.688 356.338c9.221 0 16.697-1.984 16.697-4.433 0-2.448-7.476-4.432-16.697-4.432s-16.697 1.984-16.697 4.432c0 2.449 7.476 4.433 16.697 4.433z" fill="#3FB1B5"/><path d="M86.936 353.967c-2.644.471-5.825.747-9.249.747-3.245 0-6.279-.243-8.826-.665-6.037-6.414-20.738-23.431-15.302-31.842 6.783-10.505 18.417 4.206 18.417 4.206s-13.727-42.185-6.458-51.554c7.27-9.369 12.965 7.275 12.965 7.275s3.667-20.2 13.516-18.267c9.395 1.851-5.16 48.695-6.523 53.014.698-2.078 4.917-13.542 13.143-12.486 7.789.99-7.399 39.164-11.683 49.572z" fill="#fff"/><path d="M77.688 355.201c-3.18 0-6.247-.227-8.908-.665l-.162-.033-.114-.113c-6.474-6.885-20.932-23.821-15.35-32.443 1.639-2.533 3.7-3.88 6.117-3.994 4.56-.227 9.217 3.962 11.553 6.43-1.135-3.702-3.456-11.642-5.29-20.118-3.374-15.701-3.52-25.687-.405-29.698 1.785-2.306 3.667-3.312 5.598-2.988 3.716.617 6.458 6.105 7.61 8.866.86-3.67 3.359-12.503 8.276-15.864 1.703-1.169 3.537-1.559 5.484-1.185.957.194 1.72.763 2.288 1.737 2.142 3.605 1.509 12.957-1.866 27.766-1.51 6.641-3.294 13.103-4.64 17.715 2.255-3.637 5.808-7.323 10.806-6.69.811.097 1.444.536 1.898 1.299 1.655 2.842.406 10.733-3.715 23.479-3.197 9.921-7.319 20.216-9.477 25.477l-.097.243-.26.049c-2.79.471-6.02.73-9.346.73zm-8.584-1.607c2.564.406 5.534.633 8.584.633 3.18 0 6.247-.243 8.908-.698 2.19-5.31 6.199-15.425 9.347-25.152 5.014-15.522 4.835-20.897 3.797-22.683-.276-.487-.666-.763-1.169-.828-7.788-.991-11.877 9.953-12.624 12.162l-.925-.309c.65-2.03 3.976-12.779 6.556-24.064 3.278-14.37 3.959-23.722 1.98-27.051-.423-.715-.958-1.137-1.64-1.267-1.67-.324-3.26.017-4.738 1.023-5.809 3.962-8.178 16.725-8.194 16.855l-.34 1.835-.6-1.77c-.033-.098-3.149-9.045-7.449-9.759-1.541-.26-3.115.633-4.673 2.63-7.026 9.061 6.393 50.677 6.54 51.099l.843 2.582-1.688-2.127c-.064-.081-6.457-8.086-12.267-7.794-2.093.097-3.894 1.299-5.354 3.556-2.24 3.459-1.103 8.882 3.359 16.156 3.7 6.073 8.892 11.935 11.748 14.971z" fill="#3FB1B5"/><path d="M77.689 355.201a.488.488 0 01-.487-.487c.211-27.067 4.09-50.368 7.318-65.144 3.489-16.026 6.978-25.785 7.01-25.882a.474.474 0 01.617-.292c.26.097.389.373.292.617-.033.097-3.505 9.807-6.978 25.768-3.212 14.727-7.074 37.963-7.285 64.933a.488.488 0 01-.487.487z" fill="#3FB1B5"/><path d="M80.61 314.982h-.08a.48.48 0 01-.406-.552c1.606-10.619-2.11-32.004-2.142-32.215a.493.493 0 01.39-.568.493.493 0 01.567.389c.032.211 3.78 21.758 2.142 32.54a.474.474 0 01-.47.406zm.389 40.122h-.032a.48.48 0 01-.455-.52c.925-15.49 5.68-28.399 9.509-36.485 4.154-8.768 8.162-13.964 8.194-14.013a.488.488 0 01.681-.081.488.488 0 01.082.682c-.033.049-3.992 5.18-8.097 13.867-3.797 8.005-8.503 20.783-9.412 36.111 0 .244-.21.439-.47.439zm-6.653.016a.488.488 0 01-.487-.487c-.162-11.415-5.322-20.037-9.639-25.265-4.673-5.667-9.346-8.671-9.378-8.687a.477.477 0 01-.146-.666.477.477 0 01.665-.146c.195.13 4.852 3.101 9.622 8.898 4.397 5.342 9.687 14.175 9.85 25.866 0 .26-.212.487-.487.487z" fill="#3FB1B5"/><path d="M61.738 315.095a3.803 3.803 0 01-3.797-3.799c0-2.095 1.704-3.8 3.797-3.8a3.803 3.803 0 013.797 3.8 3.803 3.803 0 01-3.797 3.799zm0-6.625a2.827 2.827 0 000 5.651 2.827 2.827 0 000-5.651zm-7.658 1.624a2.023 2.023 0 01-2.013-2.013c0-1.104.91-2.014 2.012-2.014 1.104 0 2.013.91 2.013 2.014a2.023 2.023 0 01-2.013 2.013zm0-3.052c-.569 0-1.039.471-1.039 1.039s.47 1.039 1.038 1.039c.568 0 1.039-.471 1.039-1.039s-.47-1.039-1.039-1.039zm2.19 41.437a2.023 2.023 0 01-2.012-2.013c0-1.105.908-2.014 2.012-2.014 1.103 0 2.012.909 2.012 2.014a2.023 2.023 0 01-2.012 2.013zm0-3.053c-.568 0-1.039.471-1.039 1.04 0 .568.471 1.039 1.039 1.039s1.038-.471 1.038-1.039c0-.569-.47-1.04-1.038-1.04zm40.598-44.1a3.803 3.803 0 01-3.797-3.8 3.803 3.803 0 013.797-3.799 3.803 3.803 0 013.797 3.799c0 2.095-1.704 3.8-3.797 3.8zm0-6.625a2.826 2.826 0 000 5.65 2.826 2.826 0 000-5.65zm.974-5.618a2.023 2.023 0 01-2.012-2.014c0-1.104.909-2.013 2.012-2.013s2.012.909 2.012 2.013a2.023 2.023 0 01-2.012 2.014zm0-3.053c-.568 0-1.038.471-1.038 1.039s.47 1.039 1.038 1.039c.568 0 1.039-.471 1.039-1.039s-.471-1.039-1.039-1.039zm5.533 15.297a2.024 2.024 0 01-2.012-2.014c0-1.104.909-2.013 2.012-2.013 1.104 0 2.012.909 2.012 2.013a2.023 2.023 0 01-2.012 2.014zm0-3.053c-.568 0-1.038.471-1.038 1.039 0 .569.47 1.04 1.038 1.04.568 0 1.039-.471 1.039-1.04 0-.568-.471-1.039-1.039-1.039z" fill="#FFCF2D"/><path d="M299.926 64.618l32.663 9.223c14.295 3.913 24.664 16.319 25.962 31.094l4.981 55.126H190.674l15.967-61.945a30.27 30.27 0 0120.623-21.58l38.148-11.918h34.514z" fill="#FE5244"/><path d="M200.394 155.303a1.574 1.574 0 100-3.148 1.574 1.574 0 000 3.148zm16.389 0a1.575 1.575 0 10-.001-3.15 1.575 1.575 0 00.001 3.15zm16.389 0c.869 0 1.573-.705 1.573-1.575a1.574 1.574 0 10-3.147 0c0 .87.704 1.575 1.574 1.575zm16.388 0a1.575 1.575 0 10-.001-3.15 1.575 1.575 0 00.001 3.15zm16.388 0a1.574 1.574 0 100-3.148 1.574 1.574 0 000 3.148zm16.389 0a1.575 1.575 0 10-.001-3.15 1.575 1.575 0 00.001 3.15zm16.388 0a1.575 1.575 0 10-.001-3.15 1.575 1.575 0 00.001 3.15zm16.389 0a1.575 1.575 0 10-.001-3.15 1.575 1.575 0 00.001 3.15zm16.389 0a1.575 1.575 0 10-.001-3.15 1.575 1.575 0 00.001 3.15zm16.388 0a1.575 1.575 0 10-.001-3.15 1.575 1.575 0 00.001 3.15zm-139.059-11.041a1.575 1.575 0 10-.001-3.15 1.575 1.575 0 00.001 3.15zm16.388 0a1.574 1.574 0 100-3.148 1.574 1.574 0 000 3.148zm16.389 0a1.575 1.575 0 10-.001-3.15 1.575 1.575 0 00.001 3.15zm16.388 0a1.574 1.574 0 100-3.148 1.574 1.574 0 000 3.148zm16.389 0a1.575 1.575 0 10-.001-3.15 1.575 1.575 0 00.001 3.15zm16.388 0a1.575 1.575 0 10-.001-3.15 1.575 1.575 0 00.001 3.15zm16.389 0a1.575 1.575 0 10-.001-3.15 1.575 1.575 0 00.001 3.15zm16.388 0a1.574 1.574 0 100-3.148 1.574 1.574 0 000 3.148zm16.389 0a1.575 1.575 0 10-.001-3.15 1.575 1.575 0 00.001 3.15zm16.388 0a1.574 1.574 0 100-3.148 1.574 1.574 0 000 3.148zm-155.934-11.366a1.574 1.574 0 100-3.148 1.574 1.574 0 000 3.148zm16.389 0a1.575 1.575 0 10-.001-3.15 1.575 1.575 0 00.001 3.15zm16.389 0c.869 0 1.573-.705 1.573-1.575a1.574 1.574 0 10-3.147 0c0 .87.704 1.575 1.574 1.575zm16.388 0a1.575 1.575 0 10-.001-3.15 1.575 1.575 0 00.001 3.15zm16.388 0a1.574 1.574 0 100-3.148 1.574 1.574 0 000 3.148zm16.389 0a1.575 1.575 0 10-.001-3.15 1.575 1.575 0 00.001 3.15zm16.388 0a1.575 1.575 0 10-.001-3.15 1.575 1.575 0 00.001 3.15zm16.389 0a1.575 1.575 0 10-.001-3.15 1.575 1.575 0 00.001 3.15zm16.389 0a1.575 1.575 0 10-.001-3.15 1.575 1.575 0 00.001 3.15zm16.388 0a1.575 1.575 0 10-.001-3.15 1.575 1.575 0 00.001 3.15zm-139.059-10.555a1.575 1.575 0 10-.001-3.15 1.575 1.575 0 00.001 3.15zm16.388 0a1.574 1.574 0 100-3.148 1.574 1.574 0 000 3.148zm16.389 0a1.575 1.575 0 10-.001-3.15 1.575 1.575 0 00.001 3.15zm16.388 0a1.574 1.574 0 100-3.148 1.574 1.574 0 000 3.148zm16.389 0a1.575 1.575 0 10-.001-3.15 1.575 1.575 0 00.001 3.15zm16.388 0a1.575 1.575 0 10-.001-3.15 1.575 1.575 0 00.001 3.15zm16.389 0a1.575 1.575 0 10-.001-3.15 1.575 1.575 0 00.001 3.15zm16.875 0a1.575 1.575 0 10-.001-3.15 1.575 1.575 0 00.001 3.15zm15.902 0a1.575 1.575 0 10-.001-3.15 1.575 1.575 0 00.001 3.15zm16.388 0a1.574 1.574 0 100-3.148 1.574 1.574 0 000 3.148zm-139.545-10.878a1.575 1.575 0 10-.002-3.15 1.575 1.575 0 00.002 3.15zm32.777 0a1.575 1.575 0 10-.001-3.15 1.575 1.575 0 00.001 3.15zm16.388 0a1.575 1.575 0 10-.001-3.15 1.575 1.575 0 00.001 3.15zm16.389 0a1.575 1.575 0 10-.002-3.15 1.575 1.575 0 00.002 3.15zm16.388 0a1.575 1.575 0 10-.001-3.15 1.575 1.575 0 00.001 3.15zm16.389 0a1.575 1.575 0 10-.002-3.15 1.575 1.575 0 00.002 3.15zm16.389 0a1.575 1.575 0 10-.002-3.15 1.575 1.575 0 00.002 3.15zm16.388 0a1.575 1.575 0 10-.001-3.15 1.575 1.575 0 00.001 3.15zm-139.059-10.716a1.575 1.575 0 10-.001-3.15 1.575 1.575 0 00.001 3.15zm16.388 0a1.574 1.574 0 100-3.153 1.574 1.574 0 000 3.153zm16.389 0a1.575 1.575 0 10-.001-3.15 1.575 1.575 0 00.001 3.15zm16.388 0a1.574 1.574 0 100-3.153 1.574 1.574 0 000 3.153zm16.389 0a1.575 1.575 0 10-.001-3.15 1.575 1.575 0 00.001 3.15zm16.388 0a1.575 1.575 0 10-.001-3.15 1.575 1.575 0 00.001 3.15zm16.389 0a1.575 1.575 0 10-.001-3.15 1.575 1.575 0 00.001 3.15zm16.388 0a1.574 1.574 0 100-3.153 1.574 1.574 0 000 3.153zm16.389 0a1.575 1.575 0 10-.001-3.15 1.575 1.575 0 00.001 3.15zm15.577 0a1.575 1.575 0 10-.001-3.15 1.575 1.575 0 00.001 3.15zM216.783 90.192a1.575 1.575 0 10-.001-3.15 1.575 1.575 0 00.001 3.15zm16.389 0c.869 0 1.573-.705 1.573-1.575a1.574 1.574 0 10-1.573 1.575zm16.388 0a1.574 1.574 0 100-3.148 1.574 1.574 0 000 3.148zm16.388 0a1.574 1.574 0 100-3.148 1.574 1.574 0 000 3.148zm16.389 0a1.575 1.575 0 10-.001-3.15 1.575 1.575 0 00.001 3.15zm16.388 0a1.574 1.574 0 100-3.148 1.574 1.574 0 000 3.148zm16.389 0a1.575 1.575 0 10-.001-3.15 1.575 1.575 0 00.001 3.15zm16.389 0a1.575 1.575 0 10-.001-3.15 1.575 1.575 0 00.001 3.15zm16.388 0a1.574 1.574 0 100-3.148 1.574 1.574 0 000 3.148zm-81.943-19.81a1.574 1.574 0 100-3.148 1.574 1.574 0 000 3.148zm16.389 0a1.575 1.575 0 10-.001-3.149 1.575 1.575 0 00.001 3.15zm16.389 0a1.575 1.575 0 10-.001-3.149 1.575 1.575 0 00.001 3.15zm17.881-1.055a1.566 1.566 0 01-1.493 1.056c-.86 0-1.574-.698-1.574-1.575 0-.114.016-.228.032-.341l3.035.86zm-91.386 10.961a1.575 1.575 0 10-.001-3.15 1.575 1.575 0 00.001 3.15zm16.388 0a1.575 1.575 0 10-.001-3.15 1.575 1.575 0 00.001 3.15zm14.831-2.095a1.575 1.575 0 10-.001-3.15 1.575 1.575 0 00.001 3.15zm17.946 2.095a1.574 1.574 0 100-3.148 1.574 1.574 0 000 3.148zm16.389 0a1.575 1.575 0 10-.001-3.15 1.575 1.575 0 00.001 3.15zm16.388 0a1.574 1.574 0 100-3.148 1.574 1.574 0 000 3.148zm16.389 0a1.575 1.575 0 10-.001-3.15 1.575 1.575 0 00.001 3.15zm16.389 0a1.575 1.575 0 10-.001-3.15 1.575 1.575 0 00.001 3.15z" fill="#fff"/><path d="M325.904 161.019a.483.483 0 01-.487-.455l-3.569-48.598a.479.479 0 01.454-.52.48.48 0 01.519.455l3.57 48.598a.48.48 0 01-.454.52h-.033zm-84.458 0a.478.478 0 01-.486-.487v-14.451l-3.132-1.835c-5.906-3.459-8.827-10.278-7.302-16.952l5.176-22.602a.508.508 0 01.584-.374.51.51 0 01.374.585l-5.176 22.602c-1.445 6.251 1.314 12.633 6.847 15.88l3.618 2.127v15.004c-.016.292-.227.503-.503.503zm33.767-64.316l-11.099-32.15a.485.485 0 01.309-.617.484.484 0 01.616.309l10.515 30.493 24.518-30.64a.487.487 0 01.681-.08c.211.162.244.47.081.681l-25.621 32.004z" fill="#fff"/><path d="M304.08 86.019l-11.018-12.78a.486.486 0 01.049-.681.485.485 0 01.681.049l10.207 11.837 10.628-15.15a.476.476 0 01.681-.113.478.478 0 01.114.681L304.08 86.02zM255.077 84.2l-7.497-14.19a.499.499 0 01.195-.667.498.498 0 01.665.195l6.945 13.12 11.91-10.116a.484.484 0 01.633.73L255.077 84.2zm-21.29 31.468a.483.483 0 01-.47-.39l-2.223-10.375a.508.508 0 01.373-.585c.259-.065.519.114.584.374l2.223 10.375a.509.509 0 01-.373.585c-.049.016-.081.016-.114.016z" fill="#fff"/><path d="M277.112 202.652h-44.477l-19.666-30.737h44.476l19.667 30.737z" fill="#FFCF2D"/><path d="M250.289 195.979h-44.493l-19.65-30.721h44.477l19.666 30.721z" fill="#fff"/><path d="M250.289 196.465h-44.492a.463.463 0 01-.406-.227l-19.65-30.721a.507.507 0 01-.016-.503.466.466 0 01.422-.26h44.476c.162 0 .324.081.406.227l19.666 30.721a.508.508 0 01.016.504.467.467 0 01-.422.259zm-44.233-.974h43.341l-19.034-29.747h-43.324l19.017 29.747z" fill="#3FB1B5"/><path d="M222.088 171.557c-.486 0-1.071-.13-1.687-.39l-2.515-1.104c-1.071-.471-1.818-.373-1.98-.146l-.795 1.007c-.503.617-1.639.649-2.937.081l-2.19-.958c-1.071-.471-1.818-.374-1.98-.146l-.665.86c-.503.617-1.639.65-2.954.098l-1.655-.715c-1.071-.471-1.817-.373-1.979-.162l-.601.763c-.503.617-1.638.65-2.937.098l-1.655-.715a.394.394 0 01-.211-.536.394.394 0 01.536-.211l1.655.715c.974.422 1.785.406 1.996.146l.6-.763c.487-.634 1.655-.666 2.953-.082l1.655.715c.974.422 1.785.406 1.996.146l.666-.844c.486-.634 1.655-.666 2.953-.098l2.19.958c.974.422 1.785.406 1.996.146l.795-1.006c.487-.634 1.655-.666 2.953-.081l2.515 1.104c.974.422 1.785.406 1.996.146l.86-1.088a.393.393 0 01.568-.065c.179.13.211.39.065.568l-.86 1.104a2.103 2.103 0 01-1.347.455zm5.079 6.495c-.487 0-1.071-.13-1.688-.39l-2.515-1.104c-1.071-.471-1.817-.373-1.98-.146l-.795 1.007c-.503.617-1.639.649-2.937.081l-2.19-.958c-1.071-.471-1.818-.373-1.98-.146l-.665.86c-.503.617-1.639.65-2.953.098l-1.655-.715c-1.071-.47-1.818-.373-1.98-.162l-.6.763c-.503.617-1.639.65-2.937.098a.394.394 0 01-.211-.536.392.392 0 01.535-.211c.974.422 1.785.406 1.996.146l.6-.763c.487-.633 1.656-.666 2.954-.081l1.655.714c.973.422 1.785.406 1.996.146l.665-.844c.487-.633 1.655-.666 2.953-.098l2.191.958c.973.423 1.784.406 1.995.147l.795-1.007c.487-.633 1.656-.666 2.954-.081l2.515 1.104c.973.422 1.785.406 1.996.146l.86-1.088a.392.392 0 01.567-.065c.179.13.211.39.065.568l-.86 1.104a2.102 2.102 0 01-1.346.455zm5.079 6.479c-.487 0-1.071-.13-1.688-.39l-2.515-1.104c-1.071-.471-1.817-.374-1.979-.146l-.795 1.006c-.503.617-1.639.65-2.937.082l-2.191-.958c-1.071-.471-1.817-.374-1.979-.147l-.666.861c-.503.617-1.639.65-2.953.097l-1.655-.714c-1.071-.471-1.817-.373-1.979-.162l-.601.763c-.503.617-1.639.649-2.937.097l-1.655-.714a.394.394 0 01-.211-.536c.081-.211.325-.309.536-.211l1.655.714c.973.422 1.785.406 1.996.146l.6-.763c.487-.633 1.655-.665 2.953-.081l1.655.715c.974.422 1.785.405 1.996.146l.665-.845c.487-.633 1.655-.665 2.953-.097l2.191.958c.974.422 1.785.406 1.996.146l.795-1.007c.487-.633 1.655-.665 2.953-.081l2.515 1.104c.974.422 1.785.406 1.996.146l.86-1.104a.394.394 0 01.568-.065c.178.13.211.39.065.569l-.86 1.104a2.035 2.035 0 01-1.347.471zm5.079 6.495c-.487 0-1.071-.13-1.688-.39l-2.515-1.104c-1.071-.471-1.817-.374-1.98-.146l-.795 1.007c-.503.617-1.638.649-2.937.081l-2.19-.958c-1.071-.471-1.817-.374-1.98-.146l-.665.86c-.503.617-1.639.65-2.953.098l-1.655-.715c-1.071-.471-1.818-.373-1.98-.162l-.6.763c-.503.617-1.639.649-2.937.097l-1.655-.714c-.211-.081-.309-.325-.211-.536a.393.393 0 01.535-.211l1.655.714c1.023.439 1.785.406 1.996.147l.601-.764c.486-.633 1.655-.665 2.953-.081l1.655.715c.973.422 1.785.406 1.996.146l.665-.845c.487-.633 1.655-.665 2.953-.097l2.191.958c.973.422 1.785.406 1.995.146l.796-1.007c.486-.633 1.655-.665 2.953-.081l2.515 1.104c1.006.439 1.785.406 1.996.147l.86-1.088a.393.393 0 01.568-.065c.178.13.211.389.064.568l-.859 1.104a2.113 2.113 0 01-1.347.455z" fill="#3FB1B5"/><path d="M259.019 178.312h85.317c11.294 0 20.137-9.726 19.066-20.963-1.071-11.285-11.634-19.192-22.749-17.016l-98.185 13.688a11.755 11.755 0 00-8.746 6.089l-8.697 16.172a3.909 3.909 0 00-.649 1.364l-3.262 12.616h1.834a7.705 7.705 0 006.799-4.091l1.638-3.069 18.872 2.046c3.537.438 6.896-1.981 8.161-5.294l.601-1.542z" fill="#A0505A"/><path d="M231.564 183.035a.486.486 0 01-.438-.698l5.695-11.805a.486.486 0 11.876.423l-5.695 11.804a.478.478 0 01-.438.276zm7.593.748a.487.487 0 01-.438-.698l5.696-11.805a.486.486 0 11.876.423l-5.696 11.804a.477.477 0 01-.438.276zm7.432.926a.487.487 0 01-.438-.698l5.679-11.805a.486.486 0 01.877.422l-5.68 11.805a.477.477 0 01-.438.276zm12.43-5.91c-.049 0-.097-.017-.162-.033a.484.484 0 01-.309-.617l2.597-7.745a.484.484 0 01.616-.309c.26.082.39.358.308.617l-2.596 7.746a.467.467 0 01-.454.341z" fill="#73325A"/><path d="M280.016 9.022s11.164-7.015 22.068 1.834c10.287 8.363 5.484 24.843 1.72 22.083-3.229-2.354 21.938-10.392 29.824 8.265 8.94 21.141-11.197 33.14-34.157 22.684h-33.312l-35.422 11.057s-17.995-9.158-8.211-27.019c9.038-16.48 30.636-10.603 28.202-6.527-3.424 5.715-18.06-12.373-7.773-29.455C253.827-6.112 278.523.611 280.016 9.022z" fill="#fff"/><path d="M230.688 75.465l-.178-.098c-.325-.162-8.162-4.238-10.661-12.308-1.477-4.79-.73-9.97 2.239-15.392 5.501-10.019 15.058-11.188 18.904-11.22h.778c-1.752-3.297-2.79-7.177-2.904-10.993-.162-4.855 1.071-9.499 3.667-13.786 2.921-4.855 6.994-8.28 12.072-10.148 4.203-1.543 9.071-1.932 13.679-1.072 6.134 1.137 10.953 4.287 12.056 7.81 1.039-.552 3.408-1.656 6.556-2.143 3.894-.6 9.735-.34 15.512 4.335 3.586 2.923 5.825 7.242 6.279 12.162.244 2.615-.032 4.969-.567 6.804a26.265 26.265 0 014.738-.698c4.705-.26 16.21.39 21.224 12.259 1.882 4.449 2.563 8.638 2.028 12.454-.487 3.556-2.077 6.722-4.592 9.174-3.31 3.231-8.016 5.13-13.63 5.504-5.809.39-12.202-.909-18.514-3.767H266.24l-35.552 11.123zm10.531-38.028h-.211c-3.683.032-12.819 1.153-18.06 10.717-2.84 5.163-3.553 10.083-2.158 14.63 2.158 7.03 8.843 10.992 9.995 11.642L266.077 63.4h33.508l.097.05c6.198 2.824 12.478 4.107 18.141 3.734 5.371-.358 9.865-2.176 13.013-5.229 2.386-2.322 3.846-5.228 4.316-8.605.503-3.638-.162-7.648-1.963-11.935-2.255-5.326-6.101-8.898-11.456-10.62-5.614-1.802-10.936-.94-12.964-.47-.357.081-.698.162-1.006.26a8.316 8.316 0 01-1.055 1.98c-.958 1.251-2.142 1.56-3.164.813-.406-.293-.568-.731-.438-1.17.259-.876 1.785-1.77 3.91-2.419.601-1.786.974-4.254.714-7.03-.438-4.66-2.547-8.752-5.922-11.497-4.414-3.572-9.379-4.968-14.734-4.14-4.008.617-6.734 2.322-6.766 2.338l-.617.39-.13-.715c-.6-3.377-5.306-6.543-11.423-7.68-4.446-.828-9.119-.455-13.159 1.04-4.868 1.785-8.763 5.065-11.57 9.742-2.482 4.14-3.683 8.59-3.521 13.266.114 3.767 1.169 7.631 2.953 10.846.049.081.082.162.13.227 3.895.293 7.253 1.592 8.211 3.248.357.617.357 1.283.016 1.867-.519.877-1.298 1.332-2.272 1.315-2.012-.032-4.527-2.16-6.523-5.488a7.52 7.52 0 00-1.184-.081zm2.336.13c1.72 2.63 3.814 4.4 5.339 4.416.6 0 1.071-.26 1.412-.844.162-.276.162-.568-.017-.877-.649-1.12-3.261-2.306-6.734-2.695zm60.443-5.099s.016.033.081.081c.568.423 1.185.212 1.818-.616.21-.26.405-.601.6-.991-1.736.633-2.499 1.299-2.499 1.526z" fill="#FFCF2D"/><path d="M287.204 33.069a.5.5 0 01-.211-.049c-.114-.049-2.629-1.266-4.966-3.734-2.433-2.582-3.699-5.553-3.78-8.72a23.923 23.923 0 01-3.116 4.32c-2.807 3.068-7.788 6.722-15.609 6.722h-.163c-2.807-.017-4.786-1.186-5.598-3.28-.957-2.517.049-6.008 2.353-8.103a.486.486 0 01.682.033.486.486 0 01-.033.682c-2.028 1.85-2.921 4.87-2.093 7.03.665 1.722 2.288 2.647 4.689 2.663h.163c5.987 0 11.001-2.16 14.895-6.397 2.921-3.199 4.073-6.43 4.089-6.463a.483.483 0 01.584-.308.493.493 0 01.357.568c-.746 3.913.357 7.47 3.278 10.587 2.207 2.354 4.673 3.54 4.69 3.556.243.114.34.406.227.65a.511.511 0 01-.438.243z" fill="#FFCF2D"/><path d="M299.747 64.57l-8.519-22.635h-24.209l-1.899 22.634 10.434 30.007 24.193-30.007z" fill="#A0505A"/><path d="M280.194 59.78l-12.77 11.284-2.304-6.495 1.899-22.634h21.451v.422c-.016 6.77-3.051 13.168-8.276 17.422z" fill="#73325A"/><path d="M296.761 37.534v.91a4.489 4.489 0 01-4.478 4.481h-4.868c-.909 6.9-6.815 12.243-13.955 12.243a14.037 14.037 0 01-9.963-4.124 14.056 14.056 0 01-4.121-9.97V31.59c14.977.114 19.277-12.21 19.277-12.21-.99 9.255 7.448 13.233 8.729 13.77v-.098h4.901a4.489 4.489 0 014.478 4.481z" fill="#A0505A"/><path d="M281.751 31.949a.506.506 0 01-.357-.146c-2.174-2.322-5.468-2.42-5.5-2.42a.47.47 0 01-.471-.503c0-.276.227-.487.503-.47.146 0 3.716.096 6.182 2.71a.485.485 0 01-.016.683.494.494 0 01-.341.146zm-6.571 8.2c.547 0 .99-.778.99-1.738s-.443-1.737-.99-1.737c-.546 0-.99.778-.99 1.737 0 .96.444 1.738.99 1.738zm-13.516 0c.546 0 .989-.778.989-1.738s-.443-1.737-.989-1.737c-.547 0-.99.778-.99 1.737 0 .96.443 1.738.99 1.738zm7.74 7.453h-.13c-1.055-.033-1.801-.374-1.834-.39a.487.487 0 01.422-.877c.098.049 2.402 1.088 4.527-.974a.47.47 0 01.682.016.471.471 0 01-.016.682c-1.298 1.267-2.678 1.543-3.651 1.543zm19.261-7.81a.478.478 0 01-.487-.488 4.316 4.316 0 014.316-4.319c.276 0 .487.211.487.487a.478.478 0 01-.487.488 3.34 3.34 0 00-3.343 3.344.478.478 0 01-.486.488zm-33.589-7.682a.557.557 0 01-.341-.13.47.47 0 01-.016-.681c2.466-2.615 6.036-2.712 6.182-2.712a.5.5 0 01.503.47.5.5 0 01-.471.504c-.032 0-3.326.098-5.5 2.42a.568.568 0 01-.357.13z" fill="#73325A"/><path d="M261.129 45.198c-3.343 0-6.053-3.15-6.053-7.03 0-3.881 2.71-7.031 6.053-7.031 3.342 0 6.052 3.15 6.052 7.03 0 3.881-2.71 7.031-6.052 7.031zm0-13.087c-2.808 0-5.079 2.712-5.079 6.056 0 3.345 2.271 6.057 5.079 6.057 2.807 0 5.078-2.712 5.078-6.056 0-3.345-2.271-6.057-5.078-6.057zm14.944 13.087c-3.343 0-6.052-3.15-6.052-7.03 0-3.881 2.709-7.031 6.052-7.031 3.343 0 6.052 3.15 6.052 7.03 0 3.881-2.709 7.031-6.052 7.031zm0-13.087c-2.807 0-5.079 2.712-5.079 6.056 0 3.345 2.272 6.057 5.079 6.057s5.079-2.712 5.079-6.056c0-3.345-2.272-6.057-5.079-6.057z" fill="#FE5244"/><path d="M270.248 38.557c-.065-.05-1.736-1.202-3.245-.017l-.601-.763c1.672-1.299 3.619-.584 4.414-.016l-.568.796z" fill="#FE5244"/><path d="M170.703 181.591H77.426a6.108 6.108 0 01-5.675-3.834l-25.525-63.09c-1.215-3.018 1.006-6.32 4.251-6.32h93.277a6.108 6.108 0 015.675 3.834l25.525 63.089c1.234 3.018-.987 6.321-4.251 6.321z" fill="#fff"/><path fill-rule="evenodd" clip-rule="evenodd" d="M46.753 114.454l25.526 63.09a5.538 5.538 0 005.146 3.477h93.277c2.861 0 4.804-2.893 3.724-5.535L148.9 112.394l-.001-.001a5.537 5.537 0 00-5.146-3.477H50.476c-2.839 0-4.788 2.892-3.723 5.538zm-1.056.426c-1.364-3.39 1.128-7.103 4.78-7.103h93.276a6.677 6.677 0 016.203 4.191l25.524 63.087c1.387 3.393-1.11 7.105-4.778 7.105H77.425a6.677 6.677 0 01-6.203-4.191L45.697 114.88z" fill="#FFCF2D"/><path d="M166.376 182.046H77.388a5.842 5.842 0 01-5.41-3.645L47.63 118.216c-1.158-2.885.949-6.017 4.061-6.017h88.988a5.842 5.842 0 015.409 3.644l24.349 60.186c1.158 2.885-.968 6.017-4.061 6.017z" fill="#FFCF2D"/><path d="M111.738 154.676a9.762 9.762 0 01-6.946-2.884 7.961 7.961 0 01-2.354-5.656c0-2.145.836-4.157 2.354-5.657a6.518 6.518 0 014.63-1.917c1.746 0 3.397.684 4.631 1.917a5.395 5.395 0 010 7.63 4.466 4.466 0 01-6.32 0 .756.756 0 010-1.081.756.756 0 011.082 0 2.945 2.945 0 004.175 0 3.872 3.872 0 000-5.486 5.024 5.024 0 00-3.568-1.48 5.022 5.022 0 00-3.567 1.48 6.413 6.413 0 00-1.898 4.594c0 1.727.683 3.359 1.898 4.593a8.208 8.208 0 005.864 2.429c2.22 0 4.308-.854 5.864-2.429a.756.756 0 011.082 0 .758.758 0 010 1.082 9.747 9.747 0 01-6.927 2.865zm92.347 33.596H77.539a2.633 2.633 0 01-2.638-2.638v-1.272a2.632 2.632 0 012.638-2.638h126.546a2.632 2.632 0 012.638 2.638v1.272c-.019 1.461-1.196 2.638-2.638 2.638z" fill="#fff"/><path fill-rule="evenodd" clip-rule="evenodd" d="M77.538 182.292a2.063 2.063 0 00-2.069 2.069v1.272c0 1.147.922 2.068 2.069 2.068h126.546c1.122 0 2.051-.917 2.068-2.072v-1.268a2.063 2.063 0 00-2.068-2.069H77.538zm-3.207 2.069a3.202 3.202 0 013.207-3.208h126.546a3.202 3.202 0 013.207 3.208v1.279c-.023 1.766-1.447 3.2-3.207 3.2H77.538a3.201 3.201 0 01-3.207-3.207v-1.272z" fill="#FFCF2D"/><path d="M59.037 165.885l-3.795 26.886a3.21 3.21 0 01-3.188 2.769h-7.42a3.222 3.222 0 01-3.188-2.769l-3.795-26.886c0 2.413 4.783 4.364 10.687 4.364 5.916 0 10.7-1.964 10.7-4.364z" fill="#fff"/><path d="M52.056 195.938h-7.419a3.63 3.63 0 01-3.584-3.112l-3.716-26.359a2.132 2.132 0 01-.08-.58c0-.211.159-.383.37-.396a.394.394 0 01.421.343l.066.461c.54 1.794 4.507 3.561 10.226 3.561 5.732 0 9.711-1.767 10.238-3.561l.066-.461a.394.394 0 01.422-.343c.21.013.369.185.369.396 0 .197-.026.395-.08.58l-3.715 26.359a3.588 3.588 0 01-3.584 3.112zm-13.704-27.955l3.492 24.738a2.835 2.835 0 002.793 2.426h7.419a2.793 2.793 0 002.793-2.426l3.492-24.738c-1.779 1.596-5.547 2.664-10.001 2.664s-8.223-1.081-9.989-2.664z" fill="#66B0F0"/><path d="M56.655 168.761l-3.387 23.801a3.63 3.63 0 01-3.584 3.112H47.14a3.63 3.63 0 01-3.584-3.112l-3.387-23.735c.264.118.553.224.843.329l3.32 23.3a2.839 2.839 0 002.478 2.413c.106.014.211.027.33.027h2.543a2.826 2.826 0 002.794-2.44l3.32-23.352c.316-.106.593-.225.857-.343z" fill="#66B0F0"/><path d="M53.163 169.816l-3.017 25.041-.04.343a.398.398 0 01-.395.343h-.053a.387.387 0 01-.342-.435l.026-.211 3.004-24.936c.29-.052.554-.105.817-.145zM47.3 195.542h-.053a.398.398 0 01-.395-.343l-.04-.33-3.018-25.001c.264.053.54.092.817.132l3.005 24.896.026.211a.397.397 0 01-.342.435z" fill="#66B0F0"/><path d="M59.422 165.887c0 1.108-1.04 2.11-2.754 2.888a12.59 12.59 0 01-.843.343 18.33 18.33 0 01-2.649.712c-.263.053-.54.092-.817.145a27.078 27.078 0 01-3.703.29h-.737a25.698 25.698 0 01-4.112-.382 18.488 18.488 0 01-2.78-.713 12.45 12.45 0 01-.843-.329c-1.806-.778-2.9-1.807-2.9-2.941 0-.092.014-.184.027-.277.369-2.281 5.166-4.074 11.042-4.074 5.877 0 10.687 1.806 11.043 4.074.013.079.026.172.026.264z" fill="#66B0F0"/><path d="M48.814 194.805c0 .026 0 .066-.013.092a.396.396 0 01-.382.303.396.396 0 01-.383-.303c-.013-.026-.013-.053-.013-.079l-.131-24.421c0-.053.013-.092.026-.145h.738c.013.04.026.079.026.132l.132 24.421z" fill="#66B0F0"/><path d="M48.42 169.447c-2.346-.066-4.494-.422-6.234-.989l-6.22-26.096h5.996l6.457 27.085z" fill="#FFCF2D"/><path d="M42.74 145.658h-2.451a.326.326 0 01-.33-.329c0-.185.145-.33.33-.33h2.293l.158.659zm.659 2.77h-2.451a.326.326 0 01-.33-.33c0-.184.145-.329.33-.329h2.292l.159.659zm.659 2.768h-2.451a.326.326 0 01-.33-.329c0-.185.145-.33.33-.33H43.9l.158.659zm.672 2.77h-2.452a.326.326 0 01-.33-.33c0-.184.146-.329.33-.329h2.293l.158.659zm.658 2.768h-2.45a.326.326 0 01-.33-.329c0-.185.145-.33.33-.33h2.292l.158.659zm.66 2.77h-2.333a.326.326 0 01-.33-.33c0-.184.146-.329.33-.329h2.174l.159.659zm.658 2.769H44.24a.326.326 0 01-.329-.33c0-.185.145-.33.33-.33h2.306l.158.66zm.66 2.769h-2.464a.326.326 0 01-.33-.33c0-.184.145-.329.33-.329h2.306l.158.659zm.657 2.755c-.026.014-.052.014-.092.014h-2.503a.326.326 0 01-.33-.33c0-.185.145-.33.33-.33h2.437l.158.646z" fill="#fff"/><path d="M93.42 198.72s-.013.014 0 0l-.553 2.018c-.014.053-.053.079-.093.066l-28.462-8.505c-.04-.013-.053-.066-.04-.106l.54-2.004c0-.026.027-.04.04-.053.013-.013.04-.013.052-.013l28.463 8.505c.013 0 .027.026.04.04.013.013.013.039.013.052z" fill="#FE5244"/><path d="M65.234 190.242l-.58 2.149c-.04.145-.158.238-.277.211l-.645-.198c-.106-.026-.172-.184-.132-.329l.58-2.15c.04-.145.158-.237.276-.211l.646.198c.106.027.171.172.132.33z" fill="#FFCF2D"/><path d="M62.611 190.083l-.263 1.003c-.08.276.092.567.382.659l.91.264.54-2.018-.91-.264a.53.53 0 00-.659.356z" fill="#FE5244"/><path d="M93.339 198.707l.856.87.659.673-.896.211-1.16.264.54-2.018z" fill="#fff"/><path d="M94.922 200.263c-.013.053-.04.08-.066.08l-2.056.474c-.026 0-.052 0-.066-.026-.013-.026-.013-.053-.013-.079l.54-2.005c.014-.026.027-.052.053-.066.027-.013.053-.013.066.014l1.515 1.542c.027 0 .04.027.027.066zm-2.016.343l1.779-.409-1.305-1.331-.474 1.74z" fill="#FE5244"/><path d="M94.196 199.577l.659.673-.896.211.237-.884z" fill="#F0E1D4"/><path d="M94.922 200.263c-.013.053-.04.079-.066.079l-.896.211c-.026 0-.053 0-.066-.026-.013-.026-.013-.053-.013-.079l.237-.87c.013-.027.026-.053.053-.066.026-.014.052-.014.066.013l.659.672c.026 0 .039.027.026.066zm-41.68-48.34c0 .079 0 .171-.013.25l-2.148 17.142a24.57 24.57 0 01-2.662.145l1.055-17.656a1.89 1.89 0 011.884-1.767c1.054 0 1.884.857 1.884 1.886z" fill="#FE5244"/></svg>