<svg width="525" height="620" fill="none" xmlns="http://www.w3.org/2000/svg"><path d="M522.288 619.211l-164.668.46c-20.184.219-41.624.329-63.861.329-54.126 0-103.6-.701-141.439-1.862H0c0-42.182 29.612-23.654 37.42-16.207 9.08 8.651-2.612-37.408 15.923-37.408 15.868 0 24.947 12.506 24.947 12.506s.433-24.311 15.476-24.661c15.044-.351 24.598 20.434 36.471 37.539 4.902 7.052 10.797 12.659 16.37 16.93 38.51-1.27 90.247-2.059 147.152-2.059 26.958 0 52.743.175 76.53.504 42.267 0 80.972-34.846 91.951-43.584 27.125-21.639 14.275 29.939 14.275 29.939s20.91-13.798 35.618-13.688c20.77.131 10.155 41.262 10.155 41.262z" fill="#D0F0E4"/><path fill-rule="evenodd" clip-rule="evenodd" d="M351.7 539.473l.825.369c21.339 9.555 30.335 29.172 34.005 46.288 1.836 8.563 2.346 16.529 2.398 22.352.026 2.912-.063 5.291-.158 6.944a69.405 69.405 0 01-.181 2.414l-.013.13-.003.034-.001.009-.001.002c0 .001 0 .002-.647-.071l-.648-.073v-.001l.001-.007.003-.03.012-.122c.011-.109.027-.272.045-.486.036-.429.085-1.062.132-1.875.094-1.628.182-3.977.156-6.857-.051-5.761-.556-13.633-2.369-22.087-3.579-16.692-12.227-35.539-32.429-44.985a148.45 148.45 0 00-.143 1.802c-.128 1.731-.289 4.2-.415 7.149-.253 5.903-.372 13.72.163 21.399.361 5.177 1.017 10.259 2.116 14.641 3.038 1.203 5.677 2.54 7.857 3.891 3.377 2.093 5.733 4.27 6.724 6.106.493.914.716 1.874.367 2.718-.357.863-1.209 1.36-2.296 1.577h-.001c-2.8.556-5.188-.02-7.182-1.475-1.97-1.439-3.512-3.703-4.724-6.457-.714-1.622-1.322-3.433-1.838-5.379-5.909-2.263-13.322-4.008-21.806-4.347a105.183 105.183 0 003.038 4.518c2.37 3.342 5.795 7.8 10.015 12.272 8.47 8.976 20.011 17.862 32.57 18.108l-.025 1.312c-13.115-.257-24.976-9.494-33.49-18.517-4.273-4.528-7.736-9.037-10.131-12.413a108.743 108.743 0 01-2.762-4.081 73.81 73.81 0 01-.721-1.146l-.185-.304-.048-.079-.012-.021-.004-.007.559-.336-.559.335-.603-1.019 1.178.028c8.732.208 16.413 1.889 22.602 4.153-1-4.289-1.6-9.127-1.939-13.986-.54-7.748-.419-15.618-.165-21.547.127-2.966.288-5.448.417-7.19.065-.871.122-1.557.162-2.026l.048-.536.013-.139.003-.035.001-.012s.001-.001.649.063l-.648-.064.088-.904zM354.975 588c.44 1.526.941 2.949 1.509 4.241 1.162 2.64 2.585 4.675 4.298 5.926 1.691 1.234 3.708 1.738 6.164 1.25.883-.176 1.228-.508 1.347-.795.127-.306.106-.819-.309-1.587-.826-1.53-2.946-3.559-6.262-5.615-1.897-1.175-4.16-2.344-6.747-3.42z" fill="#FFCF2D"/><path fill-rule="evenodd" clip-rule="evenodd" d="M409.49 583.137c-.929.099-2.097.362-3.539.824-12.779 4.109-19.762 12.753-23.56 20.389a47.503 47.503 0 00-3.627 9.995 39.473 39.473 0 00-.62 3.101 23.43 23.43 0 00-.144 1.059l-.005.053-.001.012-.001.002v.001l-.648-.06-.649-.061v-.006l.002-.017.006-.063.028-.236c.025-.206.064-.505.124-.888.12-.765.32-1.863.641-3.205a48.884 48.884 0 013.728-10.274c3.912-7.865 11.134-16.809 24.33-21.052h.001c1.491-.478 2.751-.767 3.797-.879 1.04-.111 1.916-.051 2.611.215.721.276 1.228.77 1.485 1.448.247.649.241 1.402.092 2.186-.298 1.561-1.22 3.502-2.488 5.612-1.277 2.125-2.943 4.481-4.783 6.884-3.682 4.806-8.094 9.842-11.581 13.672a319.575 319.575 0 01-5.605 5.994 73.305 73.305 0 01-.428.443l-.03.03-.465-.459-.464-.46.028-.029.087-.09c.076-.078.19-.195.336-.348a311.818 311.818 0 005.58-5.968c3.477-3.818 7.861-8.823 11.51-13.586 1.824-2.383 3.458-4.695 4.7-6.762 1.252-2.082 2.071-3.858 2.323-5.18.125-.659.097-1.139-.029-1.471-.115-.302-.33-.536-.731-.69-.428-.164-1.074-.236-2.011-.136z" fill="#FFCF2D"/><path fill-rule="evenodd" clip-rule="evenodd" d="M129.685 514.944l-.446.312.446-.311.001.001.002.003.006.009a9.669 9.669 0 01.343.577c.216.391.519.986.884 1.823.73 1.674 1.705 4.314 2.707 8.206 1.94 7.538 3.98 19.782 4.532 38.828a286.752 286.752 0 019.132-14.156c5.823-8.45 13.275-18.153 19.677-22.914l.917-.683-.052 1.147-.543-.025.543.026-.002.028-.004.083-.016.323a254.526 254.526 0 01-.392 5.806 297.234 297.234 0 01-1.589 15.168c-1.472 11.197-3.952 24.598-8.038 34.27.194-.121.404-.249.629-.381 1.385-.817 3.334-1.804 5.571-2.472 4.481-1.338 10.203-1.409 14.804 3.826 2.323 2.644 2.927 5.609 2.528 8.534-.397 2.902-1.778 5.759-3.41 8.255-1.635 2.503-3.546 4.68-5.043 6.229a46.675 46.675 0 01-1.86 1.823 30.592 30.592 0 01-.728.653l-.01.009-.004.003-.351-.417-.324-.387-.026-.03v-.001l.002-.001.009-.008.035-.03.076-.066.062-.055c.122-.107.3-.267.525-.475a47.362 47.362 0 001.816-1.78c1.469-1.52 3.329-3.642 4.914-6.067 1.588-2.431 2.875-5.129 3.241-7.804.362-2.652-.179-5.286-2.266-7.66-4.217-4.8-9.43-4.772-13.681-3.503-2.128.635-3.995 1.579-5.332 2.367-.667.394-1.2.746-1.565 1-.182.127-.322.229-.416.298l-.105.079-.025.019-.006.005-.001.001-1.79 1.403.965-2.067c4.479-9.591 7.165-23.826 8.728-35.713a295.951 295.951 0 001.582-15.112c.152-1.923.255-3.475.32-4.546l.028-.473c-6.03 4.858-12.957 13.894-18.5 21.938a285.055 285.055 0 00-9.3 14.437c-.244.406-.432.723-.559.937l-.143.244-.037.062-.011.02-.001.001-.468-.277.468.277-.966 1.657-.045-1.921c-.466-20.06-2.569-32.774-4.546-40.458-.989-3.842-1.946-6.425-2.65-8.04a21.637 21.637 0 00-.766-1.597c-3.193 3.959-5.961 9.673-8.32 16.109-2.475 6.752-4.485 14.253-6.065 21.261-1.579 7.006-2.727 13.509-3.48 18.26a276.167 276.167 0 00-.837 5.656c-.092.671-.16 1.194-.205 1.549l-.05.403-.013.102-.004.034-.539-.065.539.065-.175 1.47-.816-1.232c-6.916-10.442-18.555-18.151-28.519-23.258a129.273 129.273 0 00-12.809-5.698 108.404 108.404 0 00-3.906-1.406l-.502-.167c5.335 20.396 17.007 36.882 27.434 48.328a144.776 144.776 0 0013.899 13.363 110.274 110.274 0 004.341 3.466 68.292 68.292 0 001.5 1.1l.078.055.019.013.004.003.001.001-.306.451c-.307.451-.307.451-.308.45l-.007-.005-.021-.014-.083-.058a71.962 71.962 0 01-1.528-1.121 112.142 112.142 0 01-4.385-3.501 145.831 145.831 0 01-14.004-13.465c-10.658-11.699-22.655-28.677-27.93-49.751l-.234-.933.916.275-.156.524.156-.523.007.002.019.005.073.023c.064.02.159.049.282.089.248.078.612.196 1.08.353.934.315 2.284.788 3.945 1.421a130.42 130.42 0 0112.918 5.746c9.646 4.944 20.979 12.371 28.12 22.445l.093-.688c.185-1.349.463-3.295.841-5.679.755-4.768 1.907-11.295 3.493-18.33 1.586-7.034 3.608-14.585 6.105-21.397 2.494-6.803 5.478-12.914 9.006-17.033l.457-.534.4.579z" fill="#FE5244"/><path fill-rule="evenodd" clip-rule="evenodd" d="M128.717 516.681l.543-.003.543-.002.001.251.002.735a2235.246 2235.246 0 01-.007 12.879 2290.96 2290.96 0 01-.305 31.355c-.201 11.659-.526 23.678-1.048 33.495-.261 4.907-.571 9.27-.941 12.764-.367 3.476-.798 6.145-1.316 7.632l-1.025-.362c.471-1.35.893-3.9 1.261-7.386.367-3.467.676-7.808.937-12.707.521-9.797.845-21.8 1.046-33.455.201-11.653.278-22.953.305-31.339a2233.147 2233.147 0 00.005-13.607l-.001-.25z" fill="#FE5244"/><path fill-rule="evenodd" clip-rule="evenodd" d="M165.568 529.772c0-.001.001-.001.507.197s.505.199.505.199l-.018.048-.057.145-.22.567a1013.912 1013.912 0 01-3.992 10.033 1069.027 1069.027 0 01-10.512 25.125c-4.15 9.556-8.754 19.694-13.224 28.6-4.464 8.896-8.812 16.597-12.454 21.257l-.853-.676c3.569-4.567 7.876-12.183 12.338-21.074 4.457-8.88 9.052-18.998 13.198-28.545a1068.87 1068.87 0 0010.501-25.099 969.749 969.749 0 003.987-10.021l.22-.565.056-.144.018-.047zm-16.7 61.436c-.954 1.211-1.297 2.217-1.062 2.985.138.44.304.57.404.612.107.044.305.055.647-.104.696-.322 1.605-1.168 2.563-2.334.941-1.145 1.878-2.532 2.637-3.85.571-.991 1.029-1.922 1.316-2.667a43.36 43.36 0 00-2.594 1.775c-1.57 1.163-2.978 2.4-3.911 3.583zm7.345-5.88c2.034-1.237 3.876-2.162 4.795-2.507l-.378-1.024c-1.547.579-5.294 2.575-8.495 4.947-1.601 1.187-3.098 2.492-4.117 3.785-.997 1.264-1.654 2.668-1.249 3.988l.001.002c.188.604.512 1.083 1.025 1.296.506.21 1.043.099 1.516-.121.935-.433 1.976-1.45 2.945-2.63.986-1.199 1.956-2.638 2.74-3.999.779-1.353 1.398-2.668 1.655-3.617l-.438-.12zm-45.521 5.789c.242.477.481.608.693.616h.001c.688.027 1.138-.089 1.427-.262.275-.165.452-.41.55-.753.21-.741.031-1.878-.444-3.265-.671-1.96-1.828-4.142-2.764-5.868l-.038.551c-.167 2.512-.208 4.995.029 6.845.118.931.302 1.655.546 2.136zm-1.476-11.347l-.028.015.022.043a91.614 91.614 0 00-.177 2.235c-.167 2.529-.215 5.098.035 7.058.125.974.328 1.845.657 2.493.329.65.847 1.181 1.617 1.211.816.033 1.496-.097 2.026-.415.544-.326.876-.817 1.039-1.391.311-1.094.02-2.518-.461-3.922-.758-2.212-2.118-4.714-3.086-6.495-.199-.365-.381-.7-.538-.996a122.378 122.378 0 01.815-6.626 85.596 85.596 0 01.124-.801l.007-.042.002-.013-.536-.09-.536-.089-.002.015-.007.044-.027.17c-.024.149-.057.366-.099.642a121.84 121.84 0 00-.847 6.954z" fill="#FE5244"/><path d="M284.341 544.072c-14.769 7.28-13.379 21.251-13.51 30.63-.152 9.991-19.091 15.216-19.091 15.216 5.039-15.982 1.455-32.444 1.455-32.444l31.146-13.402z" fill="#A0505A"/><path d="M300.001 580.867l-3.367 1.836-7.059-16.244a2.235 2.235 0 00-2.041-1.355c-.283 0-.587.065-.869.175a2.205 2.205 0 00-1.325 1.77l-3.106 23.546-40.854 22.388c-1.217-2.93 6.363-10.276 10.382-23.065 0 0 18.961-5.225 19.091-15.217.13-9.379-1.238-23.371 13.509-30.629l3.106-1.334c16.942 7.849 12.533 38.129 12.533 38.129z" fill="#FFCF2D"/><path d="M287.448 427.393v115.346l-33.796 14.758-25.325-115.806c11.338.437 30.234-1.968 59.121-14.298z" fill="#fff"/><path fill-rule="evenodd" clip-rule="evenodd" d="M287.991 426.566v116.531l-34.727 15.164-25.618-117.144.702.027c11.238.433 30.054-1.948 58.888-14.255l.755-.323zm-58.983 15.693l25.033 114.471 32.864-14.35V428.216c-27.935 11.829-46.494 14.356-57.897 14.043z" fill="#9A3B82"/><path fill-rule="evenodd" clip-rule="evenodd" d="M268.727 550.664l-6.668-113.095 1.084-.065 6.668 113.095-1.084.065z" fill="#9A3B82"/><path d="M287.448 427.393v30.192l-57.514-8.374-1.607-7.52c11.338.437 30.234-1.968 59.121-14.298z" fill="#9A3B82"/><path d="M457.774 349.123l-21.85 4.635a2.136 2.136 0 01-1.998-.634 2.158 2.158 0 01-.565-1.443c0-.568.217-1.136.674-1.552l12.162-11.478-2.693-2.426s-28.235 5.575-29.842 23.305l2.15 2.361c11.099 10.975 23.066 5.313 31.428 2.471 7.993-2.711 17.528 9.772 19.417 12.352h.087c12.597-.416 21.524 4.088 23.718 2.055l-32.688-29.646z" fill="#FFCF2D"/><path d="M415.833 361.891c11.099 10.975 23.067 5.312 31.429 2.47 8.905-3.017 19.526 12.352 19.526 12.352-15.769.503-29.213 8.92-29.213 8.92l-21.742-23.742z" fill="#A0505A"/><path d="M280.911 428.374s5.495 37.363 47.653 36.664c42.157-.7 108.554-79.624 108.554-79.624l-23.349-25.754-132.858 68.714z" fill="#fff"/><path fill-rule="evenodd" clip-rule="evenodd" d="M413.89 358.984l23.951 26.418-.309.367-.414-.353c.414.353.414.353.413.354l-.011.014-.037.043-.144.17c-.128.15-.317.373-.566.663-.498.579-1.233 1.429-2.184 2.51a440.484 440.484 0 01-8.108 8.962c-6.89 7.417-16.519 17.316-27.468 27.239-10.947 9.921-23.227 19.876-35.419 27.398-12.179 7.513-24.335 12.639-35.021 12.817-21.272.353-33.347-8.911-40.085-18.296-3.361-4.682-5.388-9.383-6.574-12.912a44.617 44.617 0 01-1.214-4.276 30.646 30.646 0 01-.251-1.207c-.026-.14-.044-.249-.057-.323l-.013-.085-.004-.022-.001-.007v-.001l.537-.081-.537.08-.057-.388 133.573-69.084zm-132.376 69.694l.003.017c.049.266.127.66.242 1.162a43.41 43.41 0 001.184 4.17c1.161 3.455 3.143 8.051 6.425 12.622 6.549 9.122 18.301 18.19 39.187 17.844 10.392-.173 22.344-5.175 34.472-12.656 12.114-7.474 24.338-17.381 35.259-27.278 10.92-9.896 20.526-19.771 27.402-27.174a441.99 441.99 0 008.088-8.939 307.075 307.075 0 002.618-3.018l-22.746-25.089-132.134 68.339z" fill="#9A3B82"/><path fill-rule="evenodd" clip-rule="evenodd" d="M357.488 430.731c-8.497 4.126-16.773 6.704-24.311 6.826-10.081.165-16.862-2.087-21.306-5.699-4.45-3.617-6.485-8.536-7.193-13.551l1.075-.154c.681 4.824 2.621 9.458 6.8 12.854 4.183 3.4 10.684 5.619 20.606 5.457h.001c7.318-.119 15.432-2.627 23.857-6.717 8.419-4.088 17.116-9.74 25.591-16.109 16.951-12.737 32.974-28.307 44.063-39.863l.781.76c-11.107 11.575-27.176 27.192-44.194 39.979-8.509 6.394-17.267 12.089-25.77 16.217z" fill="#9A3B82"/><path d="M464.918 283.448c-3.844-1.465-12.988 3.564-19.873 12.309-7.406 9.379-10.404 19.348-7.146 21.95L333.58 261.87c-5.126-2.733-11.033 1.946-9.578 7.586l31.58 120.419c-106.968 69.873-141.264 48.928-141.264 48.928V43.091c0 .022 0 .022.022.044.912 2.34 10.708.7 21.893-3.695 10.295-4.022 18.158-8.963 18.657-11.543l.022-.022v124.682c0 7.827 4.192 15.02 10.969 18.846l199.037 112.045z" fill="#FE5244"/><path d="M464.918 283.448c-3.844-1.465-12.988 3.564-19.873 12.309-7.406 9.379-10.404 19.348-7.146 21.95L333.58 261.87c-5.126-2.733-11.033 1.946-9.578 7.586l31.58 120.9c-27.193 17.774-49.694 29.186-68.134 37.057-28.887 12.309-47.783 14.735-59.121 14.298-9.882-.372-14.009-2.908-14.009-2.908V43.091c0 .022 0 .022.022.044.912 2.34 10.708.7 21.893-3.695 10.295-4.022 18.158-8.963 18.657-11.543l.022-.022v124.682c0 7.827 4.192 15.02 10.969 18.846l199.037 112.045z" fill="#FE5244"/><path fill-rule="evenodd" clip-rule="evenodd" d="M314.718 251.851a.651.651 0 01.884-.264l122.606 66.943a.658.658 0 01.262.89.65.65 0 01-.883.264L314.98 252.74a.658.658 0 01-.262-.889z" fill="#fff"/><path d="M268.791 173.021l-13.748 80.433 70.176-48.644-56.428-31.789z" fill="#FFCF2D"/><path fill-rule="evenodd" clip-rule="evenodd" d="M268.902 172.375c.354.061.592.4.531.757l-13.486 78.898 68.902-47.761a.65.65 0 01.906.168.66.66 0 01-.167.913l-71.45 49.527 14.011-81.967a.652.652 0 01.753-.535z" fill="#fff"/><path d="M268.226 17.775l-90.592 18.692c-3.345.7-6.798-2.295-7.689-6.69-.89-4.394 1.108-8.504 4.453-9.204L264.99 1.881l3.236 15.894z" fill="#fff"/><path fill-rule="evenodd" clip-rule="evenodd" d="M265.413 1.234l3.454 16.965-91.122 18.802h-.002m0 0c-1.872.392-3.737-.26-5.229-1.556-1.491-1.296-2.633-3.254-3.101-5.56-.922-4.551 1.117-9.062 4.874-9.848h.002l91.124-18.803m-.846 1.29l-90.059 18.583c-2.932.614-4.889 4.323-4.031 8.56.424 2.089 1.453 3.825 2.747 4.95 1.294 1.126 2.827 1.622 4.3 1.314h.001l90.06-18.583-3.018-14.823z" fill="#3FB1B5"/><path d="M268.194 17.786c3.349-.69 5.339-4.808 4.446-9.196-.894-4.388-4.333-7.386-7.682-6.695-3.349.691-5.34 4.809-4.446 9.197.894 4.388 4.333 7.385 7.682 6.694z" fill="#fff"/><path fill-rule="evenodd" clip-rule="evenodd" d="M261.633 5.348c-.748 1.547-1.014 3.55-.589 5.636.425 2.086 1.452 3.822 2.744 4.949 1.292 1.125 2.822 1.624 4.297 1.32 1.475-.305 2.687-1.37 3.435-2.916.748-1.547 1.013-3.55.588-5.636-.425-2.086-1.451-3.822-2.744-4.948-1.291-1.126-2.822-1.625-4.297-1.32-1.475.304-2.687 1.369-3.434 2.915zm-.977-.478c.862-1.782 2.319-3.122 4.193-3.508 1.874-.387 3.738.267 5.226 1.564 1.488 1.297 2.628 3.254 3.097 5.556.469 2.302.186 4.552-.676 6.334-.861 1.782-2.319 3.121-4.193 3.508-1.874.386-3.737-.268-5.226-1.565-1.488-1.297-2.628-3.254-3.097-5.555-.468-2.302-.185-4.552.676-6.334z" fill="#3FB1B5"/><path d="M216.535 25.733s-29.3 33.144-26.107 40.446c4.17 4.175 7.558 6.012 7.059 7.564-.543 1.684-7.559 11.85-7.559 11.85l-.695-7.543-6.711 2.23s7.081-10.406 7.537-13.598c-2.911-2.23-8.84-6.865-8.645-10.1.218-3.433 10.6-15.633 18.136-24.05l-11.359 3.783-2.237-10.56 20.438-3.782 10.143 3.76z" fill="#FE5244"/><path d="M212.559 27.176c3.407 0 6.168-2.78 6.168-6.21 0-3.428-2.761-6.208-6.168-6.208s-6.168 2.78-6.168 6.209 2.761 6.209 6.168 6.209z" fill="#fff"/><path fill-rule="evenodd" clip-rule="evenodd" d="M212.56 15.304c-3.107 0-5.626 2.535-5.626 5.662 0 3.128 2.519 5.663 5.626 5.663 3.106 0 5.625-2.535 5.625-5.663 0-3.127-2.519-5.662-5.625-5.662zm-6.712 5.662c0-3.73 3.005-6.755 6.712-6.755 3.706 0 6.711 3.024 6.711 6.755s-3.005 6.756-6.711 6.756c-3.707 0-6.712-3.025-6.712-6.756z" fill="#FE5244"/><path d="M254.892 27.897c-.5 2.58-8.362 7.521-18.657 11.544-11.186 4.372-20.981 6.034-21.894 3.695 0-.022 0-.022-.021-.044-.782-2.361 7.515-7.761 18.635-12.112 11.186-4.372 20.981-6.034 21.893-3.695.065.175.087.372.044.612z" fill="#9A3B82"/><path d="M247.353 9.534l-1.194 17.358-.565 8.308c-2.715 1.443-5.908 2.886-9.361 4.242-5.865 2.295-11.338 3.825-15.356 4.46V28.029l16.485-3.41s.912-5.925 2.65-10.888c1.716-4.984 7.341-4.197 7.341-4.197z" fill="#A0505A"/><path fill-rule="evenodd" clip-rule="evenodd" d="M237.921 23.472a.438.438 0 01.319.528.927.927 0 01-.224.392c-.091.1-.203.195-.323.286-.238.182-.555.384-.906.6l-.316.195c-.654.4-1.423.872-2.188 1.44-1.797 1.334-3.437 3.106-3.437 5.51a.436.436 0 01-.435.437.436.436 0 01-.434-.437c0-2.843 1.943-4.843 3.79-6.214.799-.593 1.604-1.086 2.257-1.486l.309-.19c.354-.219.636-.4.835-.551a1.6 1.6 0 00.207-.18.405.405 0 00.028-.035.433.433 0 01.518-.295z" fill="#73325A"/><path d="M246.159 26.89l-.565 8.308c-2.715 1.443-5.908 2.886-9.361 4.242-5.864 2.295-11.338 3.826-15.356 4.46v-7.171c3.214-1.902 7.406-3.914 12.076-5.75 4.865-1.924 9.47-3.323 13.206-4.088z" fill="#73325A"/><path d="M235.365 18.211l-18.396 4.241c-.978.219-1.89-.568-1.89-1.661V9.553c0-1.508.912-2.82 2.237-3.257L235.495.327c1.152-.371 2.303.547 2.303 1.837v12.811c-.022 1.553-1.021 2.908-2.433 3.236z" fill="#A0505A"/><path fill-rule="evenodd" clip-rule="evenodd" d="M222.359 5.077a.438.438 0 01-.291.545 2.82 2.82 0 00-1.993 2.707v10.779c0 .77.7 1.328 1.428 1.168a.437.437 0 01.185.855c-1.27.278-2.482-.695-2.482-2.023V8.329a3.694 3.694 0 012.612-3.545.434.434 0 01.541.293zm5.299-1.617a.438.438 0 01-.291.544c-1.174.357-1.993 1.49-1.993 2.796v11.106c0 .805.712 1.369 1.428 1.212a.437.437 0 01.185.855c-1.282.28-2.482-.73-2.482-2.067V6.8c0-1.669 1.049-3.159 2.611-3.633.23-.07.473.061.542.293zm5.928-1.821a.438.438 0 01-.283.55c-1.172.374-1.999 1.548-1.999 2.905v11.5c0 .84.723 1.41 1.428 1.256a.437.437 0 01.185.855c-1.294.283-2.482-.764-2.482-2.11v-11.5c0-1.704 1.041-3.24 2.605-3.74a.434.434 0 01.546.284z" fill="#73325A"/><path d="M456.839 305.179c-7.407 9.401-15.704 15.107-18.961 12.505-3.258-2.601-.261-12.549 7.145-21.95 6.907-8.745 16.029-13.773 19.873-12.308l.761.437c3.279 2.624-1.412 11.937-8.818 21.316z" fill="#9A3B82"/><path d="M490.352 320.986l-4.93 2.624a4.001 4.001 0 01-5.43-1.662l-5.191-9.707-7.863-2.71c.869.327 4.257 2.076 3.193 8.438l-18.462-6.93-6.342-2.383-6.016-3.87c1.412-2.885 3.345-5.99 5.756-9.029a45.218 45.218 0 016.407-6.624l6.277 4.416 6.429.7 10.447 1.115c1.672.175 3.28.743 4.691 1.639l8.341 5.969a5.373 5.373 0 012.215 3.673l1.694 11.937a2.323 2.323 0 01-1.216 2.404z" fill="#A0505A"/><path fill-rule="evenodd" clip-rule="evenodd" d="M477.858 301.295a.433.433 0 01.606-.103l7.231 5.181h.001c1.142.815 1.898 2.08 2.111 3.483l1.478 9.646v.006c.131 1.027-.366 2.04-1.296 2.521a.432.432 0 01-.585-.189.439.439 0 01.187-.589c.589-.304.917-.951.833-1.627l-1.476-9.636a4.355 4.355 0 00-1.755-2.901l-7.233-5.182a.439.439 0 01-.102-.61z" fill="#73325A"/><path fill-rule="evenodd" clip-rule="evenodd" d="M473.381 303.024a.433.433 0 01.606-.103l7.232 5.181c1.142.814 1.899 2.08 2.111 3.483l1.478 9.646.001.005c.13 1.027-.367 2.04-1.297 2.522a.433.433 0 01-.585-.189.438.438 0 01.188-.589c.589-.305.917-.951.833-1.627l-1.477-9.637a4.358 4.358 0 00-1.754-2.901h-.001l-7.233-5.182a.439.439 0 01-.102-.609zm-12.11 4.55a.433.433 0 01.55-.273l5.256 1.792a.438.438 0 01.272.555.433.433 0 01-.55.273l-5.256-1.792a.438.438 0 01-.272-.555z" fill="#73325A"/><path d="M464.18 294.249c-1.759 3.345-4.322 7.149-7.32 10.953-1.715 2.164-3.453 4.132-5.191 5.837l-6.342-2.383-6.016-3.87c1.412-2.885 3.345-5.99 5.756-9.029a45.218 45.218 0 016.407-6.624l6.277 4.416 6.429.7z" fill="#73325A"/><path d="M274.523 114.646l46.458 20.748 16.572 48.797-33.665-24.223-15.703-19.305-13.662-26.017z" fill="#FE5244"/><path d="M288.186 140.663s15.203 2.624 21.328 19.676l3.237-3.279s-5.887-16.594-21.438-20.857l-3.127 4.46z" fill="#9A3B82"/><path d="M378.798 161.849c-5.213-2.974-10.034-4.613-11.576-4.023.108-.262.173-.569.152-.875-.087-.962-.869-1.683-1.803-1.683h-.152a1.845 1.845 0 00-1.673 1.968c0 .065.022.131.022.175l-5.517 3.563c-1.238.809-2.758.853-4.061.131-1.303-.721-2.064-2.033-2.064-3.52v-7.979a10.31 10.31 0 00-4.604-8.614 10.199 10.199 0 00-9.687-.875l-10.512 4.723-3.997-11.784-46.697-20.835a.57.57 0 00-.76.306c-.13.284 0 .634.304.765l46.219 20.638 16.486 48.557a.58.58 0 00.543.393c.065 0 .13-.021.195-.021a.608.608 0 00.369-.744l-12.271-36.16 10.599-4.767a8.953 8.953 0 018.579.766c2.563 1.705 4.083 4.547 4.083 7.652v7.979c0 1.924.999 3.63 2.672 4.548a5.062 5.062 0 002.476.656c.956 0 1.911-.285 2.758-.831l5.474-3.52c.325.306.76.481 1.216.481h.152a1.6 1.6 0 00.999-.415c0 1.552 3.953 5.028 9.383 8.132a48.427 48.427 0 003.453 1.815 7.413 7.413 0 001.694-2.055c.457-.787.739-1.64.869-2.514-1.042-.656-2.15-1.356-3.323-2.033zm-13.184-3.848a.881.881 0 01-.955-.809.897.897 0 01.803-.962.895.895 0 01.956.809.898.898 0 01-.804.962z" fill="#FFCF2D"/><path d="M285.167 169.412l-8.036 44.994 27.388-21.251v-28.05l-19.352 4.307z" fill="#A0505A"/><path d="M285.167 169.412l-1 5.641 12.12 24.486 8.232-6.384v-28.05l-19.352 4.307z" fill="#73325A"/><path d="M288.64 141.123s-13.705-3.433-17.983 4.569c-4.279 8.001 8.231 10.21 8.753 7.411.239-1.224-22.523-1.202-18.701 16.135 3.975 18.058 21.893 11.849 21.893 11.849l2.086-11.674 3.952-28.29z" fill="#fff"/><path fill-rule="evenodd" clip-rule="evenodd" d="M288.746 140.698l-.105.424.105-.424.38.095-4.009 28.689-2.131 11.935-.242.084-.141-.414.141.414h-.001l-.003.001-.012.004-.041.014a16.372 16.372 0 01-.749.221 23.78 23.78 0 01-2.124.465c-1.769.305-4.181.522-6.728.161-2.548-.361-5.246-1.303-7.563-3.329-2.32-2.029-4.227-5.115-5.237-9.706-.977-4.431-.263-7.808 1.405-10.343 1.659-2.522 4.227-4.158 6.868-5.187a22.742 22.742 0 012.901-.904c-.722-.558-1.329-1.254-1.709-2.099-.647-1.439-.595-3.222.524-5.315 2.255-4.217 6.966-5.371 10.963-5.515 2.014-.072 3.888.11 5.257.309a29.302 29.302 0 012.087.381l.12.028.032.008.008.002.003.001h.001zm-16.257 12.867a22.16 22.16 0 00-3.616 1.053c-2.541.99-4.932 2.534-6.458 4.854-1.518 2.307-2.215 5.434-1.281 9.671.977 4.438 2.801 7.348 4.958 9.234 2.161 1.889 4.688 2.78 7.116 3.124 2.429.345 4.746.138 6.46-.157a22.343 22.343 0 002.045-.448c.213-.057.384-.108.509-.146l2.037-11.407 3.896-27.883-.198-.041c-.376-.077-.92-.178-1.586-.275-1.335-.195-3.155-.371-5.102-.301-3.925.141-8.205 1.271-10.229 5.056-1.021 1.908-1.009 3.402-.498 4.54.411.913 1.169 1.652 2.095 2.206a24.697 24.697 0 013.393-.412c1.038-.051 1.921-.02 2.548.068.309.043.582.103.784.186a.96.96 0 01.308.193.554.554 0 01.167.505c-.099.529-.477.894-.935 1.123-.455.227-1.034.347-1.658.379-1.252.066-2.8-.213-4.188-.841a8.292 8.292 0 01-.567-.281zm1.544-.265a23.329 23.329 0 012.04-.194c1.003-.049 1.829-.017 2.386.061.176.024.316.052.421.08-.074.096-.19.191-.364.278-.312.156-.762.26-1.317.289-.929.049-2.072-.119-3.166-.514z" fill="#9A3B82"/><path d="M304.3 167.008s-20.46 26.847-2.476 38.259c14.422 9.139 18.136-3.738 14.27-5.509-4.192-1.924-13.814 34.368 15.812 34.259 29.69-.11 20.611-37.429 5.647-49.803-7.146-5.903-30.994-22.409-30.994-22.409l-2.259 5.203z" fill="#fff"/><path fill-rule="evenodd" clip-rule="evenodd" d="M306.805 161.445l-.246.36.247-.36.068.047.201.14.77.534a1531.066 1531.066 0 0111.782 8.272c6.851 4.862 14.614 10.474 18.201 13.438 7.586 6.272 13.648 18.816 14.081 29.821.217 5.512-.975 10.695-4.158 14.513-3.192 3.83-8.327 6.216-15.844 6.244-7.499.028-12.576-2.251-15.873-5.712-3.288-3.451-4.756-8.024-5.148-12.496a31.734 31.734 0 01.231-7.298c-2.486.058-5.652-.857-9.524-3.31-4.608-2.924-6.77-6.856-7.398-11.098-.626-4.222.269-8.725 1.714-12.828 1.447-4.107 3.459-7.848 5.105-10.559a64.64 64.64 0 012.086-3.219c.264-.381.477-.678.625-.88l.17-.231.028-.038 2.449-5.64.433.3zm5.2 47.439a30.902 30.902 0 00-.254 7.285c.382 4.346 1.801 8.705 4.91 11.968 3.1 3.253 7.93 5.47 15.243 5.443 7.329-.027 12.193-2.346 15.182-5.932 2.998-3.597 4.167-8.537 3.955-13.916-.424-10.775-6.384-23.078-13.764-29.18-3.558-2.939-11.292-8.532-18.151-13.399a1541.351 1541.351 0 00-11.775-8.268l-.605-.419-2.069 4.766-.032.042-.229-.177.229.177-.001.001-.002.003-.01.014-.042.056-.165.223c-.143.197-.352.488-.612.863a62.748 62.748 0 00-2.058 3.175c-1.628 2.681-3.607 6.365-5.027 10.395-1.422 4.036-2.27 8.384-1.674 12.407.593 4.001 2.618 7.704 7.002 10.487 3.878 2.457 6.913 3.272 9.203 3.169.249-1.421.58-2.736.959-3.889.522-1.588 1.144-2.898 1.79-3.759.322-.429.67-.774 1.04-.976.382-.209.811-.273 1.226-.083 1.19.545 1.716 1.898 1.684 3.301-.033 1.422-.628 3.019-1.831 4.25-.991 1.013-2.361 1.753-4.122 1.973zm.153-.909c.236-1.285.54-2.474.885-3.523.506-1.542 1.092-2.751 1.658-3.506.285-.379.544-.616.761-.734.205-.112.343-.106.452-.056.743.341 1.203 1.261 1.175 2.485-.027 1.205-.537 2.588-1.581 3.656-.779.796-1.884 1.439-3.35 1.678z" fill="#9A3B82"/><path d="M303.693 160.274l1.542.984c1.499.962 1.933 2.951.999 4.46l-.304.459c-.956 1.508-2.932 1.967-4.431 1.005l-1.651-1.049c-1.824 1.312-12.792 8.679-19.569 1.355-6.581-7.105 8.623-27.896 8.623-27.896 12.901 4.066 17.94 15.61 17.94 15.61l-3.149 5.072z" fill="#A0505A"/><path fill-rule="evenodd" clip-rule="evenodd" d="M284.26 144.162a.432.432 0 01.558-.257l-.151.409.152-.409h.001l.004.001.01.004.035.014.124.053a7.131 7.131 0 011.692 1.055c.905.769 1.825 2.004 1.628 3.748-.177 1.569-1.049 3.542-1.776 5.186l-.075.17c-.379.858-.71 1.616-.901 2.21a3.159 3.159 0 00-.16.694.484.484 0 00.008.172c.322.348.702.559 1.009.683a2.806 2.806 0 00.481.149l.024.004.003.001h-.001.001c.001 0 .001 0 0 0 .237.036.4.258.364.497a.434.434 0 01-.493.368l.064-.433-.065.433h-.001l-.001-.001h-.005a.13.13 0 00-.013-.003l-.044-.008a3.708 3.708 0 01-.639-.196 3.677 3.677 0 01-1.333-.912c-.219-.24-.244-.562-.226-.817.02-.27.097-.579.201-.901.208-.647.56-1.45.933-2.295l.041-.093c.753-1.704 1.579-3.574 1.741-5.007.151-1.338-.537-2.311-1.325-2.98a6.193 6.193 0 00-1.58-.965l-.024-.01-.005-.002h-.001m-.255-.562a.438.438 0 00.255.562l-.255-.562zm-.464 16.178l-.211.382.001.001.002.001.009.004a7.046 7.046 0 00.499.237c.321.138.784.313 1.363.469 1.157.313 2.783.552 4.659.256a.437.437 0 00-.134-.864 10.357 10.357 0 01-4.3-.236 9.696 9.696 0 01-1.248-.429 5.97 5.97 0 01-.407-.192l-.018-.009-.004-.002v-.001.001a.432.432 0 00-.591.169.44.44 0 00.168.595l.212-.382z" fill="#73325A"/><path d="M295.153 155.965c.308-.813.203-1.607-.234-1.775-.437-.167-1.041.355-1.349 1.167-.307.813-.202 1.607.235 1.775.437.168 1.04-.355 1.348-1.167zm-10.027-4.632c.257-.677.165-1.341-.205-1.483-.37-.141-.878.292-1.134.969-.256.677-.164 1.341.205 1.483.37.142.878-.292 1.134-.969z" fill="#73325A"/><path fill-rule="evenodd" clip-rule="evenodd" d="M305.153 163.77a1.601 1.601 0 00-2.224.5.434.434 0 01-.6.134.44.44 0 01-.133-.604 2.466 2.466 0 013.423-.768c.202.13.262.4.133.604a.433.433 0 01-.599.134zm-11.025-13.689a.435.435 0 01.533-.308l-.113.422.114-.422.001.001.003.001.009.002.03.009a4.902 4.902 0 01.45.17c.292.127.691.329 1.135.636.888.614 1.952 1.648 2.674 3.32a.438.438 0 01-.225.576.433.433 0 01-.571-.227c-.647-1.497-1.592-2.41-2.37-2.948a5.857 5.857 0 00-.987-.554 4.055 4.055 0 00-.288-.113l-.072-.024-.016-.004-.002-.001a.438.438 0 01-.305-.536z" fill="#73325A"/><path d="M298.501 144.883s-2.889 9.641 5.386 16.222c4.866 3.87 5.148-.787 5.148-.787s-.63-9.467-10.534-15.435z" fill="#fff"/><path fill-rule="evenodd" clip-rule="evenodd" d="M298.246 144.219l.478.288c5.041 3.038 7.729 6.971 9.154 10.151a20.52 20.52 0 011.328 3.993 14.94 14.94 0 01.252 1.515l.008.087.002.024v.01h.001l-.434.03.434.027v.002l-.001.005-.001.014-.004.046a4.342 4.342 0 01-.129.689c-.112.409-.325.954-.742 1.371-.436.438-1.066.703-1.912.575-.818-.124-1.819-.61-3.062-1.599-4.25-3.38-5.638-7.556-5.959-10.879a17.762 17.762 0 01.09-4.138 15.103 15.103 0 01.302-1.551l.024-.089.007-.024.002-.007.001-.002v-.001l.416.126-.416-.126.161-.537zm.535 1.349c-.054.254-.116.586-.172.985-.138.98-.237 2.355-.085 3.93.303 3.143 1.608 7.077 5.633 10.278 1.19.946 2.049 1.329 2.652 1.42.575.087.928-.087 1.17-.329.263-.263.424-.64.517-.983a3.66 3.66 0 00.103-.552 6.376 6.376 0 00-.041-.359c-.035-.26-.096-.642-.2-1.12a19.647 19.647 0 00-1.272-3.82c-1.317-2.94-3.765-6.566-8.305-9.45zm10.254 14.749l.434.027.001-.028-.001-.028-.434.029z" fill="#9A3B82"/></svg>