<svg width="16" height="17" fill="none" xmlns="http://www.w3.org/2000/svg"><path fill-rule="evenodd" clip-rule="evenodd" d="M5 1.334c.368 0 .667.298.667.667v.333h4.667v-.333a.667.667 0 011.333 0v.333h.833a2.667 2.667 0 012.667 2.667v8a2.667 2.667 0 01-2.667 2.666h-9a2.667 2.667 0 01-2.667-2.666V5A2.667 2.667 0 013.5 2.334h.833v-.333c0-.369.299-.667.667-.667zm-.667 2.333H3.5c-.736 0-1.333.597-1.333 1.334v.833h11.666v-.833c0-.737-.597-1.334-1.333-1.334h-.833v.334a.667.667 0 11-1.333 0v-.334H5.667v.334a.667.667 0 01-1.333 0v-.334zm9.5 3.5H2.168v5.834c0 .736.597 1.333 1.333 1.333h9c.736 0 1.334-.597 1.334-1.333V7.167z" fill="#787A80"/></svg>