<svg width="16" height="17" fill="none" xmlns="http://www.w3.org/2000/svg"><path fill-rule="evenodd" clip-rule="evenodd" d="M5.333 9.5c0-.368.299-.666.667-.666h4a.667.667 0 010 1.333H6a.667.667 0 01-.667-.666zm0 2.5c0-.367.299-.666.667-.666h2a.667.667 0 010 1.333H6a.667.667 0 01-.667-.666z" fill="#424551"/><path fill-rule="evenodd" clip-rule="evenodd" d="M6.029 1.53a.667.667 0 01.471-.196H11a2.667 2.667 0 012.667 2.667v9A2.667 2.667 0 0111 15.667H5a2.667 2.667 0 01-2.667-2.666V5.5c0-.177.07-.347.196-.472l3.5-3.5zm.304 1.58v2.224H4.11L6.333 3.11zM3.667 6.667v6.334c0 .736.597 1.333 1.333 1.333h6c.737 0 1.334-.597 1.334-1.333V4c0-.737-.597-1.334-1.334-1.334H7.667V6A.667.667 0 017 6.667H3.667z" fill="#424551"/></svg>