<svg width="16" height="14" fill="none" xmlns="http://www.w3.org/2000/svg"><path fill-rule="evenodd" clip-rule="evenodd" d="M8 12.271C4.934 10.525 3.224 8.79 2.397 7.284c-.847-1.542-.773-2.84-.303-3.761.965-1.894 3.71-2.5 5.383-.384L8 3.8l.523-.661c1.672-2.116 4.418-1.51 5.383.384.47.921.543 2.22-.303 3.76-.827 1.507-2.537 3.242-5.603 4.988zM8 1.737C5.647-.498 2.176.426.906 2.917c-.697 1.368-.707 3.135.322 5.008 1.02 1.857 3.052 3.817 6.45 5.694l.322.179.322-.179c3.398-1.877 5.43-3.837 6.45-5.694 1.028-1.873 1.019-3.64.322-5.008C13.824.425 10.353-.498 8 1.737z" fill="#FF3F3A"/></svg>