<svg width="16" height="16" fill="none" xmlns="http://www.w3.org/2000/svg"><path fill-rule="evenodd" clip-rule="evenodd" d="M7.702.736a.667.667 0 01.596 0l6.667 3.334a.667.667 0 010 1.192L8.298 8.596a.667.667 0 01-.596 0L1.035 5.262a.667.667 0 010-1.192L7.702.736zm-4.878 3.93L8 7.254l5.176-2.588L8 2.078 2.824 4.666z" fill="#9A9CA5"/><path fill-rule="evenodd" clip-rule="evenodd" d="M.737 7.701a.667.667 0 01.894-.298L8 10.587l6.368-3.184a.667.667 0 11.597 1.193l-6.667 3.333a.667.667 0 01-.596 0L1.035 8.596A.667.667 0 01.737 7.7z" fill="#9A9CA5"/><path fill-rule="evenodd" clip-rule="evenodd" d="M.737 11.034a.667.667 0 01.894-.298L8 13.921l6.368-3.185a.667.667 0 11.597 1.193l-6.667 3.333a.667.667 0 01-.596 0L1.035 11.93a.667.667 0 01-.298-.895z" fill="#9A9CA5"/></svg>