<svg width="16" height="16" fill="none" xmlns="http://www.w3.org/2000/svg"><path fill-rule="evenodd" clip-rule="evenodd" d="M9.455 2.167c-.093 0-.18.05-.227.13l-.004.007-3.057 4.957v6.573h5.724a.26.26 0 00.255-.205l.003-.01 1.7-6.64a.262.262 0 00-.258-.312h-2.59c-.435 0-.874-.145-1.194-.457a1.406 1.406 0 01-.392-1.304l.48-2.426a.262.262 0 00-.258-.313h-.182zM4.833 13.834V7.739H2.471a.262.262 0 00-.262.26l-.042 5.571a.262.262 0 00.262.264h2.405zm.295-7.429l2.954-4.788A1.595 1.595 0 019.455.834h.182c1.005 0 1.76.918 1.565 1.904l-.479 2.426a.139.139 0 00-.002.067.057.057 0 00.017.025c.028.027.111.078.262.078h2.591c1.021 0 1.78.945 1.558 1.941l-.003.01-1.7 6.645a1.595 1.595 0 01-1.555 1.237H2.429A1.595 1.595 0 01.834 13.56l.042-5.571a1.595 1.595 0 011.595-1.584h2.657z" fill="#9A9CA5"/></svg>