<svg width="16" height="17" fill="none" xmlns="http://www.w3.org/2000/svg"><g clip-path="url(#clip0_18470_1128)" fill-rule="evenodd" clip-rule="evenodd" fill="#424551"><path d="M4.133 4.767a3.867 3.867 0 017.734 0v3.2a3.867 3.867 0 01-7.734 0v-3.2zM8 2.234a2.533 2.533 0 00-2.533 2.533v3.2a2.533 2.533 0 105.066 0v-3.2c0-1.4-1.134-2.533-2.533-2.533z"/><path d="M2.667 6.234c.368 0 .666.298.666.666v1.067a4.667 4.667 0 109.334 0V6.9A.667.667 0 1114 6.9v1.067a6 6 0 11-12 0V6.9c0-.368.298-.666.667-.666z"/><path d="M8 13.167c.368 0 .667.299.667.667v.933h1.466a.667.667 0 110 1.333H5.867a.667.667 0 010-1.333h1.466v-.933c0-.368.299-.667.667-.667z"/></g><defs><clipPath id="clip0_18470_1128"><path fill="#fff" transform="translate(0 .5)" d="M0 0h16v16H0z"/></clipPath></defs></svg>