<svg width="20" height="20" fill="none" xmlns="http://www.w3.org/2000/svg"><path fill-rule="evenodd" clip-rule="evenodd" d="M.833 2.916c0-1.15.933-2.083 2.084-2.083h4.166c1.15 0 2.084.933 2.084 2.083v4.167c0 1.15-.933 2.083-2.084 2.083H2.917A2.083 2.083 0 01.833 7.083V2.916zM2.917 2.5a.417.417 0 00-.417.416v4.167c0 .23.187.417.417.417h4.166c.23 0 .417-.187.417-.417V2.916a.417.417 0 00-.417-.416H2.917zM.833 12.916c0-1.15.933-2.083 2.084-2.083h4.166c1.15 0 2.084.933 2.084 2.083v4.167c0 1.15-.933 2.083-2.084 2.083H2.917a2.083 2.083 0 01-2.084-2.083v-4.167zm2.084-.416a.417.417 0 00-.417.416v4.167c0 .23.187.417.417.417h4.166c.23 0 .417-.187.417-.417v-4.167a.417.417 0 00-.417-.416H2.917zm7.916-9.584c0-1.15.933-2.083 2.084-2.083h4.166c1.15 0 2.084.933 2.084 2.083v4.167c0 1.15-.933 2.083-2.084 2.083h-4.166a2.083 2.083 0 01-2.084-2.083V2.916zm2.084-.416a.417.417 0 00-.417.416v4.167c0 .23.187.417.417.417h4.166c.23 0 .417-.187.417-.417V2.916a.417.417 0 00-.417-.416h-4.166zm-2.084 10.416c0-1.15.933-2.083 2.084-2.083h4.166c1.15 0 2.084.933 2.084 2.083v4.167c0 1.15-.933 2.083-2.084 2.083h-4.166a2.083 2.083 0 01-2.084-2.083v-4.167zm2.084-.416a.417.417 0 00-.417.416v4.167c0 .23.187.417.417.417h4.166c.23 0 .417-.187.417-.417v-4.167a.417.417 0 00-.417-.416h-4.166z" fill="#424551"/></svg>