<svg width="600" height="468" fill="none" xmlns="http://www.w3.org/2000/svg"><path d="M90.135 423.159s-18.769-16.981-18.4-29.172c.425-13.948 13.731-7.214 14.432-12.246.72-5.013-14.044-39.272 6.515-39.013 20.559.259 10.999 33.112 16.573 36.146 5.573 3.015 14.82-.592 12.328 12.708-2.491 13.319-23.272 31.411-23.272 31.411l-8.176.166z" fill="#3FB1B5"/><path d="M33.773 423.287c-3.211 0-6.44-1.498-9.061-4.199-2.473-2.553-4.19-5.993-4.725-9.453-1.107-7.288 2.935-13.134 10.833-15.612 7.4-2.331 11.96-.999 14.71.98.571-2.719 1.586-5.531 3.21-8.121 3.544-5.642 11.037-11.913 26.668-9.711 9.763 1.368 16.315 5.29 19.452 11.672 1.957 3.959 2.362 8.472 2.03 12.783.203-.888.406-1.776.59-2.683 1.68-8.361 2.197-16.833 1.514-25.139-.849-10.378-3.58-20.57-8.102-30.282a.555.555 0 01.259-.74.544.544 0 01.738.277c4.577 9.842 7.345 20.164 8.194 30.689.683 8.417.166 16.982-1.55 25.454-2.916 14.429-8.379 23.734-8.434 23.826l-.96-.555c.037-.055 2.842-5.087 4.817-11.672 3.266-10.933 1.753-17.703-.11-21.458-2.972-6.031-9.228-9.749-18.604-11.063-8.305-1.165-19.47-.499-25.56 9.213-1.661 2.645-2.658 5.568-3.175 8.324.13.129.259.24.388.37 2.897 2.923 3.617 7.066 2.842 9.49-.37 1.128-1.052 1.85-1.938 1.998-.332.055-.996.018-1.587-.888-1.089-1.647-1.66-5.827-.904-10.526-2.455-1.979-6.773-3.459-14.137-1.147-3.968 1.239-6.828 3.293-8.545 6.068-1.476 2.386-2.011 5.272-1.532 8.324.499 3.237 2.104 6.456 4.43 8.842 2.417 2.497 5.352 3.866 8.268 3.866.313 0 .553.241.553.555 0 .315-.258.518-.572.518zm12.513-26.138c-.554 4.088-.074 7.621.849 9.009.184.277.369.425.498.407.61-.093.923-.814 1.052-1.24.664-2.09-.055-5.679-2.4-8.176zm81.554 26.14a.538.538 0 01-.517-.37.552.552 0 01.351-.703c.074-.018 6.957-2.368 13.933-5.938 9.099-4.643 14.229-9.23 14.783-13.245.351-2.497-1.07-4.883-4.245-7.084-3.266-2.276-6.81-2.942-10.501-1.961-13.804 3.662-25.892 28.728-26.003 28.987a.553.553 0 11-.997-.481c.037-.056 3.119-6.493 7.899-13.301 6.46-9.193 12.808-14.669 18.825-16.26 4.023-1.073 7.862-.351 11.423 2.128 3.544 2.46 5.131 5.198 4.706 8.157-1.476 10.489-28.328 19.683-29.473 20.071-.073-.018-.129 0-.184 0z" fill="#FFCF2D"/><path d="M121.99 422.938a.555.555 0 01-.333-.111.56.56 0 01-.11-.777c.055-.056 4.724-6.308 10.833-12.69 8.249-8.621 15.078-13.393 20.264-14.17.295-.037.59.166.627.462.037.296-.166.592-.461.629-11.848 1.776-30.175 26.157-30.359 26.416a.53.53 0 01-.461.241zm-23.365.11c-.074 0-.148-.019-.222-.037a.567.567 0 01-.295-.722c.092-.24 10.132-23.585 18.935-37.311a.544.544 0 01.757-.166.547.547 0 01.166.758c-8.748 13.652-18.75 36.923-18.843 37.145a.524.524 0 01-.498.333z" fill="#FFCF2D"/><path d="M108.222 402.977l.443-.888c.406-.814 4.023-8.084 6.016-9.471a4.88 4.88 0 013.636-.796 4.862 4.862 0 013.119 2.035 4.865 4.865 0 01.775 3.663 4.791 4.791 0 01-2.012 3.089c-2.03 1.406-10.058 2.183-10.981 2.275l-.996.093zm9.209-10.137c-.757 0-1.495.222-2.123.666-1.31.925-3.875 5.586-5.204 8.157 2.861-.314 8.12-1.054 9.449-1.979a3.701 3.701 0 001.55-2.386 3.744 3.744 0 00-.609-2.83 3.731 3.731 0 00-2.399-1.573c-.221-.018-.443-.055-.664-.055zm-1.458-5.828l.443-.888c.406-.814 4.023-8.084 6.016-9.471a4.882 4.882 0 013.636-.795 4.858 4.858 0 013.119 2.034 4.865 4.865 0 01.775 3.663 4.789 4.789 0 01-2.012 3.089c-2.03 1.406-10.058 2.183-10.981 2.276l-.996.092zm9.209-10.118c-.757 0-1.495.222-2.122.665-1.311.925-3.876 5.587-5.205 8.158 2.861-.314 8.121-1.054 9.449-1.979a3.707 3.707 0 001.551-2.386 3.756 3.756 0 00-.609-2.831 3.733 3.733 0 00-2.4-1.572 4.01 4.01 0 00-.664-.055z" fill="#FFCF2D"/><path d="M121.269 377.837l.056-.98c.037-.907.498-9.009 1.808-11.081 1.421-2.275 4.43-2.959 6.7-1.535 2.251 1.424 2.934 4.421 1.513 6.715-1.292 2.072-8.397 5.975-9.191 6.419l-.886.462zm5.98-13.245a3.729 3.729 0 00-3.174 1.758c-.868 1.369-1.385 6.659-1.588 9.545 2.51-1.424 7.05-4.181 7.899-5.55 1.108-1.757.591-4.088-1.162-5.179a3.607 3.607 0 00-1.975-.574zm-19.36 38.422l-.479-.87c-.443-.795-4.319-7.917-4.301-10.377a4.88 4.88 0 011.458-3.423 4.803 4.803 0 013.378-1.387H108a4.81 4.81 0 013.433 1.424 4.906 4.906 0 011.402 3.46c-.018 2.441-3.986 9.508-4.429 10.303l-.517.87zm.056-14.947c-.978 0-1.901.37-2.602 1.073a3.759 3.759 0 00-1.126 2.645c-.019 1.628 2.325 6.401 3.672 8.953 1.384-2.534 3.784-7.288 3.802-8.879a3.675 3.675 0 00-1.07-2.664c-.702-.74-1.661-1.128-2.676-1.128z" fill="#FFCF2D"/><path d="M116.582 387.254l-.48-.87c-.443-.795-4.319-7.917-4.3-10.377.018-2.645 2.214-4.81 4.872-4.81 1.292 0 2.51.5 3.433 1.425a4.904 4.904 0 011.402 3.459c-.018 2.442-3.986 9.508-4.429 10.303l-.498.87zm-3.673-11.247c-.018 1.628 2.325 6.4 3.673 8.953 1.384-2.534 3.783-7.288 3.802-8.898a3.676 3.676 0 00-1.071-2.663 3.725 3.725 0 00-2.639-1.11c-2.085.018-3.746 1.646-3.765 3.718z" fill="#FFCF2D"/><path d="M599.704 422.143H0v1.109h599.704v-1.109z" fill="#66B0F0"/><path d="M248.297 52.23h148.325c29.99 0 58.005 14.8 74.966 39.532l67.952 100.335c5.61 8.158.535 19.275-9.357 19.275h-75.63l-30.211-39.568c-3.562-5.013-11.424-2.811-11.922 3.349l-6.09 74.53H244.569l-13.62-75.77c-.83-5.919-8.471-7.732-11.922-2.849l-27.756 35.813h-90.45l70.573-112.1c16.684-26.508 45.714-42.547 76.903-42.547z" fill="#fff"/><path d="M406.828 250.2H244.09l-.074-.462-13.639-75.807c-.35-2.497-2.085-4.421-4.54-5.013-2.473-.592-4.909.333-6.385 2.405l-.019.018-27.922 36.035H99.788l71.108-112.951c8.25-13.079 19.729-23.937 33.22-31.392 13.49-7.455 28.771-11.414 44.163-11.414h148.325c30.137 0 58.337 14.873 75.408 39.772l67.953 100.335c2.842 4.144 3.211 9.398.941 13.708-2.123 4.032-6.146 6.437-10.76 6.437h-75.869l-30.396-39.808c-1.79-2.535-4.54-2.849-6.496-2.313-1.975.555-4.171 2.239-4.43 5.365l-6.127 75.085zm-161.816-1.11h160.783l6.053-74.012c.24-3.052 2.307-5.531 5.241-6.345 2.953-.814 5.906.222 7.696 2.719l30.045 39.346h75.372c4.207 0 7.862-2.182 9.781-5.845 2.067-3.94 1.735-8.75-.886-12.561L471.145 92.057c-16.868-24.603-44.717-39.291-74.504-39.291H248.316c-15.207 0-30.304 3.903-43.628 11.266a91.215 91.215 0 00-32.832 31.003l-70.038 111.231h89.157l27.573-35.591c1.734-2.46 4.613-3.552 7.548-2.83 2.897.703 4.964 2.978 5.37 5.919l13.546 75.326z" fill="#3FB1B5"/><path d="M338.673 90.928l24.029 80.024h-59.389l26.372-80.024h8.988z" fill="#FE5244"/><g opacity=".2" fill="#fff"><path opacity=".2" d="M319.516 121.857v49.095h-1.606v-44.285l.535-1.628 1.071-3.182zm16.905-30.746h-1.588v79.84h1.588v-79.84zm16.924 48.688v31.152h-1.587V134.49l1.587 5.309z"/><path opacity=".2" d="M359.601 160.591h-52.893l.535-1.628h51.859l.499 1.628zm-5.113-16.961h-42.17l.535-1.628h41.137l.498 1.628zm-5.075-16.965H317.91l.535-1.628h30.47l.498 1.628zm-5.111-16.963h-20.781l.535-1.628h19.766l.48 1.628zm-5.113-16.962h-10.058l.517-1.629h9.098l.443 1.628z"/></g><path d="M349.413 90.097l9.689 10.433 31.245-48.3h-27.683l-13.251 37.867z" fill="#fff"/><path d="M359.195 101.417l-10.409-11.21 13.491-38.55h29.086l-32.168 49.76zm-9.154-11.45l8.988 9.674 30.285-46.856h-26.262l-13.011 37.181z" fill="#3FB1B5"/><path d="M320.678 90.097l-9.726 10.433-33.847-48.3h30.285l13.288 37.867z" fill="#fff"/><path d="M310.897 101.399l-34.844-49.743h31.743l13.528 38.551-10.427 11.192zm-32.721-48.614l32.832 46.875 9.043-9.694-13.048-37.181h-28.827z" fill="#3FB1B5"/><path d="M551.425 220.545c0 18.905-13.435 36.812-34.345 39.883l-85.669 12.634-18.806 2.775v-73.014l5.795-1.369 83.584-19.885a40.06 40.06 0 0142.318 16.352c4.89 7.067 7.123 14.929 7.123 22.624z" fill="#A0505A"/><path d="M431.411 273.063l-18.806 2.774v-73.013l5.795-1.369 13.011 71.608z" fill="#73325A"/><path d="M412.605 294.504H232.518V186.177c0-8.416 6.81-15.224 15.189-15.224h149.691c8.397 0 15.188 6.826 15.188 15.224v108.327h.019z" fill="#FFCF2D"/><path d="M333.671 241.837h-22.22c-2.51 0-4.558-2.053-4.558-4.569v-9.341c0-2.516 2.048-4.57 4.558-4.57h22.22c2.51 0 4.559 2.054 4.559 4.57v9.341c-.019 2.534-2.049 4.569-4.559 4.569zm-22.22-17.518a3.648 3.648 0 00-3.636 3.645v9.341a3.647 3.647 0 003.636 3.644h22.22a3.646 3.646 0 003.636-3.644v-9.341c0-1.998-1.624-3.645-3.636-3.645h-22.22z" fill="#fff"/><path d="M295.765 293.32l190.643-28.58c37.095-5.661 70.536 23.141 70.536 60.785 0 33.964-27.443 61.471-61.327 61.471H297.02l-1.255-93.676z" fill="#0096A0"/><path d="M270.001 403.754l-114.736 22.199c-14.617 3.107-29.307-9.102-29.953-24.899l-1.698-41.973c-.868-21.255 19.452-34.038 38.608-24.936l107.779 69.609z" fill="#fff"/><path d="M150.651 426.988c-5.352 0-10.741-1.868-15.281-5.42-6.423-4.994-10.298-12.468-10.612-20.496l-1.698-41.973c-.203-5.161.775-9.952 2.934-14.225a25.825 25.825 0 018.767-9.878c7.991-5.291 18.344-5.79 27.701-1.351l.055.037 108.942 70.35-116.102 22.457c-1.55.333-3.119.499-4.706.499zm-1.218-95.23c-5.02 0-9.892 1.406-14.082 4.181-7.511 4.995-11.608 13.411-11.202 23.142l1.698 41.973c.314 7.695 4.023 14.854 10.187 19.663 5.629 4.385 12.587 6.105 19.083 4.718l113.408-21.94-106.58-68.851c-4.078-1.942-8.341-2.886-12.512-2.886z" fill="#FE5244"/><path d="M158.66 425.435c-5.204 0-10.445-1.831-14.874-5.272-6.275-4.884-10.059-12.153-10.409-19.997l-1.772-40.752c-.424-9.823 3.654-18.332 11.239-23.363 7.696-5.106 17.736-5.569 26.816-1.221l-.48.998c-8.729-4.18-18.345-3.755-25.727 1.147-7.234 4.81-11.147 12.968-10.741 22.384l1.772 40.752c.332 7.51 3.968 14.484 9.984 19.164 5.445 4.236 12.162 5.92 18.437 4.606l.222 1.092a21.455 21.455 0 01-4.467.462z" fill="#FE5244"/><path d="M162.204 334.125l107.797 69.628-24.582 4.736-83.215-74.364z" fill="#FE5244"/><path d="M159.768 397.301l-1.015-.444 16.241-37.422a.566.566 0 01.516-.333c.222 0 .425.129.499.333l13.583 32.205 13.657-27.266.996.499-14.192 28.34a.583.583 0 01-.517.314c-.221 0-.406-.148-.498-.333l-13.546-32.132-15.724 36.239z" fill="#FE5244"/><path d="M174.366 394.784h-.018c-.222 0-.406-.148-.499-.351l-15.908-39.772 1.033-.407 15.429 38.606 15.004-30.633a.577.577 0 01.498-.315c.222 0 .406.13.499.333l12.07 26.49-1.016.463-11.589-25.417-15.041 30.707c-.056.167-.259.296-.462.296z" fill="#FE5244"/><path d="M359.103 351.719c-6.367-5.235-24.767 6.678-41.119 26.601-16.351 19.923-24.453 40.345-18.104 45.58-.942-.573-120.458-75.695-194.629-126.973-18.862-13.023-28.81-33.889-28.81-55.014 0-14.725 4.855-29.561 14.876-41.973 25.136-31.078 71.699-33.168 99.529-4.477l168.257 156.256z" fill="#3FB1B5"/><path d="M340.934 397.281c16.348-19.923 24.444-40.324 18.084-45.567-6.361-5.244-24.769 6.656-41.117 26.578-16.348 19.923-24.444 40.324-18.084 45.567 6.361 5.244 24.769-6.656 41.117-26.578z" fill="#FE5244"/><path d="M303.754 425.64c-1.716 0-3.155-.444-4.263-1.35-3.285-2.701-3.156-9.064.369-17.907 3.433-8.657 9.708-18.757 17.644-28.432 7.935-9.674 16.628-17.795 24.434-22.845 7.991-5.161 14.192-6.512 17.459-3.811 3.285 2.701 3.156 9.064-.369 17.906-3.433 8.658-9.708 18.758-17.643 28.433-7.936 9.674-16.629 17.795-24.435 22.845-5.278 3.422-9.8 5.161-13.196 5.161zm51.398-74.604c-3.156 0-7.511 1.702-12.605 4.995-7.714 4.994-16.314 13.022-24.176 22.605-7.88 9.6-14.081 19.589-17.477 28.136-3.267 8.25-3.525 14.318-.683 16.648 2.842 2.331 8.729.925 16.167-3.884 7.714-4.995 16.314-13.023 24.176-22.605 7.881-9.601 14.082-19.59 17.477-28.136 3.267-8.251 3.525-14.318.683-16.649-.904-.74-2.104-1.11-3.562-1.11z" fill="#fff"/><path d="M411.738 417.296l-21.279 36.202c-10.796 18.332-35.176 18.665-46.341.61l-35.822-57.826c3.064-5.087 6.847-10.396 11.202-15.705 7.881-9.601 16.241-17.333 23.512-22.198l57.009 21.736c13.952 5.346 19.691 23.567 11.719 37.181z" fill="#fff"/><path d="M367.076 468.001a26.463 26.463 0 01-12.826-3.33c-4.282-2.368-7.862-5.827-10.612-10.285l-35.988-58.122.184-.296c3.101-5.143 6.884-10.452 11.258-15.78 7.622-9.304 16.019-17.222 23.623-22.309l.24-.166.258.092 57.009 21.736c6.514 2.497 11.663 7.991 14.136 15.039 2.676 7.677 1.901 16.038-2.159 22.957l-21.279 36.201c-2.676 4.532-6.182 8.103-10.445 10.581a26.75 26.75 0 01-13.122 3.645c-.074.037-.166.037-.277.037zm-58.116-71.737l35.637 57.548c2.639 4.292 6.072 7.603 10.206 9.897 3.857 2.127 8.194 3.237 12.568 3.182a25.613 25.613 0 0012.568-3.497c4.097-2.386 7.475-5.827 10.058-10.192L411.276 417c3.876-6.622 4.633-14.65 2.067-22.013-2.362-6.752-7.271-11.987-13.49-14.373l-56.75-21.643c-7.456 5.031-15.669 12.801-23.143 21.92-4.282 5.217-7.973 10.378-11 15.373z" fill="#FE5244"/><path d="M362.241 461.766a24.771 24.771 0 01-12.107-3.181c-4.06-2.276-7.437-5.605-10.04-9.878l.942-.574c2.51 4.107 5.758 7.288 9.633 9.471 3.636 2.035 7.733 3.09 11.849 3.034 4.134-.055 8.212-1.221 11.811-3.348 3.857-2.294 7.031-5.587 9.431-9.767l20.061-34.722c3.783-6.567 4.576-14.651 2.122-21.625-2.159-6.123-6.459-10.692-12.144-12.912l.406-1.035c5.98 2.33 10.52 7.14 12.771 13.577 2.566 7.27 1.735 15.706-2.196 22.55l-20.061 34.722c-2.51 4.347-5.813 7.769-9.836 10.155-3.765 2.239-8.028 3.459-12.347 3.515-.092 0-.203.018-.295.018zm-17.902-44.6a.591.591 0 01-.332-.111.538.538 0 01-.203-.574l8.415-33.852-27.923 14.17-.498-.999 28.993-14.725a.569.569 0 01.591.056.55.55 0 01.185.573l-8.379 33.704 33.515-20.607.572.944-34.678 21.328c-.055.074-.147.093-.258.093z" fill="#FE5244"/><path d="M355.892 430.781l-1.089-.241 8.766-39.66-28.532 14.095a.536.536 0 01-.572-.055.561.561 0 01-.221-.537l4.54-27.1 1.089.185-4.356 26.027 28.606-14.132a.567.567 0 01.59.055.58.58 0 01.203.555l-9.024 40.808z" fill="#FE5244"/><path d="M377.964 58.777a9.142 9.142 0 01-2.879 6.141 9.156 9.156 0 01-6.294 2.497h-8.36l-.535 8.843c-.461 7.288-7.677 14.725-15.226 14.725h-21.168c-7.493 0-14.764-7.437-15.225-14.725l-.536-8.843h-8.47a9.156 9.156 0 01-6.294-2.497c-1.661-1.554-2.731-3.718-2.879-6.178-.295-5.31 4.042-9.712 9.357-9.712h7.161l-.794-13.467c-.148-2.849 2.086-5.235 4.928-5.235h46.71c2.842 0 5.075 2.386 4.927 5.235l-.793 13.467h7.234c5.242.037 9.431 4.477 9.136 9.749z" fill="#A0505A"/><path d="M361.576 49.029h7.603s7.272-26.453.259-33.242c-6.995-6.789-50.014-22.42-63.911-12.671-10.15 7.14-4.614 45.913-4.614 45.913h5.611s22.608-16.242 26.151-14.836c3.562 1.406-10.224 8.232-7.456 9.564 10.335 4.976 28.919-13.06 33.201-13.06s3.156 18.332 3.156 18.332zm-9.578 6.936a.405.405 0 01-.24-.074c-.055-.037-4.872-3.848-10.944-1.35a.374.374 0 01-.48-.204.376.376 0 01.203-.481c6.496-2.664 11.645 1.424 11.701 1.461.166.13.184.37.055.518a.422.422 0 01-.295.13z" fill="#73325A"/><path d="M351.998 56.336a.711.711 0 01-.462-.166c-.037-.037-4.724-3.7-10.574-1.295a.733.733 0 01-.96-.407c-.148-.37.018-.814.406-.962 6.699-2.756 12.014 1.461 12.07 1.517.147.13.24.296.276.5a.692.692 0 01-.166.536.778.778 0 01-.59.277zm-.037-.758c.018.018.037.018.037.018s-.019 0-.037-.018zM335.259 81.27c-1.292 0-2.787-.258-4.522-.887a.378.378 0 01-.221-.481.377.377 0 01.48-.222c3.266 1.202 6.127 1.128 8.268-.24 1.605-1.018 2.251-2.368 2.251-2.387.093-.185.314-.259.499-.185a.396.396 0 01.184.5c-.037.055-1.901 3.903-6.939 3.903z" fill="#73325A"/><path d="M335.259 81.64c-1.439 0-3.008-.314-4.651-.906a.793.793 0 01-.424-.388.774.774 0 01-.019-.574.793.793 0 01.388-.425.766.766 0 01.572-.018c3.156 1.165 5.887 1.09 7.936-.204 1.495-.943 2.122-2.22 2.122-2.238.074-.185.24-.315.425-.389a.766.766 0 01.572.019c.369.166.535.61.35.98-.037.093-1.993 4.144-7.271 4.144zm-4.392-1.609c1.679.61 3.266.907 4.687.87-1.439.037-3.008-.24-4.687-.87zm1.955-3.959c-.812 0-1.661-.019-2.399-.074-1.402-.093-1.698-3.145-2.067-8.528-.24-3.44-.517-7.344-1.347-9.064-2.861-5.883-12.55-3.811-12.642-3.792a.376.376 0 01-.443-.278c-.055-.203.074-.388.277-.444.111-.018 2.602-.573 5.5-.351 3.912.296 6.662 1.868 7.972 4.532.886 1.831 1.163 5.642 1.421 9.323.148 2.109.296 4.107.536 5.605.35 2.109.775 2.238.849 2.238 2.103.148 5.333 0 5.37 0 .203-.018.369.148.388.352.018.203-.148.37-.351.388-.092.019-1.495.093-3.064.093z" fill="#73325A"/><path d="M332.822 76.444c-.941 0-1.772-.019-2.418-.075-1.716-.129-2.011-3.126-2.417-8.879-.24-3.403-.517-7.27-1.31-8.916-2.732-5.605-12.144-3.607-12.236-3.589a.829.829 0 01-.554-.092.835.835 0 01-.332-.463c-.056-.185 0-.388.092-.555a.837.837 0 01.461-.333c.111-.018 2.658-.573 5.611-.351 4.06.314 6.921 1.942 8.268 4.736.923 1.905 1.181 5.753 1.458 9.47.147 2.11.295 4.089.535 5.569.24 1.461.498 1.85.572 1.942 2.067.13 5.223 0 5.26 0a.706.706 0 01.535.185.69.69 0 01.24.518.743.743 0 01-.701.777c-.148 0-1.532.055-3.064.055zm-2.381-.814c.665.055 1.458.074 2.381.074 1.513 0 2.861-.056 3.045-.074-.147.018-3.322.148-5.426 0zm-3.063-17.315c.83 1.813 1.107 5.698 1.347 9.12l.055.795-.055-.795c-.258-3.589-.517-7.307-1.347-9.12zm-9.136-4.421c2.64 0 5.961.518 8.028 2.775-1.439-1.573-3.691-2.516-6.588-2.738-2.842-.222-5.297.314-5.389.333.037 0 1.735-.37 3.949-.37zm26.964 12.024c.978 0 1.772-1.326 1.772-2.96 0-1.635-.794-2.96-1.772-2.96-.979 0-1.772 1.325-1.772 2.96 0 1.634.793 2.96 1.772 2.96z" fill="#73325A"/><path d="M322.192 65.918c.979 0 1.772-1.326 1.772-2.96 0-1.635-.793-2.96-1.772-2.96-.978 0-1.772 1.325-1.772 2.96 0 1.634.794 2.96 1.772 2.96zm-17.403-5.402a.38.38 0 01-.369-.352c-.221-3.514-3.137-6.252-6.644-6.252a.37.37 0 010-.74c3.894 0 7.142 3.052 7.364 6.955a.36.36 0 01-.351.389z" fill="#73325A"/><path d="M304.789 60.886a.733.733 0 01-.738-.702 6.29 6.29 0 00-6.275-5.901.741.741 0 010-1.48 7.75 7.75 0 017.733 7.288.709.709 0 01-.185.537.684.684 0 01-.516.24c0 .018 0 .018-.019.018zm-2.547-5.716a7.033 7.033 0 012.547 4.995v.37-.37a7.033 7.033 0 00-2.547-4.995zm60.645 5.55h-.019a.383.383 0 01-.35-.389c.239-4.125 3.635-7.362 7.751-7.362a.37.37 0 010 .74c-3.71 0-6.792 2.922-7.013 6.678 0 .166-.166.333-.369.333z" fill="#73325A"/><path d="M362.886 61.09h-.037a.743.743 0 01-.701-.777c.258-4.328 3.82-7.713 8.12-7.713.406 0 .739.333.739.74 0 .406-.333.74-.739.74-3.525 0-6.441 2.774-6.644 6.326a.731.731 0 01-.738.684zm0-.74v.37-.37z" fill="#73325A"/><path d="M533.192 421.311s43.997-79.118 17.274-79.562c-12.476-.204-25.228 42.602-20.393 79.562h3.119z" fill="#3FB1B5"/><path d="M531.29 421.439c-.037 0-.074 0-.129-.019a.579.579 0 01-.425-.665c.019-.111 2.603-11.636 8.01-24.696 3.174-7.677 6.718-14.373 10.483-19.923 4.743-6.955 9.892-12.098 15.317-15.279 7.087-4.162 14.709-5.032 22.663-2.627 7.456 2.257 11.683 6.049 12.605 11.284.776 4.458-.885 9.971-4.946 16.39-3.211 5.068-7.935 10.729-14.026 16.833-10.353 10.359-21.242 18.499-21.352 18.591a.558.558 0 01-.776-.111.56.56 0 01.111-.777c.111-.074 10.944-8.176 21.242-18.48 9.431-9.434 20.319-22.697 18.659-32.242-.831-4.792-4.817-8.288-11.83-10.415-7.659-2.312-14.986-1.461-21.777 2.516-5.279 3.107-10.317 8.139-14.968 14.946-3.728 5.476-7.234 12.117-10.39 19.72-5.371 12.967-7.917 24.399-7.954 24.51a.532.532 0 01-.517.444zm-52.8 1.277h-.055c-3.488-.333-6.755-2.09-9.431-5.124-2.492-2.812-4.263-6.493-5.001-10.396-.739-3.866-.406-7.659.941-10.97 1.513-3.681 4.3-6.641 8.083-8.546 4.706-2.386 9.117-3.459 13.103-3.2 2.898.185 5.519 1.054 7.825 2.589.148-3.366.868-6.4 2.16-8.786 2.362-4.44 6.588-6.66 12.199-6.438 4.78.204 8.877 2.96 12.18 8.195 2.602 4.107 4.706 9.767 6.293 16.797 2.676 11.931 2.898 23.918 2.898 24.029 0 .315-.24.555-.554.555a.555.555 0 01-.553-.555c0-.111-.222-12.005-2.879-23.826-1.551-6.9-3.618-12.431-6.146-16.445-3.101-4.902-6.902-7.473-11.276-7.658-5.223-.222-8.988 1.738-11.166 5.845-1.292 2.423-1.993 5.568-2.048 9.064.018.019.037.037.055.037 2.141 1.721 3.894 4.088 4.983 6.678.941 2.257 1.273 4.514.904 5.994-.258.98-.83 1.609-1.605 1.739-.554.092-1.421-.056-2.362-1.351-1.44-1.979-2.603-5.901-2.953-9.989a30.089 30.089 0 01-.111-2.553c-3.783-2.811-10.28-4.846-20.393.259-3.58 1.813-6.127 4.495-7.548 7.992-1.274 3.089-1.569 6.678-.886 10.34.701 3.7 2.381 7.215 4.743 9.86 2.491 2.812 5.499 4.458 8.711 4.754.295.037.535.296.498.61-.092.278-.332.5-.609.5zm16.554-33.371c.019.499.056 1.017.093 1.535.332 3.903 1.421 7.621 2.749 9.434.462.648.942.981 1.274.925.351-.055.59-.37.738-.925.591-2.331-.978-7.455-4.854-10.969z" fill="#FFCF2D"/><path d="M547.808 421.441a.68.68 0 01-.203-.037.544.544 0 01-.295-.722c.055-.129 5.352-12.967 13.085-26.896 4.54-8.195 9.043-15.151 13.343-20.682 5.407-6.955 10.556-11.672 15.299-14.04a.564.564 0 01.739.241.564.564 0 01-.24.739c-5.758 2.868-15.337 11.155-28.163 34.26-7.714 13.873-12.993 26.656-13.03 26.785a.6.6 0 01-.535.352zm-22.921-27.009c-.056-.278-4.946-27.711-5.149-45.599l1.107-.019c.111 9.305 1.495 21.144 2.639 29.45 1.237 9.009 2.473 15.89 2.492 15.964l-1.089.204z" fill="#FFCF2D"/><path d="M522.488 370.57l-.13-.981c-.129-.999-1.199-9.822-.203-12.301a5.127 5.127 0 012.824-2.868 5.154 5.154 0 014.023-.018c2.695 1.091 4.005 4.181 2.935 6.881-.997 2.498-7.881 8.047-8.674 8.676l-.775.611zm4.54-15.465a4.03 4.03 0 00-1.606.333 4.081 4.081 0 00-2.215 2.257c-.682 1.683-.184 7.621.148 10.747 2.418-1.998 6.884-5.919 7.548-7.603a4.18 4.18 0 00-2.307-5.438 4.199 4.199 0 00-1.568-.296zm-7.051-3.848l-.129-.98c-.129-.999-1.199-9.823-.203-12.302a5.125 5.125 0 012.824-2.867 5.145 5.145 0 014.023-.018c2.731 1.146 4.023 4.162 2.934 6.881-.996 2.497-7.88 8.047-8.674 8.676l-.775.61zm4.54-15.465c-.553 0-1.089.111-1.605.333a4.087 4.087 0 00-2.215 2.257c-.683 1.684-.184 7.622.148 10.748 2.417-1.998 6.884-5.92 7.548-7.603.867-2.146-.148-4.532-2.325-5.439a4.524 4.524 0 00-1.551-.296zm-2.399 35.018l-.868-.463c-.886-.462-8.711-4.606-10.15-6.863a5.276 5.276 0 011.532-7.307c2.454-1.591 5.721-.888 7.289 1.536 1.44 2.238 2.067 11.08 2.141 12.079l.056 1.018zm-10.095-7.936c.978 1.517 6.108 4.513 8.858 6.012-.258-3.127-.904-9.046-1.882-10.563-1.237-1.924-3.821-2.46-5.758-1.221-1.938 1.295-2.473 3.829-1.218 5.772z" fill="#FFCF2D"/></svg>