<svg width="308" height="234" fill="none" xmlns="http://www.w3.org/2000/svg"><g clip-path="url(#clip0_2396_1626)"><path d="M15.487 181.654h217.536c8.182 0 14.796-6.586 14.796-14.732V15.42c0-8.146-6.614-14.732-14.796-14.732H15.487C7.306.688.691 7.274.691 15.42v151.479c-.023 8.146 6.615 14.755 14.796 14.755z" fill="#fff"/><path d="M15.487 182.344h217.536c8.551 0 15.488-6.908 15.488-15.421V15.421C248.511 6.907 241.574 0 233.023 0H15.487C6.937 0 0 6.907 0 15.421V166.9c-.023 4.108 1.59 7.986 4.517 10.9 2.927 2.937 6.822 4.544 10.97 4.544zM233.023 1.377c7.767 0 14.105 6.31 14.105 14.044v151.502c0 7.733-6.338 14.044-14.105 14.044H15.487c-3.78 0-7.328-1.469-10.002-4.131-2.65-2.662-4.125-6.196-4.102-9.936V15.421c0-7.733 6.338-14.044 14.104-14.044h217.536z" fill="#3FB1B5"/><path d="M15.349 167.568h215.439c3.203 0 5.784-2.593 5.784-5.76V16.869c0-3.19-2.604-5.76-5.784-5.76H15.348c-3.203 0-5.784 2.594-5.784 5.76v144.916c-.023 3.19 2.581 5.783 5.785 5.783z" fill="#66B0F0"/><path d="M15.349 168.255h215.439c3.572 0 6.476-2.891 6.476-6.448V16.868c0-3.557-2.904-6.448-6.476-6.448H15.348c-3.572 0-6.475 2.891-6.475 6.448v144.916a6.295 6.295 0 001.866 4.567c1.245 1.216 2.858 1.904 4.61 1.904zM230.788 11.797c2.811 0 5.093 2.272 5.093 5.071v144.939c0 2.8-2.282 5.071-5.093 5.071H15.348a5.102 5.102 0 01-3.618-1.491 4.985 4.985 0 01-1.475-3.58V16.868c0-2.8 2.282-5.071 5.094-5.071h215.439z" fill="#66B0F0"/><path d="M223.067 25.335h3.411a2.72 2.72 0 002.72-2.707V19.23a2.72 2.72 0 00-2.72-2.708h-3.411a2.718 2.718 0 00-2.719 2.708v3.397c.023 1.514 1.221 2.707 2.719 2.707zm3.411-7.435c.738 0 1.337.597 1.337 1.331v3.397c0 .734-.599 1.33-1.337 1.33h-3.411c-.737 0-1.314-.596-1.337-1.353V19.23c0-.734.6-1.33 1.337-1.33h3.411zm-18.921 7.435h3.411a2.72 2.72 0 002.72-2.707V19.23a2.72 2.72 0 00-2.72-2.708h-3.411a2.718 2.718 0 00-2.719 2.708v3.397a2.718 2.718 0 002.719 2.707zm3.411-7.435c.737 0 1.337.597 1.337 1.331v3.397c0 .734-.6 1.33-1.337 1.33h-3.411a1.335 1.335 0 01-1.337-1.33V19.23c0-.734.6-1.33 1.337-1.33h3.411zm-18.921 7.435h3.411a2.718 2.718 0 002.719-2.707V19.23a2.718 2.718 0 00-2.719-2.708h-3.411a2.72 2.72 0 00-2.72 2.708v3.397a2.72 2.72 0 002.72 2.707zm3.411-7.435c.737 0 1.336.597 1.336 1.331v3.397c0 .734-.599 1.33-1.336 1.33h-3.411c-.761 0-1.337-.573-1.337-1.33V19.23c0-.734.599-1.33 1.337-1.33h3.411zM53.913 25.335h3.41a2.719 2.719 0 002.72-2.707V19.23a2.719 2.719 0 00-2.72-2.708h-3.41a2.719 2.719 0 00-2.72 2.708v3.397c.023 1.514 1.222 2.707 2.72 2.707zm3.41-7.435c.738 0 1.337.597 1.337 1.331v3.397c0 .734-.599 1.33-1.336 1.33h-3.411c-.738 0-1.314-.596-1.337-1.353V19.23c0-.734.6-1.33 1.337-1.33h3.41zm-18.92 7.435h3.41a2.719 2.719 0 002.72-2.707V19.23a2.719 2.719 0 00-2.72-2.708h-3.41a2.719 2.719 0 00-2.72 2.708v3.397a2.719 2.719 0 002.72 2.707zm3.41-7.435c.738 0 1.337.597 1.337 1.331v3.397c0 .734-.599 1.33-1.336 1.33h-3.411a1.335 1.335 0 01-1.337-1.33V19.23c0-.734.6-1.33 1.337-1.33h3.41zm-18.921 7.435h3.411a2.719 2.719 0 002.72-2.707V19.23a2.719 2.719 0 00-2.72-2.708h-3.41a2.719 2.719 0 00-2.72 2.708v3.397a2.719 2.719 0 002.72 2.707zm3.411-7.435c.738 0 1.337.597 1.337 1.331v3.397c0 .734-.6 1.33-1.337 1.33h-3.41c-.761 0-1.337-.573-1.337-1.33V19.23c0-.734.599-1.33 1.336-1.33h3.411zm52.032 215.412h84.442l-16.57-51.656H94.928l-16.593 51.656z" fill="#fff"/><path d="M77.39 233.999h86.332l-17.008-53.032H94.421l-17.03 53.032zm84.443-1.377H79.28l16.156-50.278H145.7l16.133 50.278z" fill="#3FB1B5"/><path d="M156.14 212.636l-9.933-30.98H94.928l61.212 30.98z" fill="#3FB1B5"/><path d="M28.025 59.32H69.07c4.217 0 7.65-3.418 7.65-7.618v-26.39c0-4.2-3.433-7.619-7.65-7.619H28.024c-4.218 0-7.652 3.42-7.652 7.62v26.39c0 4.199 3.434 7.618 7.652 7.618zM69.07 19.07c3.457 0 6.268 2.8 6.268 6.242v26.39c0 3.442-2.811 6.242-6.269 6.242H28.025c-3.457 0-6.269-2.8-6.269-6.242v-26.39c0-3.442 2.812-6.242 6.269-6.242H69.07z" fill="#fff"/><path d="M32.98 28.477H64.3a.678.678 0 00.69-.689.677.677 0 00-.69-.688H32.98a.678.678 0 00-.692.688c0 .39.3.689.691.689zm0 7.113H64.3a.678.678 0 00.69-.689.677.677 0 00-.69-.688H32.98a.678.678 0 00-.692.688c0 .39.3.689.691.689zm0 7.115H64.3a.678.678 0 00.69-.688.677.677 0 00-.69-.689H32.98a.678.678 0 00-.692.689c0 .39.3.688.691.688zm0 7.115H64.3a.678.678 0 00.69-.688.677.677 0 00-.69-.689H32.98a.678.678 0 00-.692.689c0 .39.3.688.691.688zM16.548 167.567h163.147l9.564 13.654c10.809 15.421 33.648 15.65 44.756.436l58.262-79.79c-2.443 3.029-13.62-.344-24.268-7.32-10.809-7.091-17.792-16.018-15.602-19.322l-40.401 51.265-12.376-21.754a24.433 24.433 0 00-15.556-11.406l-42.106-8.88h-36.299l-40.008 8.789a24.516 24.516 0 00-16.202 12.369l-32.91 61.959z" fill="#fff"/><path d="M211.798 193.613c9.103 0 17.4-4.199 22.77-11.566l58.262-79.789-1.107-.826c-1.959 2.409-12.353-.253-23.346-7.459-5.116-3.35-9.564-7.228-12.514-10.946-2.673-3.35-3.757-6.127-2.881-7.435l-1.129-.803-39.755 50.462-11.869-20.859a25.168 25.168 0 00-15.995-11.727l-42.198-8.903H105.6l-.07.023-40.008 8.789c-7.145 1.629-13.229 6.264-16.663 12.713l-33.44 62.969h163.929l9.357 13.355c5.278 7.527 13.598 11.91 22.839 12.002h.254zm78.358-90.024l-56.717 77.655c-5.163 7.068-13.137 11.084-21.918 10.992-8.78-.092-16.685-4.245-21.709-11.405l-9.772-13.952H17.677l32.38-60.95a23.804 23.804 0 0115.741-12.024l39.94-8.767h36.16l42.037 8.858c6.314 1.47 11.823 5.508 15.095 11.084l12.883 22.65 39.502-50.118c.323 1.72 1.452 3.878 3.388 6.287 3.042 3.81 7.605 7.803 12.837 11.222 7.305 4.773 16.086 8.536 21.318 8.536a9.89 9.89 0 001.198-.068z" fill="#3FB1B5"/><path d="M61.328 167.316a.727.727 0 00.622-.368l11.592-22.787c.162-.344.046-.757-.3-.918-.345-.16-.76-.046-.921.299l-11.593 22.787c-.16.344-.046.757.3.918a.64.64 0 00.3.069zm119.288 2.132a.813.813 0 00.323-.069.665.665 0 00.3-.918l-11.478-22.558a.67.67 0 00-.921-.298.665.665 0 00-.3.918l11.477 22.558a.665.665 0 00.599.367zm20.812-28.684a.688.688 0 00.553-.276l26.296-33.481a.688.688 0 00-.115-.963.694.694 0 00-.968.114l-26.296 33.481a.687.687 0 00.115.964.591.591 0 00.415.161zm-91.726-32.586l10.118-12.277a.666.666 0 00-.092-.964.672.672 0 00-.968.092l-9.242 11.176-21.134-17.854a.69.69 0 00-.968.07.683.683 0 00.07.963l22.216 18.794zm26.273.435l24.36-19.208c.3-.23.346-.665.116-.963a.695.695 0 00-.968-.115l-23.254 18.335-8.965-11.405a.687.687 0 10-1.083.85l9.794 12.506zm145.217 5.646c2.189 0 3.341-.666 3.918-1.4a.688.688 0 00-.116-.964.696.696 0 00-.968.115c-.968 1.216-4.125 1.147-8.435-.138-4.586-1.377-10.117-4.084-15.141-7.412-5.14-3.396-9.611-7.32-12.584-11.084-2.696-3.396-3.779-6.196-2.903-7.526.207-.322.115-.735-.208-.964-.323-.207-.737-.115-.968.206-1.244 1.905-.184 5.14 2.973 9.133 3.065 3.856 7.652 7.895 12.906 11.36 5.209 3.442 10.717 6.15 15.511 7.595 2.604.781 4.563 1.079 6.015 1.079z" fill="#3FB1B5"/><path d="M251.623 91.977a3.288 3.288 0 003.295-3.281 3.288 3.288 0 00-3.295-3.282 3.288 3.288 0 00-3.296 3.282 3.288 3.288 0 003.296 3.281zm0-5.186a1.904 1.904 0 110 3.81 1.904 1.904 0 110-3.81zm-128.6 21.479a3.288 3.288 0 003.296-3.281 3.288 3.288 0 00-3.296-3.282 3.288 3.288 0 00-3.295 3.282 3.288 3.288 0 003.295 3.281zm0-5.186a1.904 1.904 0 110 3.809 1.904 1.904 0 110-3.809zm0 26.069a3.288 3.288 0 003.296-3.282 3.288 3.288 0 00-3.296-3.281 3.288 3.288 0 00-3.295 3.281 3.288 3.288 0 003.295 3.282zm0-5.186a1.904 1.904 0 110 3.809 1.904 1.904 0 110-3.809zm67.065 58.355l-10.394-14.756v14.756h10.394z" fill="#3FB1B5"/><path d="M268.262 93.857c10.647 6.976 21.825 10.349 24.268 7.32.046-.046.069-.092.115-.16.507-.758.461-1.79 0-3.052-1.59-4.154-8.158-10.58-16.501-16.041-6.638-4.36-13.183-7.39-17.723-8.33-2.627-.528-4.586-.367-5.531.642l-.231.276c-2.166 3.304 4.794 12.254 15.603 19.345z" fill="#FE5244"/><path d="M268.262 93.856c6.061 3.97 12.307 6.793 17.008 7.894l21.042-29.557c2.927-4.13 1.959-9.844-2.212-12.759L285.155 46.17l10.74-18.197c1.567-2.64.668-6.059-2.005-7.596a5.493 5.493 0 00-2.766-.734c-1.82 0-3.618.895-4.678 2.547l-33.579 52-.23.367c-2.144 3.258 4.816 12.208 15.625 19.299z" fill="#E57281"/><path d="M279.209 72.54c.3 0 .599-.024.899-.092a4.289 4.289 0 002.765-1.882l11.086-16.523a.72.72 0 00-.185-.963.727.727 0 00-.968.183l-11.085 16.523a2.96 2.96 0 01-1.89 1.285c-.783.16-1.59 0-2.258-.436l-2.605-1.698a2.985 2.985 0 01-.898-4.108l11.73-18.106a.672.672 0 00-.207-.94.678.678 0 00-.945.206l-11.731 18.106a4.346 4.346 0 001.314 5.989l2.604 1.698a4.005 4.005 0 002.374.757z" fill="#9A3B82"/><path d="M287.806 78.023a4.448 4.448 0 003.687-1.95c.207-.322.115-.734-.207-.964-.323-.206-.738-.115-.968.207-.899 1.353-2.743 1.744-4.126.871l-2.374-1.491a2.968 2.968 0 01-1.313-1.905c-.161-.803-.023-1.606.415-2.272.207-.32.115-.734-.208-.963-.322-.207-.737-.115-.968.206a4.34 4.34 0 00-.622 3.328 4.443 4.443 0 001.936 2.776l2.374 1.492a4.7 4.7 0 002.374.665z" fill="#9A3B82"/><path d="M296.241 83.163a4.373 4.373 0 003.595-1.858l6.292-8.835c.23-.322.138-.735-.162-.964-.299-.23-.737-.138-.968.16l-6.291 8.835c-.945 1.308-2.72 1.653-4.057.804l-.046-.023-2.189-1.217a3.018 3.018 0 01-1.337-1.881c-.184-.803-.023-1.607.415-2.295l10.855-16.064a.698.698 0 00-.184-.963.704.704 0 00-.968.183L290.341 75.11a4.33 4.33 0 00-.623 3.35 4.288 4.288 0 001.959 2.754l.024.023 2.189 1.216a4.19 4.19 0 002.351.711z" fill="#9A3B82"/><path d="M260.703 62.074l5.508-8.514c1.82-2.822 5.623-3.602 8.412-1.72l13.666 9.224s-3.964 7.091-13.597 1.469l-3.227 5.117c6.592 4.154 8.481 12.897 4.195 19.391l-14.957-24.967z" fill="#E57281"/><path d="M275.66 87.73a.685.685 0 00.576-.322c2.167-3.305 2.927-7.252 2.074-11.107a14.486 14.486 0 00-5.899-8.858l2.512-3.993c3.318 1.813 6.337 2.341 9.011 1.63 3.388-.918 4.909-3.58 4.978-3.672l.299-.55-13.459-9.363c-1.521-1.01-3.318-1.377-5.093-1.01a6.655 6.655 0 00-4.287 2.937l-5.508 8.514a.672.672 0 00.208.94.679.679 0 00.945-.206l5.508-8.514a5.181 5.181 0 013.411-2.317 5.221 5.221 0 014.033.803l12.376 8.605c-.553.712-1.798 1.997-3.78 2.525-2.443.665-5.301.046-8.504-1.813l-.576-.344-3.941 6.264.576.367a13.171 13.171 0 015.877 8.377c.76 3.488.092 7.067-1.89 10.05-.207.322-.115.735.207.965a.773.773 0 00.346.091z" fill="#9A3B82"/><path d="M268.262 93.857c6.061 3.97 12.307 6.793 17.008 7.894l5.232-7.343c-2.927-3.81-8.158-8.399-14.358-12.46-6.637-4.36-13.183-7.39-17.723-8.33-2.627-.528-4.586-.368-5.531.642l-.23.275c-.023.046-.047.069-.07.115-.023.023-.023.046-.046.092s-.046.069-.069.114c-1.567 3.512 5.324 12.117 15.787 19.001z" fill="#9A3B82"/><path d="M105.693 64.252v20.171c0 5.852 8.158 10.58 18.184 10.58 10.048 0 18.183-4.728 18.183-10.58V64.252h-36.367z" fill="#E57281"/><path d="M136.736 91.904c3.295-1.904 5.347-4.566 5.347-7.48V64.251h-36.391v5.6c0 5.805 3.549 11.014 8.942 13.194l22.102 8.858z" fill="#9A3B82"/><path d="M95.552 63.061v.345c0 3.488 2.834 6.31 6.338 6.31h4.171a13.023 13.023 0 0012.652 9.845h10.325c6.108 0 11.247-4.177 12.63-9.845h4.171c3.503 0 6.338-2.822 6.338-6.31v-.345c0-3.488-2.835-6.31-6.338-6.31h-3.779v-4.98c0-5.324-3.941-9.73-9.081-10.464-1.129 1.881-4.54 6.38-11.5 6.127-3.273-.115-6.315-.735-8.827-1.469-3.019-.872-6.038.964-6.799 3.832a10.99 10.99 0 00-.184 1.95v4.98h-3.779c-3.48 0-6.338 2.846-6.338 6.334z" fill="#E57281"/><path d="M102.788 56.728h2.904v-5.53c0-.483.069-.965.185-1.4.76-2.869 3.779-4.705 6.798-3.833 2.512.734 5.532 1.354 8.827 1.469 6.96.252 10.371-4.245 11.5-6.127 5.14.734 9.081 5.14 9.081 10.464v4.98h3.618s4.148-14.94 1.037-19.162c-3.065-4.153-6.752-2.34-6.752-2.34s2.212-12.438-10.141-12.209c-12.33.23-28.37 14.48-29.546 17.096-1.843 4.016 2.489 16.592 2.489 16.592zm1.499 8.077a.57.57 0 00.576-.574c0-2.754-2.259-5.002-5.024-5.002a.57.57 0 00-.576.573.57.57 0 00.576.574 3.857 3.857 0 013.871 3.855.57.57 0 00.577.574zm39.132 0a.57.57 0 00.577-.574 3.857 3.857 0 013.871-3.855.57.57 0 00.577-.574.57.57 0 00-.577-.574c-2.765 0-5.024 2.25-5.024 5.003a.57.57 0 00.576.574z" fill="#9A3B82"/><path d="M111.5 52.344c.115 0 .23-.046.345-.115.116-.092 3.089-2.18 6.891-.596.3.114.623-.024.761-.322a.591.591 0 00-.323-.757c-4.425-1.813-7.859.62-7.997.734a.558.558 0 00-.115.803.494.494 0 00.438.253zm24.982-.002a.603.603 0 00.461-.23.579.579 0 00-.115-.802c-.138-.115-3.595-2.547-7.997-.735a.583.583 0 00-.323.758.588.588 0 00.761.321c3.825-1.584 6.844.574 6.89.597a.758.758 0 00.323.091zm-14.058 19.323c.899 0 1.936-.183 3.111-.62a.57.57 0 00.346-.734.573.573 0 00-.738-.344c-4.839 1.79-6.43-1.377-6.499-1.514-.138-.276-.484-.414-.76-.276-.277.138-.415.482-.277.757.023.046 1.337 2.731 4.817 2.731zm1.636-4.314c.53 0 1.106 0 1.59-.046a.571.571 0 00.531-.62.573.573 0 00-.623-.527c-1.36.092-3.457 0-3.48 0-.322-.023-.576.23-.599.55-.023.322.23.574.553.597.046 0 .991.046 2.028.046zm-8.85-6.011c-.636 0-1.152-.863-1.152-1.928s.516-1.928 1.152-1.928c.637 0 1.153.863 1.153 1.928s-.516 1.928-1.153 1.928zm16.524 0c-.636 0-1.152-.863-1.152-1.928s.516-1.928 1.152-1.928c.637 0 1.153.863 1.153 1.928s-.516 1.928-1.153 1.928z" fill="#9A3B82"/><path d="M128.993 66.48h7.259c1.706 0 3.112-1.4 3.112-3.099v-7.228c0-1.698-1.406-3.098-3.112-3.098h-7.259c-1.706 0-3.112 1.4-3.112 3.098v7.228c-.023.803.3 1.584.876 2.157.599.62 1.383.941 2.236.941zm7.259-12.278c1.083 0 1.959.872 1.959 1.95v7.23c0 1.078-.876 1.95-1.959 1.95h-7.259a1.92 1.92 0 01-1.406-.597 1.885 1.885 0 01-.553-1.354v-7.228c0-1.079.875-1.95 1.959-1.95h7.259zM111.224 66.48h7.259c1.706 0 3.112-1.4 3.112-3.099v-7.228c0-1.698-1.406-3.098-3.112-3.098h-7.259c-1.706 0-3.111 1.4-3.111 3.098v7.228c0 1.698 1.405 3.098 3.111 3.098zm7.259-12.278c1.084 0 1.959.872 1.959 1.95v7.23c0 1.078-.875 1.95-1.959 1.95h-7.259a1.953 1.953 0 01-1.959-1.95v-7.23c0-1.078.876-1.95 1.959-1.95h7.259z" fill="#fff"/><path d="M121.018 57.828h5.416v1.147h-5.416v-1.147z" fill="#fff"/><path d="M134.501 159.352h-25.19c-2.673 0-4.84-2.157-4.84-4.819V141.2c0-2.662 2.167-4.819 4.84-4.819h25.19c2.673 0 4.84 2.157 4.84 4.819v13.333c0 2.662-2.167 4.819-4.84 4.819zm-25.19-21.594a3.445 3.445 0 00-3.457 3.442v13.333a3.445 3.445 0 003.457 3.442h25.19a3.445 3.445 0 003.457-3.442V141.2a3.445 3.445 0 00-3.457-3.442h-25.19z" fill="#66B0F0"/><path d="M122.54 153.292h-8.528a2.464 2.464 0 01-2.466-2.456v-5.943a2.464 2.464 0 012.466-2.455h8.528a2.463 2.463 0 012.465 2.455v5.943a2.464 2.464 0 01-2.465 2.456zm8.296-.158l-2.627-1.744a2.654 2.654 0 01-1.152-2.203v-2.616c0-.895.438-1.721 1.152-2.203l2.627-1.744c.623-.413 1.429.046 1.429.826v8.881a.92.92 0 01-1.429.803z" fill="#66B0F0"/></g><defs><clipPath id="clip0_2396_1626"><path fill="#fff" d="M0 0h308v234H0z"/></clipPath></defs></svg>